G04*
G04 #@! TF.GenerationSoftware,Altium Limited,Altium Designer,19.0.12 (326)*
G04*
G04 Layer_Physical_Order=2*
G04 Layer_Color=36540*
%FSLAX42Y42*%
%MOMM*%
G71*
G01*
G75*
%ADD123C,1.65*%
%ADD124C,1.80*%
%ADD125P,1.95X8X292.5*%
%ADD129P,1.95X8X22.5*%
%ADD130C,0.70*%
G36*
X11950Y7950D02*
X11950Y7310D01*
X8218Y7310D01*
Y7241D01*
X8218Y7241D01*
X8222Y5085D01*
X8222Y5034D01*
X8222Y5034D01*
X8235Y5034D01*
X8830Y5034D01*
Y5035D01*
X11941Y5041D01*
X11950Y5032D01*
X11950Y50D01*
X50Y50D01*
X50Y3103D01*
X60Y3111D01*
X71Y3109D01*
X124D01*
X125Y3107D01*
X122Y3089D01*
X115Y3085D01*
X103Y3067D01*
X99Y3046D01*
Y2977D01*
X103Y2956D01*
X115Y2938D01*
X133Y2926D01*
X154Y2921D01*
X276D01*
X297Y2926D01*
X315Y2938D01*
X327Y2956D01*
X331Y2977D01*
Y3046D01*
X327Y3067D01*
X315Y3085D01*
X297Y3097D01*
X276Y3101D01*
X255D01*
X253Y3114D01*
X274Y3127D01*
X288Y3148D01*
X292Y3173D01*
X288Y3197D01*
X274Y3218D01*
X253Y3231D01*
X229Y3236D01*
X71D01*
X60Y3234D01*
X50Y3242D01*
Y3578D01*
X60Y3586D01*
X71Y3584D01*
X229D01*
X253Y3589D01*
X274Y3602D01*
X288Y3623D01*
X292Y3648D01*
X288Y3672D01*
X274Y3693D01*
X253Y3706D01*
X255Y3719D01*
X276D01*
X297Y3723D01*
X315Y3735D01*
X327Y3753D01*
X331Y3774D01*
Y3843D01*
X327Y3864D01*
X315Y3882D01*
X297Y3894D01*
X276Y3899D01*
X154D01*
X133Y3894D01*
X115Y3882D01*
X103Y3864D01*
X99Y3843D01*
Y3774D01*
X103Y3753D01*
X115Y3735D01*
X122Y3731D01*
X125Y3713D01*
X124Y3711D01*
X71D01*
X60Y3709D01*
X50Y3717D01*
X50Y4293D01*
X60Y4301D01*
X71Y4299D01*
X124D01*
X125Y4297D01*
X122Y4279D01*
X115Y4275D01*
X103Y4257D01*
X99Y4236D01*
Y4167D01*
X103Y4146D01*
X115Y4128D01*
X133Y4116D01*
X154Y4111D01*
X276D01*
X297Y4116D01*
X315Y4128D01*
X327Y4146D01*
X331Y4167D01*
Y4236D01*
X327Y4257D01*
X315Y4275D01*
X297Y4287D01*
X276Y4291D01*
X255D01*
X253Y4304D01*
X274Y4317D01*
X288Y4338D01*
X292Y4363D01*
X288Y4387D01*
X274Y4408D01*
X253Y4421D01*
X229Y4426D01*
X71D01*
X60Y4424D01*
X50Y4432D01*
Y4768D01*
X60Y4776D01*
X71Y4774D01*
X229D01*
X253Y4779D01*
X274Y4792D01*
X288Y4813D01*
X292Y4838D01*
X288Y4862D01*
X274Y4883D01*
X253Y4896D01*
X255Y4909D01*
X276D01*
X297Y4913D01*
X315Y4925D01*
X327Y4943D01*
X331Y4964D01*
Y5033D01*
X327Y5054D01*
X315Y5072D01*
X297Y5084D01*
X276Y5089D01*
X154D01*
X133Y5084D01*
X115Y5072D01*
X103Y5054D01*
X99Y5033D01*
Y4964D01*
X103Y4943D01*
X115Y4925D01*
X122Y4921D01*
X125Y4903D01*
X124Y4901D01*
X71D01*
X60Y4899D01*
X50Y4907D01*
X50Y7950D01*
X11950Y7950D01*
D02*
G37*
G36*
X11950Y7239D02*
X11950Y5103D01*
X8830Y5103D01*
X8830Y7242D01*
X11941Y7248D01*
X11950Y7239D01*
D02*
G37*
%LPC*%
G36*
X10880Y7799D02*
Y7650D01*
X11029D01*
X11028Y7659D01*
X11018Y7692D01*
X11002Y7723D01*
X10980Y7750D01*
X10953Y7772D01*
X10922Y7788D01*
X10889Y7798D01*
X10880Y7799D01*
D02*
G37*
G36*
X10830D02*
X10821Y7798D01*
X10788Y7788D01*
X10757Y7772D01*
X10730Y7750D01*
X10708Y7723D01*
X10692Y7692D01*
X10682Y7659D01*
X10681Y7650D01*
X10830D01*
Y7799D01*
D02*
G37*
G36*
X1180D02*
Y7650D01*
X1329D01*
X1328Y7659D01*
X1318Y7692D01*
X1302Y7723D01*
X1280Y7750D01*
X1253Y7772D01*
X1222Y7788D01*
X1189Y7798D01*
X1180Y7799D01*
D02*
G37*
G36*
X1130D02*
X1121Y7798D01*
X1088Y7788D01*
X1057Y7772D01*
X1030Y7750D01*
X1008Y7723D01*
X992Y7692D01*
X982Y7659D01*
X981Y7650D01*
X1130D01*
Y7799D01*
D02*
G37*
G36*
X655Y7751D02*
X633Y7747D01*
X615Y7735D01*
X603Y7716D01*
X599Y7695D01*
X603Y7674D01*
X615Y7655D01*
X633Y7643D01*
X655Y7639D01*
X676Y7643D01*
X695Y7655D01*
X707Y7674D01*
X711Y7695D01*
X707Y7716D01*
X695Y7735D01*
X676Y7747D01*
X655Y7751D01*
D02*
G37*
G36*
X11029Y7600D02*
X10880D01*
Y7451D01*
X10889Y7452D01*
X10922Y7462D01*
X10953Y7478D01*
X10980Y7500D01*
X11002Y7527D01*
X11018Y7558D01*
X11028Y7591D01*
X11029Y7600D01*
D02*
G37*
G36*
X10830D02*
X10681D01*
X10682Y7591D01*
X10692Y7558D01*
X10708Y7527D01*
X10730Y7500D01*
X10757Y7478D01*
X10788Y7462D01*
X10821Y7452D01*
X10830Y7451D01*
Y7600D01*
D02*
G37*
G36*
X1329D02*
X1180D01*
Y7451D01*
X1189Y7452D01*
X1222Y7462D01*
X1253Y7478D01*
X1280Y7500D01*
X1302Y7527D01*
X1318Y7558D01*
X1328Y7591D01*
X1329Y7600D01*
D02*
G37*
G36*
X1130D02*
X981D01*
X982Y7591D01*
X992Y7558D01*
X1008Y7527D01*
X1030Y7500D01*
X1057Y7478D01*
X1088Y7462D01*
X1121Y7452D01*
X1130Y7451D01*
Y7600D01*
D02*
G37*
G36*
X7788Y7229D02*
X7767Y7224D01*
X7749Y7212D01*
X7737Y7194D01*
X7732Y7173D01*
X7737Y7151D01*
X7749Y7133D01*
X7767Y7121D01*
X7788Y7117D01*
X7810Y7121D01*
X7828Y7133D01*
X7840Y7151D01*
X7845Y7173D01*
X7840Y7194D01*
X7828Y7212D01*
X7810Y7224D01*
X7788Y7229D01*
D02*
G37*
G36*
X1415Y7211D02*
X1305D01*
X1250Y7156D01*
Y7046D01*
X1305Y6991D01*
X1415D01*
X1470Y7046D01*
Y7156D01*
X1415Y7211D01*
D02*
G37*
G36*
X3390Y7056D02*
X3369Y7052D01*
X3350Y7040D01*
X3338Y7021D01*
X3334Y7000D01*
X3338Y6979D01*
X3350Y6960D01*
X3369Y6948D01*
X3390Y6944D01*
X3411Y6948D01*
X3430Y6960D01*
X3442Y6979D01*
X3446Y7000D01*
X3442Y7021D01*
X3430Y7040D01*
X3411Y7052D01*
X3390Y7056D01*
D02*
G37*
G36*
X3260D02*
X3239Y7052D01*
X3220Y7040D01*
X3208Y7021D01*
X3204Y7000D01*
X3208Y6979D01*
X3220Y6960D01*
X3239Y6948D01*
X3260Y6944D01*
X3281Y6948D01*
X3300Y6960D01*
X3312Y6979D01*
X3316Y7000D01*
X3312Y7021D01*
X3300Y7040D01*
X3281Y7052D01*
X3260Y7056D01*
D02*
G37*
G36*
X2750Y6967D02*
X2729Y6962D01*
X2711Y6950D01*
X2699Y6932D01*
X2694Y6911D01*
X2699Y6889D01*
X2711Y6871D01*
X2729Y6859D01*
X2750Y6854D01*
X2772Y6859D01*
X2790Y6871D01*
X2802Y6889D01*
X2806Y6911D01*
X2802Y6932D01*
X2790Y6950D01*
X2772Y6962D01*
X2750Y6967D01*
D02*
G37*
G36*
X1930D02*
X1909Y6962D01*
X1891Y6950D01*
X1879Y6932D01*
X1874Y6911D01*
X1879Y6889D01*
X1891Y6871D01*
X1909Y6859D01*
X1930Y6854D01*
X1952Y6859D01*
X1970Y6871D01*
X1982Y6889D01*
X1986Y6911D01*
X1982Y6932D01*
X1970Y6950D01*
X1952Y6962D01*
X1930Y6967D01*
D02*
G37*
G36*
X7277Y6935D02*
X7256Y6930D01*
X7238Y6918D01*
X7226Y6900D01*
X7221Y6878D01*
X7226Y6857D01*
X7238Y6839D01*
X7256Y6827D01*
X7277Y6822D01*
X7299Y6827D01*
X7317Y6839D01*
X7329Y6857D01*
X7333Y6878D01*
X7329Y6900D01*
X7317Y6918D01*
X7299Y6930D01*
X7277Y6935D01*
D02*
G37*
G36*
X1360Y6958D02*
X1332Y6954D01*
X1305Y6943D01*
X1282Y6925D01*
X1264Y6902D01*
X1253Y6876D01*
X1249Y6847D01*
X1253Y6818D01*
X1264Y6792D01*
X1282Y6769D01*
X1305Y6751D01*
X1332Y6740D01*
X1360Y6736D01*
X1389Y6740D01*
X1416Y6751D01*
X1439Y6769D01*
X1456Y6792D01*
X1468Y6818D01*
X1471Y6847D01*
X1468Y6876D01*
X1456Y6902D01*
X1439Y6925D01*
X1416Y6943D01*
X1389Y6954D01*
X1360Y6958D01*
D02*
G37*
G36*
X7793Y6694D02*
X7771Y6689D01*
X7753Y6677D01*
X7741Y6659D01*
X7737Y6638D01*
X7741Y6616D01*
X7753Y6598D01*
X7771Y6586D01*
X7793Y6582D01*
X7814Y6586D01*
X7832Y6598D01*
X7845Y6616D01*
X7849Y6638D01*
X7845Y6659D01*
X7832Y6677D01*
X7814Y6689D01*
X7793Y6694D01*
D02*
G37*
G36*
X1360Y6704D02*
X1332Y6700D01*
X1305Y6689D01*
X1282Y6671D01*
X1264Y6648D01*
X1253Y6622D01*
X1249Y6593D01*
X1253Y6564D01*
X1264Y6538D01*
X1282Y6515D01*
X1305Y6497D01*
X1332Y6486D01*
X1360Y6482D01*
X1389Y6486D01*
X1416Y6497D01*
X1439Y6515D01*
X1456Y6538D01*
X1468Y6564D01*
X1471Y6593D01*
X1468Y6622D01*
X1456Y6648D01*
X1439Y6671D01*
X1416Y6689D01*
X1389Y6700D01*
X1360Y6704D01*
D02*
G37*
G36*
X3478Y6576D02*
X3457Y6572D01*
X3439Y6559D01*
X3426Y6541D01*
X3422Y6520D01*
X3426Y6498D01*
X3439Y6480D01*
X3457Y6468D01*
X3478Y6464D01*
X3500Y6468D01*
X3518Y6480D01*
X3530Y6498D01*
X3534Y6520D01*
X3530Y6541D01*
X3518Y6559D01*
X3500Y6572D01*
X3478Y6576D01*
D02*
G37*
G36*
X3610Y6566D02*
X3589Y6562D01*
X3570Y6550D01*
X3558Y6531D01*
X3554Y6510D01*
X3558Y6489D01*
X3570Y6470D01*
X3589Y6458D01*
X3610Y6454D01*
X3632Y6458D01*
X3650Y6470D01*
X3662Y6489D01*
X3666Y6510D01*
X3662Y6531D01*
X3650Y6550D01*
X3632Y6562D01*
X3610Y6566D01*
D02*
G37*
G36*
X1385Y6452D02*
Y6364D01*
X1473D01*
X1473Y6369D01*
X1461Y6397D01*
X1443Y6421D01*
X1419Y6440D01*
X1390Y6451D01*
X1385Y6452D01*
D02*
G37*
G36*
X1335Y6452D02*
X1330Y6451D01*
X1302Y6440D01*
X1278Y6421D01*
X1260Y6397D01*
X1248Y6369D01*
X1247Y6364D01*
X1335D01*
Y6452D01*
D02*
G37*
G36*
X7267Y6400D02*
X7245Y6395D01*
X7227Y6383D01*
X7215Y6365D01*
X7211Y6343D01*
X7215Y6322D01*
X7227Y6304D01*
X7245Y6292D01*
X7267Y6287D01*
X7288Y6292D01*
X7306Y6304D01*
X7318Y6322D01*
X7323Y6343D01*
X7318Y6365D01*
X7306Y6383D01*
X7288Y6395D01*
X7267Y6400D01*
D02*
G37*
G36*
X3443Y6355D02*
X3422Y6351D01*
X3404Y6339D01*
X3391Y6321D01*
X3387Y6299D01*
X3391Y6278D01*
X3404Y6259D01*
X3422Y6247D01*
X3443Y6243D01*
X3465Y6247D01*
X3483Y6259D01*
X3495Y6278D01*
X3499Y6299D01*
X3495Y6321D01*
X3483Y6339D01*
X3465Y6351D01*
X3443Y6355D01*
D02*
G37*
G36*
X1473Y6314D02*
X1385D01*
Y6226D01*
X1390Y6227D01*
X1419Y6238D01*
X1443Y6257D01*
X1461Y6281D01*
X1473Y6309D01*
X1473Y6314D01*
D02*
G37*
G36*
X1335D02*
X1247D01*
X1248Y6309D01*
X1260Y6281D01*
X1278Y6257D01*
X1302Y6238D01*
X1330Y6227D01*
X1335Y6226D01*
Y6314D01*
D02*
G37*
G36*
X7790Y6169D02*
X7769Y6164D01*
X7750Y6152D01*
X7738Y6134D01*
X7734Y6113D01*
X7738Y6091D01*
X7750Y6073D01*
X7769Y6061D01*
X7790Y6057D01*
X7812Y6061D01*
X7830Y6073D01*
X7842Y6091D01*
X7846Y6113D01*
X7842Y6134D01*
X7830Y6152D01*
X7812Y6164D01*
X7790Y6169D01*
D02*
G37*
G36*
X3847Y6097D02*
X3825Y6092D01*
X3807Y6080D01*
X3795Y6062D01*
X3791Y6041D01*
X3795Y6019D01*
X3807Y6001D01*
X3825Y5989D01*
X3847Y5984D01*
X3868Y5989D01*
X3886Y6001D01*
X3899Y6019D01*
X3903Y6041D01*
X3899Y6062D01*
X3886Y6080D01*
X3868Y6092D01*
X3847Y6097D01*
D02*
G37*
G36*
X3443Y6095D02*
X3422Y6090D01*
X3404Y6078D01*
X3391Y6060D01*
X3387Y6039D01*
X3391Y6017D01*
X3404Y5999D01*
X3422Y5987D01*
X3443Y5983D01*
X3465Y5987D01*
X3483Y5999D01*
X3495Y6017D01*
X3499Y6039D01*
X3495Y6060D01*
X3483Y6078D01*
X3465Y6090D01*
X3443Y6095D01*
D02*
G37*
G36*
X6711Y6065D02*
X6678D01*
Y5975D01*
X6768D01*
Y6008D01*
X6711Y6065D01*
D02*
G37*
G36*
X6628D02*
X6595D01*
X6538Y6008D01*
Y5975D01*
X6628D01*
Y6065D01*
D02*
G37*
G36*
X3974Y6076D02*
X3953Y6072D01*
X3934Y6060D01*
X3922Y6041D01*
X3918Y6020D01*
X3922Y5999D01*
X3934Y5980D01*
X3953Y5968D01*
X3974Y5964D01*
X3996Y5968D01*
X4014Y5980D01*
X4026Y5999D01*
X4030Y6020D01*
X4026Y6041D01*
X4014Y6060D01*
X3996Y6072D01*
X3974Y6076D01*
D02*
G37*
G36*
X657Y6016D02*
X636Y6012D01*
X618Y6000D01*
X606Y5981D01*
X601Y5960D01*
X606Y5939D01*
X618Y5920D01*
X636Y5908D01*
X657Y5904D01*
X679Y5908D01*
X697Y5920D01*
X709Y5939D01*
X714Y5960D01*
X709Y5981D01*
X697Y6000D01*
X679Y6012D01*
X657Y6016D01*
D02*
G37*
G36*
X6399Y6061D02*
X6370Y6057D01*
X6344Y6046D01*
X6321Y6028D01*
X6303Y6005D01*
X6292Y5979D01*
X6288Y5950D01*
X6292Y5921D01*
X6303Y5895D01*
X6321Y5872D01*
X6344Y5854D01*
X6370Y5843D01*
X6399Y5839D01*
X6428Y5843D01*
X6454Y5854D01*
X6477Y5872D01*
X6495Y5895D01*
X6506Y5921D01*
X6510Y5950D01*
X6506Y5979D01*
X6495Y6005D01*
X6477Y6028D01*
X6454Y6046D01*
X6428Y6057D01*
X6399Y6061D01*
D02*
G37*
G36*
X6145D02*
X6116Y6057D01*
X6090Y6046D01*
X6067Y6028D01*
X6049Y6005D01*
X6038Y5979D01*
X6034Y5950D01*
X6038Y5921D01*
X6049Y5895D01*
X6067Y5872D01*
X6090Y5854D01*
X6116Y5843D01*
X6145Y5839D01*
X6174Y5843D01*
X6200Y5854D01*
X6223Y5872D01*
X6241Y5895D01*
X6252Y5921D01*
X6256Y5950D01*
X6252Y5979D01*
X6241Y6005D01*
X6223Y6028D01*
X6200Y6046D01*
X6174Y6057D01*
X6145Y6061D01*
D02*
G37*
G36*
X5891D02*
X5862Y6057D01*
X5836Y6046D01*
X5813Y6028D01*
X5795Y6005D01*
X5784Y5979D01*
X5780Y5950D01*
X5784Y5921D01*
X5795Y5895D01*
X5813Y5872D01*
X5836Y5854D01*
X5862Y5843D01*
X5891Y5839D01*
X5920Y5843D01*
X5946Y5854D01*
X5969Y5872D01*
X5987Y5895D01*
X5998Y5921D01*
X6002Y5950D01*
X5998Y5979D01*
X5987Y6005D01*
X5969Y6028D01*
X5946Y6046D01*
X5920Y6057D01*
X5891Y6061D01*
D02*
G37*
G36*
X5637D02*
X5608Y6057D01*
X5582Y6046D01*
X5559Y6028D01*
X5541Y6005D01*
X5530Y5979D01*
X5526Y5950D01*
X5530Y5921D01*
X5541Y5895D01*
X5559Y5872D01*
X5582Y5854D01*
X5608Y5843D01*
X5637Y5839D01*
X5666Y5843D01*
X5692Y5854D01*
X5715Y5872D01*
X5733Y5895D01*
X5744Y5921D01*
X5748Y5950D01*
X5744Y5979D01*
X5733Y6005D01*
X5715Y6028D01*
X5692Y6046D01*
X5666Y6057D01*
X5637Y6061D01*
D02*
G37*
G36*
X5383D02*
X5354Y6057D01*
X5328Y6046D01*
X5305Y6028D01*
X5287Y6005D01*
X5276Y5979D01*
X5272Y5950D01*
X5276Y5921D01*
X5287Y5895D01*
X5305Y5872D01*
X5328Y5854D01*
X5354Y5843D01*
X5383Y5839D01*
X5412Y5843D01*
X5438Y5854D01*
X5461Y5872D01*
X5479Y5895D01*
X5490Y5921D01*
X5494Y5950D01*
X5490Y5979D01*
X5479Y6005D01*
X5461Y6028D01*
X5438Y6046D01*
X5412Y6057D01*
X5383Y6061D01*
D02*
G37*
G36*
X5129D02*
X5100Y6057D01*
X5074Y6046D01*
X5051Y6028D01*
X5033Y6005D01*
X5022Y5979D01*
X5018Y5950D01*
X5022Y5921D01*
X5033Y5895D01*
X5051Y5872D01*
X5074Y5854D01*
X5100Y5843D01*
X5129Y5839D01*
X5158Y5843D01*
X5184Y5854D01*
X5207Y5872D01*
X5225Y5895D01*
X5236Y5921D01*
X5240Y5950D01*
X5236Y5979D01*
X5225Y6005D01*
X5207Y6028D01*
X5184Y6046D01*
X5158Y6057D01*
X5129Y6061D01*
D02*
G37*
G36*
X4875D02*
X4846Y6057D01*
X4820Y6046D01*
X4797Y6028D01*
X4779Y6005D01*
X4768Y5979D01*
X4764Y5950D01*
X4768Y5921D01*
X4779Y5895D01*
X4797Y5872D01*
X4820Y5854D01*
X4846Y5843D01*
X4875Y5839D01*
X4904Y5843D01*
X4930Y5854D01*
X4953Y5872D01*
X4971Y5895D01*
X4982Y5921D01*
X4986Y5950D01*
X4982Y5979D01*
X4971Y6005D01*
X4953Y6028D01*
X4930Y6046D01*
X4904Y6057D01*
X4875Y6061D01*
D02*
G37*
G36*
X6768Y5925D02*
X6678D01*
Y5835D01*
X6711D01*
X6768Y5892D01*
Y5925D01*
D02*
G37*
G36*
X6628D02*
X6538D01*
Y5892D01*
X6595Y5835D01*
X6628D01*
Y5925D01*
D02*
G37*
G36*
X3430Y5936D02*
X3409Y5932D01*
X3390Y5920D01*
X3378Y5901D01*
X3374Y5880D01*
X3378Y5859D01*
X3390Y5840D01*
X3409Y5828D01*
X3430Y5824D01*
X3451Y5828D01*
X3470Y5840D01*
X3482Y5859D01*
X3486Y5880D01*
X3482Y5901D01*
X3470Y5920D01*
X3451Y5932D01*
X3430Y5936D01*
D02*
G37*
G36*
X2204Y5918D02*
X2182Y5914D01*
X2164Y5902D01*
X2152Y5884D01*
X2148Y5862D01*
X2152Y5841D01*
X2164Y5822D01*
X2182Y5810D01*
X2204Y5806D01*
X2225Y5810D01*
X2243Y5822D01*
X2256Y5841D01*
X2260Y5862D01*
X2256Y5884D01*
X2243Y5902D01*
X2225Y5914D01*
X2204Y5918D01*
D02*
G37*
G36*
X1173D02*
X1151Y5914D01*
X1133Y5902D01*
X1121Y5884D01*
X1117Y5862D01*
X1121Y5841D01*
X1133Y5822D01*
X1151Y5810D01*
X1173Y5806D01*
X1194Y5810D01*
X1212Y5822D01*
X1225Y5841D01*
X1229Y5862D01*
X1225Y5884D01*
X1212Y5902D01*
X1194Y5914D01*
X1173Y5918D01*
D02*
G37*
G36*
X7267Y5873D02*
X7246Y5869D01*
X7228Y5857D01*
X7216Y5838D01*
X7211Y5817D01*
X7216Y5795D01*
X7228Y5777D01*
X7246Y5765D01*
X7267Y5761D01*
X7289Y5765D01*
X7307Y5777D01*
X7319Y5795D01*
X7323Y5817D01*
X7319Y5838D01*
X7307Y5857D01*
X7289Y5869D01*
X7267Y5873D01*
D02*
G37*
G36*
X3170Y5783D02*
X3149Y5779D01*
X3130Y5767D01*
X3118Y5748D01*
X3114Y5727D01*
X3118Y5705D01*
X3130Y5687D01*
X3149Y5675D01*
X3170Y5671D01*
X3191Y5675D01*
X3210Y5687D01*
X3222Y5705D01*
X3226Y5727D01*
X3222Y5748D01*
X3210Y5767D01*
X3191Y5779D01*
X3170Y5783D01*
D02*
G37*
G36*
X4088Y5774D02*
X4066Y5769D01*
X4048Y5757D01*
X4036Y5739D01*
X4031Y5717D01*
X4036Y5696D01*
X4048Y5678D01*
X4066Y5666D01*
X4088Y5661D01*
X4109Y5666D01*
X4127Y5678D01*
X4139Y5696D01*
X4144Y5717D01*
X4139Y5739D01*
X4127Y5757D01*
X4109Y5769D01*
X4088Y5774D01*
D02*
G37*
G36*
X5760Y5696D02*
X5739Y5692D01*
X5720Y5680D01*
X5708Y5661D01*
X5704Y5640D01*
X5708Y5619D01*
X5720Y5600D01*
X5739Y5588D01*
X5760Y5584D01*
X5781Y5588D01*
X5800Y5600D01*
X5812Y5619D01*
X5816Y5640D01*
X5812Y5661D01*
X5800Y5680D01*
X5781Y5692D01*
X5760Y5696D01*
D02*
G37*
G36*
X7790Y5627D02*
X7769Y5622D01*
X7751Y5610D01*
X7739Y5592D01*
X7734Y5571D01*
X7739Y5549D01*
X7751Y5531D01*
X7769Y5519D01*
X7790Y5515D01*
X7812Y5519D01*
X7830Y5531D01*
X7842Y5549D01*
X7846Y5571D01*
X7842Y5592D01*
X7830Y5610D01*
X7812Y5622D01*
X7790Y5627D01*
D02*
G37*
G36*
X3170Y5619D02*
X3149Y5615D01*
X3130Y5603D01*
X3118Y5584D01*
X3114Y5563D01*
X3118Y5542D01*
X3130Y5523D01*
X3149Y5511D01*
X3170Y5507D01*
X3191Y5511D01*
X3210Y5523D01*
X3222Y5542D01*
X3226Y5563D01*
X3222Y5584D01*
X3210Y5603D01*
X3191Y5615D01*
X3170Y5619D01*
D02*
G37*
G36*
X655Y5363D02*
X633Y5358D01*
X615Y5346D01*
X603Y5328D01*
X599Y5306D01*
X603Y5285D01*
X615Y5267D01*
X633Y5255D01*
X655Y5250D01*
X676Y5255D01*
X695Y5267D01*
X707Y5285D01*
X711Y5306D01*
X707Y5328D01*
X695Y5346D01*
X676Y5358D01*
X655Y5363D01*
D02*
G37*
G36*
X7269Y5334D02*
X7248Y5330D01*
X7230Y5318D01*
X7217Y5299D01*
X7213Y5278D01*
X7217Y5257D01*
X7230Y5238D01*
X7248Y5226D01*
X7269Y5222D01*
X7291Y5226D01*
X7309Y5238D01*
X7321Y5257D01*
X7325Y5278D01*
X7321Y5299D01*
X7309Y5318D01*
X7291Y5330D01*
X7269Y5334D01*
D02*
G37*
G36*
X3974Y5316D02*
X3953Y5311D01*
X3934Y5299D01*
X3922Y5281D01*
X3918Y5260D01*
X3922Y5238D01*
X3934Y5220D01*
X3953Y5208D01*
X3974Y5204D01*
X3996Y5208D01*
X4014Y5220D01*
X4026Y5238D01*
X4030Y5260D01*
X4026Y5281D01*
X4014Y5299D01*
X3996Y5311D01*
X3974Y5316D01*
D02*
G37*
G36*
X4230Y5166D02*
X4209Y5162D01*
X4190Y5150D01*
X4178Y5131D01*
X4174Y5110D01*
X4178Y5089D01*
X4190Y5070D01*
X4209Y5058D01*
X4230Y5054D01*
X4251Y5058D01*
X4270Y5070D01*
X4282Y5089D01*
X4286Y5110D01*
X4282Y5131D01*
X4270Y5150D01*
X4251Y5162D01*
X4230Y5166D01*
D02*
G37*
G36*
X4473Y5149D02*
X4452Y5144D01*
X4434Y5132D01*
X4422Y5114D01*
X4417Y5093D01*
X4422Y5071D01*
X4434Y5053D01*
X4452Y5041D01*
X4473Y5037D01*
X4495Y5041D01*
X4513Y5053D01*
X4525Y5071D01*
X4529Y5093D01*
X4525Y5114D01*
X4513Y5132D01*
X4495Y5144D01*
X4473Y5149D01*
D02*
G37*
G36*
X3340Y5096D02*
X3319Y5092D01*
X3300Y5080D01*
X3288Y5061D01*
X3284Y5040D01*
X3288Y5019D01*
X3300Y5000D01*
X3319Y4988D01*
X3340Y4984D01*
X3361Y4988D01*
X3380Y5000D01*
X3392Y5019D01*
X3396Y5040D01*
X3392Y5061D01*
X3380Y5080D01*
X3361Y5092D01*
X3340Y5096D01*
D02*
G37*
G36*
X6280Y5061D02*
X6259Y5057D01*
X6240Y5045D01*
X6228Y5027D01*
X6224Y5005D01*
X6228Y4984D01*
X6240Y4965D01*
X6259Y4953D01*
X6280Y4949D01*
X6301Y4953D01*
X6320Y4965D01*
X6332Y4984D01*
X6336Y5005D01*
X6332Y5027D01*
X6320Y5045D01*
X6301Y5057D01*
X6280Y5061D01*
D02*
G37*
G36*
X4805Y5059D02*
X4784Y5054D01*
X4765Y5042D01*
X4753Y5024D01*
X4749Y5003D01*
X4753Y4981D01*
X4765Y4963D01*
X4784Y4951D01*
X4805Y4946D01*
X4826Y4951D01*
X4845Y4963D01*
X4857Y4981D01*
X4861Y5003D01*
X4857Y5024D01*
X4845Y5042D01*
X4826Y5054D01*
X4805Y5059D01*
D02*
G37*
G36*
X5705Y5036D02*
X5684Y5032D01*
X5665Y5020D01*
X5653Y5001D01*
X5649Y4980D01*
X5653Y4959D01*
X5665Y4940D01*
X5684Y4928D01*
X5705Y4924D01*
X5726Y4928D01*
X5745Y4940D01*
X5757Y4959D01*
X5761Y4980D01*
X5757Y5001D01*
X5745Y5020D01*
X5726Y5032D01*
X5705Y5036D01*
D02*
G37*
G36*
X5205Y4968D02*
X5184Y4963D01*
X5165Y4951D01*
X5153Y4933D01*
X5149Y4911D01*
X5153Y4890D01*
X5165Y4872D01*
X5184Y4860D01*
X5205Y4855D01*
X5226Y4860D01*
X5245Y4872D01*
X5257Y4890D01*
X5261Y4911D01*
X5257Y4933D01*
X5245Y4951D01*
X5226Y4963D01*
X5205Y4968D01*
D02*
G37*
G36*
X5055Y4966D02*
X5034Y4962D01*
X5015Y4950D01*
X5003Y4931D01*
X4999Y4910D01*
X5003Y4889D01*
X5015Y4870D01*
X5034Y4858D01*
X5055Y4854D01*
X5076Y4858D01*
X5095Y4870D01*
X5107Y4889D01*
X5111Y4910D01*
X5107Y4931D01*
X5095Y4950D01*
X5076Y4962D01*
X5055Y4966D01*
D02*
G37*
G36*
X4910Y4966D02*
X4889Y4962D01*
X4870Y4950D01*
X4858Y4931D01*
X4854Y4910D01*
X4858Y4889D01*
X4870Y4870D01*
X4889Y4858D01*
X4910Y4854D01*
X4931Y4858D01*
X4950Y4870D01*
X4962Y4889D01*
X4966Y4910D01*
X4962Y4931D01*
X4950Y4950D01*
X4931Y4962D01*
X4910Y4966D01*
D02*
G37*
G36*
X5555Y4951D02*
X5534Y4947D01*
X5515Y4935D01*
X5503Y4916D01*
X5499Y4895D01*
X5503Y4874D01*
X5515Y4855D01*
X5534Y4843D01*
X5555Y4839D01*
X5576Y4843D01*
X5595Y4855D01*
X5607Y4874D01*
X5611Y4895D01*
X5607Y4916D01*
X5595Y4935D01*
X5576Y4947D01*
X5555Y4951D01*
D02*
G37*
G36*
X10580Y4896D02*
Y4808D01*
X10668D01*
X10667Y4813D01*
X10656Y4841D01*
X10637Y4865D01*
X10613Y4884D01*
X10585Y4895D01*
X10580Y4896D01*
D02*
G37*
G36*
X10530D02*
X10525Y4895D01*
X10497Y4884D01*
X10473Y4865D01*
X10454Y4841D01*
X10443Y4813D01*
X10442Y4808D01*
X10530D01*
Y4896D01*
D02*
G37*
G36*
X525Y4896D02*
X505D01*
X486Y4893D01*
X468Y4886D01*
X453Y4874D01*
X442Y4859D01*
X434Y4841D01*
X432Y4822D01*
X434Y4804D01*
X442Y4786D01*
X453Y4771D01*
X468Y4759D01*
X486Y4752D01*
X505Y4749D01*
X525D01*
X544Y4752D01*
X562Y4759D01*
X577Y4771D01*
X588Y4786D01*
X596Y4804D01*
X598Y4822D01*
X596Y4841D01*
X588Y4859D01*
X577Y4874D01*
X562Y4886D01*
X544Y4893D01*
X525Y4896D01*
D02*
G37*
G36*
X2619Y4856D02*
X2597Y4852D01*
X2579Y4840D01*
X2567Y4821D01*
X2563Y4800D01*
X2567Y4779D01*
X2579Y4760D01*
X2597Y4748D01*
X2619Y4744D01*
X2640Y4748D01*
X2658Y4760D01*
X2671Y4779D01*
X2675Y4800D01*
X2671Y4821D01*
X2658Y4840D01*
X2640Y4852D01*
X2619Y4856D01*
D02*
G37*
G36*
X8760Y4789D02*
Y4709D01*
X8841D01*
X8840Y4712D01*
X8829Y4738D01*
X8812Y4761D01*
X8789Y4778D01*
X8763Y4789D01*
X8760Y4789D01*
D02*
G37*
G36*
X8710D02*
X8707Y4789D01*
X8681Y4778D01*
X8658Y4761D01*
X8641Y4738D01*
X8630Y4712D01*
X8629Y4709D01*
X8710D01*
Y4789D01*
D02*
G37*
G36*
X10668Y4758D02*
X10580D01*
Y4670D01*
X10585Y4671D01*
X10613Y4682D01*
X10637Y4701D01*
X10656Y4725D01*
X10667Y4753D01*
X10668Y4758D01*
D02*
G37*
G36*
X10530D02*
X10442D01*
X10443Y4753D01*
X10454Y4725D01*
X10473Y4701D01*
X10497Y4682D01*
X10525Y4671D01*
X10530Y4670D01*
Y4758D01*
D02*
G37*
G36*
X8088Y4746D02*
X8066Y4741D01*
X8048Y4729D01*
X8036Y4711D01*
X8032Y4689D01*
X8036Y4668D01*
X8048Y4650D01*
X8066Y4638D01*
X8088Y4633D01*
X8109Y4638D01*
X8127Y4650D01*
X8139Y4668D01*
X8144Y4689D01*
X8139Y4711D01*
X8127Y4729D01*
X8109Y4741D01*
X8088Y4746D01*
D02*
G37*
G36*
X7688Y4745D02*
X7666Y4740D01*
X7648Y4728D01*
X7636Y4710D01*
X7632Y4689D01*
X7636Y4667D01*
X7648Y4649D01*
X7666Y4637D01*
X7688Y4632D01*
X7709Y4637D01*
X7727Y4649D01*
X7740Y4667D01*
X7744Y4689D01*
X7740Y4710D01*
X7727Y4728D01*
X7709Y4740D01*
X7688Y4745D01*
D02*
G37*
G36*
X4534Y4736D02*
X4512Y4732D01*
X4494Y4720D01*
X4482Y4701D01*
X4478Y4680D01*
X4482Y4658D01*
X4494Y4640D01*
X4512Y4628D01*
X4534Y4624D01*
X4555Y4628D01*
X4574Y4640D01*
X4586Y4658D01*
X4590Y4680D01*
X4586Y4701D01*
X4574Y4720D01*
X4555Y4732D01*
X4534Y4736D01*
D02*
G37*
G36*
X5155Y4629D02*
X5134Y4624D01*
X5115Y4612D01*
X5111Y4606D01*
X5099D01*
X5095Y4612D01*
X5076Y4624D01*
X5055Y4629D01*
X5034Y4624D01*
X5015Y4612D01*
X5011Y4606D01*
X4999D01*
X4995Y4612D01*
X4976Y4624D01*
X4955Y4629D01*
X4934Y4624D01*
X4915Y4612D01*
X4903Y4594D01*
X4899Y4572D01*
X4903Y4551D01*
X4915Y4533D01*
X4934Y4521D01*
X4955Y4516D01*
X4976Y4521D01*
X4995Y4533D01*
X4999Y4539D01*
X5011D01*
X5015Y4533D01*
X5034Y4521D01*
X5055Y4516D01*
X5076Y4521D01*
X5095Y4533D01*
X5099Y4539D01*
X5111D01*
X5115Y4533D01*
X5134Y4521D01*
X5155Y4516D01*
X5176Y4521D01*
X5195Y4533D01*
X5207Y4551D01*
X5211Y4572D01*
X5207Y4594D01*
X5195Y4612D01*
X5176Y4624D01*
X5155Y4629D01*
D02*
G37*
G36*
X8388Y4786D02*
X8182D01*
Y4581D01*
X8388D01*
Y4786D01*
D02*
G37*
G36*
X8841Y4659D02*
X8760D01*
Y4578D01*
X8763Y4578D01*
X8789Y4589D01*
X8812Y4607D01*
X8829Y4629D01*
X8840Y4655D01*
X8841Y4659D01*
D02*
G37*
G36*
X8710D02*
X8629D01*
X8630Y4655D01*
X8641Y4629D01*
X8658Y4607D01*
X8681Y4589D01*
X8707Y4578D01*
X8710Y4578D01*
Y4659D01*
D02*
G37*
G36*
X3961Y4682D02*
X3939Y4678D01*
X3921Y4666D01*
X3909Y4648D01*
X3905Y4626D01*
X3909Y4605D01*
X3921Y4586D01*
X3939Y4574D01*
X3961Y4570D01*
X3982Y4574D01*
X4001Y4586D01*
X4013Y4605D01*
X4017Y4626D01*
X4013Y4648D01*
X4001Y4666D01*
X3982Y4678D01*
X3961Y4682D01*
D02*
G37*
G36*
X5580Y4656D02*
X5559Y4652D01*
X5540Y4640D01*
X5528Y4621D01*
X5524Y4600D01*
X5526Y4588D01*
X5520Y4576D01*
X5517Y4575D01*
X5499Y4572D01*
X5480Y4560D01*
X5477Y4555D01*
X5464D01*
X5461Y4560D01*
X5443Y4572D01*
X5421Y4576D01*
X5417Y4575D01*
X5408Y4584D01*
X5410Y4594D01*
X5406Y4615D01*
X5394Y4634D01*
X5376Y4646D01*
X5354Y4650D01*
X5333Y4646D01*
X5314Y4634D01*
X5302Y4615D01*
X5298Y4594D01*
X5302Y4572D01*
X5314Y4554D01*
X5333Y4542D01*
X5354Y4538D01*
X5358Y4539D01*
X5367Y4530D01*
X5365Y4520D01*
X5370Y4499D01*
X5382Y4480D01*
X5400Y4468D01*
X5421Y4464D01*
X5443Y4468D01*
X5461Y4480D01*
X5464Y4485D01*
X5477D01*
X5480Y4480D01*
X5499Y4468D01*
X5520Y4464D01*
X5541Y4468D01*
X5560Y4480D01*
X5572Y4499D01*
X5576Y4520D01*
X5574Y4532D01*
X5580Y4544D01*
X5583Y4545D01*
X5601Y4548D01*
X5620Y4560D01*
X5632Y4579D01*
X5636Y4600D01*
X5632Y4621D01*
X5620Y4640D01*
X5601Y4652D01*
X5580Y4656D01*
D02*
G37*
G36*
X5705Y4656D02*
X5684Y4652D01*
X5665Y4640D01*
X5653Y4621D01*
X5649Y4600D01*
X5653Y4579D01*
X5665Y4560D01*
X5684Y4548D01*
X5705Y4544D01*
X5726Y4548D01*
X5745Y4560D01*
X5757Y4579D01*
X5761Y4600D01*
X5757Y4621D01*
X5745Y4640D01*
X5726Y4652D01*
X5705Y4656D01*
D02*
G37*
G36*
X215Y4656D02*
X194Y4652D01*
X175Y4640D01*
X163Y4621D01*
X159Y4600D01*
X163Y4579D01*
X175Y4560D01*
X194Y4548D01*
X215Y4544D01*
X236Y4548D01*
X255Y4560D01*
X267Y4579D01*
X271Y4600D01*
X267Y4621D01*
X255Y4640D01*
X236Y4652D01*
X215Y4656D01*
D02*
G37*
G36*
X10555Y4640D02*
X10526Y4636D01*
X10500Y4625D01*
X10477Y4607D01*
X10459Y4584D01*
X10448Y4558D01*
X10444Y4529D01*
X10448Y4500D01*
X10459Y4474D01*
X10477Y4451D01*
X10500Y4433D01*
X10526Y4422D01*
X10555Y4418D01*
X10584Y4422D01*
X10610Y4433D01*
X10633Y4451D01*
X10651Y4474D01*
X10662Y4500D01*
X10666Y4529D01*
X10662Y4558D01*
X10651Y4584D01*
X10633Y4607D01*
X10610Y4625D01*
X10584Y4636D01*
X10555Y4640D01*
D02*
G37*
G36*
X525Y4451D02*
X505D01*
X486Y4448D01*
X468Y4441D01*
X453Y4429D01*
X442Y4414D01*
X434Y4396D01*
X432Y4377D01*
X434Y4359D01*
X442Y4341D01*
X453Y4326D01*
X468Y4314D01*
X486Y4307D01*
X505Y4304D01*
X525D01*
X544Y4307D01*
X562Y4314D01*
X577Y4326D01*
X588Y4341D01*
X596Y4359D01*
X598Y4377D01*
X596Y4396D01*
X588Y4414D01*
X577Y4429D01*
X562Y4441D01*
X544Y4448D01*
X525Y4451D01*
D02*
G37*
G36*
X9985Y4382D02*
X9963Y4378D01*
X9945Y4366D01*
X9933Y4347D01*
X9929Y4326D01*
X9933Y4304D01*
X9945Y4286D01*
X9963Y4274D01*
X9985Y4270D01*
X10006Y4274D01*
X10025Y4286D01*
X10037Y4304D01*
X10041Y4326D01*
X10037Y4347D01*
X10025Y4366D01*
X10006Y4378D01*
X9985Y4382D01*
D02*
G37*
G36*
X9115Y4293D02*
X9093Y4289D01*
X9075Y4277D01*
X9063Y4259D01*
X9059Y4237D01*
X9063Y4216D01*
X9075Y4198D01*
X9093Y4186D01*
X9115Y4181D01*
X9136Y4186D01*
X9154Y4198D01*
X9167Y4216D01*
X9171Y4237D01*
X9167Y4259D01*
X9154Y4277D01*
X9136Y4289D01*
X9115Y4293D01*
D02*
G37*
G36*
X10610Y4385D02*
X10500D01*
X10445Y4330D01*
Y4220D01*
X10500Y4165D01*
X10610D01*
X10665Y4220D01*
Y4330D01*
X10610Y4385D01*
D02*
G37*
G36*
X3658Y4250D02*
X3636Y4246D01*
X3618Y4234D01*
X3606Y4215D01*
X3602Y4194D01*
X3606Y4172D01*
X3618Y4154D01*
X3636Y4142D01*
X3658Y4138D01*
X3679Y4142D01*
X3697Y4154D01*
X3710Y4172D01*
X3714Y4194D01*
X3710Y4215D01*
X3697Y4234D01*
X3679Y4246D01*
X3658Y4250D01*
D02*
G37*
G36*
X6028Y4234D02*
X6007Y4229D01*
X5988Y4217D01*
X5976Y4199D01*
X5972Y4177D01*
X5976Y4156D01*
X5988Y4138D01*
X6007Y4126D01*
X6028Y4121D01*
X6050Y4126D01*
X6068Y4138D01*
X6080Y4156D01*
X6084Y4177D01*
X6080Y4199D01*
X6068Y4217D01*
X6050Y4229D01*
X6028Y4234D01*
D02*
G37*
G36*
X1775D02*
X1754Y4229D01*
X1736Y4217D01*
X1724Y4199D01*
X1719Y4177D01*
X1724Y4156D01*
X1736Y4138D01*
X1754Y4126D01*
X1775Y4121D01*
X1797Y4126D01*
X1815Y4138D01*
X1827Y4156D01*
X1832Y4177D01*
X1827Y4199D01*
X1815Y4217D01*
X1797Y4229D01*
X1775Y4234D01*
D02*
G37*
G36*
X3000Y4142D02*
X2979Y4137D01*
X2960Y4125D01*
X2948Y4107D01*
X2944Y4086D01*
X2948Y4064D01*
X2960Y4046D01*
X2979Y4034D01*
X3000Y4030D01*
X3021Y4034D01*
X3040Y4046D01*
X3052Y4064D01*
X3056Y4086D01*
X3052Y4107D01*
X3040Y4125D01*
X3021Y4137D01*
X3000Y4142D01*
D02*
G37*
G36*
X10580Y4107D02*
Y4019D01*
X10668D01*
X10667Y4024D01*
X10656Y4052D01*
X10637Y4076D01*
X10613Y4095D01*
X10585Y4106D01*
X10580Y4107D01*
D02*
G37*
G36*
X10530D02*
X10525Y4106D01*
X10497Y4095D01*
X10473Y4076D01*
X10454Y4052D01*
X10443Y4024D01*
X10442Y4019D01*
X10530D01*
Y4107D01*
D02*
G37*
G36*
X4130Y4059D02*
X4109Y4054D01*
X4090Y4042D01*
X4078Y4024D01*
X4074Y4003D01*
X4078Y3981D01*
X4090Y3963D01*
X4109Y3951D01*
X4130Y3947D01*
X4151Y3951D01*
X4170Y3963D01*
X4182Y3981D01*
X4186Y4003D01*
X4182Y4024D01*
X4170Y4042D01*
X4151Y4054D01*
X4130Y4059D01*
D02*
G37*
G36*
X7880Y4036D02*
X7859Y4032D01*
X7840Y4020D01*
X7828Y4001D01*
X7824Y3980D01*
X7828Y3959D01*
X7840Y3940D01*
X7859Y3928D01*
X7880Y3924D01*
X7901Y3928D01*
X7920Y3940D01*
X7932Y3959D01*
X7936Y3980D01*
X7932Y4001D01*
X7920Y4020D01*
X7901Y4032D01*
X7880Y4036D01*
D02*
G37*
G36*
X10668Y3969D02*
X10580D01*
Y3881D01*
X10585Y3882D01*
X10613Y3893D01*
X10637Y3912D01*
X10656Y3936D01*
X10667Y3964D01*
X10668Y3969D01*
D02*
G37*
G36*
X10530D02*
X10442D01*
X10443Y3964D01*
X10454Y3936D01*
X10473Y3912D01*
X10497Y3893D01*
X10525Y3882D01*
X10530Y3881D01*
Y3969D01*
D02*
G37*
G36*
X4297Y3978D02*
X4276Y3974D01*
X4258Y3961D01*
X4246Y3943D01*
X4241Y3922D01*
X4246Y3900D01*
X4258Y3882D01*
X4276Y3870D01*
X4297Y3866D01*
X4319Y3870D01*
X4337Y3882D01*
X4349Y3900D01*
X4354Y3922D01*
X4349Y3943D01*
X4337Y3961D01*
X4319Y3974D01*
X4297Y3978D01*
D02*
G37*
G36*
X5000Y3956D02*
X4979Y3952D01*
X4960Y3940D01*
X4948Y3921D01*
X4944Y3900D01*
X4948Y3879D01*
X4960Y3860D01*
X4979Y3848D01*
X5000Y3844D01*
X5021Y3848D01*
X5040Y3860D01*
X5052Y3879D01*
X5056Y3900D01*
X5052Y3921D01*
X5040Y3940D01*
X5021Y3952D01*
X5000Y3956D01*
D02*
G37*
G36*
X8760Y3889D02*
Y3809D01*
X8841D01*
X8840Y3812D01*
X8829Y3838D01*
X8812Y3861D01*
X8789Y3878D01*
X8763Y3889D01*
X8760Y3889D01*
D02*
G37*
G36*
X8710D02*
X8707Y3889D01*
X8681Y3878D01*
X8658Y3861D01*
X8641Y3838D01*
X8630Y3812D01*
X8629Y3809D01*
X8710D01*
Y3889D01*
D02*
G37*
G36*
X4880Y3906D02*
X4859Y3902D01*
X4840Y3890D01*
X4828Y3871D01*
X4824Y3850D01*
X4828Y3829D01*
X4840Y3810D01*
X4859Y3798D01*
X4880Y3794D01*
X4901Y3798D01*
X4920Y3810D01*
X4932Y3829D01*
X4936Y3850D01*
X4932Y3871D01*
X4920Y3890D01*
X4901Y3902D01*
X4880Y3906D01*
D02*
G37*
G36*
X4297Y3849D02*
X4276Y3844D01*
X4258Y3832D01*
X4246Y3814D01*
X4241Y3792D01*
X4246Y3771D01*
X4258Y3753D01*
X4276Y3741D01*
X4297Y3736D01*
X4319Y3741D01*
X4337Y3753D01*
X4349Y3771D01*
X4354Y3792D01*
X4349Y3814D01*
X4337Y3832D01*
X4319Y3844D01*
X4297Y3849D01*
D02*
G37*
G36*
X8285Y3887D02*
X8258Y3883D01*
X8233Y3873D01*
X8212Y3857D01*
X8195Y3835D01*
X8185Y3810D01*
X8182Y3784D01*
X8185Y3757D01*
X8195Y3732D01*
X8212Y3710D01*
X8233Y3694D01*
X8258Y3684D01*
X8285Y3680D01*
X8312Y3684D01*
X8337Y3694D01*
X8358Y3710D01*
X8375Y3732D01*
X8385Y3757D01*
X8388Y3784D01*
X8385Y3810D01*
X8375Y3835D01*
X8358Y3857D01*
X8337Y3873D01*
X8312Y3883D01*
X8285Y3887D01*
D02*
G37*
G36*
X8841Y3759D02*
X8760D01*
Y3678D01*
X8763Y3678D01*
X8789Y3689D01*
X8812Y3707D01*
X8829Y3729D01*
X8840Y3755D01*
X8841Y3759D01*
D02*
G37*
G36*
X8710D02*
X8629D01*
X8630Y3755D01*
X8641Y3729D01*
X8658Y3707D01*
X8681Y3689D01*
X8707Y3678D01*
X8710Y3678D01*
Y3759D01*
D02*
G37*
G36*
X6568Y3753D02*
X6546Y3749D01*
X6528Y3737D01*
X6516Y3719D01*
X6511Y3697D01*
X6516Y3676D01*
X6528Y3657D01*
X6546Y3645D01*
X6568Y3641D01*
X6589Y3645D01*
X6607Y3657D01*
X6619Y3676D01*
X6624Y3697D01*
X6619Y3719D01*
X6607Y3737D01*
X6589Y3749D01*
X6568Y3753D01*
D02*
G37*
G36*
X10555Y3851D02*
X10526Y3847D01*
X10500Y3836D01*
X10477Y3818D01*
X10459Y3795D01*
X10448Y3769D01*
X10444Y3740D01*
X10448Y3711D01*
X10459Y3685D01*
X10477Y3662D01*
X10500Y3644D01*
X10526Y3633D01*
X10555Y3629D01*
X10584Y3633D01*
X10610Y3644D01*
X10633Y3662D01*
X10651Y3685D01*
X10662Y3711D01*
X10666Y3740D01*
X10662Y3769D01*
X10651Y3795D01*
X10633Y3818D01*
X10610Y3836D01*
X10584Y3847D01*
X10555Y3851D01*
D02*
G37*
G36*
X6028Y3706D02*
X6007Y3702D01*
X5988Y3690D01*
X5976Y3671D01*
X5972Y3650D01*
X5976Y3629D01*
X5988Y3610D01*
X6007Y3598D01*
X6028Y3594D01*
X6050Y3598D01*
X6068Y3610D01*
X6080Y3629D01*
X6084Y3650D01*
X6080Y3671D01*
X6068Y3690D01*
X6050Y3702D01*
X6028Y3706D01*
D02*
G37*
G36*
X525Y3706D02*
X505D01*
X486Y3703D01*
X468Y3696D01*
X453Y3684D01*
X442Y3669D01*
X434Y3651D01*
X432Y3632D01*
X434Y3614D01*
X442Y3596D01*
X453Y3581D01*
X468Y3569D01*
X486Y3562D01*
X505Y3559D01*
X525D01*
X544Y3562D01*
X562Y3569D01*
X577Y3581D01*
X588Y3596D01*
X596Y3614D01*
X598Y3632D01*
X596Y3651D01*
X588Y3669D01*
X577Y3684D01*
X562Y3696D01*
X544Y3703D01*
X525Y3706D01*
D02*
G37*
G36*
X9985Y3592D02*
X9963Y3588D01*
X9945Y3576D01*
X9933Y3558D01*
X9929Y3536D01*
X9933Y3515D01*
X9945Y3496D01*
X9963Y3484D01*
X9985Y3480D01*
X10006Y3484D01*
X10025Y3496D01*
X10037Y3515D01*
X10041Y3536D01*
X10037Y3558D01*
X10025Y3576D01*
X10006Y3588D01*
X9985Y3592D01*
D02*
G37*
G36*
X3630Y3586D02*
X3609Y3582D01*
X3590Y3570D01*
X3578Y3551D01*
X3574Y3530D01*
X3578Y3509D01*
X3590Y3490D01*
X3609Y3478D01*
X3630Y3474D01*
X3651Y3478D01*
X3670Y3490D01*
X3682Y3509D01*
X3686Y3530D01*
X3682Y3551D01*
X3670Y3570D01*
X3651Y3582D01*
X3630Y3586D01*
D02*
G37*
G36*
X2225Y3541D02*
X2204Y3537D01*
X2186Y3525D01*
X2173Y3506D01*
X2169Y3485D01*
X2173Y3464D01*
X2186Y3445D01*
X2204Y3433D01*
X2225Y3429D01*
X2247Y3433D01*
X2265Y3445D01*
X2277Y3464D01*
X2281Y3485D01*
X2277Y3506D01*
X2265Y3525D01*
X2247Y3537D01*
X2225Y3541D01*
D02*
G37*
G36*
X4297Y3539D02*
X4276Y3534D01*
X4258Y3522D01*
X4246Y3504D01*
X4241Y3483D01*
X4246Y3461D01*
X4258Y3443D01*
X4276Y3431D01*
X4297Y3426D01*
X4319Y3431D01*
X4337Y3443D01*
X4349Y3461D01*
X4354Y3483D01*
X4349Y3504D01*
X4337Y3522D01*
X4319Y3534D01*
X4297Y3539D01*
D02*
G37*
G36*
X9115Y3504D02*
X9093Y3499D01*
X9075Y3487D01*
X9063Y3469D01*
X9059Y3447D01*
X9063Y3426D01*
X9075Y3408D01*
X9093Y3396D01*
X9115Y3391D01*
X9136Y3396D01*
X9154Y3408D01*
X9167Y3426D01*
X9171Y3447D01*
X9167Y3469D01*
X9154Y3487D01*
X9136Y3499D01*
X9115Y3504D01*
D02*
G37*
G36*
X10610Y3596D02*
X10500D01*
X10445Y3541D01*
Y3431D01*
X10500Y3376D01*
X10610D01*
X10665Y3431D01*
Y3541D01*
X10610Y3596D01*
D02*
G37*
G36*
X215Y3466D02*
X194Y3462D01*
X175Y3450D01*
X163Y3431D01*
X159Y3410D01*
X163Y3389D01*
X175Y3370D01*
X194Y3358D01*
X215Y3354D01*
X236Y3358D01*
X255Y3370D01*
X267Y3389D01*
X271Y3410D01*
X267Y3431D01*
X255Y3450D01*
X236Y3462D01*
X215Y3466D01*
D02*
G37*
G36*
X2231Y3385D02*
X2210Y3381D01*
X2191Y3369D01*
X2179Y3350D01*
X2175Y3329D01*
X2179Y3308D01*
X2191Y3289D01*
X2210Y3277D01*
X2231Y3273D01*
X2252Y3277D01*
X2271Y3289D01*
X2283Y3308D01*
X2287Y3329D01*
X2283Y3350D01*
X2271Y3369D01*
X2252Y3381D01*
X2231Y3385D01*
D02*
G37*
G36*
X4430Y3294D02*
X4409Y3290D01*
X4390Y3278D01*
X4378Y3260D01*
X4374Y3238D01*
X4378Y3217D01*
X4390Y3199D01*
X4409Y3187D01*
X4430Y3182D01*
X4451Y3187D01*
X4470Y3199D01*
X4482Y3217D01*
X4486Y3238D01*
X4482Y3260D01*
X4470Y3278D01*
X4451Y3290D01*
X4430Y3294D01*
D02*
G37*
G36*
X2100Y3256D02*
X2079Y3252D01*
X2060Y3240D01*
X2048Y3221D01*
X2044Y3200D01*
X2048Y3179D01*
X2060Y3160D01*
X2079Y3148D01*
X2100Y3144D01*
X2121Y3148D01*
X2140Y3160D01*
X2152Y3179D01*
X2156Y3200D01*
X2152Y3221D01*
X2140Y3240D01*
X2121Y3252D01*
X2100Y3256D01*
D02*
G37*
G36*
X525Y3261D02*
X505D01*
X486Y3258D01*
X468Y3251D01*
X453Y3239D01*
X442Y3224D01*
X434Y3206D01*
X432Y3187D01*
X434Y3169D01*
X442Y3151D01*
X453Y3136D01*
X468Y3124D01*
X486Y3117D01*
X505Y3114D01*
X525D01*
X544Y3117D01*
X562Y3124D01*
X577Y3136D01*
X588Y3151D01*
X596Y3169D01*
X598Y3187D01*
X596Y3206D01*
X588Y3224D01*
X577Y3239D01*
X562Y3251D01*
X544Y3258D01*
X525Y3261D01*
D02*
G37*
G36*
X10555Y3321D02*
X10526Y3317D01*
X10500Y3306D01*
X10477Y3288D01*
X10459Y3265D01*
X10448Y3239D01*
X10444Y3210D01*
X10448Y3181D01*
X10459Y3155D01*
X10477Y3132D01*
X10500Y3114D01*
X10526Y3103D01*
X10555Y3099D01*
X10584Y3103D01*
X10610Y3114D01*
X10633Y3132D01*
X10651Y3155D01*
X10662Y3181D01*
X10666Y3210D01*
X10662Y3239D01*
X10651Y3265D01*
X10633Y3288D01*
X10610Y3306D01*
X10584Y3317D01*
X10555Y3321D01*
D02*
G37*
G36*
X4620Y3046D02*
X4599Y3042D01*
X4580Y3030D01*
X4568Y3011D01*
X4564Y2990D01*
X4568Y2969D01*
X4580Y2950D01*
X4599Y2938D01*
X4620Y2934D01*
X4641Y2938D01*
X4660Y2950D01*
X4672Y2969D01*
X4676Y2990D01*
X4672Y3011D01*
X4660Y3030D01*
X4641Y3042D01*
X4620Y3046D01*
D02*
G37*
G36*
X2419Y3026D02*
X2397Y3022D01*
X2379Y3010D01*
X2367Y2991D01*
X2363Y2970D01*
X2367Y2949D01*
X2379Y2930D01*
X2397Y2918D01*
X2419Y2914D01*
X2440Y2918D01*
X2458Y2930D01*
X2471Y2949D01*
X2475Y2970D01*
X2471Y2991D01*
X2458Y3010D01*
X2440Y3022D01*
X2419Y3026D01*
D02*
G37*
G36*
X1180Y3021D02*
X1159Y3017D01*
X1140Y3005D01*
X1128Y2986D01*
X1124Y2965D01*
X1128Y2944D01*
X1140Y2925D01*
X1159Y2913D01*
X1180Y2909D01*
X1201Y2913D01*
X1220Y2925D01*
X1232Y2944D01*
X1236Y2965D01*
X1232Y2986D01*
X1220Y3005D01*
X1201Y3017D01*
X1180Y3021D01*
D02*
G37*
G36*
X9990Y3010D02*
X9969Y3006D01*
X9950Y2994D01*
X9938Y2975D01*
X9934Y2954D01*
X9938Y2933D01*
X9950Y2914D01*
X9969Y2902D01*
X9990Y2898D01*
X10011Y2902D01*
X10030Y2914D01*
X10042Y2933D01*
X10046Y2954D01*
X10042Y2975D01*
X10030Y2994D01*
X10011Y3006D01*
X9990Y3010D01*
D02*
G37*
G36*
X4338Y2986D02*
X4317Y2982D01*
X4299Y2970D01*
X4287Y2951D01*
X4282Y2930D01*
X4287Y2909D01*
X4299Y2890D01*
X4317Y2878D01*
X4338Y2874D01*
X4360Y2878D01*
X4378Y2890D01*
X4390Y2909D01*
X4394Y2930D01*
X4390Y2951D01*
X4378Y2970D01*
X4360Y2982D01*
X4338Y2986D01*
D02*
G37*
G36*
X6178Y2971D02*
X6157Y2967D01*
X6139Y2955D01*
X6127Y2936D01*
X6122Y2915D01*
X6127Y2894D01*
X6139Y2875D01*
X6157Y2863D01*
X6178Y2859D01*
X6200Y2863D01*
X6218Y2875D01*
X6230Y2894D01*
X6235Y2915D01*
X6230Y2936D01*
X6218Y2955D01*
X6200Y2967D01*
X6178Y2971D01*
D02*
G37*
G36*
X10555Y3067D02*
X10526Y3063D01*
X10500Y3052D01*
X10477Y3034D01*
X10459Y3011D01*
X10448Y2985D01*
X10444Y2956D01*
X10448Y2927D01*
X10459Y2901D01*
X10477Y2878D01*
X10500Y2860D01*
X10526Y2849D01*
X10555Y2845D01*
X10584Y2849D01*
X10610Y2860D01*
X10633Y2878D01*
X10651Y2901D01*
X10662Y2927D01*
X10666Y2956D01*
X10662Y2985D01*
X10651Y3011D01*
X10633Y3034D01*
X10610Y3052D01*
X10584Y3063D01*
X10555Y3067D01*
D02*
G37*
G36*
X4905Y2906D02*
X4884Y2902D01*
X4865Y2890D01*
X4853Y2871D01*
X4849Y2850D01*
X4853Y2829D01*
X4865Y2810D01*
X4884Y2798D01*
X4905Y2794D01*
X4926Y2798D01*
X4945Y2810D01*
X4957Y2829D01*
X4961Y2850D01*
X4957Y2871D01*
X4945Y2890D01*
X4926Y2902D01*
X4905Y2906D01*
D02*
G37*
G36*
X4770Y2904D02*
X4749Y2900D01*
X4730Y2888D01*
X4718Y2870D01*
X4714Y2848D01*
X4718Y2827D01*
X4730Y2809D01*
X4749Y2797D01*
X4770Y2792D01*
X4791Y2797D01*
X4810Y2809D01*
X4822Y2827D01*
X4826Y2848D01*
X4822Y2870D01*
X4810Y2888D01*
X4791Y2900D01*
X4770Y2904D01*
D02*
G37*
G36*
X4640D02*
X4619Y2900D01*
X4600Y2888D01*
X4588Y2870D01*
X4584Y2848D01*
X4588Y2827D01*
X4600Y2809D01*
X4619Y2797D01*
X4640Y2792D01*
X4661Y2797D01*
X4680Y2809D01*
X4692Y2827D01*
X4696Y2848D01*
X4692Y2870D01*
X4680Y2888D01*
X4661Y2900D01*
X4640Y2904D01*
D02*
G37*
G36*
X3097Y2803D02*
X3076Y2799D01*
X3057Y2787D01*
X3045Y2769D01*
X3041Y2747D01*
X3045Y2726D01*
X3057Y2707D01*
X3076Y2695D01*
X3097Y2691D01*
X3119Y2695D01*
X3137Y2707D01*
X3149Y2726D01*
X3153Y2747D01*
X3149Y2769D01*
X3137Y2787D01*
X3119Y2799D01*
X3097Y2803D01*
D02*
G37*
G36*
X4322Y2716D02*
X4300Y2712D01*
X4282Y2700D01*
X4270Y2682D01*
X4266Y2660D01*
X4270Y2639D01*
X4282Y2620D01*
X4300Y2608D01*
X4322Y2604D01*
X4343Y2608D01*
X4362Y2620D01*
X4374Y2639D01*
X4378Y2660D01*
X4374Y2682D01*
X4362Y2700D01*
X4343Y2712D01*
X4322Y2716D01*
D02*
G37*
G36*
X10555Y2813D02*
X10526Y2809D01*
X10500Y2798D01*
X10477Y2780D01*
X10459Y2757D01*
X10448Y2731D01*
X10444Y2702D01*
X10448Y2673D01*
X10459Y2647D01*
X10477Y2624D01*
X10500Y2606D01*
X10526Y2595D01*
X10555Y2591D01*
X10584Y2595D01*
X10610Y2606D01*
X10633Y2624D01*
X10651Y2647D01*
X10662Y2673D01*
X10666Y2702D01*
X10662Y2731D01*
X10651Y2757D01*
X10633Y2780D01*
X10610Y2798D01*
X10584Y2809D01*
X10555Y2813D01*
D02*
G37*
G36*
X5480Y2676D02*
X5459Y2672D01*
X5440Y2660D01*
X5428Y2641D01*
X5424Y2620D01*
X5428Y2599D01*
X5440Y2580D01*
X5459Y2568D01*
X5480Y2564D01*
X5501Y2568D01*
X5520Y2580D01*
X5532Y2599D01*
X5536Y2620D01*
X5532Y2641D01*
X5520Y2660D01*
X5501Y2672D01*
X5480Y2676D01*
D02*
G37*
G36*
X7538Y2658D02*
X7517Y2654D01*
X7499Y2642D01*
X7486Y2623D01*
X7482Y2602D01*
X7486Y2581D01*
X7499Y2562D01*
X7517Y2550D01*
X7538Y2546D01*
X7560Y2550D01*
X7578Y2562D01*
X7590Y2581D01*
X7594Y2602D01*
X7590Y2623D01*
X7578Y2642D01*
X7560Y2654D01*
X7538Y2658D01*
D02*
G37*
G36*
X2340Y2556D02*
X2319Y2552D01*
X2304Y2542D01*
X2295Y2540D01*
X2286Y2542D01*
X2271Y2552D01*
X2250Y2556D01*
X2229Y2552D01*
X2210Y2540D01*
X2198Y2521D01*
X2194Y2500D01*
X2198Y2479D01*
X2210Y2460D01*
X2229Y2448D01*
X2250Y2444D01*
X2271Y2448D01*
X2290Y2460D01*
X2300D01*
X2319Y2448D01*
X2340Y2444D01*
X2361Y2448D01*
X2380Y2460D01*
X2392Y2479D01*
X2396Y2500D01*
X2392Y2521D01*
X2380Y2540D01*
X2361Y2552D01*
X2340Y2556D01*
D02*
G37*
G36*
X3376Y2626D02*
X3354Y2622D01*
X3336Y2610D01*
X3324Y2592D01*
X3320Y2570D01*
X3324Y2549D01*
X3336Y2530D01*
X3354Y2518D01*
X3376Y2514D01*
X3397Y2518D01*
X3416Y2530D01*
X3428Y2549D01*
X3432Y2570D01*
X3428Y2592D01*
X3416Y2610D01*
X3397Y2622D01*
X3376Y2626D01*
D02*
G37*
G36*
X4590Y2626D02*
X4569Y2622D01*
X4550Y2610D01*
X4538Y2592D01*
X4534Y2570D01*
X4538Y2549D01*
X4550Y2530D01*
X4569Y2518D01*
X4590Y2514D01*
X4611Y2518D01*
X4630Y2530D01*
X4642Y2549D01*
X4646Y2570D01*
X4642Y2592D01*
X4630Y2610D01*
X4611Y2622D01*
X4590Y2626D01*
D02*
G37*
G36*
X4180D02*
X4159Y2622D01*
X4140Y2610D01*
X4128Y2592D01*
X4124Y2570D01*
X4128Y2549D01*
X4140Y2530D01*
X4159Y2518D01*
X4180Y2514D01*
X4201Y2518D01*
X4220Y2530D01*
X4232Y2549D01*
X4236Y2570D01*
X4232Y2592D01*
X4220Y2610D01*
X4201Y2622D01*
X4180Y2626D01*
D02*
G37*
G36*
X3980D02*
X3959Y2622D01*
X3940Y2610D01*
X3928Y2592D01*
X3924Y2570D01*
X3928Y2549D01*
X3940Y2530D01*
X3959Y2518D01*
X3980Y2514D01*
X4001Y2518D01*
X4020Y2530D01*
X4032Y2549D01*
X4036Y2570D01*
X4032Y2592D01*
X4020Y2610D01*
X4001Y2622D01*
X3980Y2626D01*
D02*
G37*
G36*
X3780D02*
X3759Y2622D01*
X3740Y2610D01*
X3728Y2592D01*
X3724Y2570D01*
X3728Y2549D01*
X3740Y2530D01*
X3759Y2518D01*
X3780Y2514D01*
X3801Y2518D01*
X3820Y2530D01*
X3832Y2549D01*
X3836Y2570D01*
X3832Y2592D01*
X3820Y2610D01*
X3801Y2622D01*
X3780Y2626D01*
D02*
G37*
G36*
X3576Y2626D02*
X3554Y2622D01*
X3536Y2610D01*
X3524Y2591D01*
X3520Y2570D01*
X3524Y2549D01*
X3536Y2530D01*
X3554Y2518D01*
X3576Y2514D01*
X3597Y2518D01*
X3616Y2530D01*
X3628Y2549D01*
X3632Y2570D01*
X3628Y2591D01*
X3616Y2610D01*
X3597Y2622D01*
X3576Y2626D01*
D02*
G37*
G36*
X3172Y2626D02*
X3150Y2622D01*
X3132Y2610D01*
X3120Y2591D01*
X3116Y2570D01*
X3120Y2549D01*
X3132Y2530D01*
X3150Y2518D01*
X3172Y2514D01*
X3193Y2518D01*
X3211Y2530D01*
X3223Y2549D01*
X3228Y2570D01*
X3223Y2591D01*
X3211Y2610D01*
X3193Y2622D01*
X3172Y2626D01*
D02*
G37*
G36*
X4905Y2616D02*
X4884Y2612D01*
X4865Y2600D01*
X4853Y2581D01*
X4849Y2560D01*
X4853Y2539D01*
X4865Y2520D01*
X4884Y2508D01*
X4905Y2504D01*
X4926Y2508D01*
X4945Y2520D01*
X4957Y2539D01*
X4961Y2560D01*
X4957Y2581D01*
X4945Y2600D01*
X4926Y2612D01*
X4905Y2616D01*
D02*
G37*
G36*
X5500Y2546D02*
X5479Y2542D01*
X5460Y2530D01*
X5448Y2511D01*
X5444Y2490D01*
X5448Y2469D01*
X5460Y2450D01*
X5479Y2438D01*
X5500Y2434D01*
X5521Y2438D01*
X5540Y2450D01*
X5552Y2469D01*
X5556Y2490D01*
X5552Y2511D01*
X5540Y2530D01*
X5521Y2542D01*
X5500Y2546D01*
D02*
G37*
G36*
X2780Y2486D02*
X2759Y2482D01*
X2740Y2470D01*
X2728Y2451D01*
X2724Y2430D01*
X2728Y2409D01*
X2740Y2390D01*
X2759Y2378D01*
X2780Y2374D01*
X2801Y2378D01*
X2820Y2390D01*
X2832Y2409D01*
X2836Y2430D01*
X2832Y2451D01*
X2820Y2470D01*
X2801Y2482D01*
X2780Y2486D01*
D02*
G37*
G36*
X10555Y2559D02*
X10526Y2555D01*
X10500Y2544D01*
X10477Y2526D01*
X10459Y2503D01*
X10448Y2477D01*
X10444Y2448D01*
X10448Y2419D01*
X10459Y2393D01*
X10477Y2370D01*
X10500Y2352D01*
X10526Y2341D01*
X10555Y2337D01*
X10584Y2341D01*
X10610Y2352D01*
X10633Y2370D01*
X10651Y2393D01*
X10662Y2419D01*
X10666Y2448D01*
X10662Y2477D01*
X10651Y2503D01*
X10633Y2526D01*
X10610Y2544D01*
X10584Y2555D01*
X10555Y2559D01*
D02*
G37*
G36*
X3781Y2240D02*
X3759Y2236D01*
X3741Y2224D01*
X3729Y2206D01*
X3725Y2184D01*
X3729Y2163D01*
X3741Y2145D01*
X3759Y2132D01*
X3781Y2128D01*
X3802Y2132D01*
X3821Y2145D01*
X3833Y2163D01*
X3837Y2184D01*
X3833Y2206D01*
X3821Y2224D01*
X3802Y2236D01*
X3781Y2240D01*
D02*
G37*
G36*
X3576Y2240D02*
X3554Y2236D01*
X3536Y2224D01*
X3524Y2206D01*
X3520Y2184D01*
X3524Y2163D01*
X3536Y2145D01*
X3554Y2132D01*
X3576Y2128D01*
X3597Y2132D01*
X3616Y2145D01*
X3628Y2163D01*
X3632Y2184D01*
X3628Y2206D01*
X3616Y2224D01*
X3597Y2236D01*
X3576Y2240D01*
D02*
G37*
G36*
X4590Y2236D02*
X4569Y2232D01*
X4550Y2220D01*
X4538Y2201D01*
X4534Y2180D01*
X4538Y2159D01*
X4550Y2140D01*
X4569Y2128D01*
X4590Y2124D01*
X4611Y2128D01*
X4630Y2140D01*
X4642Y2159D01*
X4646Y2180D01*
X4642Y2201D01*
X4630Y2220D01*
X4611Y2232D01*
X4590Y2236D01*
D02*
G37*
G36*
X10555Y2305D02*
X10526Y2301D01*
X10500Y2290D01*
X10477Y2272D01*
X10459Y2249D01*
X10448Y2223D01*
X10444Y2194D01*
X10448Y2165D01*
X10459Y2139D01*
X10477Y2116D01*
X10500Y2098D01*
X10526Y2087D01*
X10555Y2083D01*
X10584Y2087D01*
X10610Y2098D01*
X10633Y2116D01*
X10651Y2139D01*
X10662Y2165D01*
X10666Y2194D01*
X10662Y2223D01*
X10651Y2249D01*
X10633Y2272D01*
X10610Y2290D01*
X10584Y2301D01*
X10555Y2305D01*
D02*
G37*
G36*
X10613Y2055D02*
X10580D01*
Y1965D01*
X10670D01*
Y1998D01*
X10613Y2055D01*
D02*
G37*
G36*
X10530D02*
X10497D01*
X10440Y1998D01*
Y1965D01*
X10530D01*
Y2055D01*
D02*
G37*
G36*
X3940Y2026D02*
X3919Y2022D01*
X3900Y2010D01*
X3888Y1991D01*
X3884Y1970D01*
X3888Y1949D01*
X3900Y1930D01*
X3919Y1918D01*
X3940Y1914D01*
X3961Y1918D01*
X3980Y1930D01*
X3992Y1949D01*
X3996Y1970D01*
X3992Y1991D01*
X3980Y2010D01*
X3961Y2022D01*
X3940Y2026D01*
D02*
G37*
G36*
X5154Y1953D02*
Y1865D01*
X5242D01*
X5241Y1870D01*
X5230Y1898D01*
X5211Y1922D01*
X5187Y1941D01*
X5159Y1952D01*
X5154Y1953D01*
D02*
G37*
G36*
X5104Y1953D02*
X5099Y1952D01*
X5071Y1941D01*
X5047Y1922D01*
X5028Y1898D01*
X5017Y1870D01*
X5016Y1865D01*
X5104D01*
Y1953D01*
D02*
G37*
G36*
X10670Y1915D02*
X10580D01*
Y1825D01*
X10613D01*
X10670Y1882D01*
Y1915D01*
D02*
G37*
G36*
X10530D02*
X10440D01*
Y1882D01*
X10497Y1825D01*
X10530D01*
Y1915D01*
D02*
G37*
G36*
X8550Y1900D02*
X8529Y1895D01*
X8510Y1883D01*
X8498Y1865D01*
X8494Y1843D01*
X8498Y1822D01*
X8510Y1804D01*
X8529Y1792D01*
X8550Y1787D01*
X8571Y1792D01*
X8590Y1804D01*
X8602Y1822D01*
X8606Y1843D01*
X8602Y1865D01*
X8590Y1883D01*
X8571Y1895D01*
X8550Y1900D01*
D02*
G37*
G36*
X7890D02*
X7869Y1895D01*
X7850Y1883D01*
X7838Y1865D01*
X7834Y1843D01*
X7838Y1822D01*
X7850Y1804D01*
X7869Y1792D01*
X7890Y1787D01*
X7911Y1792D01*
X7930Y1804D01*
X7942Y1822D01*
X7946Y1843D01*
X7942Y1865D01*
X7930Y1883D01*
X7911Y1895D01*
X7890Y1900D01*
D02*
G37*
G36*
X7200D02*
X7179Y1895D01*
X7160Y1883D01*
X7148Y1865D01*
X7144Y1843D01*
X7148Y1822D01*
X7160Y1804D01*
X7179Y1792D01*
X7200Y1787D01*
X7221Y1792D01*
X7240Y1804D01*
X7252Y1822D01*
X7256Y1843D01*
X7252Y1865D01*
X7240Y1883D01*
X7221Y1895D01*
X7200Y1900D01*
D02*
G37*
G36*
X6550Y1899D02*
X6529Y1894D01*
X6510Y1882D01*
X6498Y1864D01*
X6494Y1843D01*
X6498Y1821D01*
X6510Y1803D01*
X6529Y1791D01*
X6550Y1786D01*
X6571Y1791D01*
X6590Y1803D01*
X6602Y1821D01*
X6606Y1843D01*
X6602Y1864D01*
X6590Y1882D01*
X6571Y1894D01*
X6550Y1899D01*
D02*
G37*
G36*
X4820Y1894D02*
X4799Y1890D01*
X4780Y1878D01*
X4768Y1860D01*
X4764Y1838D01*
X4768Y1817D01*
X4780Y1799D01*
X4799Y1786D01*
X4820Y1782D01*
X4841Y1786D01*
X4860Y1799D01*
X4872Y1817D01*
X4876Y1838D01*
X4872Y1860D01*
X4860Y1878D01*
X4841Y1890D01*
X4820Y1894D01*
D02*
G37*
G36*
X10224Y1981D02*
X10195Y1977D01*
X10169Y1966D01*
X10146Y1948D01*
X10128Y1925D01*
X10117Y1899D01*
X10113Y1870D01*
X10117Y1841D01*
X10128Y1815D01*
X10146Y1792D01*
X10169Y1774D01*
X10195Y1763D01*
X10224Y1759D01*
X10253Y1763D01*
X10279Y1774D01*
X10302Y1792D01*
X10320Y1815D01*
X10331Y1841D01*
X10335Y1870D01*
X10331Y1899D01*
X10320Y1925D01*
X10302Y1948D01*
X10279Y1966D01*
X10253Y1977D01*
X10224Y1981D01*
D02*
G37*
G36*
X9970D02*
X9941Y1977D01*
X9915Y1966D01*
X9892Y1948D01*
X9874Y1925D01*
X9863Y1899D01*
X9859Y1870D01*
X9863Y1841D01*
X9874Y1815D01*
X9892Y1792D01*
X9915Y1774D01*
X9941Y1763D01*
X9970Y1759D01*
X9999Y1763D01*
X10025Y1774D01*
X10048Y1792D01*
X10066Y1815D01*
X10077Y1841D01*
X10081Y1870D01*
X10077Y1899D01*
X10066Y1925D01*
X10048Y1948D01*
X10025Y1966D01*
X9999Y1977D01*
X9970Y1981D01*
D02*
G37*
G36*
X9716D02*
X9687Y1977D01*
X9661Y1966D01*
X9638Y1948D01*
X9620Y1925D01*
X9609Y1899D01*
X9605Y1870D01*
X9609Y1841D01*
X9620Y1815D01*
X9638Y1792D01*
X9661Y1774D01*
X9687Y1763D01*
X9716Y1759D01*
X9745Y1763D01*
X9771Y1774D01*
X9794Y1792D01*
X9812Y1815D01*
X9823Y1841D01*
X9827Y1870D01*
X9823Y1899D01*
X9812Y1925D01*
X9794Y1948D01*
X9771Y1966D01*
X9745Y1977D01*
X9716Y1981D01*
D02*
G37*
G36*
X5891Y1951D02*
X5862Y1947D01*
X5836Y1936D01*
X5813Y1918D01*
X5795Y1895D01*
X5784Y1869D01*
X5780Y1840D01*
X5784Y1811D01*
X5795Y1785D01*
X5813Y1762D01*
X5836Y1744D01*
X5862Y1733D01*
X5891Y1729D01*
X5920Y1733D01*
X5946Y1744D01*
X5969Y1762D01*
X5987Y1785D01*
X5998Y1811D01*
X6002Y1840D01*
X5998Y1869D01*
X5987Y1895D01*
X5969Y1918D01*
X5946Y1936D01*
X5920Y1947D01*
X5891Y1951D01*
D02*
G37*
G36*
X5637D02*
X5608Y1947D01*
X5582Y1936D01*
X5559Y1918D01*
X5541Y1895D01*
X5530Y1869D01*
X5526Y1840D01*
X5530Y1811D01*
X5541Y1785D01*
X5559Y1762D01*
X5582Y1744D01*
X5608Y1733D01*
X5637Y1729D01*
X5666Y1733D01*
X5692Y1744D01*
X5715Y1762D01*
X5733Y1785D01*
X5744Y1811D01*
X5748Y1840D01*
X5744Y1869D01*
X5733Y1895D01*
X5715Y1918D01*
X5692Y1936D01*
X5666Y1947D01*
X5637Y1951D01*
D02*
G37*
G36*
X5383D02*
X5354Y1947D01*
X5328Y1936D01*
X5305Y1918D01*
X5287Y1895D01*
X5276Y1869D01*
X5272Y1840D01*
X5276Y1811D01*
X5287Y1785D01*
X5305Y1762D01*
X5328Y1744D01*
X5354Y1733D01*
X5383Y1729D01*
X5412Y1733D01*
X5438Y1744D01*
X5461Y1762D01*
X5479Y1785D01*
X5490Y1811D01*
X5494Y1840D01*
X5490Y1869D01*
X5479Y1895D01*
X5461Y1918D01*
X5438Y1936D01*
X5412Y1947D01*
X5383Y1951D01*
D02*
G37*
G36*
X5104Y1815D02*
X5016D01*
X5017Y1810D01*
X5028Y1782D01*
X5047Y1758D01*
X5071Y1739D01*
X5099Y1728D01*
X5104Y1727D01*
Y1815D01*
D02*
G37*
G36*
X5242D02*
X5154D01*
Y1727D01*
X5159Y1728D01*
X5187Y1739D01*
X5211Y1758D01*
X5230Y1782D01*
X5241Y1810D01*
X5242Y1815D01*
D02*
G37*
G36*
X2067Y1831D02*
X1467D01*
X1449Y1828D01*
X1432Y1821D01*
X1418Y1810D01*
X1406Y1795D01*
X1399Y1778D01*
X1397Y1760D01*
X1399Y1742D01*
X1406Y1725D01*
X1418Y1710D01*
X1432Y1699D01*
X1449Y1692D01*
X1467Y1689D01*
X2067D01*
X2086Y1692D01*
X2103Y1699D01*
X2117Y1710D01*
X2129Y1725D01*
X2136Y1742D01*
X2138Y1760D01*
X2136Y1778D01*
X2129Y1795D01*
X2117Y1810D01*
X2103Y1821D01*
X2086Y1828D01*
X2067Y1831D01*
D02*
G37*
G36*
X10580Y1774D02*
Y1686D01*
X10668D01*
X10667Y1691D01*
X10656Y1719D01*
X10637Y1743D01*
X10613Y1762D01*
X10585Y1773D01*
X10580Y1774D01*
D02*
G37*
G36*
X10530Y1774D02*
X10525Y1773D01*
X10497Y1762D01*
X10473Y1743D01*
X10454Y1719D01*
X10443Y1691D01*
X10442Y1686D01*
X10530D01*
Y1774D01*
D02*
G37*
G36*
X4066Y1646D02*
X4044Y1642D01*
X4026Y1630D01*
X4018Y1618D01*
X4003D01*
X3996Y1630D01*
X3977Y1642D01*
X3956Y1646D01*
X3934Y1642D01*
X3916Y1630D01*
X3904Y1611D01*
X3900Y1590D01*
X3904Y1569D01*
X3916Y1550D01*
X3934Y1538D01*
X3956Y1534D01*
X3977Y1538D01*
X3996Y1550D01*
X4003Y1562D01*
X4018D01*
X4026Y1550D01*
X4044Y1538D01*
X4066Y1534D01*
X4087Y1538D01*
X4106Y1550D01*
X4118Y1569D01*
X4122Y1590D01*
X4118Y1611D01*
X4106Y1630D01*
X4087Y1642D01*
X4066Y1646D01*
D02*
G37*
G36*
X10530Y1636D02*
X10442D01*
X10443Y1631D01*
X10454Y1603D01*
X10473Y1579D01*
X10497Y1560D01*
X10525Y1549D01*
X10530Y1548D01*
Y1636D01*
D02*
G37*
G36*
X10668D02*
X10580D01*
Y1548D01*
X10585Y1549D01*
X10613Y1560D01*
X10637Y1579D01*
X10656Y1603D01*
X10667Y1631D01*
X10668Y1636D01*
D02*
G37*
G36*
X4590Y1636D02*
X4569Y1632D01*
X4550Y1620D01*
X4538Y1601D01*
X4534Y1580D01*
X4538Y1559D01*
X4550Y1540D01*
X4569Y1528D01*
X4590Y1524D01*
X4611Y1528D01*
X4630Y1540D01*
X4642Y1559D01*
X4646Y1580D01*
X4642Y1601D01*
X4630Y1620D01*
X4611Y1632D01*
X4590Y1636D01*
D02*
G37*
G36*
X2350Y1841D02*
X2332Y1838D01*
X2315Y1831D01*
X2300Y1820D01*
X2289Y1805D01*
X2282Y1788D01*
X2279Y1770D01*
Y1570D01*
X2282Y1552D01*
X2289Y1535D01*
X2300Y1520D01*
X2315Y1509D01*
X2332Y1502D01*
X2350Y1499D01*
X2368Y1502D01*
X2385Y1509D01*
X2400Y1520D01*
X2411Y1535D01*
X2418Y1552D01*
X2421Y1570D01*
Y1770D01*
X2418Y1788D01*
X2411Y1805D01*
X2400Y1820D01*
X2385Y1831D01*
X2368Y1838D01*
X2350Y1841D01*
D02*
G37*
G36*
X7279Y1584D02*
Y1496D01*
X7367D01*
X7367Y1501D01*
X7355Y1529D01*
X7336Y1553D01*
X7312Y1571D01*
X7284Y1583D01*
X7279Y1584D01*
D02*
G37*
G36*
X8629Y1584D02*
Y1496D01*
X8717D01*
X8717Y1501D01*
X8705Y1529D01*
X8686Y1553D01*
X8662Y1571D01*
X8634Y1583D01*
X8629Y1584D01*
D02*
G37*
G36*
X5187Y1586D02*
X5154D01*
Y1496D01*
X5244D01*
Y1528D01*
X5187Y1586D01*
D02*
G37*
G36*
X8579Y1584D02*
X8574Y1583D01*
X8546Y1571D01*
X8522Y1553D01*
X8503Y1529D01*
X8492Y1501D01*
X8491Y1496D01*
X8579D01*
Y1584D01*
D02*
G37*
G36*
X7229D02*
X7224Y1583D01*
X7196Y1571D01*
X7172Y1553D01*
X7153Y1529D01*
X7142Y1501D01*
X7141Y1496D01*
X7229D01*
Y1584D01*
D02*
G37*
G36*
X5104Y1586D02*
X5071D01*
X5014Y1528D01*
Y1496D01*
X5104D01*
Y1586D01*
D02*
G37*
G36*
X3049Y1599D02*
X3028Y1595D01*
X3010Y1583D01*
X2997Y1565D01*
X2993Y1543D01*
X2997Y1522D01*
X3010Y1503D01*
X3028Y1491D01*
X3049Y1487D01*
X3071Y1491D01*
X3089Y1503D01*
X3101Y1522D01*
X3105Y1543D01*
X3101Y1565D01*
X3089Y1583D01*
X3071Y1595D01*
X3049Y1599D01*
D02*
G37*
G36*
X685Y1699D02*
X656Y1695D01*
X629Y1684D01*
X606Y1666D01*
X589Y1643D01*
X578Y1616D01*
X574Y1588D01*
X578Y1559D01*
X589Y1532D01*
X606Y1509D01*
X629Y1492D01*
X656Y1480D01*
X685Y1477D01*
X714Y1480D01*
X740Y1492D01*
X763Y1509D01*
X781Y1532D01*
X792Y1559D01*
X796Y1588D01*
X792Y1616D01*
X781Y1643D01*
X763Y1666D01*
X740Y1684D01*
X714Y1695D01*
X685Y1699D01*
D02*
G37*
G36*
X1514Y1499D02*
X1493Y1495D01*
X1474Y1483D01*
X1462Y1465D01*
X1458Y1443D01*
X1462Y1422D01*
X1474Y1403D01*
X1493Y1391D01*
X1514Y1387D01*
X1536Y1391D01*
X1554Y1403D01*
X1566Y1422D01*
X1570Y1443D01*
X1566Y1465D01*
X1554Y1483D01*
X1536Y1495D01*
X1514Y1499D01*
D02*
G37*
G36*
X7897Y1581D02*
X7787D01*
X7732Y1526D01*
Y1416D01*
X7787Y1361D01*
X7897D01*
X7952Y1416D01*
Y1526D01*
X7897Y1581D01*
D02*
G37*
G36*
X6547D02*
X6437D01*
X6382Y1526D01*
Y1416D01*
X6437Y1361D01*
X6547D01*
X6602Y1416D01*
Y1526D01*
X6547Y1581D01*
D02*
G37*
G36*
X8350Y1582D02*
X8321Y1578D01*
X8295Y1567D01*
X8272Y1549D01*
X8254Y1526D01*
X8243Y1499D01*
X8239Y1471D01*
X8243Y1442D01*
X8254Y1415D01*
X8272Y1392D01*
X8295Y1374D01*
X8321Y1363D01*
X8350Y1360D01*
X8379Y1363D01*
X8406Y1374D01*
X8429Y1392D01*
X8446Y1415D01*
X8457Y1442D01*
X8461Y1471D01*
X8457Y1499D01*
X8446Y1526D01*
X8429Y1549D01*
X8406Y1567D01*
X8379Y1578D01*
X8350Y1582D01*
D02*
G37*
G36*
X8096D02*
X8067Y1578D01*
X8041Y1567D01*
X8018Y1549D01*
X8000Y1526D01*
X7989Y1499D01*
X7985Y1471D01*
X7989Y1442D01*
X8000Y1415D01*
X8018Y1392D01*
X8041Y1374D01*
X8067Y1363D01*
X8096Y1360D01*
X8125Y1363D01*
X8152Y1374D01*
X8175Y1392D01*
X8192Y1415D01*
X8203Y1442D01*
X8207Y1471D01*
X8203Y1499D01*
X8192Y1526D01*
X8175Y1549D01*
X8152Y1567D01*
X8125Y1578D01*
X8096Y1582D01*
D02*
G37*
G36*
X7000D02*
X6971Y1578D01*
X6945Y1567D01*
X6922Y1549D01*
X6904Y1526D01*
X6893Y1499D01*
X6889Y1471D01*
X6893Y1442D01*
X6904Y1415D01*
X6922Y1392D01*
X6945Y1374D01*
X6971Y1363D01*
X7000Y1360D01*
X7029Y1363D01*
X7056Y1374D01*
X7079Y1392D01*
X7096Y1415D01*
X7107Y1442D01*
X7111Y1471D01*
X7107Y1499D01*
X7096Y1526D01*
X7079Y1549D01*
X7056Y1567D01*
X7029Y1578D01*
X7000Y1582D01*
D02*
G37*
G36*
X6746D02*
X6717Y1578D01*
X6691Y1567D01*
X6668Y1549D01*
X6650Y1526D01*
X6639Y1499D01*
X6635Y1471D01*
X6639Y1442D01*
X6650Y1415D01*
X6668Y1392D01*
X6691Y1374D01*
X6717Y1363D01*
X6746Y1360D01*
X6775Y1363D01*
X6802Y1374D01*
X6825Y1392D01*
X6842Y1415D01*
X6853Y1442D01*
X6857Y1471D01*
X6853Y1499D01*
X6842Y1526D01*
X6825Y1549D01*
X6802Y1567D01*
X6775Y1578D01*
X6746Y1582D01*
D02*
G37*
G36*
X5891D02*
X5862Y1578D01*
X5836Y1567D01*
X5813Y1549D01*
X5795Y1526D01*
X5784Y1499D01*
X5780Y1471D01*
X5784Y1442D01*
X5795Y1415D01*
X5813Y1392D01*
X5836Y1374D01*
X5862Y1363D01*
X5891Y1360D01*
X5920Y1363D01*
X5946Y1374D01*
X5969Y1392D01*
X5987Y1415D01*
X5998Y1442D01*
X6002Y1471D01*
X5998Y1499D01*
X5987Y1526D01*
X5969Y1549D01*
X5946Y1567D01*
X5920Y1578D01*
X5891Y1582D01*
D02*
G37*
G36*
X5637D02*
X5608Y1578D01*
X5582Y1567D01*
X5559Y1549D01*
X5541Y1526D01*
X5530Y1499D01*
X5526Y1471D01*
X5530Y1442D01*
X5541Y1415D01*
X5559Y1392D01*
X5582Y1374D01*
X5608Y1363D01*
X5637Y1360D01*
X5666Y1363D01*
X5692Y1374D01*
X5715Y1392D01*
X5733Y1415D01*
X5744Y1442D01*
X5748Y1471D01*
X5744Y1499D01*
X5733Y1526D01*
X5715Y1549D01*
X5692Y1567D01*
X5666Y1578D01*
X5637Y1582D01*
D02*
G37*
G36*
X5383D02*
X5354Y1578D01*
X5328Y1567D01*
X5305Y1549D01*
X5287Y1526D01*
X5276Y1499D01*
X5272Y1471D01*
X5276Y1442D01*
X5287Y1415D01*
X5305Y1392D01*
X5328Y1374D01*
X5354Y1363D01*
X5383Y1360D01*
X5412Y1363D01*
X5438Y1374D01*
X5461Y1392D01*
X5479Y1415D01*
X5490Y1442D01*
X5494Y1471D01*
X5490Y1499D01*
X5479Y1526D01*
X5461Y1549D01*
X5438Y1567D01*
X5412Y1578D01*
X5383Y1582D01*
D02*
G37*
G36*
X7367Y1446D02*
X7279D01*
Y1357D01*
X7284Y1358D01*
X7312Y1370D01*
X7336Y1388D01*
X7355Y1412D01*
X7367Y1440D01*
X7367Y1446D01*
D02*
G37*
G36*
X8717D02*
X8629D01*
Y1357D01*
X8634Y1358D01*
X8662Y1370D01*
X8686Y1388D01*
X8705Y1412D01*
X8717Y1440D01*
X8717Y1446D01*
D02*
G37*
G36*
X8579D02*
X8491D01*
X8492Y1440D01*
X8503Y1412D01*
X8522Y1388D01*
X8546Y1370D01*
X8574Y1358D01*
X8579Y1357D01*
Y1446D01*
D02*
G37*
G36*
X7229D02*
X7141D01*
X7142Y1440D01*
X7153Y1412D01*
X7172Y1388D01*
X7196Y1370D01*
X7224Y1358D01*
X7229Y1357D01*
Y1446D01*
D02*
G37*
G36*
X5244D02*
X5154D01*
Y1355D01*
X5187D01*
X5244Y1413D01*
Y1446D01*
D02*
G37*
G36*
X5104D02*
X5014D01*
Y1413D01*
X5071Y1355D01*
X5104D01*
Y1446D01*
D02*
G37*
G36*
X2619Y1554D02*
X2590Y1550D01*
X2563Y1539D01*
X2540Y1522D01*
X2523Y1499D01*
X2512Y1472D01*
X2508Y1443D01*
X2512Y1414D01*
X2523Y1388D01*
X2540Y1365D01*
X2563Y1347D01*
X2590Y1336D01*
X2619Y1332D01*
X2648Y1336D01*
X2674Y1347D01*
X2697Y1365D01*
X2715Y1388D01*
X2726Y1414D01*
X2730Y1443D01*
X2726Y1472D01*
X2715Y1499D01*
X2697Y1522D01*
X2674Y1539D01*
X2648Y1550D01*
X2619Y1554D01*
D02*
G37*
G36*
X10555Y1518D02*
X10526Y1514D01*
X10500Y1503D01*
X10477Y1485D01*
X10459Y1462D01*
X10448Y1436D01*
X10444Y1407D01*
X10448Y1378D01*
X10459Y1352D01*
X10477Y1329D01*
X10500Y1311D01*
X10526Y1300D01*
X10555Y1296D01*
X10584Y1300D01*
X10610Y1311D01*
X10633Y1329D01*
X10651Y1352D01*
X10662Y1378D01*
X10666Y1407D01*
X10662Y1436D01*
X10651Y1462D01*
X10633Y1485D01*
X10610Y1503D01*
X10584Y1514D01*
X10555Y1518D01*
D02*
G37*
G36*
X685Y1445D02*
X656Y1441D01*
X629Y1430D01*
X606Y1412D01*
X589Y1389D01*
X578Y1362D01*
X574Y1334D01*
X578Y1305D01*
X589Y1278D01*
X606Y1255D01*
X629Y1238D01*
X656Y1226D01*
X685Y1223D01*
X714Y1226D01*
X740Y1238D01*
X763Y1255D01*
X781Y1278D01*
X792Y1305D01*
X796Y1334D01*
X792Y1362D01*
X781Y1389D01*
X763Y1412D01*
X740Y1430D01*
X714Y1441D01*
X685Y1445D01*
D02*
G37*
G36*
X5123Y1265D02*
X5101Y1260D01*
X5083Y1248D01*
X5071Y1230D01*
X5067Y1208D01*
X5071Y1187D01*
X5083Y1169D01*
X5101Y1157D01*
X5123Y1152D01*
X5144Y1157D01*
X5163Y1169D01*
X5175Y1187D01*
X5179Y1208D01*
X5175Y1230D01*
X5163Y1248D01*
X5144Y1260D01*
X5123Y1265D01*
D02*
G37*
G36*
X5662Y1259D02*
X5640Y1255D01*
X5622Y1243D01*
X5610Y1225D01*
X5606Y1203D01*
X5610Y1182D01*
X5622Y1163D01*
X5640Y1151D01*
X5662Y1147D01*
X5683Y1151D01*
X5701Y1163D01*
X5713Y1182D01*
X5718Y1203D01*
X5713Y1225D01*
X5701Y1243D01*
X5683Y1255D01*
X5662Y1259D01*
D02*
G37*
G36*
X437Y1358D02*
X408Y1354D01*
X382Y1343D01*
X359Y1325D01*
X341Y1302D01*
X330Y1276D01*
X326Y1247D01*
X330Y1218D01*
X341Y1191D01*
X359Y1168D01*
X382Y1151D01*
X408Y1140D01*
X437Y1136D01*
X466Y1140D01*
X492Y1151D01*
X515Y1168D01*
X533Y1191D01*
X544Y1218D01*
X548Y1247D01*
X544Y1276D01*
X533Y1302D01*
X515Y1325D01*
X492Y1343D01*
X466Y1354D01*
X437Y1358D01*
D02*
G37*
G36*
X3050Y1234D02*
X3029Y1229D01*
X3010Y1217D01*
X2998Y1199D01*
X2994Y1178D01*
X2998Y1156D01*
X3010Y1138D01*
X3029Y1126D01*
X3050Y1122D01*
X3072Y1126D01*
X3090Y1138D01*
X3102Y1156D01*
X3106Y1178D01*
X3102Y1199D01*
X3090Y1217D01*
X3072Y1229D01*
X3050Y1234D01*
D02*
G37*
G36*
X710Y1193D02*
Y1105D01*
X798D01*
X797Y1110D01*
X786Y1138D01*
X767Y1162D01*
X743Y1180D01*
X715Y1192D01*
X710Y1193D01*
D02*
G37*
G36*
X660Y1193D02*
X655Y1192D01*
X627Y1180D01*
X603Y1162D01*
X584Y1138D01*
X573Y1110D01*
X572Y1105D01*
X660D01*
Y1193D01*
D02*
G37*
G36*
X10555Y1264D02*
X10526Y1260D01*
X10500Y1249D01*
X10477Y1231D01*
X10459Y1208D01*
X10448Y1182D01*
X10444Y1153D01*
X10448Y1124D01*
X10459Y1098D01*
X10477Y1075D01*
X10500Y1057D01*
X10526Y1046D01*
X10555Y1042D01*
X10584Y1046D01*
X10610Y1057D01*
X10633Y1075D01*
X10651Y1098D01*
X10662Y1124D01*
X10666Y1153D01*
X10662Y1182D01*
X10651Y1208D01*
X10633Y1231D01*
X10610Y1249D01*
X10584Y1260D01*
X10555Y1264D01*
D02*
G37*
G36*
X6302Y1133D02*
X6280Y1129D01*
X6262Y1117D01*
X6250Y1099D01*
X6246Y1077D01*
X6250Y1056D01*
X6262Y1037D01*
X6280Y1025D01*
X6302Y1021D01*
X6323Y1025D01*
X6341Y1037D01*
X6354Y1056D01*
X6358Y1077D01*
X6354Y1099D01*
X6341Y1117D01*
X6323Y1129D01*
X6302Y1133D01*
D02*
G37*
G36*
X7663Y1131D02*
X7642Y1126D01*
X7624Y1114D01*
X7612Y1096D01*
X7607Y1074D01*
X7612Y1053D01*
X7624Y1035D01*
X7642Y1023D01*
X7663Y1018D01*
X7685Y1023D01*
X7703Y1035D01*
X7715Y1053D01*
X7720Y1074D01*
X7715Y1096D01*
X7703Y1114D01*
X7685Y1126D01*
X7663Y1131D01*
D02*
G37*
G36*
X9190Y1113D02*
X9169Y1108D01*
X9150Y1096D01*
X9138Y1078D01*
X9134Y1057D01*
X9138Y1035D01*
X9150Y1017D01*
X9169Y1005D01*
X9190Y1000D01*
X9211Y1005D01*
X9230Y1017D01*
X9242Y1035D01*
X9246Y1057D01*
X9242Y1078D01*
X9230Y1096D01*
X9211Y1108D01*
X9190Y1113D01*
D02*
G37*
G36*
X660Y1055D02*
X572D01*
X573Y1049D01*
X584Y1021D01*
X603Y997D01*
X627Y979D01*
X655Y967D01*
X660Y967D01*
Y1055D01*
D02*
G37*
G36*
X798D02*
X710D01*
Y967D01*
X715Y967D01*
X743Y979D01*
X767Y997D01*
X786Y1021D01*
X797Y1049D01*
X798Y1055D01*
D02*
G37*
G36*
X4966Y1078D02*
X4945Y1074D01*
X4926Y1062D01*
X4914Y1043D01*
X4910Y1022D01*
X4914Y1000D01*
X4926Y982D01*
X4945Y970D01*
X4966Y966D01*
X4987Y970D01*
X5006Y982D01*
X5018Y1000D01*
X5022Y1022D01*
X5018Y1043D01*
X5006Y1062D01*
X4987Y1074D01*
X4966Y1078D01*
D02*
G37*
G36*
X2619Y1187D02*
X2590Y1183D01*
X2563Y1172D01*
X2540Y1154D01*
X2523Y1131D01*
X2512Y1105D01*
X2508Y1076D01*
X2512Y1047D01*
X2523Y1021D01*
X2540Y998D01*
X2563Y980D01*
X2590Y969D01*
X2619Y965D01*
X2648Y969D01*
X2674Y980D01*
X2697Y998D01*
X2715Y1021D01*
X2726Y1047D01*
X2730Y1076D01*
X2726Y1105D01*
X2715Y1131D01*
X2697Y1154D01*
X2674Y1172D01*
X2648Y1183D01*
X2619Y1187D01*
D02*
G37*
G36*
X2350Y1247D02*
X2332Y1244D01*
X2315Y1237D01*
X2300Y1226D01*
X2289Y1211D01*
X2282Y1194D01*
X2279Y1176D01*
Y976D01*
X2282Y958D01*
X2289Y941D01*
X2300Y926D01*
X2315Y915D01*
X2332Y908D01*
X2350Y905D01*
X2368Y908D01*
X2385Y915D01*
X2400Y926D01*
X2411Y941D01*
X2418Y958D01*
X2421Y976D01*
Y1176D01*
X2418Y1194D01*
X2411Y1211D01*
X2400Y1226D01*
X2385Y1237D01*
X2368Y1244D01*
X2350Y1247D01*
D02*
G37*
G36*
X10610Y1009D02*
X10500D01*
X10445Y954D01*
Y844D01*
X10500Y789D01*
X10610D01*
X10665Y844D01*
Y954D01*
X10610Y1009D01*
D02*
G37*
G36*
X4974Y885D02*
X4953Y881D01*
X4935Y869D01*
X4923Y850D01*
X4918Y829D01*
X4923Y807D01*
X4935Y789D01*
X4953Y777D01*
X4974Y773D01*
X4996Y777D01*
X5014Y789D01*
X5026Y807D01*
X5030Y829D01*
X5026Y850D01*
X5014Y869D01*
X4996Y881D01*
X4974Y885D01*
D02*
G37*
G36*
X2373Y868D02*
X2352Y864D01*
X2334Y852D01*
X2322Y833D01*
X2317Y812D01*
X2322Y790D01*
X2334Y772D01*
X2352Y760D01*
X2373Y756D01*
X2395Y760D01*
X2413Y772D01*
X2425Y790D01*
X2430Y812D01*
X2425Y833D01*
X2413Y852D01*
X2395Y864D01*
X2373Y868D01*
D02*
G37*
G36*
X3049Y868D02*
X3028Y864D01*
X3010Y852D01*
X2997Y833D01*
X2993Y812D01*
X2997Y790D01*
X3010Y772D01*
X3028Y760D01*
X3049Y756D01*
X3071Y760D01*
X3089Y772D01*
X3101Y790D01*
X3105Y812D01*
X3101Y833D01*
X3089Y852D01*
X3071Y864D01*
X3049Y868D01*
D02*
G37*
G36*
X1155Y1773D02*
X1137Y1771D01*
X1120Y1764D01*
X1105Y1753D01*
X1094Y1738D01*
X1087Y1721D01*
X1084Y1703D01*
Y803D01*
X1087Y784D01*
X1094Y767D01*
X1105Y753D01*
X1120Y741D01*
X1137Y734D01*
X1155Y732D01*
X1173Y734D01*
X1190Y741D01*
X1205Y753D01*
X1216Y767D01*
X1223Y784D01*
X1226Y803D01*
Y1703D01*
X1223Y1721D01*
X1216Y1738D01*
X1205Y1753D01*
X1190Y1764D01*
X1173Y1771D01*
X1155Y1773D01*
D02*
G37*
G36*
X685Y937D02*
X656Y933D01*
X629Y922D01*
X606Y904D01*
X589Y881D01*
X578Y854D01*
X574Y826D01*
X578Y797D01*
X589Y770D01*
X606Y747D01*
X629Y730D01*
X656Y718D01*
X685Y715D01*
X714Y718D01*
X740Y730D01*
X763Y747D01*
X781Y770D01*
X792Y797D01*
X796Y826D01*
X792Y854D01*
X781Y881D01*
X763Y904D01*
X740Y922D01*
X714Y933D01*
X685Y937D01*
D02*
G37*
G36*
X9599Y796D02*
X9578Y792D01*
X9559Y780D01*
X9547Y761D01*
X9543Y740D01*
X9547Y719D01*
X9559Y700D01*
X9578Y688D01*
X9599Y684D01*
X9621Y688D01*
X9639Y700D01*
X9651Y719D01*
X9655Y740D01*
X9651Y761D01*
X9639Y780D01*
X9621Y792D01*
X9599Y796D01*
D02*
G37*
G36*
X8382Y740D02*
X8361Y735D01*
X8343Y723D01*
X8330Y705D01*
X8326Y683D01*
X8330Y662D01*
X8343Y644D01*
X8361Y632D01*
X8382Y627D01*
X8404Y632D01*
X8422Y644D01*
X8434Y662D01*
X8438Y683D01*
X8434Y705D01*
X8422Y723D01*
X8404Y735D01*
X8382Y740D01*
D02*
G37*
G36*
X8064D02*
X8043Y735D01*
X8024Y723D01*
X8012Y705D01*
X8008Y683D01*
X8012Y662D01*
X8024Y644D01*
X8043Y632D01*
X8064Y627D01*
X8086Y632D01*
X8104Y644D01*
X8116Y662D01*
X8120Y683D01*
X8116Y705D01*
X8104Y723D01*
X8086Y735D01*
X8064Y740D01*
D02*
G37*
G36*
X7032D02*
X7011Y735D01*
X6993Y723D01*
X6980Y705D01*
X6976Y683D01*
X6980Y662D01*
X6993Y644D01*
X7011Y632D01*
X7032Y627D01*
X7054Y632D01*
X7072Y644D01*
X7084Y662D01*
X7088Y683D01*
X7084Y705D01*
X7072Y723D01*
X7054Y735D01*
X7032Y740D01*
D02*
G37*
G36*
X6714D02*
X6693Y735D01*
X6674Y723D01*
X6662Y705D01*
X6658Y683D01*
X6662Y662D01*
X6674Y644D01*
X6693Y632D01*
X6714Y627D01*
X6736Y632D01*
X6754Y644D01*
X6766Y662D01*
X6770Y683D01*
X6766Y705D01*
X6754Y723D01*
X6736Y735D01*
X6714Y740D01*
D02*
G37*
G36*
X4976Y723D02*
X4955Y718D01*
X4936Y706D01*
X4924Y688D01*
X4920Y666D01*
X4924Y645D01*
X4936Y627D01*
X4955Y615D01*
X4976Y610D01*
X4997Y615D01*
X5016Y627D01*
X5028Y645D01*
X5032Y666D01*
X5028Y688D01*
X5016Y706D01*
X4997Y718D01*
X4976Y723D01*
D02*
G37*
G36*
X2619Y824D02*
X2590Y820D01*
X2563Y809D01*
X2540Y791D01*
X2523Y768D01*
X2512Y741D01*
X2508Y713D01*
X2512Y684D01*
X2523Y657D01*
X2540Y634D01*
X2563Y617D01*
X2590Y605D01*
X2619Y602D01*
X2648Y605D01*
X2674Y617D01*
X2697Y634D01*
X2715Y657D01*
X2726Y684D01*
X2730Y713D01*
X2726Y741D01*
X2715Y768D01*
X2697Y791D01*
X2674Y809D01*
X2648Y820D01*
X2619Y824D01*
D02*
G37*
G36*
X208Y640D02*
Y552D01*
X296D01*
X295Y557D01*
X284Y585D01*
X265Y609D01*
X241Y628D01*
X213Y639D01*
X208Y640D01*
D02*
G37*
G36*
X158Y640D02*
X153Y639D01*
X125Y628D01*
X101Y609D01*
X82Y585D01*
X71Y557D01*
X70Y552D01*
X158D01*
Y640D01*
D02*
G37*
G36*
X685Y683D02*
X656Y679D01*
X629Y668D01*
X606Y650D01*
X589Y627D01*
X578Y600D01*
X574Y572D01*
X578Y543D01*
X589Y516D01*
X606Y493D01*
X629Y476D01*
X656Y464D01*
X685Y461D01*
X714Y464D01*
X740Y476D01*
X763Y493D01*
X781Y516D01*
X792Y543D01*
X796Y572D01*
X792Y600D01*
X781Y627D01*
X763Y650D01*
X740Y668D01*
X714Y679D01*
X685Y683D01*
D02*
G37*
G36*
X6293Y534D02*
X6271Y530D01*
X6253Y518D01*
X6241Y500D01*
X6236Y478D01*
X6241Y457D01*
X6253Y439D01*
X6271Y427D01*
X6293Y422D01*
X6314Y427D01*
X6332Y439D01*
X6344Y457D01*
X6349Y478D01*
X6344Y500D01*
X6332Y518D01*
X6314Y530D01*
X6293Y534D01*
D02*
G37*
G36*
X7663Y532D02*
X7641Y528D01*
X7623Y516D01*
X7611Y498D01*
X7606Y476D01*
X7611Y455D01*
X7623Y436D01*
X7641Y424D01*
X7663Y420D01*
X7684Y424D01*
X7702Y436D01*
X7714Y455D01*
X7719Y476D01*
X7714Y498D01*
X7702Y516D01*
X7684Y528D01*
X7663Y532D01*
D02*
G37*
G36*
X1537Y531D02*
X1515Y527D01*
X1497Y515D01*
X1485Y496D01*
X1480Y475D01*
X1485Y454D01*
X1497Y435D01*
X1515Y423D01*
X1537Y419D01*
X1558Y423D01*
X1576Y435D01*
X1588Y454D01*
X1593Y475D01*
X1588Y496D01*
X1576Y515D01*
X1558Y527D01*
X1537Y531D01*
D02*
G37*
G36*
X296Y502D02*
X208D01*
Y414D01*
X213Y415D01*
X241Y426D01*
X265Y445D01*
X284Y469D01*
X295Y497D01*
X296Y502D01*
D02*
G37*
G36*
X158D02*
X70D01*
X71Y497D01*
X82Y469D01*
X101Y445D01*
X125Y426D01*
X153Y415D01*
X158Y414D01*
Y502D01*
D02*
G37*
G36*
X4973Y519D02*
X4952Y515D01*
X4934Y503D01*
X4922Y485D01*
X4917Y463D01*
X4922Y442D01*
X4934Y424D01*
X4952Y412D01*
X4973Y407D01*
X4995Y412D01*
X5013Y424D01*
X5025Y442D01*
X5030Y463D01*
X5025Y485D01*
X5013Y503D01*
X4995Y515D01*
X4973Y519D01*
D02*
G37*
G36*
X10880Y549D02*
Y400D01*
X11029D01*
X11028Y409D01*
X11018Y442D01*
X11002Y473D01*
X10980Y500D01*
X10953Y522D01*
X10922Y538D01*
X10889Y548D01*
X10880Y549D01*
D02*
G37*
G36*
X10830D02*
X10821Y548D01*
X10788Y538D01*
X10757Y522D01*
X10730Y500D01*
X10708Y473D01*
X10692Y442D01*
X10682Y409D01*
X10681Y400D01*
X10830D01*
Y549D01*
D02*
G37*
G36*
X1180D02*
Y400D01*
X1329D01*
X1328Y409D01*
X1318Y442D01*
X1302Y473D01*
X1280Y500D01*
X1253Y522D01*
X1222Y538D01*
X1189Y548D01*
X1180Y549D01*
D02*
G37*
G36*
X1130D02*
X1121Y548D01*
X1088Y538D01*
X1057Y522D01*
X1030Y500D01*
X1008Y473D01*
X992Y442D01*
X982Y409D01*
X981Y400D01*
X1130D01*
Y549D01*
D02*
G37*
G36*
X3050Y503D02*
X3029Y498D01*
X3010Y486D01*
X2998Y468D01*
X2994Y446D01*
X2998Y425D01*
X3010Y407D01*
X3029Y395D01*
X3050Y390D01*
X3072Y395D01*
X3090Y407D01*
X3102Y425D01*
X3106Y446D01*
X3102Y468D01*
X3090Y486D01*
X3072Y498D01*
X3050Y503D01*
D02*
G37*
G36*
X7260Y446D02*
X7239Y442D01*
X7221Y430D01*
X7209Y411D01*
X7204Y390D01*
X7209Y369D01*
X7221Y350D01*
X7239Y338D01*
X7260Y334D01*
X7282Y338D01*
X7300Y350D01*
X7312Y369D01*
X7317Y390D01*
X7312Y411D01*
X7300Y430D01*
X7282Y442D01*
X7260Y446D01*
D02*
G37*
G36*
X8610Y444D02*
X8589Y439D01*
X8571Y427D01*
X8559Y409D01*
X8554Y387D01*
X8559Y366D01*
X8571Y348D01*
X8589Y336D01*
X8610Y331D01*
X8632Y336D01*
X8650Y348D01*
X8662Y366D01*
X8667Y387D01*
X8662Y409D01*
X8650Y427D01*
X8632Y439D01*
X8610Y444D01*
D02*
G37*
G36*
X2619Y457D02*
X2590Y454D01*
X2563Y443D01*
X2540Y425D01*
X2523Y402D01*
X2512Y375D01*
X2508Y346D01*
X2512Y318D01*
X2523Y291D01*
X2540Y268D01*
X2563Y250D01*
X2590Y239D01*
X2619Y235D01*
X2648Y239D01*
X2674Y250D01*
X2697Y268D01*
X2715Y291D01*
X2726Y318D01*
X2730Y346D01*
X2726Y375D01*
X2715Y402D01*
X2697Y425D01*
X2674Y443D01*
X2648Y454D01*
X2619Y457D01*
D02*
G37*
G36*
X685Y429D02*
X656Y425D01*
X629Y414D01*
X606Y396D01*
X589Y373D01*
X578Y346D01*
X574Y318D01*
X578Y289D01*
X589Y262D01*
X606Y239D01*
X629Y222D01*
X656Y210D01*
X685Y207D01*
X714Y210D01*
X740Y222D01*
X763Y239D01*
X781Y262D01*
X792Y289D01*
X796Y318D01*
X792Y346D01*
X781Y373D01*
X763Y396D01*
X740Y414D01*
X714Y425D01*
X685Y429D01*
D02*
G37*
G36*
X11029Y350D02*
X10880D01*
Y201D01*
X10889Y202D01*
X10922Y212D01*
X10953Y228D01*
X10980Y250D01*
X11002Y277D01*
X11018Y308D01*
X11028Y341D01*
X11029Y350D01*
D02*
G37*
G36*
X10830D02*
X10681D01*
X10682Y341D01*
X10692Y308D01*
X10708Y277D01*
X10730Y250D01*
X10757Y228D01*
X10788Y212D01*
X10821Y202D01*
X10830Y201D01*
Y350D01*
D02*
G37*
G36*
X1329D02*
X1180D01*
Y201D01*
X1189Y202D01*
X1222Y212D01*
X1253Y228D01*
X1280Y250D01*
X1302Y277D01*
X1318Y308D01*
X1328Y341D01*
X1329Y350D01*
D02*
G37*
G36*
X1130D02*
X981D01*
X982Y341D01*
X992Y308D01*
X1008Y277D01*
X1030Y250D01*
X1057Y228D01*
X1088Y212D01*
X1121Y202D01*
X1130Y201D01*
Y350D01*
D02*
G37*
G36*
X2350Y510D02*
X2332Y507D01*
X2315Y500D01*
X2300Y489D01*
X2289Y474D01*
X2282Y457D01*
X2279Y439D01*
Y239D01*
X2282Y221D01*
X2289Y204D01*
X2300Y189D01*
X2315Y178D01*
X2332Y171D01*
X2350Y168D01*
X2368Y171D01*
X2385Y178D01*
X2400Y189D01*
X2411Y204D01*
X2418Y221D01*
X2421Y239D01*
Y439D01*
X2418Y457D01*
X2411Y474D01*
X2400Y489D01*
X2385Y500D01*
X2368Y507D01*
X2350Y510D01*
D02*
G37*
G36*
X10555Y7213D02*
X10526Y7209D01*
X10500Y7198D01*
X10477Y7180D01*
X10459Y7157D01*
X10448Y7131D01*
X10444Y7102D01*
X10448Y7073D01*
X10459Y7047D01*
X10477Y7024D01*
X10500Y7006D01*
X10526Y6995D01*
X10555Y6991D01*
X10584Y6995D01*
X10610Y7006D01*
X10633Y7024D01*
X10651Y7047D01*
X10662Y7073D01*
X10666Y7102D01*
X10662Y7131D01*
X10651Y7157D01*
X10633Y7180D01*
X10610Y7198D01*
X10584Y7209D01*
X10555Y7213D01*
D02*
G37*
G36*
X10613Y6963D02*
X10580D01*
Y6873D01*
X10670D01*
Y6906D01*
X10613Y6963D01*
D02*
G37*
G36*
X10530D02*
X10497D01*
X10440Y6906D01*
Y6873D01*
X10530D01*
Y6963D01*
D02*
G37*
G36*
X10670Y6823D02*
X10580D01*
Y6733D01*
X10613D01*
X10670Y6790D01*
Y6823D01*
D02*
G37*
G36*
X10530D02*
X10440D01*
Y6790D01*
X10497Y6733D01*
X10530D01*
Y6823D01*
D02*
G37*
G36*
X10555Y6683D02*
X10526Y6679D01*
X10500Y6668D01*
X10477Y6650D01*
X10459Y6627D01*
X10448Y6601D01*
X10444Y6572D01*
X10448Y6543D01*
X10459Y6517D01*
X10477Y6494D01*
X10500Y6476D01*
X10526Y6465D01*
X10555Y6461D01*
X10584Y6465D01*
X10610Y6476D01*
X10633Y6494D01*
X10651Y6517D01*
X10662Y6543D01*
X10666Y6572D01*
X10662Y6601D01*
X10651Y6627D01*
X10633Y6650D01*
X10610Y6668D01*
X10584Y6679D01*
X10555Y6683D01*
D02*
G37*
G36*
X10613Y6433D02*
X10580D01*
Y6343D01*
X10670D01*
Y6376D01*
X10613Y6433D01*
D02*
G37*
G36*
X10530D02*
X10497D01*
X10440Y6376D01*
Y6343D01*
X10530D01*
Y6433D01*
D02*
G37*
G36*
X10670Y6293D02*
X10580D01*
Y6203D01*
X10613D01*
X10670Y6260D01*
Y6293D01*
D02*
G37*
G36*
X10530D02*
X10440D01*
Y6260D01*
X10497Y6203D01*
X10530D01*
Y6293D01*
D02*
G37*
G36*
X10555Y6153D02*
X10526Y6149D01*
X10500Y6138D01*
X10477Y6121D01*
X10459Y6098D01*
X10448Y6071D01*
X10444Y6042D01*
X10448Y6013D01*
X10459Y5987D01*
X10477Y5964D01*
X10500Y5946D01*
X10526Y5935D01*
X10555Y5931D01*
X10584Y5935D01*
X10610Y5946D01*
X10633Y5964D01*
X10651Y5987D01*
X10662Y6013D01*
X10666Y6042D01*
X10662Y6071D01*
X10651Y6098D01*
X10633Y6121D01*
X10610Y6138D01*
X10584Y6149D01*
X10555Y6153D01*
D02*
G37*
G36*
X10613Y5903D02*
X10580D01*
Y5813D01*
X10670D01*
Y5846D01*
X10613Y5903D01*
D02*
G37*
G36*
X10530D02*
X10497D01*
X10440Y5846D01*
Y5813D01*
X10530D01*
Y5903D01*
D02*
G37*
G36*
X10670Y5763D02*
X10580D01*
Y5673D01*
X10613D01*
X10670Y5730D01*
Y5763D01*
D02*
G37*
G36*
X10530D02*
X10440D01*
Y5730D01*
X10497Y5673D01*
X10530D01*
Y5763D01*
D02*
G37*
G36*
X10555Y5623D02*
X10526Y5619D01*
X10500Y5608D01*
X10477Y5591D01*
X10459Y5568D01*
X10448Y5541D01*
X10444Y5512D01*
X10448Y5483D01*
X10459Y5457D01*
X10477Y5434D01*
X10500Y5416D01*
X10526Y5405D01*
X10555Y5401D01*
X10584Y5405D01*
X10610Y5416D01*
X10633Y5434D01*
X10651Y5457D01*
X10662Y5483D01*
X10666Y5512D01*
X10662Y5541D01*
X10651Y5568D01*
X10633Y5591D01*
X10610Y5608D01*
X10584Y5619D01*
X10555Y5623D01*
D02*
G37*
G36*
X10613Y5373D02*
X10580D01*
Y5283D01*
X10670D01*
Y5316D01*
X10613Y5373D01*
D02*
G37*
G36*
X10530D02*
X10497D01*
X10440Y5316D01*
Y5283D01*
X10530D01*
Y5373D01*
D02*
G37*
G36*
X10670Y5233D02*
X10580D01*
Y5143D01*
X10613D01*
X10670Y5200D01*
Y5233D01*
D02*
G37*
G36*
X10530D02*
X10440D01*
Y5200D01*
X10497Y5143D01*
X10530D01*
Y5233D01*
D02*
G37*
%LPD*%
D123*
X8735Y4684D02*
D03*
Y3784D02*
D03*
D124*
X183Y527D02*
D03*
X10555Y3994D02*
D03*
Y1661D02*
D03*
X10555Y4783D02*
D03*
X1360Y6339D02*
D03*
X685Y1080D02*
D03*
X5129Y1840D02*
D03*
X7254Y1471D02*
D03*
X8604D02*
D03*
D125*
X10555Y1940D02*
D03*
Y6318D02*
D03*
Y5258D02*
D03*
Y5788D02*
D03*
Y6848D02*
D03*
D129*
X6653Y5950D02*
D03*
X5129Y1471D02*
D03*
D130*
X1980Y3219D02*
D03*
X635Y4470D02*
D03*
Y3280D02*
D03*
X5927Y976D02*
D03*
X3889Y7420D02*
D03*
X3635D02*
D03*
X3327Y7598D02*
D03*
X3440Y6650D02*
D03*
X3816Y6740D02*
D03*
X3278Y5267D02*
D03*
X3280Y6018D02*
D03*
X3400Y5640D02*
D03*
X3795Y5887D02*
D03*
X2240Y4666D02*
D03*
X3534Y5042D02*
D03*
X4480Y3868D02*
D03*
X1490Y2530D02*
D03*
X1170Y2530D02*
D03*
X2008Y5481D02*
D03*
X2084Y6162D02*
D03*
X2740Y6530D02*
D03*
X1940D02*
D03*
X655Y7472D02*
D03*
X1107Y4372D02*
D03*
Y4827D02*
D03*
X978Y4400D02*
D03*
X2340Y2150D02*
D03*
X2250D02*
D03*
X150Y2070D02*
D03*
X1640Y2870D02*
D03*
X2416Y2770D02*
D03*
X1180Y3219D02*
D03*
X1650Y162D02*
D03*
X2060Y538D02*
D03*
X1942Y888D02*
D03*
X2155Y1001D02*
D03*
X2136Y1443D02*
D03*
X1650Y839D02*
D03*
X3226Y546D02*
D03*
X8610Y187D02*
D03*
X7260Y190D02*
D03*
X7951Y1021D02*
D03*
X6601D02*
D03*
X5509Y1206D02*
D03*
X6055Y2602D02*
D03*
X9190Y1483D02*
D03*
X9322Y1344D02*
D03*
X5870Y4250D02*
D03*
Y4320D02*
D03*
X5940Y4250D02*
D03*
Y4320D02*
D03*
X9990Y2702D02*
D03*
X9286Y2195D02*
D03*
X9286Y2449D02*
D03*
X7400Y2805D02*
D03*
Y3185D02*
D03*
X8615Y2740D02*
D03*
X8143D02*
D03*
X6870Y3820D02*
D03*
X9103Y5514D02*
D03*
X9417Y5388D02*
D03*
Y5918D02*
D03*
Y6448D02*
D03*
X9103Y7104D02*
D03*
X9417Y6978D02*
D03*
X9113Y4030D02*
D03*
X9108Y4820D02*
D03*
X10370Y4529D02*
D03*
X10370Y3740D02*
D03*
X9790Y3738D02*
D03*
X9790Y4527D02*
D03*
X9405Y3933D02*
D03*
X9398Y4722D02*
D03*
X9417Y6978D02*
D03*
Y6448D02*
D03*
Y5918D02*
D03*
X9103Y6044D02*
D03*
Y6574D02*
D03*
Y7104D02*
D03*
X7947Y7100D02*
D03*
Y6570D02*
D03*
X7937Y6041D02*
D03*
Y5508D02*
D03*
X6968Y4843D02*
D03*
X6566D02*
D03*
X6278Y5388D02*
D03*
X4603Y5383D02*
D03*
X4803Y5385D02*
D03*
X5940Y5530D02*
D03*
X5677Y520D02*
D03*
X5326Y782D02*
D03*
X4050Y3242D02*
D03*
Y3042D02*
D03*
X882Y2585D02*
D03*
X884Y2225D02*
D03*
X3534Y1970D02*
D03*
X4528D02*
D03*
X3626Y1590D02*
D03*
M02*
