G04*
G04 #@! TF.GenerationSoftware,Altium Limited,Altium Designer,19.0.12 (326)*
G04*
G04 Layer_Physical_Order=3*
G04 Layer_Color=16440176*
%FSLAX42Y42*%
%MOMM*%
G71*
G01*
G75*
%ADD124C,1.80*%
%ADD125P,1.95X8X292.5*%
%ADD129P,1.95X8X22.5*%
%ADD130C,0.70*%
G36*
X11950Y7950D02*
X11950Y7310D01*
X8830Y7310D01*
X8231Y7310D01*
X8218Y7310D01*
X8218Y7310D01*
X8218Y7297D01*
Y7241D01*
X8218Y7241D01*
X8222Y5085D01*
X8222Y5034D01*
X8222Y5034D01*
X8235Y5034D01*
X8830Y5034D01*
Y5035D01*
X11941Y5041D01*
X11950Y5032D01*
X11950Y50D01*
X50Y50D01*
X50Y3103D01*
X60Y3111D01*
X71Y3109D01*
X124D01*
X125Y3107D01*
X122Y3089D01*
X115Y3085D01*
X103Y3067D01*
X99Y3046D01*
Y2977D01*
X103Y2956D01*
X115Y2938D01*
X133Y2926D01*
X154Y2921D01*
X276D01*
X297Y2926D01*
X315Y2938D01*
X327Y2956D01*
X331Y2977D01*
Y3046D01*
X327Y3067D01*
X315Y3085D01*
X297Y3097D01*
X276Y3101D01*
X255D01*
X253Y3114D01*
X274Y3127D01*
X288Y3148D01*
X292Y3173D01*
X288Y3197D01*
X274Y3218D01*
X253Y3231D01*
X229Y3236D01*
X71D01*
X60Y3234D01*
X50Y3242D01*
Y3578D01*
X60Y3586D01*
X71Y3584D01*
X229D01*
X253Y3589D01*
X274Y3602D01*
X288Y3623D01*
X292Y3648D01*
X288Y3672D01*
X274Y3693D01*
X253Y3706D01*
X255Y3719D01*
X276D01*
X297Y3723D01*
X315Y3735D01*
X327Y3753D01*
X331Y3774D01*
Y3843D01*
X327Y3864D01*
X315Y3882D01*
X297Y3894D01*
X276Y3899D01*
X154D01*
X133Y3894D01*
X115Y3882D01*
X103Y3864D01*
X99Y3843D01*
Y3774D01*
X103Y3753D01*
X115Y3735D01*
X122Y3731D01*
X125Y3713D01*
X124Y3711D01*
X71D01*
X60Y3709D01*
X50Y3717D01*
X50Y4293D01*
X60Y4301D01*
X71Y4299D01*
X124D01*
X125Y4297D01*
X122Y4279D01*
X115Y4275D01*
X103Y4257D01*
X99Y4236D01*
Y4167D01*
X103Y4146D01*
X115Y4128D01*
X133Y4116D01*
X154Y4111D01*
X276D01*
X297Y4116D01*
X315Y4128D01*
X327Y4146D01*
X331Y4167D01*
Y4236D01*
X327Y4257D01*
X315Y4275D01*
X297Y4287D01*
X276Y4291D01*
X255D01*
X253Y4304D01*
X274Y4317D01*
X288Y4338D01*
X292Y4363D01*
X288Y4387D01*
X274Y4408D01*
X253Y4421D01*
X229Y4426D01*
X71D01*
X60Y4424D01*
X50Y4432D01*
Y4768D01*
X60Y4776D01*
X71Y4774D01*
X229D01*
X253Y4779D01*
X274Y4792D01*
X288Y4813D01*
X292Y4838D01*
X288Y4862D01*
X274Y4883D01*
X253Y4896D01*
X255Y4909D01*
X276D01*
X297Y4913D01*
X315Y4925D01*
X327Y4943D01*
X331Y4964D01*
Y5033D01*
X327Y5054D01*
X315Y5072D01*
X297Y5084D01*
X276Y5089D01*
X154D01*
X133Y5084D01*
X115Y5072D01*
X103Y5054D01*
X99Y5033D01*
Y4964D01*
X103Y4943D01*
X115Y4925D01*
X122Y4921D01*
X125Y4903D01*
X124Y4901D01*
X71D01*
X60Y4899D01*
X50Y4907D01*
X50Y7950D01*
X11950Y7950D01*
D02*
G37*
G36*
X11950Y7239D02*
X11950Y5103D01*
X8830Y5103D01*
X8830Y7242D01*
X11941Y7248D01*
X11950Y7239D01*
D02*
G37*
%LPC*%
G36*
X3327Y7654D02*
X3305Y7650D01*
X3287Y7638D01*
X3275Y7619D01*
X3270Y7598D01*
X3275Y7576D01*
X3287Y7558D01*
X3305Y7546D01*
X3327Y7542D01*
X3348Y7546D01*
X3366Y7558D01*
X3378Y7576D01*
X3383Y7598D01*
X3378Y7619D01*
X3366Y7638D01*
X3348Y7650D01*
X3327Y7654D01*
D02*
G37*
G36*
X10855Y7796D02*
X10822Y7793D01*
X10790Y7783D01*
X10760Y7767D01*
X10734Y7746D01*
X10713Y7720D01*
X10697Y7690D01*
X10687Y7658D01*
X10684Y7625D01*
X10687Y7592D01*
X10697Y7560D01*
X10713Y7530D01*
X10734Y7504D01*
X10760Y7483D01*
X10790Y7467D01*
X10822Y7457D01*
X10855Y7454D01*
X10888Y7457D01*
X10920Y7467D01*
X10950Y7483D01*
X10976Y7504D01*
X10997Y7530D01*
X11013Y7560D01*
X11023Y7592D01*
X11026Y7625D01*
X11023Y7658D01*
X11013Y7690D01*
X10997Y7720D01*
X10976Y7746D01*
X10950Y7767D01*
X10920Y7783D01*
X10888Y7793D01*
X10855Y7796D01*
D02*
G37*
G36*
X1155D02*
X1122Y7793D01*
X1090Y7783D01*
X1060Y7767D01*
X1034Y7746D01*
X1013Y7720D01*
X997Y7690D01*
X987Y7658D01*
X984Y7625D01*
X987Y7592D01*
X997Y7560D01*
X1013Y7530D01*
X1034Y7504D01*
X1060Y7483D01*
X1090Y7467D01*
X1122Y7457D01*
X1155Y7454D01*
X1188Y7457D01*
X1220Y7467D01*
X1250Y7483D01*
X1276Y7504D01*
X1297Y7530D01*
X1313Y7560D01*
X1323Y7592D01*
X1326Y7625D01*
X1323Y7658D01*
X1313Y7690D01*
X1297Y7720D01*
X1276Y7746D01*
X1250Y7767D01*
X1220Y7783D01*
X1188Y7793D01*
X1155Y7796D01*
D02*
G37*
G36*
X655Y7528D02*
X633Y7524D01*
X615Y7512D01*
X603Y7494D01*
X599Y7472D01*
X603Y7451D01*
X615Y7433D01*
X633Y7420D01*
X655Y7416D01*
X676Y7420D01*
X695Y7433D01*
X707Y7451D01*
X711Y7472D01*
X707Y7494D01*
X695Y7512D01*
X676Y7524D01*
X655Y7528D01*
D02*
G37*
G36*
X3889Y7476D02*
X3868Y7472D01*
X3849Y7460D01*
X3837Y7441D01*
X3833Y7420D01*
X3837Y7399D01*
X3849Y7380D01*
X3868Y7368D01*
X3889Y7364D01*
X3910Y7368D01*
X3929Y7380D01*
X3941Y7399D01*
X3945Y7420D01*
X3941Y7441D01*
X3929Y7460D01*
X3910Y7472D01*
X3889Y7476D01*
D02*
G37*
G36*
X3635D02*
X3614Y7472D01*
X3595Y7460D01*
X3583Y7441D01*
X3579Y7420D01*
X3583Y7399D01*
X3595Y7380D01*
X3614Y7368D01*
X3635Y7364D01*
X3656Y7368D01*
X3675Y7380D01*
X3687Y7399D01*
X3691Y7420D01*
X3687Y7441D01*
X3675Y7460D01*
X3656Y7472D01*
X3635Y7476D01*
D02*
G37*
G36*
X1418Y7216D02*
X1385D01*
Y7126D01*
X1476D01*
Y7159D01*
X1418Y7216D01*
D02*
G37*
G36*
X1335D02*
X1303D01*
X1245Y7159D01*
Y7126D01*
X1335D01*
Y7216D01*
D02*
G37*
G36*
X7947Y7157D02*
X7926Y7152D01*
X7908Y7140D01*
X7896Y7122D01*
X7891Y7100D01*
X7896Y7079D01*
X7908Y7061D01*
X7926Y7049D01*
X7947Y7044D01*
X7969Y7049D01*
X7987Y7061D01*
X7999Y7079D01*
X8003Y7100D01*
X7999Y7122D01*
X7987Y7140D01*
X7969Y7152D01*
X7947Y7157D01*
D02*
G37*
G36*
X1476Y7076D02*
X1385D01*
Y6986D01*
X1418D01*
X1476Y7043D01*
Y7076D01*
D02*
G37*
G36*
X1335D02*
X1245D01*
Y7043D01*
X1303Y6986D01*
X1335D01*
Y7076D01*
D02*
G37*
G36*
X7277Y6935D02*
X7256Y6930D01*
X7238Y6918D01*
X7226Y6900D01*
X7221Y6878D01*
X7226Y6857D01*
X7238Y6839D01*
X7256Y6827D01*
X7277Y6822D01*
X7299Y6827D01*
X7317Y6839D01*
X7329Y6857D01*
X7333Y6878D01*
X7329Y6900D01*
X7317Y6918D01*
X7299Y6930D01*
X7277Y6935D01*
D02*
G37*
G36*
X1360Y6958D02*
X1332Y6954D01*
X1305Y6943D01*
X1282Y6925D01*
X1264Y6902D01*
X1253Y6876D01*
X1249Y6847D01*
X1253Y6818D01*
X1264Y6792D01*
X1282Y6769D01*
X1305Y6751D01*
X1332Y6740D01*
X1360Y6736D01*
X1389Y6740D01*
X1416Y6751D01*
X1439Y6769D01*
X1456Y6792D01*
X1468Y6818D01*
X1471Y6847D01*
X1468Y6876D01*
X1456Y6902D01*
X1439Y6925D01*
X1416Y6943D01*
X1389Y6954D01*
X1360Y6958D01*
D02*
G37*
G36*
X3816Y6796D02*
X3795Y6792D01*
X3777Y6780D01*
X3765Y6761D01*
X3760Y6740D01*
X3765Y6719D01*
X3777Y6700D01*
X3795Y6688D01*
X3816Y6684D01*
X3838Y6688D01*
X3856Y6700D01*
X3868Y6719D01*
X3873Y6740D01*
X3868Y6761D01*
X3856Y6780D01*
X3838Y6792D01*
X3816Y6796D01*
D02*
G37*
G36*
X3440Y6706D02*
X3419Y6702D01*
X3400Y6690D01*
X3388Y6671D01*
X3384Y6650D01*
X3388Y6629D01*
X3400Y6610D01*
X3419Y6598D01*
X3440Y6594D01*
X3461Y6598D01*
X3480Y6610D01*
X3492Y6629D01*
X3496Y6650D01*
X3492Y6671D01*
X3480Y6690D01*
X3461Y6702D01*
X3440Y6706D01*
D02*
G37*
G36*
X7947Y6627D02*
X7926Y6622D01*
X7908Y6610D01*
X7896Y6592D01*
X7891Y6570D01*
X7896Y6549D01*
X7908Y6531D01*
X7926Y6519D01*
X7947Y6514D01*
X7969Y6519D01*
X7987Y6531D01*
X7999Y6549D01*
X8003Y6570D01*
X7999Y6592D01*
X7987Y6610D01*
X7969Y6622D01*
X7947Y6627D01*
D02*
G37*
G36*
X1360Y6704D02*
X1332Y6700D01*
X1305Y6689D01*
X1282Y6671D01*
X1264Y6648D01*
X1253Y6622D01*
X1249Y6593D01*
X1253Y6564D01*
X1264Y6538D01*
X1282Y6515D01*
X1305Y6497D01*
X1332Y6486D01*
X1360Y6482D01*
X1389Y6486D01*
X1416Y6497D01*
X1439Y6515D01*
X1456Y6538D01*
X1468Y6564D01*
X1471Y6593D01*
X1468Y6622D01*
X1456Y6648D01*
X1439Y6671D01*
X1416Y6689D01*
X1389Y6700D01*
X1360Y6704D01*
D02*
G37*
G36*
X2740Y6586D02*
X2719Y6581D01*
X2701Y6569D01*
X2689Y6551D01*
X2684Y6530D01*
X2689Y6508D01*
X2701Y6490D01*
X2719Y6478D01*
X2740Y6473D01*
X2762Y6478D01*
X2780Y6490D01*
X2792Y6508D01*
X2796Y6530D01*
X2792Y6551D01*
X2780Y6569D01*
X2762Y6581D01*
X2740Y6586D01*
D02*
G37*
G36*
X1940D02*
X1919Y6581D01*
X1901Y6569D01*
X1889Y6551D01*
X1884Y6530D01*
X1889Y6508D01*
X1901Y6490D01*
X1919Y6478D01*
X1940Y6473D01*
X1962Y6478D01*
X1980Y6490D01*
X1992Y6508D01*
X1996Y6530D01*
X1992Y6551D01*
X1980Y6569D01*
X1962Y6581D01*
X1940Y6586D01*
D02*
G37*
G36*
X3610Y6566D02*
X3589Y6562D01*
X3570Y6550D01*
X3558Y6531D01*
X3554Y6510D01*
X3558Y6489D01*
X3570Y6470D01*
X3589Y6458D01*
X3610Y6454D01*
X3632Y6458D01*
X3650Y6470D01*
X3662Y6489D01*
X3666Y6510D01*
X3662Y6531D01*
X3650Y6550D01*
X3632Y6562D01*
X3610Y6566D01*
D02*
G37*
G36*
X7267Y6400D02*
X7245Y6395D01*
X7227Y6383D01*
X7215Y6365D01*
X7211Y6343D01*
X7215Y6322D01*
X7227Y6304D01*
X7245Y6292D01*
X7267Y6287D01*
X7288Y6292D01*
X7306Y6304D01*
X7318Y6322D01*
X7323Y6343D01*
X7318Y6365D01*
X7306Y6383D01*
X7288Y6395D01*
X7267Y6400D01*
D02*
G37*
G36*
X1360Y6450D02*
X1332Y6446D01*
X1305Y6435D01*
X1282Y6417D01*
X1264Y6394D01*
X1253Y6368D01*
X1249Y6339D01*
X1253Y6310D01*
X1264Y6284D01*
X1282Y6261D01*
X1305Y6243D01*
X1332Y6232D01*
X1360Y6228D01*
X1389Y6232D01*
X1416Y6243D01*
X1439Y6261D01*
X1456Y6284D01*
X1468Y6310D01*
X1471Y6339D01*
X1468Y6368D01*
X1456Y6394D01*
X1439Y6417D01*
X1416Y6435D01*
X1389Y6446D01*
X1360Y6450D01*
D02*
G37*
G36*
X2084Y6218D02*
X2062Y6214D01*
X2044Y6202D01*
X2032Y6184D01*
X2028Y6162D01*
X2032Y6141D01*
X2044Y6122D01*
X2062Y6110D01*
X2084Y6106D01*
X2105Y6110D01*
X2123Y6122D01*
X2136Y6141D01*
X2140Y6162D01*
X2136Y6184D01*
X2123Y6202D01*
X2105Y6214D01*
X2084Y6218D01*
D02*
G37*
G36*
X7937Y6097D02*
X7916Y6092D01*
X7898Y6080D01*
X7886Y6062D01*
X7881Y6041D01*
X7886Y6019D01*
X7898Y6001D01*
X7916Y5989D01*
X7937Y5984D01*
X7959Y5989D01*
X7977Y6001D01*
X7989Y6019D01*
X7993Y6041D01*
X7989Y6062D01*
X7977Y6080D01*
X7959Y6092D01*
X7937Y6097D01*
D02*
G37*
G36*
X3847D02*
X3825Y6092D01*
X3807Y6080D01*
X3795Y6062D01*
X3791Y6041D01*
X3795Y6019D01*
X3807Y6001D01*
X3825Y5989D01*
X3847Y5984D01*
X3868Y5989D01*
X3886Y6001D01*
X3899Y6019D01*
X3903Y6041D01*
X3899Y6062D01*
X3886Y6080D01*
X3868Y6092D01*
X3847Y6097D01*
D02*
G37*
G36*
X4900Y6063D02*
Y5975D01*
X4988D01*
X4987Y5980D01*
X4976Y6008D01*
X4957Y6032D01*
X4933Y6051D01*
X4905Y6062D01*
X4900Y6063D01*
D02*
G37*
G36*
X4850D02*
X4845Y6062D01*
X4817Y6051D01*
X4793Y6032D01*
X4774Y6008D01*
X4763Y5980D01*
X4762Y5975D01*
X4850D01*
Y6063D01*
D02*
G37*
G36*
X3280Y6075D02*
X3259Y6070D01*
X3240Y6058D01*
X3228Y6040D01*
X3224Y6018D01*
X3228Y5997D01*
X3240Y5979D01*
X3259Y5967D01*
X3280Y5962D01*
X3301Y5967D01*
X3320Y5979D01*
X3332Y5997D01*
X3336Y6018D01*
X3332Y6040D01*
X3320Y6058D01*
X3301Y6070D01*
X3280Y6075D01*
D02*
G37*
G36*
X6708Y6060D02*
X6598D01*
X6543Y6005D01*
Y5895D01*
X6598Y5840D01*
X6708D01*
X6763Y5895D01*
Y6005D01*
X6708Y6060D01*
D02*
G37*
G36*
X6399Y6061D02*
X6370Y6057D01*
X6344Y6046D01*
X6321Y6028D01*
X6303Y6005D01*
X6292Y5979D01*
X6288Y5950D01*
X6292Y5921D01*
X6303Y5895D01*
X6321Y5872D01*
X6344Y5854D01*
X6370Y5843D01*
X6399Y5839D01*
X6428Y5843D01*
X6454Y5854D01*
X6477Y5872D01*
X6495Y5895D01*
X6506Y5921D01*
X6510Y5950D01*
X6506Y5979D01*
X6495Y6005D01*
X6477Y6028D01*
X6454Y6046D01*
X6428Y6057D01*
X6399Y6061D01*
D02*
G37*
G36*
X6145D02*
X6116Y6057D01*
X6090Y6046D01*
X6067Y6028D01*
X6049Y6005D01*
X6038Y5979D01*
X6034Y5950D01*
X6038Y5921D01*
X6049Y5895D01*
X6067Y5872D01*
X6090Y5854D01*
X6116Y5843D01*
X6145Y5839D01*
X6174Y5843D01*
X6200Y5854D01*
X6223Y5872D01*
X6241Y5895D01*
X6252Y5921D01*
X6256Y5950D01*
X6252Y5979D01*
X6241Y6005D01*
X6223Y6028D01*
X6200Y6046D01*
X6174Y6057D01*
X6145Y6061D01*
D02*
G37*
G36*
X5891D02*
X5862Y6057D01*
X5836Y6046D01*
X5813Y6028D01*
X5795Y6005D01*
X5784Y5979D01*
X5780Y5950D01*
X5784Y5921D01*
X5795Y5895D01*
X5813Y5872D01*
X5836Y5854D01*
X5862Y5843D01*
X5891Y5839D01*
X5920Y5843D01*
X5946Y5854D01*
X5969Y5872D01*
X5987Y5895D01*
X5998Y5921D01*
X6002Y5950D01*
X5998Y5979D01*
X5987Y6005D01*
X5969Y6028D01*
X5946Y6046D01*
X5920Y6057D01*
X5891Y6061D01*
D02*
G37*
G36*
X5637D02*
X5608Y6057D01*
X5582Y6046D01*
X5559Y6028D01*
X5541Y6005D01*
X5530Y5979D01*
X5526Y5950D01*
X5530Y5921D01*
X5541Y5895D01*
X5559Y5872D01*
X5582Y5854D01*
X5608Y5843D01*
X5637Y5839D01*
X5666Y5843D01*
X5692Y5854D01*
X5715Y5872D01*
X5733Y5895D01*
X5744Y5921D01*
X5748Y5950D01*
X5744Y5979D01*
X5733Y6005D01*
X5715Y6028D01*
X5692Y6046D01*
X5666Y6057D01*
X5637Y6061D01*
D02*
G37*
G36*
X5383D02*
X5354Y6057D01*
X5328Y6046D01*
X5305Y6028D01*
X5287Y6005D01*
X5276Y5979D01*
X5272Y5950D01*
X5276Y5921D01*
X5287Y5895D01*
X5305Y5872D01*
X5328Y5854D01*
X5354Y5843D01*
X5383Y5839D01*
X5412Y5843D01*
X5438Y5854D01*
X5461Y5872D01*
X5479Y5895D01*
X5490Y5921D01*
X5494Y5950D01*
X5490Y5979D01*
X5479Y6005D01*
X5461Y6028D01*
X5438Y6046D01*
X5412Y6057D01*
X5383Y6061D01*
D02*
G37*
G36*
X5129D02*
X5100Y6057D01*
X5074Y6046D01*
X5051Y6028D01*
X5033Y6005D01*
X5022Y5979D01*
X5018Y5950D01*
X5022Y5921D01*
X5033Y5895D01*
X5051Y5872D01*
X5074Y5854D01*
X5100Y5843D01*
X5129Y5839D01*
X5158Y5843D01*
X5184Y5854D01*
X5207Y5872D01*
X5225Y5895D01*
X5236Y5921D01*
X5240Y5950D01*
X5236Y5979D01*
X5225Y6005D01*
X5207Y6028D01*
X5184Y6046D01*
X5158Y6057D01*
X5129Y6061D01*
D02*
G37*
G36*
X4988Y5925D02*
X4900D01*
Y5837D01*
X4905Y5838D01*
X4933Y5849D01*
X4957Y5868D01*
X4976Y5892D01*
X4987Y5920D01*
X4988Y5925D01*
D02*
G37*
G36*
X4850D02*
X4762D01*
X4763Y5920D01*
X4774Y5892D01*
X4793Y5868D01*
X4817Y5849D01*
X4845Y5838D01*
X4850Y5837D01*
Y5925D01*
D02*
G37*
G36*
X3795Y5943D02*
X3774Y5939D01*
X3755Y5927D01*
X3743Y5909D01*
X3739Y5887D01*
X3743Y5866D01*
X3755Y5848D01*
X3774Y5836D01*
X3795Y5831D01*
X3816Y5836D01*
X3835Y5848D01*
X3847Y5866D01*
X3851Y5887D01*
X3847Y5909D01*
X3835Y5927D01*
X3816Y5939D01*
X3795Y5943D01*
D02*
G37*
G36*
X3430Y5936D02*
X3409Y5932D01*
X3390Y5920D01*
X3378Y5901D01*
X3374Y5880D01*
X3378Y5859D01*
X3390Y5840D01*
X3409Y5828D01*
X3430Y5824D01*
X3451Y5828D01*
X3470Y5840D01*
X3482Y5859D01*
X3486Y5880D01*
X3482Y5901D01*
X3470Y5920D01*
X3451Y5932D01*
X3430Y5936D01*
D02*
G37*
G36*
X1173Y5918D02*
X1151Y5914D01*
X1133Y5902D01*
X1121Y5884D01*
X1117Y5862D01*
X1121Y5841D01*
X1133Y5822D01*
X1151Y5810D01*
X1173Y5806D01*
X1194Y5810D01*
X1212Y5822D01*
X1225Y5841D01*
X1229Y5862D01*
X1225Y5884D01*
X1212Y5902D01*
X1194Y5914D01*
X1173Y5918D01*
D02*
G37*
G36*
X7267Y5873D02*
X7246Y5869D01*
X7228Y5857D01*
X7216Y5838D01*
X7211Y5817D01*
X7216Y5795D01*
X7228Y5777D01*
X7246Y5765D01*
X7267Y5761D01*
X7289Y5765D01*
X7307Y5777D01*
X7319Y5795D01*
X7323Y5817D01*
X7319Y5838D01*
X7307Y5857D01*
X7289Y5869D01*
X7267Y5873D01*
D02*
G37*
G36*
X4088Y5774D02*
X4066Y5769D01*
X4048Y5757D01*
X4036Y5739D01*
X4031Y5717D01*
X4036Y5696D01*
X4048Y5678D01*
X4066Y5666D01*
X4088Y5661D01*
X4109Y5666D01*
X4127Y5678D01*
X4139Y5696D01*
X4144Y5717D01*
X4139Y5739D01*
X4127Y5757D01*
X4109Y5769D01*
X4088Y5774D01*
D02*
G37*
G36*
X5760Y5696D02*
X5739Y5692D01*
X5720Y5680D01*
X5708Y5661D01*
X5704Y5640D01*
X5708Y5619D01*
X5720Y5600D01*
X5739Y5588D01*
X5760Y5584D01*
X5781Y5588D01*
X5800Y5600D01*
X5812Y5619D01*
X5816Y5640D01*
X5812Y5661D01*
X5800Y5680D01*
X5781Y5692D01*
X5760Y5696D01*
D02*
G37*
G36*
X3400D02*
X3379Y5692D01*
X3360Y5680D01*
X3348Y5661D01*
X3344Y5640D01*
X3348Y5619D01*
X3360Y5600D01*
X3379Y5588D01*
X3400Y5584D01*
X3421Y5588D01*
X3440Y5600D01*
X3452Y5619D01*
X3456Y5640D01*
X3452Y5661D01*
X3440Y5680D01*
X3421Y5692D01*
X3400Y5696D01*
D02*
G37*
G36*
X5940Y5586D02*
X5919Y5582D01*
X5900Y5570D01*
X5888Y5551D01*
X5884Y5530D01*
X5888Y5509D01*
X5900Y5490D01*
X5919Y5478D01*
X5940Y5474D01*
X5961Y5478D01*
X5980Y5490D01*
X5992Y5509D01*
X5996Y5530D01*
X5992Y5551D01*
X5980Y5570D01*
X5961Y5582D01*
X5940Y5586D01*
D02*
G37*
G36*
X7937Y5565D02*
X7916Y5560D01*
X7898Y5548D01*
X7886Y5530D01*
X7881Y5508D01*
X7886Y5487D01*
X7898Y5469D01*
X7916Y5457D01*
X7937Y5452D01*
X7959Y5457D01*
X7977Y5469D01*
X7989Y5487D01*
X7993Y5508D01*
X7989Y5530D01*
X7977Y5548D01*
X7959Y5560D01*
X7937Y5565D01*
D02*
G37*
G36*
X2008Y5537D02*
X1986Y5533D01*
X1968Y5521D01*
X1956Y5503D01*
X1951Y5481D01*
X1956Y5460D01*
X1968Y5441D01*
X1986Y5429D01*
X2008Y5425D01*
X2029Y5429D01*
X2047Y5441D01*
X2059Y5460D01*
X2064Y5481D01*
X2059Y5503D01*
X2047Y5521D01*
X2029Y5533D01*
X2008Y5537D01*
D02*
G37*
G36*
X6278Y5444D02*
X6257Y5440D01*
X6239Y5427D01*
X6227Y5409D01*
X6222Y5388D01*
X6227Y5366D01*
X6239Y5348D01*
X6257Y5336D01*
X6278Y5332D01*
X6300Y5336D01*
X6318Y5348D01*
X6330Y5366D01*
X6335Y5388D01*
X6330Y5409D01*
X6318Y5427D01*
X6300Y5440D01*
X6278Y5444D01*
D02*
G37*
G36*
X4803Y5441D02*
X4782Y5437D01*
X4764Y5425D01*
X4752Y5407D01*
X4747Y5385D01*
X4752Y5364D01*
X4764Y5346D01*
X4782Y5333D01*
X4803Y5329D01*
X4825Y5333D01*
X4843Y5346D01*
X4855Y5364D01*
X4860Y5385D01*
X4855Y5407D01*
X4843Y5425D01*
X4825Y5437D01*
X4803Y5441D01*
D02*
G37*
G36*
X4603Y5439D02*
X4582Y5434D01*
X4564Y5422D01*
X4552Y5404D01*
X4547Y5383D01*
X4552Y5361D01*
X4564Y5343D01*
X4582Y5331D01*
X4603Y5327D01*
X4625Y5331D01*
X4643Y5343D01*
X4655Y5361D01*
X4660Y5383D01*
X4655Y5404D01*
X4643Y5422D01*
X4625Y5434D01*
X4603Y5439D01*
D02*
G37*
G36*
X7269Y5334D02*
X7248Y5330D01*
X7230Y5318D01*
X7217Y5299D01*
X7213Y5278D01*
X7217Y5257D01*
X7230Y5238D01*
X7248Y5226D01*
X7269Y5222D01*
X7291Y5226D01*
X7309Y5238D01*
X7321Y5257D01*
X7325Y5278D01*
X7321Y5299D01*
X7309Y5318D01*
X7291Y5330D01*
X7269Y5334D01*
D02*
G37*
G36*
X3278Y5323D02*
X3257Y5318D01*
X3239Y5306D01*
X3227Y5288D01*
X3222Y5267D01*
X3227Y5245D01*
X3239Y5227D01*
X3257Y5215D01*
X3278Y5210D01*
X3300Y5215D01*
X3318Y5227D01*
X3330Y5245D01*
X3334Y5267D01*
X3330Y5288D01*
X3318Y5306D01*
X3300Y5318D01*
X3278Y5323D01*
D02*
G37*
G36*
X4230Y5166D02*
X4209Y5162D01*
X4190Y5150D01*
X4178Y5131D01*
X4174Y5110D01*
X4178Y5089D01*
X4190Y5070D01*
X4209Y5058D01*
X4230Y5054D01*
X4251Y5058D01*
X4270Y5070D01*
X4282Y5089D01*
X4286Y5110D01*
X4282Y5131D01*
X4270Y5150D01*
X4251Y5162D01*
X4230Y5166D01*
D02*
G37*
G36*
X3534Y5098D02*
X3513Y5094D01*
X3495Y5082D01*
X3482Y5064D01*
X3478Y5042D01*
X3482Y5021D01*
X3495Y5003D01*
X3513Y4990D01*
X3534Y4986D01*
X3556Y4990D01*
X3574Y5003D01*
X3586Y5021D01*
X3590Y5042D01*
X3586Y5064D01*
X3574Y5082D01*
X3556Y5094D01*
X3534Y5098D01*
D02*
G37*
G36*
X5705Y5036D02*
X5684Y5032D01*
X5665Y5020D01*
X5653Y5001D01*
X5649Y4980D01*
X5653Y4959D01*
X5665Y4940D01*
X5684Y4928D01*
X5705Y4924D01*
X5726Y4928D01*
X5745Y4940D01*
X5757Y4959D01*
X5761Y4980D01*
X5757Y5001D01*
X5745Y5020D01*
X5726Y5032D01*
X5705Y5036D01*
D02*
G37*
G36*
X5205Y4968D02*
X5184Y4963D01*
X5165Y4951D01*
X5153Y4933D01*
X5149Y4911D01*
X5153Y4890D01*
X5165Y4872D01*
X5184Y4860D01*
X5205Y4855D01*
X5226Y4860D01*
X5245Y4872D01*
X5257Y4890D01*
X5261Y4911D01*
X5257Y4933D01*
X5245Y4951D01*
X5226Y4963D01*
X5205Y4968D01*
D02*
G37*
G36*
X5055Y4966D02*
X5034Y4962D01*
X5015Y4950D01*
X5003Y4931D01*
X4999Y4910D01*
X5003Y4889D01*
X5015Y4870D01*
X5034Y4858D01*
X5055Y4854D01*
X5076Y4858D01*
X5095Y4870D01*
X5107Y4889D01*
X5111Y4910D01*
X5107Y4931D01*
X5095Y4950D01*
X5076Y4962D01*
X5055Y4966D01*
D02*
G37*
G36*
X4910Y4966D02*
X4889Y4962D01*
X4870Y4950D01*
X4858Y4931D01*
X4854Y4910D01*
X4858Y4889D01*
X4870Y4870D01*
X4889Y4858D01*
X4910Y4854D01*
X4931Y4858D01*
X4950Y4870D01*
X4962Y4889D01*
X4966Y4910D01*
X4962Y4931D01*
X4950Y4950D01*
X4931Y4962D01*
X4910Y4966D01*
D02*
G37*
G36*
X5555Y4951D02*
X5534Y4947D01*
X5515Y4935D01*
X5503Y4916D01*
X5499Y4895D01*
X5503Y4874D01*
X5515Y4855D01*
X5534Y4843D01*
X5555Y4839D01*
X5576Y4843D01*
X5595Y4855D01*
X5607Y4874D01*
X5611Y4895D01*
X5607Y4916D01*
X5595Y4935D01*
X5576Y4947D01*
X5555Y4951D01*
D02*
G37*
G36*
X6968Y4899D02*
X6947Y4894D01*
X6929Y4882D01*
X6917Y4864D01*
X6912Y4843D01*
X6917Y4821D01*
X6929Y4803D01*
X6947Y4791D01*
X6968Y4787D01*
X6990Y4791D01*
X7008Y4803D01*
X7020Y4821D01*
X7025Y4843D01*
X7020Y4864D01*
X7008Y4882D01*
X6990Y4894D01*
X6968Y4899D01*
D02*
G37*
G36*
X6566D02*
X6544Y4894D01*
X6526Y4882D01*
X6514Y4864D01*
X6510Y4843D01*
X6514Y4821D01*
X6526Y4803D01*
X6544Y4791D01*
X6566Y4787D01*
X6587Y4791D01*
X6606Y4803D01*
X6618Y4821D01*
X6622Y4843D01*
X6618Y4864D01*
X6606Y4882D01*
X6587Y4894D01*
X6566Y4899D01*
D02*
G37*
G36*
X1107Y4884D02*
X1086Y4879D01*
X1068Y4867D01*
X1056Y4849D01*
X1051Y4827D01*
X1056Y4806D01*
X1068Y4788D01*
X1086Y4776D01*
X1107Y4771D01*
X1129Y4776D01*
X1147Y4788D01*
X1159Y4806D01*
X1164Y4827D01*
X1159Y4849D01*
X1147Y4867D01*
X1129Y4879D01*
X1107Y4884D01*
D02*
G37*
G36*
X9108Y4876D02*
X9087Y4872D01*
X9069Y4860D01*
X9057Y4842D01*
X9052Y4820D01*
X9057Y4799D01*
X9069Y4780D01*
X9087Y4768D01*
X9108Y4764D01*
X9130Y4768D01*
X9148Y4780D01*
X9160Y4799D01*
X9165Y4820D01*
X9160Y4842D01*
X9148Y4860D01*
X9130Y4872D01*
X9108Y4876D01*
D02*
G37*
G36*
X525Y4896D02*
X505D01*
X486Y4893D01*
X468Y4886D01*
X453Y4874D01*
X442Y4859D01*
X434Y4841D01*
X432Y4822D01*
X434Y4804D01*
X442Y4786D01*
X453Y4771D01*
X468Y4759D01*
X486Y4752D01*
X505Y4749D01*
X525D01*
X544Y4752D01*
X562Y4759D01*
X577Y4771D01*
X588Y4786D01*
X596Y4804D01*
X598Y4822D01*
X596Y4841D01*
X588Y4859D01*
X577Y4874D01*
X562Y4886D01*
X544Y4893D01*
X525Y4896D01*
D02*
G37*
G36*
X10555Y4894D02*
X10526Y4890D01*
X10500Y4879D01*
X10477Y4861D01*
X10459Y4838D01*
X10448Y4812D01*
X10444Y4783D01*
X10448Y4754D01*
X10459Y4728D01*
X10477Y4705D01*
X10500Y4687D01*
X10526Y4676D01*
X10555Y4672D01*
X10584Y4676D01*
X10610Y4687D01*
X10633Y4705D01*
X10651Y4728D01*
X10662Y4754D01*
X10666Y4783D01*
X10662Y4812D01*
X10651Y4838D01*
X10633Y4861D01*
X10610Y4879D01*
X10584Y4890D01*
X10555Y4894D01*
D02*
G37*
G36*
X9398Y4778D02*
X9377Y4773D01*
X9359Y4761D01*
X9347Y4743D01*
X9342Y4722D01*
X9347Y4700D01*
X9359Y4682D01*
X9377Y4670D01*
X9398Y4666D01*
X9420Y4670D01*
X9438Y4682D01*
X9450Y4700D01*
X9455Y4722D01*
X9450Y4743D01*
X9438Y4761D01*
X9420Y4773D01*
X9398Y4778D01*
D02*
G37*
G36*
X8088Y4746D02*
X8066Y4741D01*
X8048Y4729D01*
X8036Y4711D01*
X8032Y4689D01*
X8036Y4668D01*
X8048Y4650D01*
X8066Y4638D01*
X8088Y4633D01*
X8109Y4638D01*
X8127Y4650D01*
X8139Y4668D01*
X8144Y4689D01*
X8139Y4711D01*
X8127Y4729D01*
X8109Y4741D01*
X8088Y4746D01*
D02*
G37*
G36*
X4534Y4736D02*
X4512Y4732D01*
X4494Y4720D01*
X4482Y4701D01*
X4478Y4680D01*
X4482Y4658D01*
X4494Y4640D01*
X4512Y4628D01*
X4534Y4624D01*
X4555Y4628D01*
X4574Y4640D01*
X4586Y4658D01*
X4590Y4680D01*
X4586Y4701D01*
X4574Y4720D01*
X4555Y4732D01*
X4534Y4736D01*
D02*
G37*
G36*
X2240Y4722D02*
X2219Y4718D01*
X2201Y4705D01*
X2189Y4687D01*
X2184Y4666D01*
X2189Y4644D01*
X2201Y4626D01*
X2219Y4614D01*
X2240Y4610D01*
X2262Y4614D01*
X2280Y4626D01*
X2292Y4644D01*
X2296Y4666D01*
X2292Y4687D01*
X2280Y4705D01*
X2262Y4718D01*
X2240Y4722D01*
D02*
G37*
G36*
X5155Y4629D02*
X5134Y4624D01*
X5115Y4612D01*
X5111Y4606D01*
X5099D01*
X5095Y4612D01*
X5076Y4624D01*
X5055Y4629D01*
X5034Y4624D01*
X5015Y4612D01*
X5011Y4606D01*
X4999D01*
X4995Y4612D01*
X4976Y4624D01*
X4955Y4629D01*
X4934Y4624D01*
X4915Y4612D01*
X4903Y4594D01*
X4899Y4572D01*
X4903Y4551D01*
X4915Y4533D01*
X4934Y4521D01*
X4955Y4516D01*
X4976Y4521D01*
X4995Y4533D01*
X4999Y4539D01*
X5011D01*
X5015Y4533D01*
X5034Y4521D01*
X5055Y4516D01*
X5076Y4521D01*
X5095Y4533D01*
X5099Y4539D01*
X5111D01*
X5115Y4533D01*
X5134Y4521D01*
X5155Y4516D01*
X5176Y4521D01*
X5195Y4533D01*
X5207Y4551D01*
X5211Y4572D01*
X5207Y4594D01*
X5195Y4612D01*
X5176Y4624D01*
X5155Y4629D01*
D02*
G37*
G36*
X8388Y4786D02*
X8182D01*
Y4581D01*
X8388D01*
Y4786D01*
D02*
G37*
G36*
X8735Y4787D02*
X8708Y4783D01*
X8683Y4773D01*
X8662Y4757D01*
X8645Y4735D01*
X8635Y4710D01*
X8632Y4684D01*
X8635Y4657D01*
X8645Y4632D01*
X8662Y4610D01*
X8683Y4594D01*
X8708Y4584D01*
X8735Y4580D01*
X8762Y4584D01*
X8787Y4594D01*
X8808Y4610D01*
X8825Y4632D01*
X8835Y4657D01*
X8838Y4684D01*
X8835Y4710D01*
X8825Y4735D01*
X8808Y4757D01*
X8787Y4773D01*
X8762Y4783D01*
X8735Y4787D01*
D02*
G37*
G36*
X3961Y4682D02*
X3939Y4678D01*
X3921Y4666D01*
X3909Y4648D01*
X3905Y4626D01*
X3909Y4605D01*
X3921Y4586D01*
X3939Y4574D01*
X3961Y4570D01*
X3982Y4574D01*
X4001Y4586D01*
X4013Y4605D01*
X4017Y4626D01*
X4013Y4648D01*
X4001Y4666D01*
X3982Y4678D01*
X3961Y4682D01*
D02*
G37*
G36*
X5580Y4656D02*
X5559Y4652D01*
X5540Y4640D01*
X5528Y4621D01*
X5524Y4600D01*
X5526Y4588D01*
X5520Y4576D01*
X5517Y4575D01*
X5499Y4572D01*
X5480Y4560D01*
X5477Y4555D01*
X5464D01*
X5461Y4560D01*
X5443Y4572D01*
X5421Y4576D01*
X5417Y4575D01*
X5408Y4584D01*
X5410Y4594D01*
X5406Y4615D01*
X5394Y4634D01*
X5376Y4646D01*
X5354Y4650D01*
X5333Y4646D01*
X5314Y4634D01*
X5302Y4615D01*
X5298Y4594D01*
X5302Y4572D01*
X5314Y4554D01*
X5333Y4542D01*
X5354Y4538D01*
X5358Y4539D01*
X5367Y4530D01*
X5365Y4520D01*
X5370Y4499D01*
X5382Y4480D01*
X5400Y4468D01*
X5421Y4464D01*
X5443Y4468D01*
X5461Y4480D01*
X5464Y4485D01*
X5477D01*
X5480Y4480D01*
X5499Y4468D01*
X5520Y4464D01*
X5541Y4468D01*
X5560Y4480D01*
X5572Y4499D01*
X5576Y4520D01*
X5574Y4532D01*
X5580Y4544D01*
X5583Y4545D01*
X5601Y4548D01*
X5620Y4560D01*
X5632Y4579D01*
X5636Y4600D01*
X5632Y4621D01*
X5620Y4640D01*
X5601Y4652D01*
X5580Y4656D01*
D02*
G37*
G36*
X5705Y4656D02*
X5684Y4652D01*
X5665Y4640D01*
X5653Y4621D01*
X5649Y4600D01*
X5653Y4579D01*
X5665Y4560D01*
X5684Y4548D01*
X5705Y4544D01*
X5726Y4548D01*
X5745Y4560D01*
X5757Y4579D01*
X5761Y4600D01*
X5757Y4621D01*
X5745Y4640D01*
X5726Y4652D01*
X5705Y4656D01*
D02*
G37*
G36*
X215Y4656D02*
X194Y4652D01*
X175Y4640D01*
X163Y4621D01*
X159Y4600D01*
X163Y4579D01*
X175Y4560D01*
X194Y4548D01*
X215Y4544D01*
X236Y4548D01*
X255Y4560D01*
X267Y4579D01*
X271Y4600D01*
X267Y4621D01*
X255Y4640D01*
X236Y4652D01*
X215Y4656D01*
D02*
G37*
G36*
X10370Y4585D02*
X10349Y4581D01*
X10330Y4569D01*
X10318Y4550D01*
X10314Y4529D01*
X10318Y4508D01*
X10330Y4489D01*
X10349Y4477D01*
X10370Y4473D01*
X10392Y4477D01*
X10410Y4489D01*
X10422Y4508D01*
X10426Y4529D01*
X10422Y4550D01*
X10410Y4569D01*
X10392Y4581D01*
X10370Y4585D01*
D02*
G37*
G36*
X9790Y4584D02*
X9769Y4579D01*
X9751Y4567D01*
X9739Y4549D01*
X9734Y4527D01*
X9739Y4506D01*
X9751Y4488D01*
X9769Y4476D01*
X9790Y4471D01*
X9812Y4476D01*
X9830Y4488D01*
X9842Y4506D01*
X9846Y4527D01*
X9842Y4549D01*
X9830Y4567D01*
X9812Y4579D01*
X9790Y4584D01*
D02*
G37*
G36*
X10555Y4640D02*
X10526Y4636D01*
X10500Y4625D01*
X10477Y4607D01*
X10459Y4584D01*
X10448Y4558D01*
X10444Y4529D01*
X10448Y4500D01*
X10459Y4474D01*
X10477Y4451D01*
X10500Y4433D01*
X10526Y4422D01*
X10555Y4418D01*
X10584Y4422D01*
X10610Y4433D01*
X10633Y4451D01*
X10651Y4474D01*
X10662Y4500D01*
X10666Y4529D01*
X10662Y4558D01*
X10651Y4584D01*
X10633Y4607D01*
X10610Y4625D01*
X10584Y4636D01*
X10555Y4640D01*
D02*
G37*
G36*
X635Y4526D02*
X613Y4522D01*
X595Y4510D01*
X583Y4491D01*
X579Y4470D01*
X583Y4449D01*
X595Y4430D01*
X613Y4418D01*
X635Y4414D01*
X656Y4418D01*
X675Y4430D01*
X687Y4449D01*
X691Y4470D01*
X687Y4491D01*
X675Y4510D01*
X656Y4522D01*
X635Y4526D01*
D02*
G37*
G36*
X5940Y4376D02*
X5919Y4372D01*
X5905Y4363D01*
X5891Y4372D01*
X5870Y4376D01*
X5849Y4372D01*
X5830Y4360D01*
X5818Y4341D01*
X5814Y4320D01*
X5818Y4299D01*
X5827Y4285D01*
X5818Y4271D01*
X5814Y4250D01*
X5818Y4229D01*
X5830Y4210D01*
X5849Y4198D01*
X5870Y4194D01*
X5891Y4198D01*
X5905Y4207D01*
X5919Y4198D01*
X5940Y4194D01*
X5961Y4198D01*
X5963Y4200D01*
X5975Y4192D01*
X5972Y4177D01*
X5976Y4156D01*
X5988Y4138D01*
X6007Y4126D01*
X6028Y4121D01*
X6050Y4126D01*
X6068Y4138D01*
X6080Y4156D01*
X6084Y4177D01*
X6080Y4199D01*
X6068Y4217D01*
X6050Y4229D01*
X6028Y4234D01*
X6007Y4229D01*
X6005Y4228D01*
X5993Y4236D01*
X5996Y4250D01*
X5992Y4271D01*
X5983Y4285D01*
X5992Y4299D01*
X5996Y4320D01*
X5992Y4341D01*
X5980Y4360D01*
X5961Y4372D01*
X5940Y4376D01*
D02*
G37*
G36*
X978Y4456D02*
X957Y4452D01*
X939Y4440D01*
X926Y4421D01*
X922Y4400D01*
X926Y4379D01*
X939Y4360D01*
X957Y4348D01*
X978Y4344D01*
X1000Y4348D01*
X1018Y4360D01*
X1030Y4379D01*
X1034Y4400D01*
X1030Y4421D01*
X1018Y4440D01*
X1000Y4452D01*
X978Y4456D01*
D02*
G37*
G36*
X1107Y4429D02*
X1086Y4424D01*
X1068Y4412D01*
X1056Y4394D01*
X1051Y4372D01*
X1056Y4351D01*
X1068Y4333D01*
X1086Y4321D01*
X1107Y4316D01*
X1129Y4321D01*
X1147Y4333D01*
X1159Y4351D01*
X1164Y4372D01*
X1159Y4394D01*
X1147Y4412D01*
X1129Y4424D01*
X1107Y4429D01*
D02*
G37*
G36*
X525Y4451D02*
X505D01*
X486Y4448D01*
X468Y4441D01*
X453Y4429D01*
X442Y4414D01*
X434Y4396D01*
X432Y4377D01*
X434Y4359D01*
X442Y4341D01*
X453Y4326D01*
X468Y4314D01*
X486Y4307D01*
X505Y4304D01*
X525D01*
X544Y4307D01*
X562Y4314D01*
X577Y4326D01*
X588Y4341D01*
X596Y4359D01*
X598Y4377D01*
X596Y4396D01*
X588Y4414D01*
X577Y4429D01*
X562Y4441D01*
X544Y4448D01*
X525Y4451D01*
D02*
G37*
G36*
X10610Y4385D02*
X10500D01*
X10445Y4330D01*
Y4220D01*
X10500Y4165D01*
X10610D01*
X10665Y4220D01*
Y4330D01*
X10610Y4385D01*
D02*
G37*
G36*
X3658Y4250D02*
X3636Y4246D01*
X3618Y4234D01*
X3606Y4215D01*
X3602Y4194D01*
X3606Y4172D01*
X3618Y4154D01*
X3636Y4142D01*
X3658Y4138D01*
X3679Y4142D01*
X3697Y4154D01*
X3710Y4172D01*
X3714Y4194D01*
X3710Y4215D01*
X3697Y4234D01*
X3679Y4246D01*
X3658Y4250D01*
D02*
G37*
G36*
X1775Y4234D02*
X1754Y4229D01*
X1736Y4217D01*
X1724Y4199D01*
X1719Y4177D01*
X1724Y4156D01*
X1736Y4138D01*
X1754Y4126D01*
X1775Y4121D01*
X1797Y4126D01*
X1815Y4138D01*
X1827Y4156D01*
X1832Y4177D01*
X1827Y4199D01*
X1815Y4217D01*
X1797Y4229D01*
X1775Y4234D01*
D02*
G37*
G36*
X3000Y4142D02*
X2979Y4137D01*
X2960Y4125D01*
X2948Y4107D01*
X2944Y4086D01*
X2948Y4064D01*
X2960Y4046D01*
X2979Y4034D01*
X3000Y4030D01*
X3021Y4034D01*
X3040Y4046D01*
X3052Y4064D01*
X3056Y4086D01*
X3052Y4107D01*
X3040Y4125D01*
X3021Y4137D01*
X3000Y4142D01*
D02*
G37*
G36*
X9113Y4086D02*
X9092Y4082D01*
X9074Y4070D01*
X9061Y4052D01*
X9057Y4030D01*
X9061Y4009D01*
X9074Y3991D01*
X9092Y3978D01*
X9113Y3974D01*
X9135Y3978D01*
X9153Y3991D01*
X9165Y4009D01*
X9169Y4030D01*
X9165Y4052D01*
X9153Y4070D01*
X9135Y4082D01*
X9113Y4086D01*
D02*
G37*
G36*
X4130Y4059D02*
X4109Y4054D01*
X4090Y4042D01*
X4078Y4024D01*
X4074Y4003D01*
X4078Y3981D01*
X4090Y3963D01*
X4109Y3951D01*
X4130Y3947D01*
X4151Y3951D01*
X4170Y3963D01*
X4182Y3981D01*
X4186Y4003D01*
X4182Y4024D01*
X4170Y4042D01*
X4151Y4054D01*
X4130Y4059D01*
D02*
G37*
G36*
X10555Y4105D02*
X10526Y4101D01*
X10500Y4090D01*
X10477Y4072D01*
X10459Y4049D01*
X10448Y4023D01*
X10444Y3994D01*
X10448Y3965D01*
X10459Y3939D01*
X10477Y3916D01*
X10500Y3898D01*
X10526Y3887D01*
X10555Y3883D01*
X10584Y3887D01*
X10610Y3898D01*
X10633Y3916D01*
X10651Y3939D01*
X10662Y3965D01*
X10666Y3994D01*
X10662Y4023D01*
X10651Y4049D01*
X10633Y4072D01*
X10610Y4090D01*
X10584Y4101D01*
X10555Y4105D01*
D02*
G37*
G36*
X9405Y3989D02*
X9384Y3984D01*
X9365Y3972D01*
X9353Y3954D01*
X9349Y3933D01*
X9353Y3911D01*
X9365Y3893D01*
X9384Y3881D01*
X9405Y3877D01*
X9427Y3881D01*
X9445Y3893D01*
X9457Y3911D01*
X9461Y3933D01*
X9457Y3954D01*
X9445Y3972D01*
X9427Y3984D01*
X9405Y3989D01*
D02*
G37*
G36*
X4297Y3978D02*
X4276Y3974D01*
X4258Y3961D01*
X4246Y3943D01*
X4241Y3922D01*
X4246Y3900D01*
X4258Y3882D01*
X4276Y3870D01*
X4297Y3866D01*
X4319Y3870D01*
X4337Y3882D01*
X4349Y3900D01*
X4354Y3922D01*
X4349Y3943D01*
X4337Y3961D01*
X4319Y3974D01*
X4297Y3978D01*
D02*
G37*
G36*
X5000Y3956D02*
X4979Y3952D01*
X4960Y3940D01*
X4948Y3921D01*
X4944Y3900D01*
X4948Y3879D01*
X4960Y3860D01*
X4979Y3848D01*
X5000Y3844D01*
X5021Y3848D01*
X5040Y3860D01*
X5052Y3879D01*
X5056Y3900D01*
X5052Y3921D01*
X5040Y3940D01*
X5021Y3952D01*
X5000Y3956D01*
D02*
G37*
G36*
X4480Y3924D02*
X4459Y3920D01*
X4440Y3908D01*
X4428Y3890D01*
X4424Y3868D01*
X4428Y3847D01*
X4440Y3829D01*
X4459Y3816D01*
X4480Y3812D01*
X4501Y3816D01*
X4520Y3829D01*
X4532Y3847D01*
X4536Y3868D01*
X4532Y3890D01*
X4520Y3908D01*
X4501Y3920D01*
X4480Y3924D01*
D02*
G37*
G36*
X4880Y3906D02*
X4859Y3902D01*
X4840Y3890D01*
X4828Y3871D01*
X4824Y3850D01*
X4828Y3829D01*
X4840Y3810D01*
X4859Y3798D01*
X4880Y3794D01*
X4901Y3798D01*
X4920Y3810D01*
X4932Y3829D01*
X4936Y3850D01*
X4932Y3871D01*
X4920Y3890D01*
X4901Y3902D01*
X4880Y3906D01*
D02*
G37*
G36*
X6870Y3876D02*
X6849Y3872D01*
X6830Y3860D01*
X6818Y3841D01*
X6814Y3820D01*
X6818Y3799D01*
X6830Y3780D01*
X6849Y3768D01*
X6870Y3764D01*
X6891Y3768D01*
X6910Y3780D01*
X6922Y3799D01*
X6926Y3820D01*
X6922Y3841D01*
X6910Y3860D01*
X6891Y3872D01*
X6870Y3876D01*
D02*
G37*
G36*
X4297Y3849D02*
X4276Y3844D01*
X4258Y3832D01*
X4246Y3814D01*
X4241Y3792D01*
X4246Y3771D01*
X4258Y3753D01*
X4276Y3741D01*
X4297Y3736D01*
X4319Y3741D01*
X4337Y3753D01*
X4349Y3771D01*
X4354Y3792D01*
X4349Y3814D01*
X4337Y3832D01*
X4319Y3844D01*
X4297Y3849D01*
D02*
G37*
G36*
X10370Y3796D02*
X10349Y3792D01*
X10330Y3780D01*
X10318Y3761D01*
X10314Y3740D01*
X10318Y3719D01*
X10330Y3700D01*
X10349Y3688D01*
X10370Y3684D01*
X10392Y3688D01*
X10410Y3700D01*
X10422Y3719D01*
X10426Y3740D01*
X10422Y3761D01*
X10410Y3780D01*
X10392Y3792D01*
X10370Y3796D01*
D02*
G37*
G36*
X9790Y3795D02*
X9769Y3790D01*
X9751Y3778D01*
X9739Y3760D01*
X9734Y3738D01*
X9739Y3717D01*
X9751Y3699D01*
X9769Y3687D01*
X9790Y3682D01*
X9812Y3687D01*
X9830Y3699D01*
X9842Y3717D01*
X9847Y3738D01*
X9842Y3760D01*
X9830Y3778D01*
X9812Y3790D01*
X9790Y3795D01*
D02*
G37*
G36*
X8735Y3887D02*
X8708Y3883D01*
X8683Y3873D01*
X8662Y3857D01*
X8645Y3835D01*
X8635Y3810D01*
X8632Y3784D01*
X8635Y3757D01*
X8645Y3732D01*
X8662Y3710D01*
X8683Y3694D01*
X8708Y3684D01*
X8735Y3680D01*
X8762Y3684D01*
X8787Y3694D01*
X8808Y3710D01*
X8825Y3732D01*
X8835Y3757D01*
X8838Y3784D01*
X8835Y3810D01*
X8825Y3835D01*
X8808Y3857D01*
X8787Y3873D01*
X8762Y3883D01*
X8735Y3887D01*
D02*
G37*
G36*
X8285D02*
X8258Y3883D01*
X8233Y3873D01*
X8212Y3857D01*
X8195Y3835D01*
X8185Y3810D01*
X8182Y3784D01*
X8185Y3757D01*
X8195Y3732D01*
X8212Y3710D01*
X8233Y3694D01*
X8258Y3684D01*
X8285Y3680D01*
X8312Y3684D01*
X8337Y3694D01*
X8358Y3710D01*
X8375Y3732D01*
X8385Y3757D01*
X8388Y3784D01*
X8385Y3810D01*
X8375Y3835D01*
X8358Y3857D01*
X8337Y3873D01*
X8312Y3883D01*
X8285Y3887D01*
D02*
G37*
G36*
X10555Y3851D02*
X10526Y3847D01*
X10500Y3836D01*
X10477Y3818D01*
X10459Y3795D01*
X10448Y3769D01*
X10444Y3740D01*
X10448Y3711D01*
X10459Y3685D01*
X10477Y3662D01*
X10500Y3644D01*
X10526Y3633D01*
X10555Y3629D01*
X10584Y3633D01*
X10610Y3644D01*
X10633Y3662D01*
X10651Y3685D01*
X10662Y3711D01*
X10666Y3740D01*
X10662Y3769D01*
X10651Y3795D01*
X10633Y3818D01*
X10610Y3836D01*
X10584Y3847D01*
X10555Y3851D01*
D02*
G37*
G36*
X6028Y3706D02*
X6007Y3702D01*
X5988Y3690D01*
X5976Y3671D01*
X5972Y3650D01*
X5976Y3629D01*
X5988Y3610D01*
X6007Y3598D01*
X6028Y3594D01*
X6050Y3598D01*
X6068Y3610D01*
X6080Y3629D01*
X6084Y3650D01*
X6080Y3671D01*
X6068Y3690D01*
X6050Y3702D01*
X6028Y3706D01*
D02*
G37*
G36*
X525Y3706D02*
X505D01*
X486Y3703D01*
X468Y3696D01*
X453Y3684D01*
X442Y3669D01*
X434Y3651D01*
X432Y3632D01*
X434Y3614D01*
X442Y3596D01*
X453Y3581D01*
X468Y3569D01*
X486Y3562D01*
X505Y3559D01*
X525D01*
X544Y3562D01*
X562Y3569D01*
X577Y3581D01*
X588Y3596D01*
X596Y3614D01*
X598Y3632D01*
X596Y3651D01*
X588Y3669D01*
X577Y3684D01*
X562Y3696D01*
X544Y3703D01*
X525Y3706D01*
D02*
G37*
G36*
X4297Y3539D02*
X4276Y3534D01*
X4258Y3522D01*
X4246Y3504D01*
X4241Y3483D01*
X4246Y3461D01*
X4258Y3443D01*
X4276Y3431D01*
X4297Y3426D01*
X4319Y3431D01*
X4337Y3443D01*
X4349Y3461D01*
X4354Y3483D01*
X4349Y3504D01*
X4337Y3522D01*
X4319Y3534D01*
X4297Y3539D01*
D02*
G37*
G36*
X10610Y3596D02*
X10500D01*
X10445Y3541D01*
Y3431D01*
X10500Y3376D01*
X10610D01*
X10665Y3431D01*
Y3541D01*
X10610Y3596D01*
D02*
G37*
G36*
X215Y3466D02*
X194Y3462D01*
X175Y3450D01*
X163Y3431D01*
X159Y3410D01*
X163Y3389D01*
X175Y3370D01*
X194Y3358D01*
X215Y3354D01*
X236Y3358D01*
X255Y3370D01*
X267Y3389D01*
X271Y3410D01*
X267Y3431D01*
X255Y3450D01*
X236Y3462D01*
X215Y3466D01*
D02*
G37*
G36*
X2231Y3385D02*
X2210Y3381D01*
X2191Y3369D01*
X2179Y3350D01*
X2175Y3329D01*
X2179Y3308D01*
X2191Y3289D01*
X2210Y3277D01*
X2231Y3273D01*
X2252Y3277D01*
X2271Y3289D01*
X2283Y3308D01*
X2287Y3329D01*
X2283Y3350D01*
X2271Y3369D01*
X2252Y3381D01*
X2231Y3385D01*
D02*
G37*
G36*
X635Y3336D02*
X613Y3332D01*
X595Y3320D01*
X583Y3301D01*
X579Y3280D01*
X583Y3259D01*
X595Y3240D01*
X613Y3228D01*
X635Y3224D01*
X656Y3228D01*
X675Y3240D01*
X687Y3259D01*
X691Y3280D01*
X687Y3301D01*
X675Y3320D01*
X656Y3332D01*
X635Y3336D01*
D02*
G37*
G36*
X4050Y3298D02*
X4029Y3293D01*
X4010Y3281D01*
X3998Y3263D01*
X3994Y3242D01*
X3998Y3220D01*
X4010Y3202D01*
X4029Y3190D01*
X4050Y3186D01*
X4071Y3190D01*
X4090Y3202D01*
X4102Y3220D01*
X4106Y3242D01*
X4102Y3263D01*
X4090Y3281D01*
X4071Y3293D01*
X4050Y3298D01*
D02*
G37*
G36*
X1180Y3276D02*
X1159Y3271D01*
X1140Y3259D01*
X1128Y3241D01*
X1124Y3219D01*
X1128Y3198D01*
X1140Y3180D01*
X1159Y3168D01*
X1180Y3163D01*
X1201Y3168D01*
X1220Y3180D01*
X1232Y3198D01*
X1236Y3219D01*
X1232Y3241D01*
X1220Y3259D01*
X1201Y3271D01*
X1180Y3276D01*
D02*
G37*
G36*
X1980D02*
X1959Y3271D01*
X1940Y3259D01*
X1928Y3241D01*
X1924Y3219D01*
X1928Y3198D01*
X1940Y3180D01*
X1959Y3168D01*
X1980Y3163D01*
X2001Y3168D01*
X2020Y3180D01*
X2031Y3198D01*
X2034Y3198D01*
X2045Y3197D01*
X2048Y3179D01*
X2060Y3160D01*
X2079Y3148D01*
X2100Y3144D01*
X2121Y3148D01*
X2140Y3160D01*
X2152Y3179D01*
X2156Y3200D01*
X2152Y3221D01*
X2140Y3240D01*
X2121Y3252D01*
X2100Y3256D01*
X2079Y3252D01*
X2060Y3240D01*
X2049Y3222D01*
X2046Y3222D01*
X2035Y3223D01*
X2032Y3241D01*
X2020Y3259D01*
X2001Y3271D01*
X1980Y3276D01*
D02*
G37*
G36*
X7400Y3241D02*
X7379Y3237D01*
X7360Y3225D01*
X7348Y3206D01*
X7344Y3185D01*
X7348Y3164D01*
X7360Y3145D01*
X7379Y3133D01*
X7400Y3129D01*
X7421Y3133D01*
X7440Y3145D01*
X7452Y3164D01*
X7456Y3185D01*
X7452Y3206D01*
X7440Y3225D01*
X7421Y3237D01*
X7400Y3241D01*
D02*
G37*
G36*
X525Y3261D02*
X505D01*
X486Y3258D01*
X468Y3251D01*
X453Y3239D01*
X442Y3224D01*
X434Y3206D01*
X432Y3187D01*
X434Y3169D01*
X442Y3151D01*
X453Y3136D01*
X468Y3124D01*
X486Y3117D01*
X505Y3114D01*
X525D01*
X544Y3117D01*
X562Y3124D01*
X577Y3136D01*
X588Y3151D01*
X596Y3169D01*
X598Y3187D01*
X596Y3206D01*
X588Y3224D01*
X577Y3239D01*
X562Y3251D01*
X544Y3258D01*
X525Y3261D01*
D02*
G37*
G36*
X10555Y3321D02*
X10526Y3317D01*
X10500Y3306D01*
X10477Y3288D01*
X10459Y3265D01*
X10448Y3239D01*
X10444Y3210D01*
X10448Y3181D01*
X10459Y3155D01*
X10477Y3132D01*
X10500Y3114D01*
X10526Y3103D01*
X10555Y3099D01*
X10584Y3103D01*
X10610Y3114D01*
X10633Y3132D01*
X10651Y3155D01*
X10662Y3181D01*
X10666Y3210D01*
X10662Y3239D01*
X10651Y3265D01*
X10633Y3288D01*
X10610Y3306D01*
X10584Y3317D01*
X10555Y3321D01*
D02*
G37*
G36*
X4050Y3098D02*
X4029Y3093D01*
X4010Y3081D01*
X3998Y3063D01*
X3994Y3042D01*
X3998Y3020D01*
X4010Y3002D01*
X4029Y2990D01*
X4050Y2986D01*
X4071Y2990D01*
X4090Y3002D01*
X4102Y3020D01*
X4106Y3042D01*
X4102Y3063D01*
X4090Y3081D01*
X4071Y3093D01*
X4050Y3098D01*
D02*
G37*
G36*
X4620Y3046D02*
X4599Y3042D01*
X4580Y3030D01*
X4568Y3011D01*
X4564Y2990D01*
X4568Y2969D01*
X4580Y2950D01*
X4599Y2938D01*
X4620Y2934D01*
X4641Y2938D01*
X4660Y2950D01*
X4672Y2969D01*
X4676Y2990D01*
X4672Y3011D01*
X4660Y3030D01*
X4641Y3042D01*
X4620Y3046D01*
D02*
G37*
G36*
X10555Y3067D02*
X10526Y3063D01*
X10500Y3052D01*
X10477Y3034D01*
X10459Y3011D01*
X10448Y2985D01*
X10444Y2956D01*
X10448Y2927D01*
X10459Y2901D01*
X10477Y2878D01*
X10500Y2860D01*
X10526Y2849D01*
X10555Y2845D01*
X10584Y2849D01*
X10610Y2860D01*
X10633Y2878D01*
X10651Y2901D01*
X10662Y2927D01*
X10666Y2956D01*
X10662Y2985D01*
X10651Y3011D01*
X10633Y3034D01*
X10610Y3052D01*
X10584Y3063D01*
X10555Y3067D01*
D02*
G37*
G36*
X1640Y2926D02*
X1619Y2922D01*
X1600Y2910D01*
X1588Y2891D01*
X1584Y2870D01*
X1588Y2849D01*
X1600Y2830D01*
X1619Y2818D01*
X1640Y2814D01*
X1661Y2818D01*
X1680Y2830D01*
X1692Y2849D01*
X1696Y2870D01*
X1692Y2891D01*
X1680Y2910D01*
X1661Y2922D01*
X1640Y2926D01*
D02*
G37*
G36*
X4905Y2906D02*
X4884Y2902D01*
X4865Y2890D01*
X4853Y2871D01*
X4849Y2850D01*
X4853Y2829D01*
X4865Y2810D01*
X4884Y2798D01*
X4905Y2794D01*
X4926Y2798D01*
X4945Y2810D01*
X4957Y2829D01*
X4961Y2850D01*
X4957Y2871D01*
X4945Y2890D01*
X4926Y2902D01*
X4905Y2906D01*
D02*
G37*
G36*
X4770Y2904D02*
X4749Y2900D01*
X4730Y2888D01*
X4718Y2870D01*
X4714Y2848D01*
X4718Y2827D01*
X4730Y2809D01*
X4749Y2797D01*
X4770Y2792D01*
X4791Y2797D01*
X4810Y2809D01*
X4822Y2827D01*
X4826Y2848D01*
X4822Y2870D01*
X4810Y2888D01*
X4791Y2900D01*
X4770Y2904D01*
D02*
G37*
G36*
X4640D02*
X4619Y2900D01*
X4600Y2888D01*
X4588Y2870D01*
X4584Y2848D01*
X4588Y2827D01*
X4600Y2809D01*
X4619Y2797D01*
X4640Y2792D01*
X4661Y2797D01*
X4680Y2809D01*
X4692Y2827D01*
X4696Y2848D01*
X4692Y2870D01*
X4680Y2888D01*
X4661Y2900D01*
X4640Y2904D01*
D02*
G37*
G36*
X7400Y2861D02*
X7379Y2857D01*
X7360Y2845D01*
X7348Y2826D01*
X7344Y2805D01*
X7348Y2784D01*
X7360Y2765D01*
X7379Y2753D01*
X7400Y2749D01*
X7421Y2753D01*
X7440Y2765D01*
X7452Y2784D01*
X7456Y2805D01*
X7452Y2826D01*
X7440Y2845D01*
X7421Y2857D01*
X7400Y2861D01*
D02*
G37*
G36*
X2416Y2826D02*
X2395Y2822D01*
X2377Y2810D01*
X2364Y2791D01*
X2360Y2770D01*
X2364Y2749D01*
X2377Y2730D01*
X2395Y2718D01*
X2416Y2714D01*
X2438Y2718D01*
X2456Y2730D01*
X2468Y2749D01*
X2472Y2770D01*
X2468Y2791D01*
X2456Y2810D01*
X2438Y2822D01*
X2416Y2826D01*
D02*
G37*
G36*
X3097Y2803D02*
X3076Y2799D01*
X3057Y2787D01*
X3045Y2769D01*
X3041Y2747D01*
X3045Y2726D01*
X3057Y2707D01*
X3076Y2695D01*
X3097Y2691D01*
X3119Y2695D01*
X3137Y2707D01*
X3149Y2726D01*
X3153Y2747D01*
X3149Y2769D01*
X3137Y2787D01*
X3119Y2799D01*
X3097Y2803D01*
D02*
G37*
G36*
X8615Y2796D02*
X8594Y2792D01*
X8575Y2780D01*
X8563Y2761D01*
X8559Y2740D01*
X8563Y2719D01*
X8575Y2700D01*
X8594Y2688D01*
X8615Y2684D01*
X8636Y2688D01*
X8655Y2700D01*
X8667Y2719D01*
X8671Y2740D01*
X8667Y2761D01*
X8655Y2780D01*
X8636Y2792D01*
X8615Y2796D01*
D02*
G37*
G36*
X8143D02*
X8122Y2792D01*
X8104Y2780D01*
X8092Y2761D01*
X8087Y2740D01*
X8092Y2719D01*
X8104Y2700D01*
X8122Y2688D01*
X8143Y2684D01*
X8165Y2688D01*
X8183Y2700D01*
X8195Y2719D01*
X8200Y2740D01*
X8195Y2761D01*
X8183Y2780D01*
X8165Y2792D01*
X8143Y2796D01*
D02*
G37*
G36*
X9990Y2758D02*
X9969Y2754D01*
X9950Y2742D01*
X9938Y2723D01*
X9934Y2702D01*
X9938Y2681D01*
X9950Y2662D01*
X9969Y2650D01*
X9990Y2646D01*
X10011Y2650D01*
X10030Y2662D01*
X10042Y2681D01*
X10046Y2702D01*
X10042Y2723D01*
X10030Y2742D01*
X10011Y2754D01*
X9990Y2758D01*
D02*
G37*
G36*
X4322Y2716D02*
X4300Y2712D01*
X4282Y2700D01*
X4270Y2682D01*
X4266Y2660D01*
X4270Y2639D01*
X4282Y2620D01*
X4300Y2608D01*
X4322Y2604D01*
X4343Y2608D01*
X4362Y2620D01*
X4374Y2639D01*
X4378Y2660D01*
X4374Y2682D01*
X4362Y2700D01*
X4343Y2712D01*
X4322Y2716D01*
D02*
G37*
G36*
X10555Y2813D02*
X10526Y2809D01*
X10500Y2798D01*
X10477Y2780D01*
X10459Y2757D01*
X10448Y2731D01*
X10444Y2702D01*
X10448Y2673D01*
X10459Y2647D01*
X10477Y2624D01*
X10500Y2606D01*
X10526Y2595D01*
X10555Y2591D01*
X10584Y2595D01*
X10610Y2606D01*
X10633Y2624D01*
X10651Y2647D01*
X10662Y2673D01*
X10666Y2702D01*
X10662Y2731D01*
X10651Y2757D01*
X10633Y2780D01*
X10610Y2798D01*
X10584Y2809D01*
X10555Y2813D01*
D02*
G37*
G36*
X5480Y2676D02*
X5459Y2672D01*
X5440Y2660D01*
X5428Y2641D01*
X5424Y2620D01*
X5428Y2599D01*
X5440Y2580D01*
X5459Y2568D01*
X5480Y2564D01*
X5501Y2568D01*
X5520Y2580D01*
X5532Y2599D01*
X5536Y2620D01*
X5532Y2641D01*
X5520Y2660D01*
X5501Y2672D01*
X5480Y2676D01*
D02*
G37*
G36*
X6055Y2658D02*
X6034Y2653D01*
X6015Y2641D01*
X6003Y2623D01*
X5999Y2602D01*
X6003Y2580D01*
X6015Y2562D01*
X6034Y2550D01*
X6055Y2545D01*
X6076Y2550D01*
X6095Y2562D01*
X6107Y2580D01*
X6111Y2602D01*
X6107Y2623D01*
X6095Y2641D01*
X6076Y2653D01*
X6055Y2658D01*
D02*
G37*
G36*
X882Y2641D02*
X861Y2637D01*
X843Y2625D01*
X830Y2607D01*
X826Y2585D01*
X830Y2564D01*
X843Y2545D01*
X861Y2533D01*
X882Y2529D01*
X904Y2533D01*
X922Y2545D01*
X934Y2564D01*
X938Y2585D01*
X934Y2607D01*
X922Y2625D01*
X904Y2637D01*
X882Y2641D01*
D02*
G37*
G36*
X4905Y2616D02*
X4884Y2612D01*
X4865Y2600D01*
X4853Y2581D01*
X4849Y2560D01*
X4853Y2539D01*
X4865Y2520D01*
X4884Y2508D01*
X4905Y2504D01*
X4926Y2508D01*
X4945Y2520D01*
X4957Y2539D01*
X4961Y2560D01*
X4957Y2581D01*
X4945Y2600D01*
X4926Y2612D01*
X4905Y2616D01*
D02*
G37*
G36*
X1170Y2586D02*
X1149Y2582D01*
X1130Y2570D01*
X1118Y2552D01*
X1114Y2530D01*
X1118Y2509D01*
X1130Y2490D01*
X1149Y2478D01*
X1170Y2474D01*
X1191Y2478D01*
X1210Y2490D01*
X1222Y2509D01*
X1226Y2530D01*
X1222Y2552D01*
X1210Y2570D01*
X1191Y2582D01*
X1170Y2586D01*
D02*
G37*
G36*
X1490Y2586D02*
X1469Y2582D01*
X1450Y2570D01*
X1438Y2551D01*
X1434Y2530D01*
X1438Y2509D01*
X1450Y2490D01*
X1469Y2478D01*
X1490Y2474D01*
X1511Y2478D01*
X1530Y2490D01*
X1542Y2509D01*
X1546Y2530D01*
X1542Y2551D01*
X1530Y2570D01*
X1511Y2582D01*
X1490Y2586D01*
D02*
G37*
G36*
X5500Y2546D02*
X5479Y2542D01*
X5460Y2530D01*
X5448Y2511D01*
X5444Y2490D01*
X5448Y2469D01*
X5460Y2450D01*
X5479Y2438D01*
X5500Y2434D01*
X5521Y2438D01*
X5540Y2450D01*
X5552Y2469D01*
X5556Y2490D01*
X5552Y2511D01*
X5540Y2530D01*
X5521Y2542D01*
X5500Y2546D01*
D02*
G37*
G36*
X9286Y2505D02*
X9265Y2501D01*
X9246Y2489D01*
X9234Y2470D01*
X9230Y2449D01*
X9234Y2427D01*
X9246Y2409D01*
X9265Y2397D01*
X9286Y2393D01*
X9307Y2397D01*
X9326Y2409D01*
X9338Y2427D01*
X9342Y2449D01*
X9338Y2470D01*
X9326Y2489D01*
X9307Y2501D01*
X9286Y2505D01*
D02*
G37*
G36*
X2780Y2486D02*
X2759Y2482D01*
X2740Y2470D01*
X2728Y2451D01*
X2724Y2430D01*
X2728Y2409D01*
X2740Y2390D01*
X2759Y2378D01*
X2780Y2374D01*
X2801Y2378D01*
X2820Y2390D01*
X2832Y2409D01*
X2836Y2430D01*
X2832Y2451D01*
X2820Y2470D01*
X2801Y2482D01*
X2780Y2486D01*
D02*
G37*
G36*
X10555Y2559D02*
X10526Y2555D01*
X10500Y2544D01*
X10477Y2526D01*
X10459Y2503D01*
X10448Y2477D01*
X10444Y2448D01*
X10448Y2419D01*
X10459Y2393D01*
X10477Y2370D01*
X10500Y2352D01*
X10526Y2341D01*
X10555Y2337D01*
X10584Y2341D01*
X10610Y2352D01*
X10633Y2370D01*
X10651Y2393D01*
X10662Y2419D01*
X10666Y2448D01*
X10662Y2477D01*
X10651Y2503D01*
X10633Y2526D01*
X10610Y2544D01*
X10584Y2555D01*
X10555Y2559D01*
D02*
G37*
G36*
X2340Y2206D02*
X2319Y2202D01*
X2300Y2190D01*
X2290D01*
X2271Y2202D01*
X2250Y2206D01*
X2229Y2202D01*
X2210Y2190D01*
X2198Y2171D01*
X2194Y2150D01*
X2198Y2129D01*
X2210Y2110D01*
X2229Y2098D01*
X2250Y2094D01*
X2271Y2098D01*
X2290Y2110D01*
X2300D01*
X2319Y2098D01*
X2340Y2094D01*
X2361Y2098D01*
X2380Y2110D01*
X2392Y2129D01*
X2396Y2150D01*
X2392Y2171D01*
X2380Y2190D01*
X2361Y2202D01*
X2340Y2206D01*
D02*
G37*
G36*
X884Y2281D02*
X862Y2277D01*
X844Y2265D01*
X832Y2247D01*
X828Y2225D01*
X832Y2204D01*
X844Y2185D01*
X862Y2173D01*
X884Y2169D01*
X905Y2173D01*
X923Y2185D01*
X936Y2204D01*
X940Y2225D01*
X936Y2247D01*
X923Y2265D01*
X905Y2277D01*
X884Y2281D01*
D02*
G37*
G36*
X9286Y2251D02*
X9265Y2247D01*
X9246Y2235D01*
X9234Y2216D01*
X9230Y2195D01*
X9234Y2173D01*
X9246Y2155D01*
X9265Y2143D01*
X9286Y2139D01*
X9307Y2143D01*
X9326Y2155D01*
X9338Y2173D01*
X9342Y2195D01*
X9338Y2216D01*
X9326Y2235D01*
X9307Y2247D01*
X9286Y2251D01*
D02*
G37*
G36*
X3781Y2240D02*
X3759Y2236D01*
X3741Y2224D01*
X3729Y2206D01*
X3725Y2184D01*
X3729Y2163D01*
X3741Y2145D01*
X3759Y2132D01*
X3781Y2128D01*
X3802Y2132D01*
X3821Y2145D01*
X3833Y2163D01*
X3837Y2184D01*
X3833Y2206D01*
X3821Y2224D01*
X3802Y2236D01*
X3781Y2240D01*
D02*
G37*
G36*
X3576Y2240D02*
X3554Y2236D01*
X3536Y2224D01*
X3524Y2206D01*
X3520Y2184D01*
X3524Y2163D01*
X3536Y2145D01*
X3554Y2132D01*
X3576Y2128D01*
X3597Y2132D01*
X3616Y2145D01*
X3628Y2163D01*
X3632Y2184D01*
X3628Y2206D01*
X3616Y2224D01*
X3597Y2236D01*
X3576Y2240D01*
D02*
G37*
G36*
X4590Y2236D02*
X4569Y2232D01*
X4550Y2220D01*
X4538Y2201D01*
X4534Y2180D01*
X4538Y2159D01*
X4550Y2140D01*
X4569Y2128D01*
X4590Y2124D01*
X4611Y2128D01*
X4630Y2140D01*
X4642Y2159D01*
X4646Y2180D01*
X4642Y2201D01*
X4630Y2220D01*
X4611Y2232D01*
X4590Y2236D01*
D02*
G37*
G36*
X10555Y2305D02*
X10526Y2301D01*
X10500Y2290D01*
X10477Y2272D01*
X10459Y2249D01*
X10448Y2223D01*
X10444Y2194D01*
X10448Y2165D01*
X10459Y2139D01*
X10477Y2116D01*
X10500Y2098D01*
X10526Y2087D01*
X10555Y2083D01*
X10584Y2087D01*
X10610Y2098D01*
X10633Y2116D01*
X10651Y2139D01*
X10662Y2165D01*
X10666Y2194D01*
X10662Y2223D01*
X10651Y2249D01*
X10633Y2272D01*
X10610Y2290D01*
X10584Y2301D01*
X10555Y2305D01*
D02*
G37*
G36*
X150Y2126D02*
X129Y2122D01*
X110Y2110D01*
X98Y2092D01*
X94Y2070D01*
X98Y2049D01*
X110Y2030D01*
X129Y2018D01*
X150Y2014D01*
X171Y2018D01*
X190Y2030D01*
X202Y2049D01*
X206Y2070D01*
X202Y2092D01*
X190Y2110D01*
X171Y2122D01*
X150Y2126D01*
D02*
G37*
G36*
X4528Y2026D02*
X4507Y2022D01*
X4489Y2010D01*
X4476Y1991D01*
X4472Y1970D01*
X4476Y1949D01*
X4489Y1930D01*
X4507Y1918D01*
X4528Y1914D01*
X4550Y1918D01*
X4568Y1930D01*
X4580Y1949D01*
X4584Y1970D01*
X4580Y1991D01*
X4568Y2010D01*
X4550Y2022D01*
X4528Y2026D01*
D02*
G37*
G36*
X3534D02*
X3513Y2022D01*
X3495Y2010D01*
X3482Y1991D01*
X3478Y1970D01*
X3482Y1949D01*
X3495Y1930D01*
X3513Y1918D01*
X3534Y1914D01*
X3556Y1918D01*
X3574Y1930D01*
X3586Y1949D01*
X3590Y1970D01*
X3586Y1991D01*
X3574Y2010D01*
X3556Y2022D01*
X3534Y2026D01*
D02*
G37*
G36*
X9741Y1983D02*
Y1895D01*
X9829D01*
X9828Y1900D01*
X9817Y1928D01*
X9798Y1952D01*
X9774Y1971D01*
X9746Y1982D01*
X9741Y1983D01*
D02*
G37*
G36*
X9691D02*
X9686Y1982D01*
X9658Y1971D01*
X9634Y1952D01*
X9615Y1928D01*
X9604Y1900D01*
X9603Y1895D01*
X9691D01*
Y1983D01*
D02*
G37*
G36*
X5916Y1953D02*
Y1865D01*
X6004D01*
X6003Y1870D01*
X5992Y1898D01*
X5973Y1922D01*
X5949Y1941D01*
X5921Y1952D01*
X5916Y1953D01*
D02*
G37*
G36*
X5866Y1953D02*
X5861Y1952D01*
X5833Y1941D01*
X5809Y1922D01*
X5790Y1898D01*
X5779Y1870D01*
X5778Y1865D01*
X5866D01*
Y1953D01*
D02*
G37*
G36*
X10610Y2050D02*
X10500D01*
X10445Y1995D01*
Y1885D01*
X10500Y1830D01*
X10610D01*
X10665Y1885D01*
Y1995D01*
X10610Y2050D01*
D02*
G37*
G36*
X4820Y1894D02*
X4799Y1890D01*
X4780Y1878D01*
X4768Y1860D01*
X4764Y1838D01*
X4768Y1817D01*
X4780Y1799D01*
X4799Y1786D01*
X4820Y1782D01*
X4841Y1786D01*
X4860Y1799D01*
X4872Y1817D01*
X4876Y1838D01*
X4872Y1860D01*
X4860Y1878D01*
X4841Y1890D01*
X4820Y1894D01*
D02*
G37*
G36*
X10224Y1981D02*
X10195Y1977D01*
X10169Y1966D01*
X10146Y1948D01*
X10128Y1925D01*
X10117Y1899D01*
X10113Y1870D01*
X10117Y1841D01*
X10128Y1815D01*
X10146Y1792D01*
X10169Y1774D01*
X10195Y1763D01*
X10224Y1759D01*
X10253Y1763D01*
X10279Y1774D01*
X10302Y1792D01*
X10320Y1815D01*
X10331Y1841D01*
X10335Y1870D01*
X10331Y1899D01*
X10320Y1925D01*
X10302Y1948D01*
X10279Y1966D01*
X10253Y1977D01*
X10224Y1981D01*
D02*
G37*
G36*
X9970D02*
X9941Y1977D01*
X9915Y1966D01*
X9892Y1948D01*
X9874Y1925D01*
X9863Y1899D01*
X9859Y1870D01*
X9863Y1841D01*
X9874Y1815D01*
X9892Y1792D01*
X9915Y1774D01*
X9941Y1763D01*
X9970Y1759D01*
X9999Y1763D01*
X10025Y1774D01*
X10048Y1792D01*
X10066Y1815D01*
X10077Y1841D01*
X10081Y1870D01*
X10077Y1899D01*
X10066Y1925D01*
X10048Y1948D01*
X10025Y1966D01*
X9999Y1977D01*
X9970Y1981D01*
D02*
G37*
G36*
X9829Y1845D02*
X9741D01*
Y1757D01*
X9746Y1758D01*
X9774Y1769D01*
X9798Y1788D01*
X9817Y1812D01*
X9828Y1840D01*
X9829Y1845D01*
D02*
G37*
G36*
X9691D02*
X9603D01*
X9604Y1840D01*
X9615Y1812D01*
X9634Y1788D01*
X9658Y1769D01*
X9686Y1758D01*
X9691Y1757D01*
Y1845D01*
D02*
G37*
G36*
X5637Y1951D02*
X5608Y1947D01*
X5582Y1936D01*
X5559Y1918D01*
X5541Y1895D01*
X5530Y1869D01*
X5526Y1840D01*
X5530Y1811D01*
X5541Y1785D01*
X5559Y1762D01*
X5582Y1744D01*
X5608Y1733D01*
X5637Y1729D01*
X5666Y1733D01*
X5692Y1744D01*
X5715Y1762D01*
X5733Y1785D01*
X5744Y1811D01*
X5748Y1840D01*
X5744Y1869D01*
X5733Y1895D01*
X5715Y1918D01*
X5692Y1936D01*
X5666Y1947D01*
X5637Y1951D01*
D02*
G37*
G36*
X5383D02*
X5354Y1947D01*
X5328Y1936D01*
X5305Y1918D01*
X5287Y1895D01*
X5276Y1869D01*
X5272Y1840D01*
X5276Y1811D01*
X5287Y1785D01*
X5305Y1762D01*
X5328Y1744D01*
X5354Y1733D01*
X5383Y1729D01*
X5412Y1733D01*
X5438Y1744D01*
X5461Y1762D01*
X5479Y1785D01*
X5490Y1811D01*
X5494Y1840D01*
X5490Y1869D01*
X5479Y1895D01*
X5461Y1918D01*
X5438Y1936D01*
X5412Y1947D01*
X5383Y1951D01*
D02*
G37*
G36*
X5129D02*
X5100Y1947D01*
X5074Y1936D01*
X5051Y1918D01*
X5033Y1895D01*
X5022Y1869D01*
X5018Y1840D01*
X5022Y1811D01*
X5033Y1785D01*
X5051Y1762D01*
X5074Y1744D01*
X5100Y1733D01*
X5129Y1729D01*
X5158Y1733D01*
X5184Y1744D01*
X5207Y1762D01*
X5225Y1785D01*
X5236Y1811D01*
X5240Y1840D01*
X5236Y1869D01*
X5225Y1895D01*
X5207Y1918D01*
X5184Y1936D01*
X5158Y1947D01*
X5129Y1951D01*
D02*
G37*
G36*
X5866Y1815D02*
X5778D01*
X5779Y1810D01*
X5790Y1782D01*
X5809Y1758D01*
X5833Y1739D01*
X5861Y1728D01*
X5866Y1727D01*
Y1815D01*
D02*
G37*
G36*
X6004D02*
X5916D01*
Y1727D01*
X5921Y1728D01*
X5949Y1739D01*
X5973Y1758D01*
X5992Y1782D01*
X6003Y1810D01*
X6004Y1815D01*
D02*
G37*
G36*
X2067Y1831D02*
X1467D01*
X1449Y1828D01*
X1432Y1821D01*
X1418Y1810D01*
X1406Y1795D01*
X1399Y1778D01*
X1397Y1760D01*
X1399Y1742D01*
X1406Y1725D01*
X1418Y1710D01*
X1432Y1699D01*
X1449Y1692D01*
X1467Y1689D01*
X2067D01*
X2086Y1692D01*
X2103Y1699D01*
X2117Y1710D01*
X2129Y1725D01*
X2136Y1742D01*
X2138Y1760D01*
X2136Y1778D01*
X2129Y1795D01*
X2117Y1810D01*
X2103Y1821D01*
X2086Y1828D01*
X2067Y1831D01*
D02*
G37*
G36*
X4066Y1646D02*
X4044Y1642D01*
X4026Y1630D01*
X4018Y1618D01*
X4003D01*
X3996Y1630D01*
X3977Y1642D01*
X3956Y1646D01*
X3934Y1642D01*
X3916Y1630D01*
X3904Y1611D01*
X3900Y1590D01*
X3904Y1569D01*
X3916Y1550D01*
X3934Y1538D01*
X3956Y1534D01*
X3977Y1538D01*
X3996Y1550D01*
X4003Y1562D01*
X4018D01*
X4026Y1550D01*
X4044Y1538D01*
X4066Y1534D01*
X4087Y1538D01*
X4106Y1550D01*
X4118Y1569D01*
X4122Y1590D01*
X4118Y1611D01*
X4106Y1630D01*
X4087Y1642D01*
X4066Y1646D01*
D02*
G37*
G36*
X710Y1701D02*
Y1613D01*
X798D01*
X797Y1618D01*
X786Y1646D01*
X767Y1670D01*
X743Y1688D01*
X715Y1700D01*
X710Y1701D01*
D02*
G37*
G36*
X660D02*
X655Y1700D01*
X627Y1688D01*
X603Y1670D01*
X584Y1646D01*
X573Y1618D01*
X572Y1613D01*
X660D01*
Y1701D01*
D02*
G37*
G36*
X10555Y1772D02*
X10526Y1768D01*
X10500Y1757D01*
X10477Y1739D01*
X10459Y1716D01*
X10448Y1690D01*
X10444Y1661D01*
X10448Y1632D01*
X10459Y1606D01*
X10477Y1583D01*
X10500Y1565D01*
X10526Y1554D01*
X10555Y1550D01*
X10584Y1554D01*
X10610Y1565D01*
X10633Y1583D01*
X10651Y1606D01*
X10662Y1632D01*
X10666Y1661D01*
X10662Y1690D01*
X10651Y1716D01*
X10633Y1739D01*
X10610Y1757D01*
X10584Y1768D01*
X10555Y1772D01*
D02*
G37*
G36*
X3626Y1646D02*
X3604Y1642D01*
X3586Y1630D01*
X3574Y1611D01*
X3570Y1590D01*
X3574Y1569D01*
X3586Y1550D01*
X3604Y1538D01*
X3626Y1534D01*
X3647Y1538D01*
X3666Y1550D01*
X3678Y1569D01*
X3682Y1590D01*
X3678Y1611D01*
X3666Y1630D01*
X3647Y1642D01*
X3626Y1646D01*
D02*
G37*
G36*
X4590Y1636D02*
X4569Y1632D01*
X4550Y1620D01*
X4538Y1601D01*
X4534Y1580D01*
X4538Y1559D01*
X4550Y1540D01*
X4569Y1528D01*
X4590Y1524D01*
X4611Y1528D01*
X4630Y1540D01*
X4642Y1559D01*
X4646Y1580D01*
X4642Y1601D01*
X4630Y1620D01*
X4611Y1632D01*
X4590Y1636D01*
D02*
G37*
G36*
X2350Y1841D02*
X2332Y1838D01*
X2315Y1831D01*
X2300Y1820D01*
X2289Y1805D01*
X2282Y1788D01*
X2279Y1770D01*
Y1570D01*
X2282Y1552D01*
X2289Y1535D01*
X2300Y1520D01*
X2315Y1509D01*
X2332Y1502D01*
X2350Y1499D01*
X2368Y1502D01*
X2385Y1509D01*
X2400Y1520D01*
X2411Y1535D01*
X2418Y1552D01*
X2421Y1570D01*
Y1770D01*
X2418Y1788D01*
X2411Y1805D01*
X2400Y1820D01*
X2385Y1831D01*
X2368Y1838D01*
X2350Y1841D01*
D02*
G37*
G36*
X6550Y1586D02*
X6517D01*
Y1496D01*
X6608D01*
Y1528D01*
X6550Y1586D01*
D02*
G37*
G36*
X7900D02*
X7867D01*
Y1496D01*
X7958D01*
Y1528D01*
X7900Y1586D01*
D02*
G37*
G36*
X5916Y1584D02*
Y1496D01*
X6004D01*
X6003Y1501D01*
X5992Y1529D01*
X5973Y1553D01*
X5949Y1571D01*
X5921Y1583D01*
X5916Y1584D01*
D02*
G37*
G36*
X5866Y1584D02*
X5861Y1583D01*
X5833Y1571D01*
X5809Y1553D01*
X5790Y1529D01*
X5779Y1501D01*
X5778Y1496D01*
X5866D01*
Y1584D01*
D02*
G37*
G36*
X7817Y1586D02*
X7784D01*
X7727Y1528D01*
Y1496D01*
X7817D01*
Y1586D01*
D02*
G37*
G36*
X6467D02*
X6434D01*
X6377Y1528D01*
Y1496D01*
X6467D01*
Y1586D01*
D02*
G37*
G36*
X798Y1563D02*
X710D01*
Y1475D01*
X715Y1475D01*
X743Y1487D01*
X767Y1505D01*
X786Y1529D01*
X797Y1557D01*
X798Y1563D01*
D02*
G37*
G36*
X660D02*
X572D01*
X573Y1557D01*
X584Y1529D01*
X603Y1505D01*
X627Y1487D01*
X655Y1475D01*
X660Y1475D01*
Y1563D01*
D02*
G37*
G36*
X9190Y1540D02*
X9169Y1535D01*
X9150Y1523D01*
X9138Y1505D01*
X9134Y1483D01*
X9138Y1462D01*
X9150Y1444D01*
X9169Y1432D01*
X9190Y1427D01*
X9211Y1432D01*
X9230Y1444D01*
X9242Y1462D01*
X9246Y1483D01*
X9242Y1505D01*
X9230Y1523D01*
X9211Y1535D01*
X9190Y1540D01*
D02*
G37*
G36*
X2136Y1499D02*
X2114Y1495D01*
X2096Y1483D01*
X2084Y1465D01*
X2080Y1443D01*
X2084Y1422D01*
X2096Y1403D01*
X2114Y1391D01*
X2136Y1387D01*
X2157Y1391D01*
X2176Y1403D01*
X2188Y1422D01*
X2192Y1443D01*
X2188Y1465D01*
X2176Y1483D01*
X2157Y1495D01*
X2136Y1499D01*
D02*
G37*
G36*
X5184Y1581D02*
X5074D01*
X5019Y1526D01*
Y1416D01*
X5074Y1361D01*
X5184D01*
X5239Y1416D01*
Y1526D01*
X5184Y1581D01*
D02*
G37*
G36*
X8604Y1582D02*
X8575Y1578D01*
X8549Y1567D01*
X8526Y1549D01*
X8508Y1526D01*
X8497Y1499D01*
X8493Y1471D01*
X8497Y1442D01*
X8508Y1415D01*
X8526Y1392D01*
X8549Y1374D01*
X8575Y1363D01*
X8604Y1360D01*
X8633Y1363D01*
X8660Y1374D01*
X8683Y1392D01*
X8700Y1415D01*
X8711Y1442D01*
X8715Y1471D01*
X8711Y1499D01*
X8700Y1526D01*
X8683Y1549D01*
X8660Y1567D01*
X8633Y1578D01*
X8604Y1582D01*
D02*
G37*
G36*
X8350D02*
X8321Y1578D01*
X8295Y1567D01*
X8272Y1549D01*
X8254Y1526D01*
X8243Y1499D01*
X8239Y1471D01*
X8243Y1442D01*
X8254Y1415D01*
X8272Y1392D01*
X8295Y1374D01*
X8321Y1363D01*
X8350Y1360D01*
X8379Y1363D01*
X8406Y1374D01*
X8429Y1392D01*
X8446Y1415D01*
X8457Y1442D01*
X8461Y1471D01*
X8457Y1499D01*
X8446Y1526D01*
X8429Y1549D01*
X8406Y1567D01*
X8379Y1578D01*
X8350Y1582D01*
D02*
G37*
G36*
X8096D02*
X8067Y1578D01*
X8041Y1567D01*
X8018Y1549D01*
X8000Y1526D01*
X7989Y1499D01*
X7985Y1471D01*
X7989Y1442D01*
X8000Y1415D01*
X8018Y1392D01*
X8041Y1374D01*
X8067Y1363D01*
X8096Y1360D01*
X8125Y1363D01*
X8152Y1374D01*
X8175Y1392D01*
X8192Y1415D01*
X8203Y1442D01*
X8207Y1471D01*
X8203Y1499D01*
X8192Y1526D01*
X8175Y1549D01*
X8152Y1567D01*
X8125Y1578D01*
X8096Y1582D01*
D02*
G37*
G36*
X7254D02*
X7225Y1578D01*
X7199Y1567D01*
X7176Y1549D01*
X7158Y1526D01*
X7147Y1499D01*
X7143Y1471D01*
X7147Y1442D01*
X7158Y1415D01*
X7176Y1392D01*
X7199Y1374D01*
X7225Y1363D01*
X7254Y1360D01*
X7283Y1363D01*
X7310Y1374D01*
X7333Y1392D01*
X7350Y1415D01*
X7361Y1442D01*
X7365Y1471D01*
X7361Y1499D01*
X7350Y1526D01*
X7333Y1549D01*
X7310Y1567D01*
X7283Y1578D01*
X7254Y1582D01*
D02*
G37*
G36*
X7000D02*
X6971Y1578D01*
X6945Y1567D01*
X6922Y1549D01*
X6904Y1526D01*
X6893Y1499D01*
X6889Y1471D01*
X6893Y1442D01*
X6904Y1415D01*
X6922Y1392D01*
X6945Y1374D01*
X6971Y1363D01*
X7000Y1360D01*
X7029Y1363D01*
X7056Y1374D01*
X7079Y1392D01*
X7096Y1415D01*
X7107Y1442D01*
X7111Y1471D01*
X7107Y1499D01*
X7096Y1526D01*
X7079Y1549D01*
X7056Y1567D01*
X7029Y1578D01*
X7000Y1582D01*
D02*
G37*
G36*
X6746D02*
X6717Y1578D01*
X6691Y1567D01*
X6668Y1549D01*
X6650Y1526D01*
X6639Y1499D01*
X6635Y1471D01*
X6639Y1442D01*
X6650Y1415D01*
X6668Y1392D01*
X6691Y1374D01*
X6717Y1363D01*
X6746Y1360D01*
X6775Y1363D01*
X6802Y1374D01*
X6825Y1392D01*
X6842Y1415D01*
X6853Y1442D01*
X6857Y1471D01*
X6853Y1499D01*
X6842Y1526D01*
X6825Y1549D01*
X6802Y1567D01*
X6775Y1578D01*
X6746Y1582D01*
D02*
G37*
G36*
X5637D02*
X5608Y1578D01*
X5582Y1567D01*
X5559Y1549D01*
X5541Y1526D01*
X5530Y1499D01*
X5526Y1471D01*
X5530Y1442D01*
X5541Y1415D01*
X5559Y1392D01*
X5582Y1374D01*
X5608Y1363D01*
X5637Y1360D01*
X5666Y1363D01*
X5692Y1374D01*
X5715Y1392D01*
X5733Y1415D01*
X5744Y1442D01*
X5748Y1471D01*
X5744Y1499D01*
X5733Y1526D01*
X5715Y1549D01*
X5692Y1567D01*
X5666Y1578D01*
X5637Y1582D01*
D02*
G37*
G36*
X5383D02*
X5354Y1578D01*
X5328Y1567D01*
X5305Y1549D01*
X5287Y1526D01*
X5276Y1499D01*
X5272Y1471D01*
X5276Y1442D01*
X5287Y1415D01*
X5305Y1392D01*
X5328Y1374D01*
X5354Y1363D01*
X5383Y1360D01*
X5412Y1363D01*
X5438Y1374D01*
X5461Y1392D01*
X5479Y1415D01*
X5490Y1442D01*
X5494Y1471D01*
X5490Y1499D01*
X5479Y1526D01*
X5461Y1549D01*
X5438Y1567D01*
X5412Y1578D01*
X5383Y1582D01*
D02*
G37*
G36*
X5866Y1446D02*
X5778D01*
X5779Y1440D01*
X5790Y1412D01*
X5809Y1388D01*
X5833Y1370D01*
X5861Y1358D01*
X5866Y1357D01*
Y1446D01*
D02*
G37*
G36*
X6004D02*
X5916D01*
Y1357D01*
X5921Y1358D01*
X5949Y1370D01*
X5973Y1388D01*
X5992Y1412D01*
X6003Y1440D01*
X6004Y1446D01*
D02*
G37*
G36*
X7958D02*
X7867D01*
Y1355D01*
X7900D01*
X7958Y1413D01*
Y1446D01*
D02*
G37*
G36*
X7817D02*
X7727D01*
Y1413D01*
X7784Y1355D01*
X7817D01*
Y1446D01*
D02*
G37*
G36*
X6608D02*
X6517D01*
Y1355D01*
X6550D01*
X6608Y1413D01*
Y1446D01*
D02*
G37*
G36*
X6467D02*
X6377D01*
Y1413D01*
X6434Y1355D01*
X6467D01*
Y1446D01*
D02*
G37*
G36*
X2619Y1554D02*
X2590Y1550D01*
X2563Y1539D01*
X2540Y1522D01*
X2523Y1499D01*
X2512Y1472D01*
X2508Y1443D01*
X2512Y1414D01*
X2523Y1388D01*
X2540Y1365D01*
X2563Y1347D01*
X2590Y1336D01*
X2619Y1332D01*
X2648Y1336D01*
X2674Y1347D01*
X2697Y1365D01*
X2715Y1388D01*
X2726Y1414D01*
X2730Y1443D01*
X2726Y1472D01*
X2715Y1499D01*
X2697Y1522D01*
X2674Y1539D01*
X2648Y1550D01*
X2619Y1554D01*
D02*
G37*
G36*
X10555Y1518D02*
X10526Y1514D01*
X10500Y1503D01*
X10477Y1485D01*
X10459Y1462D01*
X10448Y1436D01*
X10444Y1407D01*
X10448Y1378D01*
X10459Y1352D01*
X10477Y1329D01*
X10500Y1311D01*
X10526Y1300D01*
X10555Y1296D01*
X10584Y1300D01*
X10610Y1311D01*
X10633Y1329D01*
X10651Y1352D01*
X10662Y1378D01*
X10666Y1407D01*
X10662Y1436D01*
X10651Y1462D01*
X10633Y1485D01*
X10610Y1503D01*
X10584Y1514D01*
X10555Y1518D01*
D02*
G37*
G36*
X9322Y1400D02*
X9300Y1395D01*
X9282Y1383D01*
X9270Y1365D01*
X9265Y1344D01*
X9270Y1322D01*
X9282Y1304D01*
X9300Y1292D01*
X9322Y1287D01*
X9343Y1292D01*
X9361Y1304D01*
X9373Y1322D01*
X9378Y1344D01*
X9373Y1365D01*
X9361Y1383D01*
X9343Y1395D01*
X9322Y1400D01*
D02*
G37*
G36*
X685Y1445D02*
X656Y1441D01*
X629Y1430D01*
X606Y1412D01*
X589Y1389D01*
X578Y1362D01*
X574Y1334D01*
X578Y1305D01*
X589Y1278D01*
X606Y1255D01*
X629Y1238D01*
X656Y1226D01*
X685Y1223D01*
X714Y1226D01*
X740Y1238D01*
X763Y1255D01*
X781Y1278D01*
X792Y1305D01*
X796Y1334D01*
X792Y1362D01*
X781Y1389D01*
X763Y1412D01*
X740Y1430D01*
X714Y1441D01*
X685Y1445D01*
D02*
G37*
G36*
X5509Y1262D02*
X5488Y1258D01*
X5470Y1246D01*
X5458Y1227D01*
X5453Y1206D01*
X5458Y1184D01*
X5470Y1166D01*
X5488Y1154D01*
X5509Y1150D01*
X5531Y1154D01*
X5549Y1166D01*
X5561Y1184D01*
X5565Y1206D01*
X5561Y1227D01*
X5549Y1246D01*
X5531Y1258D01*
X5509Y1262D01*
D02*
G37*
G36*
X5662Y1259D02*
X5640Y1255D01*
X5622Y1243D01*
X5610Y1225D01*
X5606Y1203D01*
X5610Y1182D01*
X5622Y1163D01*
X5640Y1151D01*
X5662Y1147D01*
X5683Y1151D01*
X5701Y1163D01*
X5713Y1182D01*
X5718Y1203D01*
X5713Y1225D01*
X5701Y1243D01*
X5683Y1255D01*
X5662Y1259D01*
D02*
G37*
G36*
X437Y1358D02*
X408Y1354D01*
X382Y1343D01*
X359Y1325D01*
X341Y1302D01*
X330Y1276D01*
X326Y1247D01*
X330Y1218D01*
X341Y1191D01*
X359Y1168D01*
X382Y1151D01*
X408Y1140D01*
X437Y1136D01*
X466Y1140D01*
X492Y1151D01*
X515Y1168D01*
X533Y1191D01*
X544Y1218D01*
X548Y1247D01*
X544Y1276D01*
X533Y1302D01*
X515Y1325D01*
X492Y1343D01*
X466Y1354D01*
X437Y1358D01*
D02*
G37*
G36*
X10555Y1264D02*
X10526Y1260D01*
X10500Y1249D01*
X10477Y1231D01*
X10459Y1208D01*
X10448Y1182D01*
X10444Y1153D01*
X10448Y1124D01*
X10459Y1098D01*
X10477Y1075D01*
X10500Y1057D01*
X10526Y1046D01*
X10555Y1042D01*
X10584Y1046D01*
X10610Y1057D01*
X10633Y1075D01*
X10651Y1098D01*
X10662Y1124D01*
X10666Y1153D01*
X10662Y1182D01*
X10651Y1208D01*
X10633Y1231D01*
X10610Y1249D01*
X10584Y1260D01*
X10555Y1264D01*
D02*
G37*
G36*
X685Y1191D02*
X656Y1187D01*
X629Y1176D01*
X606Y1158D01*
X589Y1135D01*
X578Y1108D01*
X574Y1080D01*
X578Y1051D01*
X589Y1024D01*
X606Y1001D01*
X629Y984D01*
X656Y972D01*
X685Y969D01*
X714Y972D01*
X740Y984D01*
X763Y1001D01*
X781Y1024D01*
X792Y1051D01*
X796Y1080D01*
X792Y1108D01*
X781Y1135D01*
X763Y1158D01*
X740Y1176D01*
X714Y1187D01*
X685Y1191D01*
D02*
G37*
G36*
X4966Y1078D02*
X4945Y1074D01*
X4926Y1062D01*
X4914Y1043D01*
X4910Y1022D01*
X4914Y1000D01*
X4926Y982D01*
X4945Y970D01*
X4966Y966D01*
X4987Y970D01*
X5006Y982D01*
X5018Y1000D01*
X5022Y1022D01*
X5018Y1043D01*
X5006Y1062D01*
X4987Y1074D01*
X4966Y1078D01*
D02*
G37*
G36*
X2619Y1187D02*
X2590Y1183D01*
X2563Y1172D01*
X2540Y1154D01*
X2523Y1131D01*
X2512Y1105D01*
X2508Y1076D01*
X2512Y1047D01*
X2523Y1021D01*
X2540Y998D01*
X2563Y980D01*
X2590Y969D01*
X2619Y965D01*
X2648Y969D01*
X2674Y980D01*
X2697Y998D01*
X2715Y1021D01*
X2726Y1047D01*
X2730Y1076D01*
X2726Y1105D01*
X2715Y1131D01*
X2697Y1154D01*
X2674Y1172D01*
X2648Y1183D01*
X2619Y1187D01*
D02*
G37*
G36*
X7951Y1077D02*
X7929Y1073D01*
X7911Y1061D01*
X7899Y1042D01*
X7895Y1021D01*
X7899Y999D01*
X7911Y981D01*
X7929Y969D01*
X7951Y965D01*
X7972Y969D01*
X7990Y981D01*
X8002Y999D01*
X8007Y1021D01*
X8002Y1042D01*
X7990Y1061D01*
X7972Y1073D01*
X7951Y1077D01*
D02*
G37*
G36*
X6601D02*
X6579Y1073D01*
X6561Y1061D01*
X6549Y1042D01*
X6545Y1021D01*
X6549Y999D01*
X6561Y981D01*
X6579Y969D01*
X6601Y965D01*
X6622Y969D01*
X6640Y981D01*
X6652Y999D01*
X6657Y1021D01*
X6652Y1042D01*
X6640Y1061D01*
X6622Y1073D01*
X6601Y1077D01*
D02*
G37*
G36*
X2155Y1057D02*
X2134Y1053D01*
X2116Y1041D01*
X2104Y1023D01*
X2099Y1001D01*
X2104Y980D01*
X2116Y962D01*
X2134Y950D01*
X2155Y945D01*
X2177Y950D01*
X2195Y962D01*
X2207Y980D01*
X2212Y1001D01*
X2207Y1023D01*
X2195Y1041D01*
X2177Y1053D01*
X2155Y1057D01*
D02*
G37*
G36*
X10613Y1014D02*
X10580D01*
Y924D01*
X10670D01*
Y957D01*
X10613Y1014D01*
D02*
G37*
G36*
X10530D02*
X10497D01*
X10440Y957D01*
Y924D01*
X10530D01*
Y1014D01*
D02*
G37*
G36*
X5927Y1032D02*
X5906Y1027D01*
X5887Y1015D01*
X5875Y997D01*
X5871Y976D01*
X5875Y954D01*
X5887Y936D01*
X5906Y924D01*
X5927Y919D01*
X5949Y924D01*
X5967Y936D01*
X5979Y954D01*
X5983Y976D01*
X5979Y997D01*
X5967Y1015D01*
X5949Y1027D01*
X5927Y1032D01*
D02*
G37*
G36*
X2350Y1247D02*
X2332Y1244D01*
X2315Y1237D01*
X2300Y1226D01*
X2289Y1211D01*
X2282Y1194D01*
X2279Y1176D01*
Y976D01*
X2282Y958D01*
X2289Y941D01*
X2300Y926D01*
X2315Y915D01*
X2332Y908D01*
X2350Y905D01*
X2368Y908D01*
X2385Y915D01*
X2400Y926D01*
X2411Y941D01*
X2418Y958D01*
X2421Y976D01*
Y1176D01*
X2418Y1194D01*
X2411Y1211D01*
X2400Y1226D01*
X2385Y1237D01*
X2368Y1244D01*
X2350Y1247D01*
D02*
G37*
G36*
X1942Y944D02*
X1921Y940D01*
X1902Y928D01*
X1890Y909D01*
X1886Y888D01*
X1890Y866D01*
X1902Y848D01*
X1921Y836D01*
X1942Y832D01*
X1963Y836D01*
X1982Y848D01*
X1994Y866D01*
X1998Y888D01*
X1994Y909D01*
X1982Y928D01*
X1963Y940D01*
X1942Y944D01*
D02*
G37*
G36*
X10670Y874D02*
X10580D01*
Y784D01*
X10613D01*
X10670Y841D01*
Y874D01*
D02*
G37*
G36*
X10530D02*
X10440D01*
Y841D01*
X10497Y784D01*
X10530D01*
Y874D01*
D02*
G37*
G36*
X1650Y895D02*
X1629Y891D01*
X1610Y879D01*
X1598Y861D01*
X1594Y839D01*
X1598Y818D01*
X1610Y800D01*
X1629Y787D01*
X1650Y783D01*
X1671Y787D01*
X1690Y800D01*
X1702Y818D01*
X1706Y839D01*
X1702Y861D01*
X1690Y879D01*
X1671Y891D01*
X1650Y895D01*
D02*
G37*
G36*
X2373Y868D02*
X2352Y864D01*
X2334Y852D01*
X2322Y833D01*
X2317Y812D01*
X2322Y790D01*
X2334Y772D01*
X2352Y760D01*
X2373Y756D01*
X2395Y760D01*
X2413Y772D01*
X2425Y790D01*
X2430Y812D01*
X2425Y833D01*
X2413Y852D01*
X2395Y864D01*
X2373Y868D01*
D02*
G37*
G36*
X1155Y1773D02*
X1137Y1771D01*
X1120Y1764D01*
X1105Y1753D01*
X1094Y1738D01*
X1087Y1721D01*
X1084Y1703D01*
Y803D01*
X1087Y784D01*
X1094Y767D01*
X1105Y753D01*
X1120Y741D01*
X1137Y734D01*
X1155Y732D01*
X1173Y734D01*
X1190Y741D01*
X1205Y753D01*
X1216Y767D01*
X1223Y784D01*
X1226Y803D01*
Y1703D01*
X1223Y1721D01*
X1216Y1738D01*
X1205Y1753D01*
X1190Y1764D01*
X1173Y1771D01*
X1155Y1773D01*
D02*
G37*
G36*
X5326Y838D02*
X5305Y833D01*
X5286Y821D01*
X5274Y803D01*
X5270Y782D01*
X5274Y760D01*
X5286Y742D01*
X5305Y730D01*
X5326Y726D01*
X5347Y730D01*
X5366Y742D01*
X5378Y760D01*
X5382Y782D01*
X5378Y803D01*
X5366Y821D01*
X5347Y833D01*
X5326Y838D01*
D02*
G37*
G36*
X685Y937D02*
X656Y933D01*
X629Y922D01*
X606Y904D01*
X589Y881D01*
X578Y854D01*
X574Y826D01*
X578Y797D01*
X589Y770D01*
X606Y747D01*
X629Y730D01*
X656Y718D01*
X685Y715D01*
X714Y718D01*
X740Y730D01*
X763Y747D01*
X781Y770D01*
X792Y797D01*
X796Y826D01*
X792Y854D01*
X781Y881D01*
X763Y904D01*
X740Y922D01*
X714Y933D01*
X685Y937D01*
D02*
G37*
G36*
X8382Y740D02*
X8361Y735D01*
X8343Y723D01*
X8330Y705D01*
X8326Y683D01*
X8330Y662D01*
X8343Y644D01*
X8361Y632D01*
X8382Y627D01*
X8404Y632D01*
X8422Y644D01*
X8434Y662D01*
X8438Y683D01*
X8434Y705D01*
X8422Y723D01*
X8404Y735D01*
X8382Y740D01*
D02*
G37*
G36*
X8064D02*
X8043Y735D01*
X8024Y723D01*
X8012Y705D01*
X8008Y683D01*
X8012Y662D01*
X8024Y644D01*
X8043Y632D01*
X8064Y627D01*
X8086Y632D01*
X8104Y644D01*
X8116Y662D01*
X8120Y683D01*
X8116Y705D01*
X8104Y723D01*
X8086Y735D01*
X8064Y740D01*
D02*
G37*
G36*
X7032D02*
X7011Y735D01*
X6993Y723D01*
X6980Y705D01*
X6976Y683D01*
X6980Y662D01*
X6993Y644D01*
X7011Y632D01*
X7032Y627D01*
X7054Y632D01*
X7072Y644D01*
X7084Y662D01*
X7088Y683D01*
X7084Y705D01*
X7072Y723D01*
X7054Y735D01*
X7032Y740D01*
D02*
G37*
G36*
X6714D02*
X6693Y735D01*
X6674Y723D01*
X6662Y705D01*
X6658Y683D01*
X6662Y662D01*
X6674Y644D01*
X6693Y632D01*
X6714Y627D01*
X6736Y632D01*
X6754Y644D01*
X6766Y662D01*
X6770Y683D01*
X6766Y705D01*
X6754Y723D01*
X6736Y735D01*
X6714Y740D01*
D02*
G37*
G36*
X4976Y723D02*
X4955Y718D01*
X4936Y706D01*
X4924Y688D01*
X4920Y666D01*
X4924Y645D01*
X4936Y627D01*
X4955Y615D01*
X4976Y610D01*
X4997Y615D01*
X5016Y627D01*
X5028Y645D01*
X5032Y666D01*
X5028Y688D01*
X5016Y706D01*
X4997Y718D01*
X4976Y723D01*
D02*
G37*
G36*
X2619Y824D02*
X2590Y820D01*
X2563Y809D01*
X2540Y791D01*
X2523Y768D01*
X2512Y741D01*
X2508Y713D01*
X2512Y684D01*
X2523Y657D01*
X2540Y634D01*
X2563Y617D01*
X2590Y605D01*
X2619Y602D01*
X2648Y605D01*
X2674Y617D01*
X2697Y634D01*
X2715Y657D01*
X2726Y684D01*
X2730Y713D01*
X2726Y741D01*
X2715Y768D01*
X2697Y791D01*
X2674Y809D01*
X2648Y820D01*
X2619Y824D01*
D02*
G37*
G36*
X3226Y602D02*
X3204Y598D01*
X3186Y585D01*
X3174Y567D01*
X3170Y546D01*
X3174Y524D01*
X3186Y506D01*
X3204Y494D01*
X3226Y490D01*
X3247Y494D01*
X3266Y506D01*
X3278Y524D01*
X3282Y546D01*
X3278Y567D01*
X3266Y585D01*
X3247Y598D01*
X3226Y602D01*
D02*
G37*
G36*
X2060Y595D02*
X2038Y590D01*
X2020Y578D01*
X2008Y560D01*
X2003Y538D01*
X2008Y517D01*
X2020Y499D01*
X2038Y487D01*
X2060Y482D01*
X2081Y487D01*
X2099Y499D01*
X2111Y517D01*
X2116Y538D01*
X2111Y560D01*
X2099Y578D01*
X2081Y590D01*
X2060Y595D01*
D02*
G37*
G36*
X5677Y576D02*
X5656Y572D01*
X5638Y560D01*
X5625Y541D01*
X5621Y520D01*
X5625Y499D01*
X5638Y480D01*
X5656Y468D01*
X5677Y464D01*
X5699Y468D01*
X5717Y480D01*
X5729Y499D01*
X5733Y520D01*
X5729Y541D01*
X5717Y560D01*
X5699Y572D01*
X5677Y576D01*
D02*
G37*
G36*
X685Y683D02*
X656Y679D01*
X629Y668D01*
X606Y650D01*
X589Y627D01*
X578Y600D01*
X574Y572D01*
X578Y543D01*
X589Y516D01*
X606Y493D01*
X629Y476D01*
X656Y464D01*
X685Y461D01*
X714Y464D01*
X740Y476D01*
X763Y493D01*
X781Y516D01*
X792Y543D01*
X796Y572D01*
X792Y600D01*
X781Y627D01*
X763Y650D01*
X740Y668D01*
X714Y679D01*
X685Y683D01*
D02*
G37*
G36*
X183Y638D02*
X154Y634D01*
X128Y623D01*
X105Y605D01*
X87Y582D01*
X76Y556D01*
X72Y527D01*
X76Y498D01*
X87Y471D01*
X105Y448D01*
X128Y431D01*
X154Y420D01*
X183Y416D01*
X212Y420D01*
X238Y431D01*
X261Y448D01*
X279Y471D01*
X290Y498D01*
X294Y527D01*
X290Y556D01*
X279Y582D01*
X261Y605D01*
X238Y623D01*
X212Y634D01*
X183Y638D01*
D02*
G37*
G36*
X2619Y457D02*
X2590Y454D01*
X2563Y443D01*
X2540Y425D01*
X2523Y402D01*
X2512Y375D01*
X2508Y346D01*
X2512Y318D01*
X2523Y291D01*
X2540Y268D01*
X2563Y250D01*
X2590Y239D01*
X2619Y235D01*
X2648Y239D01*
X2674Y250D01*
X2697Y268D01*
X2715Y291D01*
X2726Y318D01*
X2730Y346D01*
X2726Y375D01*
X2715Y402D01*
X2697Y425D01*
X2674Y443D01*
X2648Y454D01*
X2619Y457D01*
D02*
G37*
G36*
X685Y429D02*
X656Y425D01*
X629Y414D01*
X606Y396D01*
X589Y373D01*
X578Y346D01*
X574Y318D01*
X578Y289D01*
X589Y262D01*
X606Y239D01*
X629Y222D01*
X656Y210D01*
X685Y207D01*
X714Y210D01*
X740Y222D01*
X763Y239D01*
X781Y262D01*
X792Y289D01*
X796Y318D01*
X792Y346D01*
X781Y373D01*
X763Y396D01*
X740Y414D01*
X714Y425D01*
X685Y429D01*
D02*
G37*
G36*
X10855Y546D02*
X10822Y543D01*
X10790Y533D01*
X10760Y517D01*
X10734Y496D01*
X10713Y470D01*
X10697Y440D01*
X10687Y408D01*
X10684Y375D01*
X10687Y342D01*
X10697Y310D01*
X10713Y280D01*
X10734Y254D01*
X10760Y233D01*
X10790Y217D01*
X10822Y207D01*
X10855Y204D01*
X10888Y207D01*
X10920Y217D01*
X10950Y233D01*
X10976Y254D01*
X10997Y280D01*
X11013Y310D01*
X11023Y342D01*
X11026Y375D01*
X11023Y408D01*
X11013Y440D01*
X10997Y470D01*
X10976Y496D01*
X10950Y517D01*
X10920Y533D01*
X10888Y543D01*
X10855Y546D01*
D02*
G37*
G36*
X1155D02*
X1122Y543D01*
X1090Y533D01*
X1060Y517D01*
X1034Y496D01*
X1013Y470D01*
X997Y440D01*
X987Y408D01*
X984Y375D01*
X987Y342D01*
X997Y310D01*
X1013Y280D01*
X1034Y254D01*
X1060Y233D01*
X1090Y217D01*
X1122Y207D01*
X1155Y204D01*
X1188Y207D01*
X1220Y217D01*
X1250Y233D01*
X1276Y254D01*
X1297Y280D01*
X1313Y310D01*
X1323Y342D01*
X1326Y375D01*
X1323Y408D01*
X1313Y440D01*
X1297Y470D01*
X1276Y496D01*
X1250Y517D01*
X1220Y533D01*
X1188Y543D01*
X1155Y546D01*
D02*
G37*
G36*
X2350Y510D02*
X2332Y507D01*
X2315Y500D01*
X2300Y489D01*
X2289Y474D01*
X2282Y457D01*
X2279Y439D01*
Y239D01*
X2282Y221D01*
X2289Y204D01*
X2300Y189D01*
X2315Y178D01*
X2332Y171D01*
X2350Y168D01*
X2368Y171D01*
X2385Y178D01*
X2400Y189D01*
X2411Y204D01*
X2418Y221D01*
X2421Y239D01*
Y439D01*
X2418Y457D01*
X2411Y474D01*
X2400Y489D01*
X2385Y500D01*
X2368Y507D01*
X2350Y510D01*
D02*
G37*
G36*
X7260Y246D02*
X7239Y242D01*
X7221Y230D01*
X7209Y211D01*
X7204Y190D01*
X7209Y169D01*
X7221Y150D01*
X7239Y138D01*
X7260Y134D01*
X7282Y138D01*
X7300Y150D01*
X7312Y169D01*
X7317Y190D01*
X7312Y211D01*
X7300Y230D01*
X7282Y242D01*
X7260Y246D01*
D02*
G37*
G36*
X8610Y244D02*
X8589Y239D01*
X8571Y227D01*
X8559Y209D01*
X8554Y187D01*
X8559Y166D01*
X8571Y148D01*
X8589Y136D01*
X8610Y131D01*
X8632Y136D01*
X8650Y148D01*
X8662Y166D01*
X8667Y187D01*
X8662Y209D01*
X8650Y227D01*
X8632Y239D01*
X8610Y244D01*
D02*
G37*
G36*
X1650Y218D02*
X1629Y213D01*
X1610Y201D01*
X1598Y183D01*
X1594Y162D01*
X1598Y140D01*
X1610Y122D01*
X1629Y110D01*
X1650Y105D01*
X1671Y110D01*
X1690Y122D01*
X1702Y140D01*
X1706Y162D01*
X1702Y183D01*
X1690Y201D01*
X1671Y213D01*
X1650Y218D01*
D02*
G37*
G36*
X9103Y7160D02*
X9081Y7155D01*
X9063Y7143D01*
X9051Y7125D01*
X9047Y7104D01*
X9047Y7104D01*
X9047Y7104D01*
X9051Y7082D01*
X9063Y7064D01*
X9081Y7052D01*
X9103Y7047D01*
X9124Y7052D01*
X9142Y7064D01*
X9154Y7082D01*
X9159Y7104D01*
X9159Y7104D01*
X9159Y7104D01*
X9154Y7125D01*
X9142Y7143D01*
X9124Y7155D01*
X9103Y7160D01*
D02*
G37*
G36*
X10555Y7213D02*
X10526Y7209D01*
X10500Y7198D01*
X10477Y7180D01*
X10459Y7157D01*
X10448Y7131D01*
X10444Y7102D01*
X10448Y7073D01*
X10459Y7047D01*
X10477Y7024D01*
X10500Y7006D01*
X10526Y6995D01*
X10555Y6991D01*
X10584Y6995D01*
X10610Y7006D01*
X10633Y7024D01*
X10651Y7047D01*
X10662Y7073D01*
X10666Y7102D01*
X10662Y7131D01*
X10651Y7157D01*
X10633Y7180D01*
X10610Y7198D01*
X10584Y7209D01*
X10555Y7213D01*
D02*
G37*
G36*
X9417Y7035D02*
X9396Y7030D01*
X9378Y7018D01*
X9366Y7000D01*
X9361Y6978D01*
X9361Y6978D01*
X9361Y6978D01*
X9366Y6957D01*
X9378Y6939D01*
X9396Y6927D01*
X9417Y6922D01*
X9439Y6927D01*
X9457Y6939D01*
X9469Y6957D01*
X9473Y6978D01*
X9473Y6978D01*
X9473Y6978D01*
X9469Y7000D01*
X9457Y7018D01*
X9439Y7030D01*
X9417Y7035D01*
D02*
G37*
G36*
X10610Y6958D02*
X10500D01*
X10445Y6903D01*
Y6793D01*
X10500Y6738D01*
X10610D01*
X10665Y6793D01*
Y6903D01*
X10610Y6958D01*
D02*
G37*
G36*
X9103Y6630D02*
X9081Y6625D01*
X9063Y6613D01*
X9051Y6595D01*
X9047Y6574D01*
X9051Y6552D01*
X9063Y6534D01*
X9081Y6522D01*
X9103Y6517D01*
X9124Y6522D01*
X9142Y6534D01*
X9154Y6552D01*
X9159Y6574D01*
X9154Y6595D01*
X9142Y6613D01*
X9124Y6625D01*
X9103Y6630D01*
D02*
G37*
G36*
X10555Y6683D02*
X10526Y6679D01*
X10500Y6668D01*
X10477Y6650D01*
X10459Y6627D01*
X10448Y6601D01*
X10444Y6572D01*
X10448Y6543D01*
X10459Y6517D01*
X10477Y6494D01*
X10500Y6476D01*
X10526Y6465D01*
X10555Y6461D01*
X10584Y6465D01*
X10610Y6476D01*
X10633Y6494D01*
X10651Y6517D01*
X10662Y6543D01*
X10666Y6572D01*
X10662Y6601D01*
X10651Y6627D01*
X10633Y6650D01*
X10610Y6668D01*
X10584Y6679D01*
X10555Y6683D01*
D02*
G37*
G36*
X9417Y6505D02*
X9396Y6500D01*
X9378Y6488D01*
X9366Y6470D01*
X9361Y6448D01*
X9361Y6448D01*
X9361Y6448D01*
X9366Y6427D01*
X9378Y6409D01*
X9396Y6397D01*
X9417Y6392D01*
X9439Y6397D01*
X9457Y6409D01*
X9469Y6427D01*
X9473Y6448D01*
X9473Y6448D01*
X9473Y6448D01*
X9469Y6470D01*
X9457Y6488D01*
X9439Y6500D01*
X9417Y6505D01*
D02*
G37*
G36*
X10610Y6428D02*
X10500D01*
X10445Y6373D01*
Y6263D01*
X10500Y6208D01*
X10610D01*
X10665Y6263D01*
Y6373D01*
X10610Y6428D01*
D02*
G37*
G36*
X9103Y6100D02*
X9081Y6095D01*
X9063Y6083D01*
X9051Y6065D01*
X9047Y6044D01*
X9051Y6022D01*
X9063Y6004D01*
X9081Y5992D01*
X9103Y5988D01*
X9124Y5992D01*
X9142Y6004D01*
X9154Y6022D01*
X9159Y6044D01*
X9154Y6065D01*
X9142Y6083D01*
X9124Y6095D01*
X9103Y6100D01*
D02*
G37*
G36*
X10555Y6153D02*
X10526Y6149D01*
X10500Y6138D01*
X10477Y6121D01*
X10459Y6098D01*
X10448Y6071D01*
X10444Y6042D01*
X10448Y6013D01*
X10459Y5987D01*
X10477Y5964D01*
X10500Y5946D01*
X10526Y5935D01*
X10555Y5931D01*
X10584Y5935D01*
X10610Y5946D01*
X10633Y5964D01*
X10651Y5987D01*
X10662Y6013D01*
X10666Y6042D01*
X10662Y6071D01*
X10651Y6098D01*
X10633Y6121D01*
X10610Y6138D01*
X10584Y6149D01*
X10555Y6153D01*
D02*
G37*
G36*
X9417Y5975D02*
X9396Y5970D01*
X9378Y5958D01*
X9366Y5940D01*
X9361Y5918D01*
X9361Y5918D01*
X9361Y5918D01*
X9366Y5897D01*
X9378Y5879D01*
X9396Y5867D01*
X9417Y5862D01*
X9439Y5867D01*
X9457Y5879D01*
X9469Y5897D01*
X9473Y5918D01*
X9473Y5918D01*
X9473Y5918D01*
X9469Y5940D01*
X9457Y5958D01*
X9439Y5970D01*
X9417Y5975D01*
D02*
G37*
G36*
X10610Y5898D02*
X10500D01*
X10445Y5843D01*
Y5733D01*
X10500Y5678D01*
X10610D01*
X10665Y5733D01*
Y5843D01*
X10610Y5898D01*
D02*
G37*
G36*
X9103Y5570D02*
X9081Y5565D01*
X9063Y5553D01*
X9051Y5535D01*
X9047Y5514D01*
X9051Y5492D01*
X9063Y5474D01*
X9081Y5462D01*
X9103Y5458D01*
X9124Y5462D01*
X9142Y5474D01*
X9154Y5492D01*
X9159Y5514D01*
X9154Y5535D01*
X9142Y5553D01*
X9124Y5565D01*
X9103Y5570D01*
D02*
G37*
G36*
X10555Y5623D02*
X10526Y5619D01*
X10500Y5608D01*
X10477Y5591D01*
X10459Y5568D01*
X10448Y5541D01*
X10444Y5512D01*
X10448Y5483D01*
X10459Y5457D01*
X10477Y5434D01*
X10500Y5416D01*
X10526Y5405D01*
X10555Y5401D01*
X10584Y5405D01*
X10610Y5416D01*
X10633Y5434D01*
X10651Y5457D01*
X10662Y5483D01*
X10666Y5512D01*
X10662Y5541D01*
X10651Y5568D01*
X10633Y5591D01*
X10610Y5608D01*
X10584Y5619D01*
X10555Y5623D01*
D02*
G37*
G36*
X9417Y5445D02*
X9396Y5440D01*
X9378Y5428D01*
X9366Y5410D01*
X9361Y5388D01*
X9366Y5367D01*
X9378Y5349D01*
X9396Y5337D01*
X9417Y5332D01*
X9439Y5337D01*
X9457Y5349D01*
X9469Y5367D01*
X9473Y5388D01*
X9469Y5410D01*
X9457Y5428D01*
X9439Y5440D01*
X9417Y5445D01*
D02*
G37*
G36*
X10610Y5368D02*
X10500D01*
X10445Y5313D01*
Y5203D01*
X10500Y5148D01*
X10610D01*
X10665Y5203D01*
Y5313D01*
X10610Y5368D01*
D02*
G37*
%LPD*%
D124*
X9716Y1870D02*
D03*
X4875Y5950D02*
D03*
X685Y1588D02*
D03*
X5891Y1840D02*
D03*
X5891Y1471D02*
D03*
D125*
X10555Y899D02*
D03*
X1360Y7101D02*
D03*
D129*
X6492Y1471D02*
D03*
X7842D02*
D03*
D130*
X4338Y2930D02*
D03*
X4430Y3238D02*
D03*
X5123Y1208D02*
D03*
X3390Y7000D02*
D03*
X3260D02*
D03*
X3478Y6520D02*
D03*
X3974Y5260D02*
D03*
X3170Y5563D02*
D03*
X3443Y6299D02*
D03*
Y6039D02*
D03*
X3170Y5727D02*
D03*
X3974Y6020D02*
D03*
X2619Y4800D02*
D03*
X3340Y5040D02*
D03*
X2225Y3485D02*
D03*
X3630Y3530D02*
D03*
X2204Y5862D02*
D03*
X1930Y6911D02*
D03*
X2750D02*
D03*
X655Y7695D02*
D03*
X657Y5960D02*
D03*
X655Y5306D02*
D03*
X2340Y2500D02*
D03*
X2250D02*
D03*
X1180Y2965D02*
D03*
X2419Y2970D02*
D03*
X8610Y387D02*
D03*
X7260Y390D02*
D03*
X7663Y1074D02*
D03*
X6293Y478D02*
D03*
X6302Y1077D02*
D03*
X6178Y2915D02*
D03*
X9190Y1057D02*
D03*
X9990Y2954D02*
D03*
X7538Y2602D02*
D03*
X7688Y4689D02*
D03*
X7880Y3980D02*
D03*
X6568Y3697D02*
D03*
X7790Y5571D02*
D03*
X7790Y6113D02*
D03*
X7793Y6638D02*
D03*
X9985Y4326D02*
D03*
X9985Y3536D02*
D03*
X9115Y3447D02*
D03*
X9115Y4237D02*
D03*
X7788Y7173D02*
D03*
X6280Y5005D02*
D03*
X4473Y5093D02*
D03*
X4805Y5003D02*
D03*
X6550Y1843D02*
D03*
X7200Y1843D02*
D03*
X8550D02*
D03*
X7890D02*
D03*
X9599Y740D02*
D03*
X7663Y476D02*
D03*
X4974Y829D02*
D03*
X4973Y463D02*
D03*
X1514Y1443D02*
D03*
X1537Y475D02*
D03*
X3050Y446D02*
D03*
X3049Y812D02*
D03*
Y1543D02*
D03*
X3050Y1178D02*
D03*
X3940Y1970D02*
D03*
X4590Y2570D02*
D03*
X4180D02*
D03*
X3980D02*
D03*
X3780D02*
D03*
X3576Y2570D02*
D03*
X3376Y2570D02*
D03*
X3172Y2570D02*
D03*
M02*
