G04*
G04 #@! TF.GenerationSoftware,Altium Limited,Altium Designer,19.0.12 (326)*
G04*
G04 Layer_Color=65535*
%FSLAX42Y42*%
%MOMM*%
G71*
G01*
G75*
%ADD10C,0.25*%
%ADD11C,0.10*%
%ADD12C,0.20*%
%ADD13C,0.60*%
%ADD14C,0.13*%
%ADD15C,0.12*%
%ADD16C,0.13*%
%ADD17C,0.15*%
%ADD18C,0.05*%
%ADD19C,0.25*%
%ADD20C,0.10*%
%ADD21R,0.51X0.76*%
%ADD22R,1.78X0.51*%
%ADD23R,0.15X0.40*%
%ADD24R,0.15X0.40*%
%ADD25R,0.15X0.40*%
%ADD26R,0.15X0.40*%
%ADD27R,0.40X0.15*%
D10*
X8112Y4623D02*
G03*
X8112Y4623I-12J0D01*
G01*
X9440Y1556D02*
G03*
X9440Y1556I-12J0D01*
G01*
X6220Y3333D02*
G03*
X6220Y3333I-12J0D01*
G01*
X1345Y2635D02*
G03*
X1345Y2635I-12J0D01*
G01*
X1320Y3685D02*
G03*
X1320Y3685I-12J0D01*
G01*
X5905Y5077D02*
G03*
X5905Y5077I-12J0D01*
G01*
X3833Y4940D02*
G03*
X3833Y4940I-12J0D01*
G01*
X1960Y4105D02*
G03*
X1960Y4105I-12J0D01*
G01*
X1332Y5947D02*
G03*
X1332Y5947I-12J0D01*
G01*
X2080Y6996D02*
G03*
X2080Y6996I-12J0D01*
G01*
D11*
X8440Y4531D02*
G03*
X8440Y3937I70J-297D01*
G01*
X8580Y3937D02*
G03*
X8580Y4530I-70J297D01*
G01*
X8440Y4531D02*
Y4594D01*
X8580D01*
Y4531D02*
Y4594D01*
X8440Y3874D02*
Y3937D01*
Y3874D02*
X8580D01*
Y3937D01*
X8490Y4234D02*
X8530D01*
X8510Y4214D02*
Y4254D01*
X7868Y2915D02*
X8898D01*
X7868Y3405D02*
X8898D01*
X1892Y1148D02*
Y1178D01*
X1907D01*
X2092Y978D02*
Y1008D01*
X2077Y978D02*
X2092D01*
X1892D02*
Y1008D01*
Y978D02*
X1907D01*
X1842Y1122D02*
X1870Y1150D01*
X2077Y1178D02*
X2092D01*
Y1148D02*
Y1178D01*
X1870Y1122D02*
Y1150D01*
X1842Y1122D02*
X1870D01*
X1870Y1144D02*
Y1150D01*
X1852Y1126D02*
X1870Y1144D01*
X1852Y1126D02*
X1865Y1126D01*
Y1136D01*
X3902Y6900D02*
Y6982D01*
X3821D02*
X3902D01*
X3368D02*
X3450D01*
X3368Y6900D02*
Y6982D01*
Y6448D02*
Y6530D01*
Y6448D02*
X3450D01*
X3902D02*
Y6530D01*
X3821Y6448D02*
X3902D01*
X3775Y5854D02*
Y5860D01*
Y5854D02*
X3782Y5847D01*
X3795D01*
X3793D02*
X3795D01*
X3782Y5857D02*
X3793Y5847D01*
D12*
X6703Y3427D02*
G03*
X6703Y3427I-3J0D01*
G01*
X4189Y1819D02*
G03*
X4189Y1819I-7J0D01*
G01*
X8235Y5153D02*
X8815D01*
X8235D02*
Y5613D01*
X8815D01*
Y5153D02*
Y5613D01*
X8850Y5144D02*
X9060D01*
X8235Y5685D02*
X8815D01*
X8235D02*
Y6145D01*
X8815D01*
Y5685D02*
Y6145D01*
X8850Y5676D02*
X9060D01*
X8235Y6215D02*
X8815D01*
X8235D02*
Y6675D01*
X8815D01*
Y6215D02*
Y6675D01*
X8850Y6206D02*
X9060D01*
X8235Y6745D02*
X8815D01*
X8235D02*
Y7205D01*
X8815D01*
Y6745D02*
Y7205D01*
X8850Y6736D02*
X9060D01*
X9260Y4344D02*
Y4714D01*
X8960Y4344D02*
Y4714D01*
X9255D02*
X9260D01*
X8960D02*
X8965D01*
X9826Y4379D02*
X9941D01*
X9791Y4384D02*
Y4674D01*
X9716D02*
X9791D01*
X9716Y4384D02*
Y4674D01*
Y4384D02*
X9791D01*
X9716Y3595D02*
X9791D01*
X9716D02*
Y3885D01*
X9791D01*
Y3595D02*
Y3885D01*
X9826Y3590D02*
X9941D01*
X9265Y3555D02*
Y3925D01*
X8965Y3555D02*
Y3925D01*
X9260D02*
X9265D01*
X8965D02*
X8970D01*
X6932Y4390D02*
X7057D01*
X7093Y4094D02*
Y4386D01*
Y4094D02*
X7107D01*
Y4386D01*
X7093D02*
X7107D01*
X7360Y4055D02*
Y4425D01*
X7660Y4055D02*
Y4425D01*
X7360Y4055D02*
X7365D01*
X7655D02*
X7660D01*
X8085Y3949D02*
X8184Y3850D01*
X8935Y3949D02*
Y4519D01*
X8085Y3949D02*
Y4519D01*
X8410Y4659D02*
X8610D01*
X8410Y3809D02*
X8610D01*
X8836Y3850D02*
X8935Y3949D01*
X8085Y4519D02*
X8164Y4597D01*
X8836Y4617D02*
X8935Y4519D01*
X6810Y3550D02*
X7190D01*
X6810Y2750D02*
X7190D01*
Y2970D02*
Y3330D01*
X6810Y2970D02*
Y3330D01*
X9540Y1030D02*
Y1530D01*
X9860Y1030D02*
Y1530D01*
X9540D02*
X9860D01*
X9540Y1030D02*
X9860D01*
X4425Y2115D02*
Y2120D01*
Y1820D02*
Y1825D01*
X4055Y2120D02*
X4425D01*
X4055Y1820D02*
X4425D01*
X6090Y3365D02*
Y4635D01*
X4820Y3365D02*
Y4635D01*
Y3365D02*
X6090D01*
X4820Y4635D02*
X6090D01*
X2015Y1588D02*
Y1593D01*
Y1293D02*
Y1298D01*
X1645Y1593D02*
X2015D01*
X1645Y1293D02*
X2015D01*
X2439Y2015D02*
X2444D01*
X2144D02*
X2149D01*
X2444D02*
Y2385D01*
X2144Y2015D02*
Y2385D01*
X1482Y1965D02*
Y2635D01*
X1762Y1965D02*
Y2635D01*
X1482Y2635D02*
X1762Y2635D01*
X1482Y1965D02*
X1762Y1965D01*
X1482Y2720D02*
X1598D01*
X1448Y2725D02*
Y3015D01*
X1373D02*
X1448D01*
X1373Y2725D02*
Y3015D01*
Y2725D02*
X1448D01*
X1420Y3160D02*
Y3660D01*
X1740Y3160D02*
Y3660D01*
X1420D02*
X1740D01*
X1420Y3160D02*
X1740D01*
X270Y2220D02*
X640D01*
X270Y1920D02*
X640D01*
X270Y2215D02*
Y2220D01*
Y1920D02*
Y1925D01*
X3177Y7483D02*
X3182D01*
X3472D02*
X3477D01*
X3177Y7113D02*
Y7483D01*
X3477Y7113D02*
Y7483D01*
X3776Y4775D02*
Y4856D01*
X3710Y4775D02*
X3776D01*
X3484D02*
Y4856D01*
Y4775D02*
X3550D01*
X1802Y4075D02*
Y5125D01*
X1402Y4075D02*
Y5125D01*
Y4075D02*
X1802D01*
X1402Y5125D02*
X1802D01*
X1432Y5422D02*
Y5922D01*
X1752Y5422D02*
Y5922D01*
X1432D02*
X1752D01*
X1432Y5422D02*
X1752D01*
X2180Y6470D02*
Y6970D01*
X2500Y6470D02*
Y6970D01*
X2180D02*
X2500D01*
X2180Y6470D02*
X2500D01*
D13*
X9670Y1430D02*
G03*
X9670Y1430I-30J0D01*
G01*
X6020Y3465D02*
G03*
X6020Y3465I-30J0D01*
G01*
X1550Y3560D02*
G03*
X1550Y3560I-30J0D01*
G01*
X1733Y4175D02*
G03*
X1733Y4175I-30J0D01*
G01*
X1562Y5822D02*
G03*
X1562Y5822I-30J0D01*
G01*
X2310Y6870D02*
G03*
X2310Y6870I-30J0D01*
G01*
D14*
X462Y1395D02*
G03*
X158Y1395I-152J0D01*
G01*
Y379D02*
G03*
X462Y379I152J0D01*
G01*
X9450Y6242D02*
Y6648D01*
X10059Y6242D02*
X10110Y6293D01*
X10059Y6648D02*
X10110Y6597D01*
Y6293D02*
Y6597D01*
X9450Y6242D02*
X9660D01*
X9450Y6648D02*
X9660D01*
X9900D02*
X10059D01*
X9900Y6242D02*
X10059D01*
X9453Y6772D02*
Y7178D01*
X10063Y6772D02*
X10114Y6823D01*
X10063Y7178D02*
X10114Y7127D01*
Y6823D02*
Y7127D01*
X9453Y6772D02*
X9663D01*
X9453Y7178D02*
X9663D01*
X9903D02*
X10063D01*
X9903Y6772D02*
X10063D01*
X10371Y6739D02*
Y7234D01*
X10193Y6739D02*
Y7234D01*
X10195Y6207D02*
Y6702D01*
X10372Y6207D02*
Y6702D01*
X10371Y5674D02*
Y6169D01*
X10193Y5674D02*
Y6169D01*
X10195Y5137D02*
Y5632D01*
X10372Y5137D02*
Y5632D01*
X9450Y5712D02*
Y6118D01*
X10059Y5712D02*
X10110Y5763D01*
X10059Y6118D02*
X10110Y6067D01*
Y5763D02*
Y6067D01*
X9450Y5712D02*
X9660D01*
X9450Y6118D02*
X9660D01*
X9900D02*
X10059D01*
X9900Y5712D02*
X10059D01*
X9450Y5182D02*
Y5588D01*
X10059Y5182D02*
X10110Y5233D01*
X10059Y5588D02*
X10110Y5537D01*
Y5233D02*
Y5537D01*
X9450Y5182D02*
X9660D01*
X9450Y5588D02*
X9660D01*
X9900D02*
X10059D01*
X9900Y5182D02*
X10059D01*
X462Y379D02*
Y1395D01*
X158Y379D02*
Y1395D01*
X10873Y3359D02*
Y4121D01*
X10682Y3359D02*
Y3486D01*
Y3359D02*
X12397D01*
Y4121D01*
X10682Y4121D02*
X12397Y4121D01*
X10682Y3486D02*
Y4121D01*
X11825Y4121D02*
X11825Y3359D01*
X10682Y772D02*
Y1153D01*
Y772D02*
X12397D01*
Y1788D01*
X10682D02*
X12397D01*
X10682Y1153D02*
Y1788D01*
X11825Y772D02*
Y1788D01*
X10873Y772D02*
Y1788D01*
X9589Y1997D02*
X10351D01*
X9589Y1743D02*
Y1997D01*
Y1743D02*
X10351D01*
Y1997D01*
X10872Y1813D02*
Y3337D01*
X11825Y1813D02*
Y3337D01*
X10682Y2702D02*
Y3337D01*
X12396D01*
Y2067D02*
Y3337D01*
Y1813D02*
Y2067D01*
X10682Y1813D02*
X12396D01*
X10682D02*
Y2702D01*
Y6191D02*
X12396D01*
Y6699D01*
X10682D02*
X12396D01*
X10682Y6191D02*
Y6699D01*
X11825Y6191D02*
Y6699D01*
X10872Y6191D02*
Y6699D01*
X10682Y5131D02*
X12396D01*
Y5639D01*
X10682D02*
X12396D01*
X10682Y5131D02*
Y5639D01*
X11825Y5131D02*
Y5639D01*
X10872Y5131D02*
Y5639D01*
X10682Y5661D02*
X12396D01*
Y6169D01*
X10682D02*
X12396D01*
X10682Y5661D02*
Y6169D01*
X11825Y5661D02*
Y6169D01*
X10872Y5661D02*
Y6169D01*
X10682Y6721D02*
X12396D01*
Y7229D01*
X10682D02*
X12396D01*
X10682Y6721D02*
Y7229D01*
X11825Y6721D02*
Y7229D01*
X10872Y6721D02*
Y7229D01*
X11825Y4148D02*
X11825Y4910D01*
X10682Y4275D02*
X10682Y4910D01*
X12396D01*
Y4148D02*
Y4910D01*
X10682Y4148D02*
X12396Y4148D01*
X10682Y4275D02*
X10682Y4148D01*
X10872D02*
Y4910D01*
X4748Y6268D02*
X6780D01*
X4748Y7220D02*
X6780D01*
X4748Y6077D02*
X5891D01*
X4748D02*
X4748Y7792D01*
X6526D01*
X6780D01*
X6780Y6077D01*
X5891D02*
X6780D01*
X1233Y6847D02*
Y7228D01*
X-481D02*
X1233D01*
X-481Y6212D02*
Y7228D01*
Y6212D02*
X1233D01*
Y6847D01*
X90Y6212D02*
Y7228D01*
X1043Y6212D02*
Y7228D01*
X812Y191D02*
Y1715D01*
X558D02*
X812D01*
X558Y191D02*
Y1715D01*
Y191D02*
X812D01*
X2492Y219D02*
X2746D01*
X2492D02*
Y473D01*
X2746D01*
Y219D02*
Y473D01*
X2492Y586D02*
X2746D01*
X2492D02*
Y840D01*
X2746D01*
Y586D02*
Y840D01*
X2492Y949D02*
X2746D01*
X2492D02*
Y1203D01*
X2746D01*
Y949D02*
Y1203D01*
X2492Y1316D02*
X2746D01*
X2492D02*
Y1570D01*
X2746D01*
Y1316D02*
Y1570D01*
X5002Y1713D02*
Y1967D01*
X6018D01*
X5002Y1713D02*
X6018D01*
Y1967D01*
X5002Y1344D02*
X5383D01*
X5002Y-371D02*
Y1344D01*
Y-371D02*
X6018D01*
Y1344D01*
X5383D02*
X6018D01*
X5002Y201D02*
X6018D01*
X5002Y1153D02*
X6018D01*
X6365D02*
X7381D01*
X6365Y201D02*
X7381D01*
X6746Y1344D02*
X7381D01*
Y-371D02*
Y1344D01*
X6365Y-371D02*
X7381D01*
X6365D02*
Y1344D01*
X6746D01*
X7715Y1153D02*
X8731D01*
X7715Y201D02*
X8731D01*
X8096Y1344D02*
X8731D01*
Y-371D02*
Y1344D01*
X7715Y-371D02*
X8731D01*
X7715D02*
Y1344D01*
X8096D01*
D15*
X-60Y4300D02*
G03*
X-40Y4280I20J0D01*
G01*
X-40Y4920D02*
G03*
X-60Y4900I0J-20D01*
G01*
X-40Y3730D02*
G03*
X-60Y3710I0J-20D01*
G01*
X-60Y3110D02*
G03*
X-40Y3090I20J0D01*
G01*
X-60Y4985D02*
X-10Y4935D01*
X-50Y4975D02*
X-25Y5000D01*
X-35Y5010D02*
X0Y4975D01*
X-60Y4985D02*
X-35Y5010D01*
X-10Y4935D02*
X0D01*
Y4225D02*
Y4975D01*
X-10Y4265D02*
X0D01*
X-35Y4190D02*
X0Y4225D01*
X-60Y4215D02*
X-10Y4265D01*
X-60Y4215D02*
X-35Y4190D01*
X-50Y4225D02*
X-25Y4200D01*
X-40Y4280D02*
X0D01*
X-40Y4920D02*
X0D01*
X-60Y4300D02*
Y4900D01*
X0Y4975D02*
X105D01*
X0Y4915D02*
X95D01*
X500D01*
Y4890D02*
Y4975D01*
X325D02*
X500D01*
X400Y4835D02*
X440D01*
X400Y4750D02*
Y4835D01*
X425Y4765D02*
Y4835D01*
X390Y4640D02*
X400D01*
X390Y4560D02*
Y4640D01*
Y4560D02*
X400D01*
Y4640D01*
Y4365D02*
X440D01*
X400D02*
Y4450D01*
X425Y4365D02*
Y4435D01*
X500Y4225D02*
Y4310D01*
X325Y4225D02*
X500D01*
X0Y4285D02*
X500D01*
X0Y4225D02*
X105D01*
X0Y3035D02*
X105D01*
X0Y3095D02*
X500D01*
X325Y3035D02*
X500D01*
Y3120D01*
X425Y3175D02*
Y3245D01*
X400Y3175D02*
Y3260D01*
Y3175D02*
X440D01*
X400Y3370D02*
Y3450D01*
X390Y3370D02*
X400D01*
X390D02*
Y3450D01*
X400D01*
X425Y3575D02*
Y3645D01*
X400Y3560D02*
Y3645D01*
X440D01*
X325Y3785D02*
X500D01*
Y3700D02*
Y3785D01*
X95Y3725D02*
X500D01*
X0D02*
X95D01*
X0Y3785D02*
X105D01*
X-60Y3110D02*
Y3710D01*
X-40Y3730D02*
X0D01*
X-40Y3090D02*
X0D01*
X-50Y3035D02*
X-25Y3010D01*
X-60Y3025D02*
X-35Y3000D01*
X-60Y3025D02*
X-10Y3075D01*
X-35Y3000D02*
X0Y3035D01*
X-10Y3075D02*
X0D01*
Y3035D02*
Y3785D01*
X-10Y3745D02*
X0D01*
X-60Y3795D02*
X-35Y3820D01*
X0Y3785D01*
X-50D02*
X-25Y3810D01*
X-60Y3795D02*
X-10Y3745D01*
D16*
X7490Y6805D02*
Y7155D01*
X7690Y6805D02*
Y7155D01*
X7490Y6805D02*
X7690D01*
X7490Y7155D02*
X7690D01*
X7890Y6805D02*
Y7155D01*
X7690Y6805D02*
Y7155D01*
X7890D01*
X7690Y6805D02*
X7890D01*
X7490Y6270D02*
Y6620D01*
X7690Y6270D02*
Y6620D01*
X7490Y6270D02*
X7690D01*
X7490Y6620D02*
X7690D01*
X7894Y6270D02*
Y6620D01*
X7694Y6270D02*
Y6620D01*
X7894D01*
X7694Y6270D02*
X7894D01*
X7490Y5745D02*
Y6095D01*
X7690Y5745D02*
Y6095D01*
X7490Y5745D02*
X7690D01*
X7490Y6095D02*
X7690D01*
X7892Y5745D02*
Y6095D01*
X7692Y5745D02*
Y6095D01*
X7892D01*
X7692Y5745D02*
X7892D01*
X7489Y5203D02*
Y5553D01*
X7689Y5203D02*
Y5553D01*
X7489Y5203D02*
X7689D01*
X7489Y5553D02*
X7689D01*
X7892Y5203D02*
Y5553D01*
X7692Y5203D02*
Y5553D01*
X7892D01*
X7692Y5203D02*
X7892D01*
X9150Y6725D02*
Y7225D01*
X9400Y6725D02*
Y7225D01*
X9150D02*
X9400D01*
X9150Y6725D02*
X9400D01*
X9150Y6200D02*
Y6700D01*
X9400Y6200D02*
Y6700D01*
X9150D02*
X9400D01*
X9150Y6200D02*
X9400D01*
X9149Y5665D02*
Y6165D01*
X9399Y5665D02*
Y6165D01*
X9149D02*
X9399D01*
X9149Y5665D02*
X9399D01*
X9150Y5128D02*
Y5628D01*
X9400Y5128D02*
Y5628D01*
X9150D02*
X9400D01*
X9150Y5128D02*
X9400D01*
X9500Y4579D02*
Y4704D01*
X9300Y4579D02*
Y4704D01*
X9500Y4354D02*
Y4479D01*
X9300Y4354D02*
Y4479D01*
Y4354D02*
X9500D01*
X9300Y4704D02*
X9500D01*
X10227Y4427D02*
X10352D01*
X10227Y4627D02*
X10352D01*
X10002Y4427D02*
X10127D01*
X10002Y4627D02*
X10127D01*
X10002Y4427D02*
Y4627D01*
X10352Y4427D02*
Y4627D01*
X10002Y4227D02*
X10352D01*
X10002Y4427D02*
X10352D01*
Y4227D02*
Y4427D01*
X10002Y4227D02*
Y4427D01*
Y4627D02*
X10352D01*
X10002Y4827D02*
X10352D01*
Y4627D02*
Y4827D01*
X10002Y4627D02*
Y4827D01*
X10002Y3438D02*
X10352D01*
X10002Y3638D02*
X10352D01*
Y3438D02*
Y3638D01*
X10002Y3438D02*
Y3638D01*
X10002Y3838D02*
X10352D01*
X10002Y4038D02*
X10352D01*
Y3838D02*
Y4038D01*
X10002Y3838D02*
Y4038D01*
X10227Y3638D02*
X10352D01*
X10227Y3838D02*
X10352D01*
X10002Y3638D02*
X10127D01*
X10002Y3838D02*
X10127D01*
X10002Y3638D02*
Y3838D01*
X10352Y3638D02*
Y3838D01*
X9507Y3790D02*
Y3915D01*
X9307Y3790D02*
Y3915D01*
X9507Y3565D02*
Y3690D01*
X9307Y3565D02*
Y3690D01*
Y3565D02*
X9507D01*
X9307Y3915D02*
X9507D01*
X6380Y5245D02*
Y5370D01*
X6180Y5245D02*
Y5370D01*
X6380Y5020D02*
Y5145D01*
X6180Y5020D02*
Y5145D01*
Y5020D02*
X6380D01*
X6180Y5370D02*
X6380D01*
X6660Y4065D02*
Y4190D01*
X6860Y4065D02*
Y4190D01*
X6660Y4290D02*
Y4415D01*
X6860Y4290D02*
Y4415D01*
X6660D02*
X6860D01*
X6660Y4065D02*
X6860D01*
X6460D02*
Y4190D01*
X6660Y4065D02*
Y4190D01*
X6460Y4290D02*
Y4415D01*
X6660Y4290D02*
Y4415D01*
X6460D02*
X6660D01*
X6460Y4065D02*
X6660D01*
X6870Y4475D02*
Y4825D01*
X6670Y4475D02*
Y4825D01*
X6870D01*
X6670Y4475D02*
X6870D01*
X6668Y4700D02*
Y4825D01*
X6468Y4700D02*
Y4825D01*
X6668Y4475D02*
Y4600D01*
X6468Y4475D02*
Y4600D01*
Y4475D02*
X6668D01*
X6468Y4825D02*
X6668D01*
X7270Y4475D02*
Y4825D01*
X7070Y4475D02*
Y4825D01*
X7270D01*
X7070Y4475D02*
X7270D01*
X7070Y4700D02*
Y4825D01*
X6870Y4700D02*
Y4825D01*
X7070Y4475D02*
Y4600D01*
X6870Y4475D02*
Y4600D01*
Y4475D02*
X7070D01*
X6870Y4825D02*
X7070D01*
X7703Y4789D02*
X8053D01*
X7703Y4589D02*
X8053D01*
X7703D02*
Y4789D01*
X8053Y4589D02*
Y4789D01*
X7705Y3990D02*
Y4490D01*
X8055Y3990D02*
Y4490D01*
X7705Y3990D02*
X8055D01*
X7705Y4490D02*
X8055D01*
X8575Y3437D02*
X8925D01*
X8575Y3637D02*
X8925D01*
Y3437D02*
Y3637D01*
X8575Y3437D02*
Y3637D01*
X8615Y2830D02*
X8750D01*
X8615Y2650D02*
X8750D01*
X8615D02*
Y2830D01*
X8945Y2650D02*
Y2830D01*
X8810D02*
X8945D01*
X8810Y2650D02*
X8945D01*
X8008D02*
X8143D01*
X8008Y2830D02*
X8143D01*
Y2650D02*
Y2830D01*
X7814Y2650D02*
Y2830D01*
Y2650D02*
X7949D01*
X7814Y2830D02*
X7949D01*
X7490Y3000D02*
Y3135D01*
X7310Y3000D02*
Y3135D01*
X7490D01*
X7310Y2805D02*
X7490D01*
Y2940D01*
X7310Y2805D02*
Y2940D01*
X7490Y3380D02*
Y3515D01*
X7310Y3380D02*
Y3515D01*
X7490D01*
X7310Y3185D02*
X7490D01*
Y3320D01*
X7310Y3185D02*
Y3320D01*
X7173Y2702D02*
X7523D01*
X7173Y2502D02*
X7523D01*
X7173D02*
Y2702D01*
X7523Y2502D02*
Y2702D01*
X10005Y2854D02*
X10355D01*
X10005Y3054D02*
X10355D01*
Y2854D02*
Y3054D01*
X10005Y2854D02*
Y3054D01*
X10002Y3310D02*
X10352D01*
X10002Y3110D02*
X10352D01*
X10002D02*
Y3310D01*
X10352Y3110D02*
Y3310D01*
X10005Y2095D02*
X10355D01*
X10005Y2295D02*
X10355D01*
Y2095D02*
Y2295D01*
X10005Y2095D02*
Y2295D01*
X10005Y2602D02*
X10355D01*
X10005Y2802D02*
X10355D01*
Y2602D02*
Y2802D01*
X10005Y2602D02*
Y2802D01*
X10005Y2349D02*
X10355D01*
X10005Y2549D02*
X10355D01*
Y2349D02*
Y2549D01*
X10005Y2349D02*
Y2549D01*
X9655Y2295D02*
X10005D01*
X9655Y2095D02*
X10005D01*
X9655D02*
Y2295D01*
X10005Y2095D02*
Y2295D01*
X9655Y2549D02*
X10005D01*
X9655Y2349D02*
X10005D01*
X9655D02*
Y2549D01*
X10005Y2349D02*
Y2549D01*
X9301Y2095D02*
X9651D01*
X9301Y2295D02*
X9651D01*
Y2095D02*
Y2295D01*
X9301Y2095D02*
Y2295D01*
X9301Y2349D02*
X9651D01*
X9301Y2549D02*
X9651D01*
Y2349D02*
Y2549D01*
X9301Y2349D02*
Y2549D01*
X10100Y1030D02*
Y1530D01*
X10350Y1030D02*
Y1530D01*
X10100D02*
X10350D01*
X10100Y1030D02*
X10350D01*
X9290Y1320D02*
Y1445D01*
X9090Y1320D02*
Y1445D01*
X9290Y1095D02*
Y1220D01*
X9090Y1095D02*
Y1220D01*
Y1095D02*
X9290D01*
X9090Y1445D02*
X9290D01*
X9500Y348D02*
Y698D01*
X9700Y348D02*
Y698D01*
X9500Y348D02*
X9700D01*
X9500Y698D02*
X9700D01*
X8275Y1630D02*
X8625D01*
X8275Y1830D02*
X8625D01*
Y1630D02*
Y1830D01*
X8275Y1630D02*
Y1830D01*
X7815Y1829D02*
X8165D01*
X7815Y1629D02*
X8165D01*
X7815D02*
Y1829D01*
X8165Y1629D02*
Y1829D01*
X6475Y1629D02*
X6825D01*
X6475Y1829D02*
X6825D01*
Y1629D02*
Y1829D01*
X6475Y1629D02*
Y1829D01*
X6925Y1830D02*
X7275D01*
X6925Y1630D02*
X7275D01*
X6925D02*
Y1830D01*
X7275Y1630D02*
Y1830D01*
X5955Y2640D02*
Y2765D01*
X6155Y2640D02*
Y2765D01*
X5955Y2865D02*
Y2990D01*
X6155Y2865D02*
Y2990D01*
X5955D02*
X6155D01*
X5955Y2640D02*
X6155D01*
X4910Y388D02*
Y738D01*
X4710Y388D02*
Y738D01*
X4910D01*
X4710Y388D02*
X4910D01*
X4911Y754D02*
Y1104D01*
X4711Y754D02*
Y1104D01*
X4911D01*
X4711Y754D02*
X4911D01*
X3575Y2070D02*
X3700D01*
X3575Y1870D02*
X3700D01*
X3800Y2070D02*
X3925D01*
X3800Y1870D02*
X3925D01*
Y2070D01*
X3575Y1870D02*
Y2070D01*
X4065Y3140D02*
X4190D01*
X4065Y2940D02*
X4190D01*
X4290Y3140D02*
X4415D01*
X4290Y2940D02*
X4415D01*
Y3140D01*
X4065Y2940D02*
Y3140D01*
Y3340D02*
X4190D01*
X4065Y3140D02*
X4190D01*
X4290Y3340D02*
X4415D01*
X4290Y3140D02*
X4415D01*
Y3340D01*
X4065Y3140D02*
Y3340D01*
X4490Y2205D02*
Y2555D01*
X4690Y2205D02*
Y2555D01*
X4490Y2205D02*
X4690D01*
X4490Y2555D02*
X4690D01*
X4080Y2205D02*
Y2555D01*
X4280Y2205D02*
Y2555D01*
X4080Y2205D02*
X4280D01*
X4080Y2555D02*
X4280D01*
X4080Y2205D02*
Y2555D01*
X3880Y2205D02*
Y2555D01*
X4080D01*
X3880Y2205D02*
X4080D01*
X3880D02*
Y2555D01*
X3680Y2205D02*
Y2555D01*
X3880D01*
X3680Y2205D02*
X3880D01*
X3676Y2205D02*
Y2555D01*
X3476Y2205D02*
Y2555D01*
X3676D01*
X3476Y2205D02*
X3676D01*
X3476Y2205D02*
Y2555D01*
X3276Y2205D02*
Y2555D01*
X3476D01*
X3276Y2205D02*
X3476D01*
X3272Y2205D02*
Y2555D01*
X3072Y2205D02*
Y2555D01*
X3272D01*
X3072Y2205D02*
X3272D01*
X3037Y171D02*
Y521D01*
X2837Y171D02*
Y521D01*
X3037D01*
X2837Y171D02*
X3037D01*
X3036Y537D02*
Y887D01*
X2836Y537D02*
Y887D01*
X3036D01*
X2836Y537D02*
X3036D01*
X3037Y903D02*
Y1253D01*
X2837Y903D02*
Y1253D01*
X3037D01*
X2837Y903D02*
X3037D01*
X3036Y1268D02*
Y1618D01*
X2836Y1268D02*
Y1618D01*
X3036D01*
X2836Y1268D02*
X3036D01*
X1550Y878D02*
Y1003D01*
X1750Y878D02*
Y1003D01*
X1550Y1103D02*
Y1228D01*
X1750Y1103D02*
Y1228D01*
X1550D02*
X1750D01*
X1550Y878D02*
X1750D01*
X1550Y200D02*
Y325D01*
X1750Y200D02*
Y325D01*
X1550Y425D02*
Y550D01*
X1750Y425D02*
Y550D01*
X1550D02*
X1750D01*
X1550Y200D02*
X1750D01*
X435Y637D02*
Y1137D01*
X185Y637D02*
Y1137D01*
Y637D02*
X435D01*
X185Y1137D02*
X435D01*
X1692Y2870D02*
X2042D01*
X1692Y2670D02*
X2042D01*
X1692D02*
Y2870D01*
X2042Y2670D02*
Y2870D01*
X2041Y2670D02*
X2391D01*
X2041Y2870D02*
X2391D01*
Y2670D02*
Y2870D01*
X2041Y2670D02*
Y2870D01*
X1693Y2870D02*
X2043D01*
X1693Y3070D02*
X2043D01*
Y2870D02*
Y3070D01*
X1693Y2870D02*
Y3070D01*
X2044Y2870D02*
Y3070D01*
X2394Y2870D02*
Y3070D01*
X2269Y2870D02*
X2394D01*
X2269Y3070D02*
X2394D01*
X2044Y2870D02*
X2169D01*
X2044Y3070D02*
X2169D01*
X1097Y2175D02*
Y2300D01*
X897Y2175D02*
Y2300D01*
X1097Y1950D02*
Y2075D01*
X897Y1950D02*
Y2075D01*
Y1950D02*
X1097D01*
X897Y2300D02*
X1097D01*
X7289Y5203D02*
X7489D01*
X7289Y5553D02*
X7489D01*
Y5428D02*
Y5553D01*
X7289Y5428D02*
Y5553D01*
X7489Y5203D02*
Y5328D01*
X7289Y5203D02*
Y5328D01*
X7290Y5743D02*
X7490D01*
X7290Y6093D02*
X7490D01*
Y5968D02*
Y6093D01*
X7290Y5968D02*
Y6093D01*
X7490Y5743D02*
Y5868D01*
X7290Y5743D02*
Y5868D01*
X7289Y6270D02*
X7489D01*
X7289Y6620D02*
X7489D01*
Y6495D02*
Y6620D01*
X7289Y6495D02*
Y6620D01*
X7489Y6270D02*
Y6395D01*
X7289Y6270D02*
Y6395D01*
X7290Y6805D02*
X7490D01*
X7290Y7155D02*
X7490D01*
Y7030D02*
Y7155D01*
X7290Y7030D02*
Y7155D01*
X7490Y6805D02*
Y6930D01*
X7290Y6805D02*
Y6930D01*
X9700Y698D02*
X9900D01*
X9700Y348D02*
X9900D01*
X9700D02*
Y473D01*
X9900Y348D02*
Y473D01*
X9700Y573D02*
Y698D01*
X9900Y573D02*
Y698D01*
X6825Y2502D02*
Y2702D01*
X7175Y2502D02*
Y2702D01*
X7050Y2502D02*
X7175D01*
X7050Y2702D02*
X7175D01*
X6825Y2502D02*
X6950D01*
X6825Y2702D02*
X6950D01*
X4286Y2555D02*
X4486D01*
X4286Y2205D02*
X4486D01*
X4286D02*
Y2330D01*
X4486Y2205D02*
Y2330D01*
X4286Y2430D02*
Y2555D01*
X4486Y2430D02*
Y2555D01*
X1096Y2535D02*
Y2660D01*
X896Y2535D02*
Y2660D01*
X1096Y2310D02*
Y2435D01*
X896Y2310D02*
Y2435D01*
Y2310D02*
X1096D01*
X896Y2660D02*
X1096D01*
X205Y2410D02*
X705D01*
X205Y2760D02*
X705D01*
Y2410D02*
Y2760D01*
X205Y2410D02*
Y2760D01*
X3737Y7275D02*
Y7400D01*
X3537Y7275D02*
Y7400D01*
X3737Y7050D02*
Y7175D01*
X3537Y7050D02*
Y7175D01*
Y7050D02*
X3737D01*
X3537Y7400D02*
X3737D01*
X3989Y7278D02*
Y7403D01*
X3789Y7278D02*
Y7403D01*
X3989Y7053D02*
Y7178D01*
X3789Y7053D02*
Y7178D01*
Y7053D02*
X3989D01*
X3789Y7403D02*
X3989D01*
X3460Y6139D02*
X3810D01*
X3460Y5939D02*
X3810D01*
X3460D02*
Y6139D01*
X3810Y5939D02*
Y6139D01*
X3460Y6399D02*
X3810D01*
X3460Y6199D02*
X3810D01*
X3460D02*
Y6399D01*
X3810Y6199D02*
Y6399D01*
X4905Y5243D02*
Y5368D01*
X4705Y5243D02*
Y5368D01*
X4905Y5018D02*
Y5143D01*
X4705Y5018D02*
Y5143D01*
Y5018D02*
X4905D01*
X4705Y5368D02*
X4905D01*
X4703Y5243D02*
Y5368D01*
X4503Y5243D02*
Y5368D01*
X4703Y5018D02*
Y5143D01*
X4503Y5018D02*
Y5143D01*
Y5018D02*
X4703D01*
X4503Y5368D02*
X4703D01*
X3875Y5280D02*
Y5630D01*
X4075Y5280D02*
Y5630D01*
X3875Y5280D02*
X4075D01*
X3875Y5630D02*
X4075D01*
X4074Y5642D02*
Y5992D01*
X3874Y5642D02*
Y5992D01*
X4074D01*
X3874Y5642D02*
X4074D01*
X3178Y5288D02*
Y5413D01*
X3378Y5288D02*
Y5413D01*
X3178Y5513D02*
Y5638D01*
X3378Y5513D02*
Y5638D01*
X3178D02*
X3378D01*
X3178Y5288D02*
X3378D01*
Y5877D02*
Y6002D01*
X3178Y5877D02*
Y6002D01*
X3378Y5652D02*
Y5777D01*
X3178Y5652D02*
Y5777D01*
Y5652D02*
X3378D01*
X3178Y6002D02*
X3378D01*
X4060Y4665D02*
Y5015D01*
X3860Y4665D02*
Y5015D01*
X4060D01*
X3860Y4665D02*
X4060D01*
X3440D02*
Y5015D01*
X3240Y4665D02*
Y5015D01*
X3440D01*
X3240Y4665D02*
X3440D01*
X2270Y3385D02*
X2620D01*
X2270Y3585D02*
X2620D01*
Y3385D02*
Y3585D01*
X2270Y3385D02*
Y3585D01*
X2969Y3385D02*
Y3585D01*
X2619Y3385D02*
Y3585D01*
X2744D01*
X2619Y3385D02*
X2744D01*
X2844Y3585D02*
X2969D01*
X2844Y3385D02*
X2969D01*
X2270Y3585D02*
X2620D01*
X2270Y3785D02*
X2620D01*
Y3585D02*
Y3785D01*
X2270Y3585D02*
Y3785D01*
X2969Y3585D02*
Y3785D01*
X2619Y3585D02*
Y3785D01*
X2744D01*
X2619Y3585D02*
X2744D01*
X2844Y3785D02*
X2969D01*
X2844Y3585D02*
X2969D01*
Y3785D02*
Y3985D01*
X2619Y3785D02*
Y3985D01*
X2744D01*
X2619Y3785D02*
X2744D01*
X2844Y3985D02*
X2969D01*
X2844Y3785D02*
X2969D01*
X2969Y3984D02*
Y4184D01*
X2619Y3984D02*
Y4184D01*
X2744D01*
X2619Y3984D02*
X2744D01*
X2844Y4184D02*
X2969D01*
X2844Y3984D02*
X2969D01*
X2269Y3785D02*
X2619D01*
X2269Y3985D02*
X2619D01*
Y3785D02*
Y3985D01*
X2269Y3785D02*
Y3985D01*
X2269Y3986D02*
X2619D01*
X2269Y4186D02*
X2619D01*
Y3986D02*
Y4186D01*
X2269Y3986D02*
Y4186D01*
X2794Y4270D02*
Y4770D01*
X2444Y4270D02*
Y4770D01*
X2794D01*
X2444Y4270D02*
X2794D01*
X2340Y4525D02*
Y4650D01*
X2140Y4525D02*
Y4650D01*
X2340Y4300D02*
Y4425D01*
X2140Y4300D02*
Y4425D01*
Y4300D02*
X2340D01*
X2140Y4650D02*
X2340D01*
X878Y4415D02*
Y4540D01*
X1078Y4415D02*
Y4540D01*
X878Y4640D02*
Y4765D01*
X1078Y4640D02*
Y4765D01*
X878D02*
X1078D01*
X878Y4415D02*
X1078D01*
X280Y5206D02*
X630D01*
X280Y5406D02*
X630D01*
Y5206D02*
Y5406D01*
X280Y5206D02*
Y5406D01*
X632Y5426D02*
Y5626D01*
X282Y5426D02*
Y5626D01*
X407D01*
X282Y5426D02*
X407D01*
X507Y5626D02*
X632D01*
X507Y5426D02*
X632D01*
Y5643D02*
Y5843D01*
X282Y5643D02*
Y5843D01*
X407D01*
X282Y5643D02*
X407D01*
X507Y5843D02*
X632D01*
X507Y5643D02*
X632D01*
X282Y5860D02*
X632D01*
X282Y6060D02*
X632D01*
Y5860D02*
Y6060D01*
X282Y5860D02*
Y6060D01*
X2184Y6012D02*
Y6137D01*
X1984Y6012D02*
Y6137D01*
X2184Y5787D02*
Y5912D01*
X1984Y5787D02*
Y5912D01*
Y5787D02*
X2184D01*
X1984Y6137D02*
X2184D01*
X1875Y6470D02*
Y6970D01*
X1625Y6470D02*
Y6970D01*
Y6470D02*
X1875D01*
X1625Y6970D02*
X1875D01*
X280Y7572D02*
X630D01*
X280Y7372D02*
X630D01*
X280D02*
Y7572D01*
X630Y7372D02*
Y7572D01*
X280Y7595D02*
Y7795D01*
X630Y7595D02*
Y7795D01*
X505Y7595D02*
X630D01*
X505Y7795D02*
X630D01*
X280Y7595D02*
X405D01*
X280Y7795D02*
X405D01*
X6244Y2987D02*
X6444D01*
X6244Y2637D02*
X6444D01*
Y2987D01*
X6244Y2637D02*
Y2987D01*
X6840Y3720D02*
Y3920D01*
X6490Y3720D02*
Y3920D01*
X6615D01*
X6490Y3720D02*
X6615D01*
X6715Y3920D02*
X6840D01*
X6715Y3720D02*
X6840D01*
D17*
X3850Y4600D02*
X4230D01*
Y3400D02*
Y4600D01*
X3850Y3400D02*
X4230D01*
X3030D02*
X3410D01*
X3030D02*
Y4600D01*
X3410D01*
X6380Y2330D02*
X6300D01*
Y2370D01*
X6313Y2383D01*
X6340D01*
X6353Y2370D01*
Y2330D01*
Y2357D02*
X6380Y2383D01*
Y2463D02*
Y2410D01*
X6327Y2463D01*
X6313D01*
X6300Y2450D01*
Y2423D01*
X6313Y2410D01*
X6300Y2543D02*
Y2490D01*
X6340D01*
X6327Y2517D01*
Y2530D01*
X6340Y2543D01*
X6367D01*
X6380Y2530D01*
Y2503D01*
X6367Y2490D01*
X151Y1686D02*
X138Y1699D01*
X111D01*
X98Y1686D01*
Y1633D01*
X111Y1619D01*
X138D01*
X151Y1633D01*
X178Y1619D02*
X205D01*
X191D01*
Y1699D01*
X178Y1686D01*
X2059Y6279D02*
X2046Y6266D01*
Y6239D01*
X2059Y6226D01*
X2113D01*
X2126Y6239D01*
Y6266D01*
X2113Y6279D01*
X2126Y6359D02*
Y6306D01*
X2073Y6359D01*
X2059D01*
X2046Y6346D01*
Y6319D01*
X2059Y6306D01*
X2126Y6426D02*
X2046D01*
X2086Y6386D01*
Y6439D01*
X8291Y4894D02*
X8278Y4907D01*
X8251D01*
X8238Y4894D01*
Y4881D01*
X8251Y4867D01*
X8278D01*
X8291Y4854D01*
Y4841D01*
X8278Y4827D01*
X8251D01*
X8238Y4841D01*
X8318Y4827D02*
X8345D01*
X8331D01*
Y4907D01*
X8318Y4894D01*
X9603Y4020D02*
X9630D01*
X9616D01*
Y3940D01*
X9603D01*
X9630D01*
X9723Y4007D02*
X9710Y4020D01*
X9683D01*
X9670Y4007D01*
Y3953D01*
X9683Y3940D01*
X9710D01*
X9723Y3953D01*
X9750Y3940D02*
X9776D01*
X9763D01*
Y4020D01*
X9750Y4007D01*
X9816D02*
X9830Y4020D01*
X9856D01*
X9870Y4007D01*
Y3953D01*
X9856Y3940D01*
X9830D01*
X9816Y3953D01*
Y4007D01*
X10170Y4172D02*
Y4092D01*
Y4119D01*
X10223Y4172D01*
X10183Y4132D01*
X10223Y4092D01*
X10250D02*
X10277D01*
X10263D01*
Y4172D01*
X10250Y4159D01*
X10317D02*
X10330Y4172D01*
X10357D01*
X10370Y4159D01*
Y4146D01*
X10357Y4132D01*
X10343D01*
X10357D01*
X10370Y4119D01*
Y4106D01*
X10357Y4092D01*
X10330D01*
X10317Y4106D01*
X9773Y4222D02*
X9760Y4235D01*
X9733D01*
X9720Y4222D01*
Y4168D01*
X9733Y4155D01*
X9760D01*
X9773Y4168D01*
X9840Y4155D02*
Y4235D01*
X9800Y4195D01*
X9853D01*
X9920Y4155D02*
Y4235D01*
X9880Y4195D01*
X9933D01*
X9720Y4048D02*
Y4128D01*
X9760D01*
X9773Y4115D01*
Y4088D01*
X9760Y4075D01*
X9720D01*
X9747D02*
X9773Y4048D01*
X9853Y4128D02*
X9827Y4115D01*
X9800Y4088D01*
Y4062D01*
X9813Y4048D01*
X9840D01*
X9853Y4062D01*
Y4075D01*
X9840Y4088D01*
X9800D01*
X9880Y4128D02*
X9933D01*
Y4115D01*
X9880Y4062D01*
Y4048D01*
X9720Y4259D02*
Y4339D01*
X9760D01*
X9773Y4326D01*
Y4299D01*
X9760Y4286D01*
X9720D01*
X9747D02*
X9773Y4259D01*
X9853Y4339D02*
X9827Y4326D01*
X9800Y4299D01*
Y4272D01*
X9813Y4259D01*
X9840D01*
X9853Y4272D01*
Y4286D01*
X9840Y4299D01*
X9800D01*
X9880Y4272D02*
X9893Y4259D01*
X9920D01*
X9933Y4272D01*
Y4326D01*
X9920Y4339D01*
X9893D01*
X9880Y4326D01*
Y4312D01*
X9893Y4299D01*
X9933D01*
X9328Y4051D02*
X9315Y4064D01*
X9288D01*
X9275Y4051D01*
Y3997D01*
X9288Y3984D01*
X9315D01*
X9328Y3997D01*
X9355Y3984D02*
X9382D01*
X9368D01*
Y4064D01*
X9355Y4051D01*
X9422Y3984D02*
X9448D01*
X9435D01*
Y4064D01*
X9422Y4051D01*
X9058Y4146D02*
X9045Y4160D01*
X9018D01*
X9005Y4146D01*
Y4093D01*
X9018Y4080D01*
X9045D01*
X9058Y4093D01*
X9085Y4080D02*
X9112D01*
X9098D01*
Y4160D01*
X9085Y4146D01*
X9192Y4080D02*
Y4160D01*
X9152Y4120D01*
X9205D01*
X4530Y6220D02*
Y6140D01*
Y6167D01*
X4583Y6220D01*
X4543Y6180D01*
X4583Y6140D01*
X4610Y6153D02*
X4623Y6140D01*
X4650D01*
X4663Y6153D01*
Y6207D01*
X4650Y6220D01*
X4623D01*
X4610Y6207D01*
Y6193D01*
X4623Y6180D01*
X4663D01*
X4653Y1997D02*
X4640Y2010D01*
X4613D01*
X4600Y1997D01*
Y1943D01*
X4613Y1930D01*
X4640D01*
X4653Y1943D01*
X4680Y1930D02*
X4707D01*
X4693D01*
Y2010D01*
X4680Y1997D01*
X4800Y2010D02*
X4747D01*
Y1970D01*
X4773Y1983D01*
X4787D01*
X4800Y1970D01*
Y1943D01*
X4787Y1930D01*
X4760D01*
X4747Y1943D01*
X3333Y2003D02*
X3320Y2016D01*
X3293D01*
X3280Y2003D01*
Y1949D01*
X3293Y1936D01*
X3320D01*
X3333Y1949D01*
X3360Y1936D02*
X3387D01*
X3373D01*
Y2016D01*
X3360Y2003D01*
X3480Y1936D02*
X3427D01*
X3480Y1989D01*
Y2003D01*
X3467Y2016D01*
X3440D01*
X3427Y2003D01*
X8786Y4837D02*
X8773Y4850D01*
X8747D01*
X8733Y4837D01*
Y4783D01*
X8747Y4770D01*
X8773D01*
X8786Y4783D01*
X8813Y4837D02*
X8826Y4850D01*
X8853D01*
X8866Y4837D01*
Y4823D01*
X8853Y4810D01*
X8840D01*
X8853D01*
X8866Y4797D01*
Y4783D01*
X8853Y4770D01*
X8826D01*
X8813Y4783D01*
X8893Y4770D02*
X8920D01*
X8906D01*
Y4850D01*
X8893Y4837D01*
X9353D02*
X9340Y4850D01*
X9313D01*
X9300Y4837D01*
Y4783D01*
X9313Y4770D01*
X9340D01*
X9353Y4783D01*
X9433Y4770D02*
X9380D01*
X9433Y4823D01*
Y4837D01*
X9420Y4850D01*
X9393D01*
X9380Y4837D01*
X9460D02*
X9473Y4850D01*
X9500D01*
X9513Y4837D01*
Y4823D01*
X9500Y4810D01*
X9487D01*
X9500D01*
X9513Y4797D01*
Y4783D01*
X9500Y4770D01*
X9473D01*
X9460Y4783D01*
X730Y5267D02*
Y5346D01*
X770D01*
X783Y5333D01*
Y5306D01*
X770Y5293D01*
X730D01*
X757D02*
X783Y5267D01*
X863D02*
X810D01*
X863Y5320D01*
Y5333D01*
X850Y5346D01*
X823D01*
X810Y5333D01*
X943Y5267D02*
X890D01*
X943Y5320D01*
Y5333D01*
X930Y5346D01*
X903D01*
X890Y5333D01*
X730Y7740D02*
Y7660D01*
X770D01*
X783Y7673D01*
Y7727D01*
X770Y7740D01*
X730D01*
X863Y7660D02*
X810D01*
X863Y7713D01*
Y7727D01*
X850Y7740D01*
X823D01*
X810Y7727D01*
X943Y7660D02*
X890D01*
X943Y7713D01*
Y7727D01*
X930Y7740D01*
X903D01*
X890Y7727D01*
X2550Y1780D02*
Y1700D01*
Y1740D01*
X2603D01*
Y1780D01*
Y1700D01*
X2683Y1780D02*
X2630D01*
Y1740D01*
X2657Y1753D01*
X2670D01*
X2683Y1740D01*
Y1713D01*
X2670Y1700D01*
X2643D01*
X2630Y1713D01*
X2550Y1900D02*
Y1820D01*
Y1860D01*
X2603D01*
Y1900D01*
Y1820D01*
X2670D02*
Y1900D01*
X2630Y1860D01*
X2683D01*
X2550Y2020D02*
Y1940D01*
Y1980D01*
X2603D01*
Y2020D01*
Y1940D01*
X2630Y2007D02*
X2643Y2020D01*
X2670D01*
X2683Y2007D01*
Y1993D01*
X2670Y1980D01*
X2657D01*
X2670D01*
X2683Y1967D01*
Y1953D01*
X2670Y1940D01*
X2643D01*
X2630Y1953D01*
X2550Y2140D02*
Y2060D01*
Y2100D01*
X2603D01*
Y2140D01*
Y2060D01*
X2683D02*
X2630D01*
X2683Y2113D01*
Y2127D01*
X2670Y2140D01*
X2643D01*
X2630Y2127D01*
X5830Y2100D02*
Y2020D01*
Y2060D01*
X5883D01*
Y2100D01*
Y2020D01*
X5963Y2100D02*
X5937Y2087D01*
X5910Y2060D01*
Y2033D01*
X5923Y2020D01*
X5950D01*
X5963Y2033D01*
Y2047D01*
X5950Y2060D01*
X5910D01*
X2770Y1930D02*
Y2010D01*
X2810D01*
X2823Y1997D01*
Y1970D01*
X2810Y1957D01*
X2770D01*
X2797D02*
X2823Y1930D01*
X2890D02*
Y2010D01*
X2850Y1970D01*
X2903D01*
X2983Y1930D02*
X2930D01*
X2983Y1983D01*
Y1997D01*
X2970Y2010D01*
X2943D01*
X2930Y1997D01*
X2770Y2060D02*
Y2140D01*
X2810D01*
X2823Y2127D01*
Y2100D01*
X2810Y2087D01*
X2770D01*
X2797D02*
X2823Y2060D01*
X2890D02*
Y2140D01*
X2850Y2100D01*
X2903D01*
X2930Y2060D02*
X2957D01*
X2943D01*
Y2140D01*
X2930Y2127D01*
X4730Y230D02*
Y150D01*
Y177D01*
X4783Y230D01*
X4743Y190D01*
X4783Y150D01*
X4810D02*
X4837D01*
X4823D01*
Y230D01*
X4810Y217D01*
X4877Y150D02*
X4903D01*
X4890D01*
Y230D01*
X4877Y217D01*
X5150Y2205D02*
X5070D01*
Y2245D01*
X5083Y2259D01*
X5110D01*
X5123Y2245D01*
Y2205D01*
Y2232D02*
X5150Y2259D01*
X5083Y2285D02*
X5070Y2298D01*
Y2325D01*
X5083Y2338D01*
X5097D01*
X5110Y2325D01*
Y2312D01*
Y2325D01*
X5123Y2338D01*
X5137D01*
X5150Y2325D01*
Y2298D01*
X5137Y2285D01*
X5083Y2365D02*
X5070Y2378D01*
Y2405D01*
X5083Y2418D01*
X5097D01*
X5110Y2405D01*
X5123Y2418D01*
X5137D01*
X5150Y2405D01*
Y2378D01*
X5137Y2365D01*
X5123D01*
X5110Y2378D01*
X5097Y2365D01*
X5083D01*
X5110Y2378D02*
Y2405D01*
X4820Y2205D02*
X4740D01*
Y2245D01*
X4753Y2259D01*
X4780D01*
X4793Y2245D01*
Y2205D01*
Y2232D02*
X4820Y2259D01*
X4753Y2285D02*
X4740Y2298D01*
Y2325D01*
X4753Y2338D01*
X4767D01*
X4780Y2325D01*
Y2312D01*
Y2325D01*
X4793Y2338D01*
X4807D01*
X4820Y2325D01*
Y2298D01*
X4807Y2285D01*
X4740Y2365D02*
Y2418D01*
X4753D01*
X4807Y2365D01*
X4820D01*
X4930Y2205D02*
X4850D01*
Y2245D01*
X4863Y2259D01*
X4890D01*
X4903Y2245D01*
Y2205D01*
Y2232D02*
X4930Y2259D01*
X4863Y2285D02*
X4850Y2298D01*
Y2325D01*
X4863Y2338D01*
X4877D01*
X4890Y2325D01*
Y2312D01*
Y2325D01*
X4903Y2338D01*
X4917D01*
X4930Y2325D01*
Y2298D01*
X4917Y2285D01*
X4850Y2418D02*
X4863Y2392D01*
X4890Y2365D01*
X4917D01*
X4930Y2378D01*
Y2405D01*
X4917Y2418D01*
X4903D01*
X4890Y2405D01*
Y2365D01*
X5040Y2205D02*
X4960D01*
Y2245D01*
X4973Y2259D01*
X5000D01*
X5013Y2245D01*
Y2205D01*
Y2232D02*
X5040Y2259D01*
X4973Y2285D02*
X4960Y2298D01*
Y2325D01*
X4973Y2338D01*
X4987D01*
X5000Y2325D01*
Y2312D01*
Y2325D01*
X5013Y2338D01*
X5027D01*
X5040Y2325D01*
Y2298D01*
X5027Y2285D01*
X4960Y2418D02*
Y2365D01*
X5000D01*
X4987Y2392D01*
Y2405D01*
X5000Y2418D01*
X5027D01*
X5040Y2405D01*
Y2378D01*
X5027Y2365D01*
X5260Y2210D02*
X5180D01*
Y2250D01*
X5193Y2263D01*
X5220D01*
X5233Y2250D01*
Y2210D01*
Y2237D02*
X5260Y2263D01*
X5193Y2290D02*
X5180Y2303D01*
Y2330D01*
X5193Y2343D01*
X5207D01*
X5220Y2330D01*
Y2317D01*
Y2330D01*
X5233Y2343D01*
X5247D01*
X5260Y2330D01*
Y2303D01*
X5247Y2290D01*
X5260Y2410D02*
X5180D01*
X5220Y2370D01*
Y2423D01*
X2010Y680D02*
Y613D01*
X2023Y600D01*
X2050D01*
X2063Y613D01*
Y680D01*
X2090Y600D02*
X2117D01*
X2103D01*
Y680D01*
X2090Y667D01*
X2210Y600D02*
X2157D01*
X2210Y653D01*
Y667D01*
X2197Y680D01*
X2170D01*
X2157Y667D01*
X2020Y920D02*
Y853D01*
X2033Y840D01*
X2060D01*
X2073Y853D01*
Y920D01*
X2100Y840D02*
X2126D01*
X2113D01*
Y920D01*
X2100Y907D01*
X2166Y840D02*
X2193D01*
X2180D01*
Y920D01*
X2166Y907D01*
X2500Y2927D02*
Y3007D01*
X2540D01*
X2553Y2994D01*
Y2967D01*
X2540Y2954D01*
X2500D01*
X2527D02*
X2553Y2927D01*
X2580Y3007D02*
X2633D01*
Y2994D01*
X2580Y2941D01*
Y2927D01*
X2713D02*
X2660D01*
X2713Y2981D01*
Y2994D01*
X2700Y3007D01*
X2673D01*
X2660Y2994D01*
X730Y7430D02*
Y7510D01*
X770D01*
X783Y7497D01*
Y7470D01*
X770Y7457D01*
X730D01*
X757D02*
X783Y7430D01*
X810Y7510D02*
X863D01*
Y7497D01*
X810Y7443D01*
Y7430D01*
X890D02*
X917D01*
X903D01*
Y7510D01*
X890Y7497D01*
X3852Y5110D02*
Y5190D01*
X3892D01*
X3905Y5177D01*
Y5150D01*
X3892Y5137D01*
X3852D01*
X3878D02*
X3905Y5110D01*
X3932Y5190D02*
X3985D01*
Y5177D01*
X3932Y5123D01*
Y5110D01*
X4012Y5177D02*
X4025Y5190D01*
X4052D01*
X4065Y5177D01*
Y5123D01*
X4052Y5110D01*
X4025D01*
X4012Y5123D01*
Y5177D01*
X6930Y5150D02*
X6850D01*
Y5190D01*
X6863Y5203D01*
X6890D01*
X6903Y5190D01*
Y5150D01*
Y5177D02*
X6930Y5203D01*
X6850Y5283D02*
X6863Y5257D01*
X6890Y5230D01*
X6917D01*
X6930Y5243D01*
Y5270D01*
X6917Y5283D01*
X6903D01*
X6890Y5270D01*
Y5230D01*
X6863Y5310D02*
X6850Y5323D01*
Y5350D01*
X6863Y5363D01*
X6877D01*
X6890Y5350D01*
X6903Y5363D01*
X6917D01*
X6930Y5350D01*
Y5323D01*
X6917Y5310D01*
X6903D01*
X6890Y5323D01*
X6877Y5310D01*
X6863D01*
X6890Y5323D02*
Y5350D01*
X8740Y2160D02*
Y2240D01*
X8780D01*
X8793Y2227D01*
Y2200D01*
X8780Y2187D01*
X8740D01*
X8767D02*
X8793Y2160D01*
X8873Y2240D02*
X8847Y2227D01*
X8820Y2200D01*
Y2173D01*
X8833Y2160D01*
X8860D01*
X8873Y2173D01*
Y2187D01*
X8860Y2200D01*
X8820D01*
X8953Y2240D02*
X8927Y2227D01*
X8900Y2200D01*
Y2173D01*
X8913Y2160D01*
X8940D01*
X8953Y2173D01*
Y2187D01*
X8940Y2200D01*
X8900D01*
X8470Y2160D02*
Y2240D01*
X8510D01*
X8523Y2227D01*
Y2200D01*
X8510Y2187D01*
X8470D01*
X8497D02*
X8523Y2160D01*
X8603Y2240D02*
X8577Y2227D01*
X8550Y2200D01*
Y2173D01*
X8563Y2160D01*
X8590D01*
X8603Y2173D01*
Y2187D01*
X8590Y2200D01*
X8550D01*
X8683Y2240D02*
X8630D01*
Y2200D01*
X8657Y2213D01*
X8670D01*
X8683Y2200D01*
Y2173D01*
X8670Y2160D01*
X8643D01*
X8630Y2173D01*
X8750Y2410D02*
Y2490D01*
X8790D01*
X8803Y2477D01*
Y2450D01*
X8790Y2437D01*
X8750D01*
X8777D02*
X8803Y2410D01*
X8883Y2490D02*
X8857Y2477D01*
X8830Y2450D01*
Y2423D01*
X8843Y2410D01*
X8870D01*
X8883Y2423D01*
Y2437D01*
X8870Y2450D01*
X8830D01*
X8950Y2410D02*
Y2490D01*
X8910Y2450D01*
X8963D01*
X8480Y2410D02*
Y2490D01*
X8520D01*
X8533Y2477D01*
Y2450D01*
X8520Y2437D01*
X8480D01*
X8507D02*
X8533Y2410D01*
X8613Y2490D02*
X8587Y2477D01*
X8560Y2450D01*
Y2423D01*
X8573Y2410D01*
X8600D01*
X8613Y2423D01*
Y2437D01*
X8600Y2450D01*
X8560D01*
X8640Y2477D02*
X8653Y2490D01*
X8680D01*
X8693Y2477D01*
Y2463D01*
X8680Y2450D01*
X8667D01*
X8680D01*
X8693Y2437D01*
Y2423D01*
X8680Y2410D01*
X8653D01*
X8640Y2423D01*
X3260Y5110D02*
Y5190D01*
X3300D01*
X3313Y5177D01*
Y5150D01*
X3300Y5137D01*
X3260D01*
X3287D02*
X3313Y5110D01*
X3393Y5190D02*
X3367Y5177D01*
X3340Y5150D01*
Y5123D01*
X3353Y5110D01*
X3380D01*
X3393Y5123D01*
Y5137D01*
X3380Y5150D01*
X3340D01*
X3473Y5110D02*
X3420D01*
X3473Y5163D01*
Y5177D01*
X3460Y5190D01*
X3433D01*
X3420Y5177D01*
X9730Y3170D02*
Y3250D01*
X9770D01*
X9783Y3237D01*
Y3210D01*
X9770Y3197D01*
X9730D01*
X9757D02*
X9783Y3170D01*
X9863Y3250D02*
X9837Y3237D01*
X9810Y3210D01*
Y3183D01*
X9823Y3170D01*
X9850D01*
X9863Y3183D01*
Y3197D01*
X9850Y3210D01*
X9810D01*
X9890Y3170D02*
X9917D01*
X9903D01*
Y3250D01*
X9890Y3237D01*
X9000Y2160D02*
Y2240D01*
X9040D01*
X9053Y2227D01*
Y2200D01*
X9040Y2187D01*
X9000D01*
X9027D02*
X9053Y2160D01*
X9133Y2240D02*
X9107Y2227D01*
X9080Y2200D01*
Y2173D01*
X9093Y2160D01*
X9120D01*
X9133Y2173D01*
Y2187D01*
X9120Y2200D01*
X9080D01*
X9160Y2227D02*
X9173Y2240D01*
X9200D01*
X9213Y2227D01*
Y2173D01*
X9200Y2160D01*
X9173D01*
X9160Y2173D01*
Y2227D01*
X9010Y2410D02*
Y2490D01*
X9050D01*
X9063Y2477D01*
Y2450D01*
X9050Y2437D01*
X9010D01*
X9037D02*
X9063Y2410D01*
X9143Y2490D02*
X9090D01*
Y2450D01*
X9117Y2463D01*
X9130D01*
X9143Y2450D01*
Y2423D01*
X9130Y2410D01*
X9103D01*
X9090Y2423D01*
X9170D02*
X9183Y2410D01*
X9210D01*
X9223Y2423D01*
Y2477D01*
X9210Y2490D01*
X9183D01*
X9170Y2477D01*
Y2463D01*
X9183Y2450D01*
X9223D01*
X9734Y2915D02*
Y2995D01*
X9774D01*
X9788Y2982D01*
Y2955D01*
X9774Y2942D01*
X9734D01*
X9761D02*
X9788Y2915D01*
X9868Y2995D02*
X9814D01*
Y2955D01*
X9841Y2968D01*
X9854D01*
X9868Y2955D01*
Y2928D01*
X9854Y2915D01*
X9828D01*
X9814Y2928D01*
X9894Y2982D02*
X9908Y2995D01*
X9934D01*
X9948Y2982D01*
Y2968D01*
X9934Y2955D01*
X9948Y2942D01*
Y2928D01*
X9934Y2915D01*
X9908D01*
X9894Y2928D01*
Y2942D01*
X9908Y2955D01*
X9894Y2968D01*
Y2982D01*
X9908Y2955D02*
X9934D01*
X9730Y2668D02*
Y2748D01*
X9770D01*
X9783Y2735D01*
Y2708D01*
X9770Y2695D01*
X9730D01*
X9757D02*
X9783Y2668D01*
X9863Y2748D02*
X9810D01*
Y2708D01*
X9837Y2721D01*
X9850D01*
X9863Y2708D01*
Y2681D01*
X9850Y2668D01*
X9823D01*
X9810Y2681D01*
X9890Y2748D02*
X9943D01*
Y2735D01*
X9890Y2681D01*
Y2668D01*
X9467Y4261D02*
Y4341D01*
X9507D01*
X9520Y4327D01*
Y4301D01*
X9507Y4288D01*
X9467D01*
X9494D02*
X9520Y4261D01*
X9600Y4341D02*
X9547D01*
Y4301D01*
X9574Y4314D01*
X9587D01*
X9600Y4301D01*
Y4274D01*
X9587Y4261D01*
X9560D01*
X9547Y4274D01*
X9680Y4341D02*
X9654Y4327D01*
X9627Y4301D01*
Y4274D01*
X9640Y4261D01*
X9667D01*
X9680Y4274D01*
Y4288D01*
X9667Y4301D01*
X9627D01*
X2760Y2720D02*
Y2800D01*
X2800D01*
X2813Y2787D01*
Y2760D01*
X2800Y2747D01*
X2760D01*
X2787D02*
X2813Y2720D01*
X2893Y2800D02*
X2840D01*
Y2760D01*
X2867Y2773D01*
X2880D01*
X2893Y2760D01*
Y2733D01*
X2880Y2720D01*
X2853D01*
X2840Y2733D01*
X2973Y2800D02*
X2920D01*
Y2760D01*
X2947Y2773D01*
X2960D01*
X2973Y2760D01*
Y2733D01*
X2960Y2720D01*
X2933D01*
X2920Y2733D01*
X9471Y4048D02*
Y4128D01*
X9511D01*
X9524Y4115D01*
Y4088D01*
X9511Y4075D01*
X9471D01*
X9498D02*
X9524Y4048D01*
X9604Y4128D02*
X9551D01*
Y4088D01*
X9578Y4102D01*
X9591D01*
X9604Y4088D01*
Y4062D01*
X9591Y4048D01*
X9564D01*
X9551Y4062D01*
X9671Y4048D02*
Y4128D01*
X9631Y4088D01*
X9684D01*
X6710Y5150D02*
X6630D01*
Y5190D01*
X6643Y5203D01*
X6670D01*
X6683Y5190D01*
Y5150D01*
Y5177D02*
X6710Y5203D01*
X6630Y5283D02*
Y5230D01*
X6670D01*
X6657Y5257D01*
Y5270D01*
X6670Y5283D01*
X6697D01*
X6710Y5270D01*
Y5243D01*
X6697Y5230D01*
X6643Y5310D02*
X6630Y5323D01*
Y5350D01*
X6643Y5363D01*
X6657D01*
X6670Y5350D01*
Y5337D01*
Y5350D01*
X6683Y5363D01*
X6697D01*
X6710Y5350D01*
Y5323D01*
X6697Y5310D01*
X2500Y2720D02*
Y2800D01*
X2540D01*
X2553Y2787D01*
Y2760D01*
X2540Y2747D01*
X2500D01*
X2527D02*
X2553Y2720D01*
X2633Y2800D02*
X2580D01*
Y2760D01*
X2607Y2773D01*
X2620D01*
X2633Y2760D01*
Y2733D01*
X2620Y2720D01*
X2593D01*
X2580Y2733D01*
X2713Y2720D02*
X2660D01*
X2713Y2773D01*
Y2787D01*
X2700Y2800D01*
X2673D01*
X2660Y2787D01*
X9160Y7410D02*
Y7490D01*
X9200D01*
X9213Y7477D01*
Y7450D01*
X9200Y7437D01*
X9160D01*
X9187D02*
X9213Y7410D01*
X9293Y7490D02*
X9240D01*
Y7450D01*
X9267Y7463D01*
X9280D01*
X9293Y7450D01*
Y7423D01*
X9280Y7410D01*
X9253D01*
X9240Y7423D01*
X9320Y7477D02*
X9333Y7490D01*
X9360D01*
X9373Y7477D01*
Y7423D01*
X9360Y7410D01*
X9333D01*
X9320Y7423D01*
Y7477D01*
X9160Y7520D02*
Y7600D01*
X9200D01*
X9213Y7587D01*
Y7560D01*
X9200Y7547D01*
X9160D01*
X9187D02*
X9213Y7520D01*
X9293Y7600D02*
X9240D01*
Y7560D01*
X9267Y7573D01*
X9280D01*
X9293Y7560D01*
Y7533D01*
X9280Y7520D01*
X9253D01*
X9240Y7533D01*
X9320Y7520D02*
X9347D01*
X9333D01*
Y7600D01*
X9320Y7587D01*
X7628Y7521D02*
Y7601D01*
X7668D01*
X7682Y7588D01*
Y7561D01*
X7668Y7548D01*
X7628D01*
X7655D02*
X7682Y7521D01*
X7748D02*
Y7601D01*
X7708Y7561D01*
X7761D01*
X7788Y7534D02*
X7801Y7521D01*
X7828D01*
X7841Y7534D01*
Y7588D01*
X7828Y7601D01*
X7801D01*
X7788Y7588D01*
Y7574D01*
X7801Y7561D01*
X7841D01*
X7898Y7521D02*
Y7601D01*
X7938D01*
X7951Y7588D01*
Y7561D01*
X7938Y7548D01*
X7898D01*
X7924D02*
X7951Y7521D01*
X8018D02*
Y7601D01*
X7978Y7561D01*
X8031D01*
X8058Y7588D02*
X8071Y7601D01*
X8098D01*
X8111Y7588D01*
Y7574D01*
X8098Y7561D01*
X8111Y7548D01*
Y7534D01*
X8098Y7521D01*
X8071D01*
X8058Y7534D01*
Y7548D01*
X8071Y7561D01*
X8058Y7574D01*
Y7588D01*
X8071Y7561D02*
X8098D01*
X8300Y3485D02*
Y3565D01*
X8340D01*
X8353Y3552D01*
Y3525D01*
X8340Y3512D01*
X8300D01*
X8327D02*
X8353Y3485D01*
X8420D02*
Y3565D01*
X8380Y3525D01*
X8433D01*
X8460Y3565D02*
X8513D01*
Y3552D01*
X8460Y3498D01*
Y3485D01*
X9160Y7740D02*
Y7820D01*
X9200D01*
X9213Y7807D01*
Y7780D01*
X9200Y7767D01*
X9160D01*
X9187D02*
X9213Y7740D01*
X9280D02*
Y7820D01*
X9240Y7780D01*
X9293D01*
X9373Y7820D02*
X9320D01*
Y7780D01*
X9347Y7793D01*
X9360D01*
X9373Y7780D01*
Y7753D01*
X9360Y7740D01*
X9333D01*
X9320Y7753D01*
X7362Y7520D02*
Y7600D01*
X7402D01*
X7415Y7587D01*
Y7560D01*
X7402Y7547D01*
X7362D01*
X7388D02*
X7415Y7520D01*
X7482D02*
Y7600D01*
X7442Y7560D01*
X7495D01*
X7562Y7520D02*
Y7600D01*
X7522Y7560D01*
X7575D01*
X7088Y7540D02*
Y7620D01*
X7128D01*
X7142Y7607D01*
Y7580D01*
X7128Y7567D01*
X7088D01*
X7115D02*
X7142Y7540D01*
X7208D02*
Y7620D01*
X7168Y7580D01*
X7222D01*
X7248Y7607D02*
X7262Y7620D01*
X7288D01*
X7302Y7607D01*
Y7593D01*
X7288Y7580D01*
X7275D01*
X7288D01*
X7302Y7567D01*
Y7553D01*
X7288Y7540D01*
X7262D01*
X7248Y7553D01*
X2770Y1700D02*
Y1780D01*
X2810D01*
X2823Y1767D01*
Y1740D01*
X2810Y1727D01*
X2770D01*
X2797D02*
X2823Y1700D01*
X2890D02*
Y1780D01*
X2850Y1740D01*
X2903D01*
X2930Y1767D02*
X2943Y1780D01*
X2970D01*
X2983Y1767D01*
Y1713D01*
X2970Y1700D01*
X2943D01*
X2930Y1713D01*
Y1767D01*
X2770Y1810D02*
Y1890D01*
X2810D01*
X2823Y1877D01*
Y1850D01*
X2810Y1837D01*
X2770D01*
X2797D02*
X2823Y1810D01*
X2850Y1877D02*
X2863Y1890D01*
X2890D01*
X2903Y1877D01*
Y1863D01*
X2890Y1850D01*
X2877D01*
X2890D01*
X2903Y1837D01*
Y1823D01*
X2890Y1810D01*
X2863D01*
X2850Y1823D01*
X2930D02*
X2943Y1810D01*
X2970D01*
X2983Y1823D01*
Y1877D01*
X2970Y1890D01*
X2943D01*
X2930Y1877D01*
Y1863D01*
X2943Y1850D01*
X2983D01*
X3846Y6202D02*
Y6282D01*
X3886D01*
X3899Y6268D01*
Y6242D01*
X3886Y6228D01*
X3846D01*
X3873D02*
X3899Y6202D01*
X3926Y6268D02*
X3939Y6282D01*
X3966D01*
X3979Y6268D01*
Y6255D01*
X3966Y6242D01*
X3953D01*
X3966D01*
X3979Y6228D01*
Y6215D01*
X3966Y6202D01*
X3939D01*
X3926Y6215D01*
X4006Y6268D02*
X4019Y6282D01*
X4046D01*
X4059Y6268D01*
Y6255D01*
X4046Y6242D01*
X4033D01*
X4046D01*
X4059Y6228D01*
Y6215D01*
X4046Y6202D01*
X4019D01*
X4006Y6215D01*
X3846Y6320D02*
Y6400D01*
X3886D01*
X3899Y6387D01*
Y6360D01*
X3886Y6347D01*
X3846D01*
X3873D02*
X3899Y6320D01*
X3926Y6387D02*
X3939Y6400D01*
X3966D01*
X3979Y6387D01*
Y6373D01*
X3966Y6360D01*
X3953D01*
X3966D01*
X3979Y6347D01*
Y6333D01*
X3966Y6320D01*
X3939D01*
X3926Y6333D01*
X4059Y6320D02*
X4006D01*
X4059Y6373D01*
Y6387D01*
X4046Y6400D01*
X4019D01*
X4006Y6387D01*
X4110Y5880D02*
Y5960D01*
X4150D01*
X4163Y5947D01*
Y5920D01*
X4150Y5907D01*
X4110D01*
X4137D02*
X4163Y5880D01*
X4190Y5947D02*
X4203Y5960D01*
X4230D01*
X4243Y5947D01*
Y5933D01*
X4230Y5920D01*
X4217D01*
X4230D01*
X4243Y5907D01*
Y5893D01*
X4230Y5880D01*
X4203D01*
X4190Y5893D01*
X4270Y5880D02*
X4297D01*
X4283D01*
Y5960D01*
X4270Y5947D01*
X4109Y5521D02*
Y5601D01*
X4149D01*
X4162Y5587D01*
Y5561D01*
X4149Y5547D01*
X4109D01*
X4136D02*
X4162Y5521D01*
X4242D02*
X4189D01*
X4242Y5574D01*
Y5587D01*
X4229Y5601D01*
X4202D01*
X4189Y5587D01*
X4269Y5534D02*
X4282Y5521D01*
X4309D01*
X4322Y5534D01*
Y5587D01*
X4309Y5601D01*
X4282D01*
X4269Y5587D01*
Y5574D01*
X4282Y5561D01*
X4322D01*
X7795Y4834D02*
Y4914D01*
X7835D01*
X7849Y4901D01*
Y4874D01*
X7835Y4861D01*
X7795D01*
X7822D02*
X7849Y4834D01*
X7928D02*
X7875D01*
X7928Y4887D01*
Y4901D01*
X7915Y4914D01*
X7889D01*
X7875Y4901D01*
X7955D02*
X7968Y4914D01*
X7995D01*
X8008Y4901D01*
Y4887D01*
X7995Y4874D01*
X8008Y4861D01*
Y4847D01*
X7995Y4834D01*
X7968D01*
X7955Y4847D01*
Y4861D01*
X7968Y4874D01*
X7955Y4887D01*
Y4901D01*
X7968Y4874D02*
X7995D01*
X5590Y2210D02*
X5510D01*
Y2250D01*
X5523Y2263D01*
X5550D01*
X5563Y2250D01*
Y2210D01*
Y2237D02*
X5590Y2263D01*
Y2343D02*
Y2290D01*
X5537Y2343D01*
X5523D01*
X5510Y2330D01*
Y2303D01*
X5523Y2290D01*
X5510Y2370D02*
Y2423D01*
X5523D01*
X5577Y2370D01*
X5590D01*
X7248Y2385D02*
Y2465D01*
X7288D01*
X7302Y2452D01*
Y2425D01*
X7288Y2412D01*
X7248D01*
X7275D02*
X7302Y2385D01*
X7381D02*
X7328D01*
X7381Y2438D01*
Y2452D01*
X7368Y2465D01*
X7342D01*
X7328Y2452D01*
X7448Y2385D02*
Y2465D01*
X7408Y2425D01*
X7461D01*
X7090Y7650D02*
Y7730D01*
X7130D01*
X7143Y7717D01*
Y7690D01*
X7130Y7677D01*
X7090D01*
X7117D02*
X7143Y7650D01*
X7223D02*
X7170D01*
X7223Y7703D01*
Y7717D01*
X7210Y7730D01*
X7183D01*
X7170Y7717D01*
X7250D02*
X7263Y7730D01*
X7290D01*
X7303Y7717D01*
Y7703D01*
X7290Y7690D01*
X7277D01*
X7290D01*
X7303Y7677D01*
Y7663D01*
X7290Y7650D01*
X7263D01*
X7250Y7663D01*
X7361Y7630D02*
Y7710D01*
X7401D01*
X7414Y7697D01*
Y7670D01*
X7401Y7657D01*
X7361D01*
X7388D02*
X7414Y7630D01*
X7494D02*
X7441D01*
X7494Y7683D01*
Y7697D01*
X7481Y7710D01*
X7454D01*
X7441Y7697D01*
X7521Y7630D02*
X7548D01*
X7534D01*
Y7710D01*
X7521Y7697D01*
X730Y5922D02*
Y6002D01*
X770D01*
X783Y5988D01*
Y5962D01*
X770Y5948D01*
X730D01*
X757D02*
X783Y5922D01*
X863D02*
X810D01*
X863Y5975D01*
Y5988D01*
X850Y6002D01*
X823D01*
X810Y5988D01*
X890D02*
X903Y6002D01*
X930D01*
X943Y5988D01*
Y5935D01*
X930Y5922D01*
X903D01*
X890Y5935D01*
Y5988D01*
X7630Y7631D02*
Y7711D01*
X7670D01*
X7683Y7698D01*
Y7671D01*
X7670Y7658D01*
X7630D01*
X7657D02*
X7683Y7631D01*
X7710D02*
X7737D01*
X7723D01*
Y7711D01*
X7710Y7698D01*
X7777Y7644D02*
X7790Y7631D01*
X7817D01*
X7830Y7644D01*
Y7698D01*
X7817Y7711D01*
X7790D01*
X7777Y7698D01*
Y7684D01*
X7790Y7671D01*
X7830D01*
X7901Y7643D02*
Y7723D01*
X7941D01*
X7954Y7710D01*
Y7683D01*
X7941Y7670D01*
X7901D01*
X7928D02*
X7954Y7643D01*
X7981D02*
X8008D01*
X7994D01*
Y7723D01*
X7981Y7710D01*
X8048D02*
X8061Y7723D01*
X8088D01*
X8101Y7710D01*
Y7696D01*
X8088Y7683D01*
X8101Y7670D01*
Y7656D01*
X8088Y7643D01*
X8061D01*
X8048Y7656D01*
Y7670D01*
X8061Y7683D01*
X8048Y7696D01*
Y7710D01*
X8061Y7683D02*
X8088D01*
X9510Y812D02*
Y892D01*
X9550D01*
X9563Y879D01*
Y852D01*
X9550Y839D01*
X9510D01*
X9537D02*
X9563Y812D01*
X9590D02*
X9617D01*
X9603D01*
Y892D01*
X9590Y879D01*
X9657Y892D02*
X9710D01*
Y879D01*
X9657Y825D01*
Y812D01*
X4850Y1147D02*
X4770D01*
Y1187D01*
X4783Y1200D01*
X4810D01*
X4823Y1187D01*
Y1147D01*
Y1174D02*
X4850Y1200D01*
Y1227D02*
Y1254D01*
Y1240D01*
X4770D01*
X4783Y1227D01*
X4770Y1347D02*
X4783Y1320D01*
X4810Y1294D01*
X4837D01*
X4850Y1307D01*
Y1334D01*
X4837Y1347D01*
X4823D01*
X4810Y1334D01*
Y1294D01*
X3440Y3100D02*
Y3180D01*
X3480D01*
X3493Y3167D01*
Y3140D01*
X3480Y3127D01*
X3440D01*
X3467D02*
X3493Y3100D01*
X3520D02*
X3547D01*
X3533D01*
Y3180D01*
X3520Y3167D01*
X3640Y3180D02*
X3587D01*
Y3140D01*
X3613Y3153D01*
X3627D01*
X3640Y3140D01*
Y3113D01*
X3627Y3100D01*
X3600D01*
X3587Y3113D01*
X4850Y1437D02*
X4770D01*
Y1477D01*
X4783Y1490D01*
X4810D01*
X4823Y1477D01*
Y1437D01*
Y1464D02*
X4850Y1490D01*
Y1517D02*
Y1544D01*
Y1530D01*
X4770D01*
X4783Y1517D01*
X4850Y1624D02*
X4770D01*
X4810Y1584D01*
Y1637D01*
X3440Y2770D02*
Y2850D01*
X3480D01*
X3493Y2837D01*
Y2810D01*
X3480Y2797D01*
X3440D01*
X3467D02*
X3493Y2770D01*
X3520D02*
X3547D01*
X3533D01*
Y2850D01*
X3520Y2837D01*
X3587D02*
X3600Y2850D01*
X3627D01*
X3640Y2837D01*
Y2823D01*
X3627Y2810D01*
X3613D01*
X3627D01*
X3640Y2797D01*
Y2783D01*
X3627Y2770D01*
X3600D01*
X3587Y2783D01*
X5370Y2210D02*
X5290D01*
Y2250D01*
X5303Y2263D01*
X5330D01*
X5343Y2250D01*
Y2210D01*
Y2237D02*
X5370Y2263D01*
Y2290D02*
Y2317D01*
Y2303D01*
X5290D01*
X5303Y2290D01*
X5370Y2410D02*
Y2357D01*
X5317Y2410D01*
X5303D01*
X5290Y2397D01*
Y2370D01*
X5303Y2357D01*
X7920Y1914D02*
Y1994D01*
X7960D01*
X7973Y1981D01*
Y1954D01*
X7960Y1941D01*
X7920D01*
X7947D02*
X7973Y1914D01*
X8000D02*
X8027D01*
X8013D01*
Y1994D01*
X8000Y1981D01*
X8067Y1914D02*
X8093D01*
X8080D01*
Y1994D01*
X8067Y1981D01*
X8340Y1918D02*
Y1998D01*
X8380D01*
X8393Y1985D01*
Y1958D01*
X8380Y1945D01*
X8340D01*
X8367D02*
X8393Y1918D01*
X8420D02*
X8447D01*
X8433D01*
Y1998D01*
X8420Y1985D01*
X8487D02*
X8500Y1998D01*
X8527D01*
X8540Y1985D01*
Y1932D01*
X8527Y1918D01*
X8500D01*
X8487Y1932D01*
Y1985D01*
X6585Y1914D02*
Y1994D01*
X6625D01*
X6638Y1981D01*
Y1954D01*
X6625Y1941D01*
X6585D01*
X6612D02*
X6638Y1914D01*
X6665Y1927D02*
X6678Y1914D01*
X6705D01*
X6718Y1927D01*
Y1981D01*
X6705Y1994D01*
X6678D01*
X6665Y1981D01*
Y1967D01*
X6678Y1954D01*
X6718D01*
X7032Y1910D02*
Y1990D01*
X7072D01*
X7086Y1977D01*
Y1950D01*
X7072Y1937D01*
X7032D01*
X7059D02*
X7086Y1910D01*
X7112Y1977D02*
X7126Y1990D01*
X7152D01*
X7166Y1977D01*
Y1963D01*
X7152Y1950D01*
X7166Y1937D01*
Y1923D01*
X7152Y1910D01*
X7126D01*
X7112Y1923D01*
Y1937D01*
X7126Y1950D01*
X7112Y1963D01*
Y1977D01*
X7126Y1950D02*
X7152D01*
X3440Y2990D02*
Y3070D01*
X3480D01*
X3493Y3057D01*
Y3030D01*
X3480Y3017D01*
X3440D01*
X3467D02*
X3493Y2990D01*
X3520Y3057D02*
X3533Y3070D01*
X3560D01*
X3573Y3057D01*
Y3043D01*
X3560Y3030D01*
X3547D01*
X3560D01*
X3573Y3017D01*
Y3003D01*
X3560Y2990D01*
X3533D01*
X3520Y3003D01*
X3440Y2880D02*
Y2960D01*
X3480D01*
X3493Y2947D01*
Y2920D01*
X3480Y2907D01*
X3440D01*
X3467D02*
X3493Y2880D01*
X3573D02*
X3520D01*
X3573Y2933D01*
Y2947D01*
X3560Y2960D01*
X3533D01*
X3520Y2947D01*
X6901Y2465D02*
Y2385D01*
X6941D01*
X6954Y2398D01*
Y2452D01*
X6941Y2465D01*
X6901D01*
X6981Y2385D02*
X7007D01*
X6994D01*
Y2465D01*
X6981Y2452D01*
X7047D02*
X7061Y2465D01*
X7087D01*
X7101Y2452D01*
Y2438D01*
X7087Y2425D01*
X7074D01*
X7087D01*
X7101Y2412D01*
Y2398D01*
X7087Y2385D01*
X7061D01*
X7047Y2398D01*
X730Y5570D02*
Y5490D01*
X770D01*
X783Y5503D01*
Y5557D01*
X770Y5570D01*
X730D01*
X810Y5490D02*
X837D01*
X823D01*
Y5570D01*
X810Y5557D01*
X930Y5490D02*
X877D01*
X930Y5543D01*
Y5557D01*
X917Y5570D01*
X890D01*
X877Y5557D01*
X7090Y7840D02*
Y7760D01*
X7130D01*
X7143Y7773D01*
Y7827D01*
X7130Y7840D01*
X7090D01*
X7170Y7760D02*
X7197D01*
X7183D01*
Y7840D01*
X7170Y7827D01*
X7237Y7760D02*
X7263D01*
X7250D01*
Y7840D01*
X7237Y7827D01*
X730Y5790D02*
Y5710D01*
X770D01*
X783Y5723D01*
Y5777D01*
X770Y5790D01*
X730D01*
X810Y5710D02*
X837D01*
X823D01*
Y5790D01*
X810Y5777D01*
X877D02*
X890Y5790D01*
X917D01*
X930Y5777D01*
Y5723D01*
X917Y5710D01*
X890D01*
X877Y5723D01*
Y5777D01*
X7359Y7820D02*
Y7740D01*
X7399D01*
X7413Y7753D01*
Y7807D01*
X7399Y7820D01*
X7359D01*
X7439Y7753D02*
X7453Y7740D01*
X7479D01*
X7493Y7753D01*
Y7807D01*
X7479Y7820D01*
X7453D01*
X7439Y7807D01*
Y7793D01*
X7453Y7780D01*
X7493D01*
X7630Y7819D02*
Y7739D01*
X7670D01*
X7683Y7753D01*
Y7806D01*
X7670Y7819D01*
X7630D01*
X7710Y7806D02*
X7723Y7819D01*
X7750D01*
X7763Y7806D01*
Y7793D01*
X7750Y7779D01*
X7763Y7766D01*
Y7753D01*
X7750Y7739D01*
X7723D01*
X7710Y7753D01*
Y7766D01*
X7723Y7779D01*
X7710Y7793D01*
Y7806D01*
X7723Y7779D02*
X7750D01*
X7900Y7835D02*
Y7755D01*
X7940D01*
X7953Y7769D01*
Y7822D01*
X7940Y7835D01*
X7900D01*
X7980D02*
X8033D01*
Y7822D01*
X7980Y7769D01*
Y7755D01*
X9750Y892D02*
Y812D01*
X9790D01*
X9803Y825D01*
Y879D01*
X9790Y892D01*
X9750D01*
X9883D02*
X9857Y879D01*
X9830Y852D01*
Y825D01*
X9843Y812D01*
X9870D01*
X9883Y825D01*
Y839D01*
X9870Y852D01*
X9830D01*
X3190Y3180D02*
Y3100D01*
X3230D01*
X3243Y3113D01*
Y3167D01*
X3230Y3180D01*
X3190D01*
X3323D02*
X3270D01*
Y3140D01*
X3297Y3153D01*
X3310D01*
X3323Y3140D01*
Y3113D01*
X3310Y3100D01*
X3283D01*
X3270Y3113D01*
X3190Y2850D02*
Y2770D01*
X3230D01*
X3243Y2783D01*
Y2837D01*
X3230Y2850D01*
X3190D01*
X3310Y2770D02*
Y2850D01*
X3270Y2810D01*
X3323D01*
X5400Y2210D02*
X5480D01*
Y2250D01*
X5467Y2263D01*
X5413D01*
X5400Y2250D01*
Y2210D01*
X5413Y2290D02*
X5400Y2303D01*
Y2330D01*
X5413Y2343D01*
X5427D01*
X5440Y2330D01*
Y2317D01*
Y2330D01*
X5453Y2343D01*
X5467D01*
X5480Y2330D01*
Y2303D01*
X5467Y2290D01*
X3190Y3070D02*
Y2990D01*
X3230D01*
X3243Y3003D01*
Y3057D01*
X3230Y3070D01*
X3190D01*
X3323Y2990D02*
X3270D01*
X3323Y3043D01*
Y3057D01*
X3310Y3070D01*
X3283D01*
X3270Y3057D01*
X3190Y2960D02*
Y2880D01*
X3230D01*
X3243Y2893D01*
Y2947D01*
X3230Y2960D01*
X3190D01*
X3270Y2880D02*
X3297D01*
X3283D01*
Y2960D01*
X3270Y2947D01*
X6753Y5203D02*
X6740Y5190D01*
Y5163D01*
X6753Y5150D01*
X6807D01*
X6820Y5163D01*
Y5190D01*
X6807Y5203D01*
X6820Y5270D02*
X6740D01*
X6780Y5230D01*
Y5283D01*
X6753Y5310D02*
X6740Y5323D01*
Y5350D01*
X6753Y5363D01*
X6767D01*
X6780Y5350D01*
Y5337D01*
Y5350D01*
X6793Y5363D01*
X6807D01*
X6820Y5350D01*
Y5323D01*
X6807Y5310D01*
X3852Y7541D02*
X3839Y7554D01*
X3812D01*
X3799Y7541D01*
Y7487D01*
X3812Y7474D01*
X3839D01*
X3852Y7487D01*
X3919Y7474D02*
Y7554D01*
X3879Y7514D01*
X3932D01*
X3959Y7474D02*
X3985D01*
X3972D01*
Y7554D01*
X3959Y7541D01*
X3598Y7538D02*
X3585Y7551D01*
X3558D01*
X3545Y7538D01*
Y7485D01*
X3558Y7471D01*
X3585D01*
X3598Y7485D01*
X3665Y7471D02*
Y7551D01*
X3625Y7511D01*
X3678D01*
X3705Y7538D02*
X3718Y7551D01*
X3745D01*
X3758Y7538D01*
Y7485D01*
X3745Y7471D01*
X3718D01*
X3705Y7485D01*
Y7538D01*
X2983Y5957D02*
X2970Y5970D01*
X2943D01*
X2930Y5957D01*
Y5903D01*
X2943Y5890D01*
X2970D01*
X2983Y5903D01*
X3010Y5957D02*
X3023Y5970D01*
X3050D01*
X3063Y5957D01*
Y5943D01*
X3050Y5930D01*
X3037D01*
X3050D01*
X3063Y5917D01*
Y5903D01*
X3050Y5890D01*
X3023D01*
X3010Y5903D01*
X3090D02*
X3103Y5890D01*
X3130D01*
X3143Y5903D01*
Y5957D01*
X3130Y5970D01*
X3103D01*
X3090Y5957D01*
Y5943D01*
X3103Y5930D01*
X3143D01*
X2983Y5377D02*
X2970Y5390D01*
X2943D01*
X2930Y5377D01*
Y5323D01*
X2943Y5310D01*
X2970D01*
X2983Y5323D01*
X3010Y5377D02*
X3023Y5390D01*
X3050D01*
X3063Y5377D01*
Y5363D01*
X3050Y5350D01*
X3037D01*
X3050D01*
X3063Y5337D01*
Y5323D01*
X3050Y5310D01*
X3023D01*
X3010Y5323D01*
X3090Y5377D02*
X3103Y5390D01*
X3130D01*
X3143Y5377D01*
Y5363D01*
X3130Y5350D01*
X3143Y5337D01*
Y5323D01*
X3130Y5310D01*
X3103D01*
X3090Y5323D01*
Y5337D01*
X3103Y5350D01*
X3090Y5363D01*
Y5377D01*
X3103Y5350D02*
X3130D01*
X6023Y2383D02*
X6010Y2370D01*
Y2343D01*
X6023Y2330D01*
X6077D01*
X6090Y2343D01*
Y2370D01*
X6077Y2383D01*
X6023Y2410D02*
X6010Y2423D01*
Y2450D01*
X6023Y2463D01*
X6037D01*
X6050Y2450D01*
Y2437D01*
Y2450D01*
X6063Y2463D01*
X6077D01*
X6090Y2450D01*
Y2423D01*
X6077Y2410D01*
X6010Y2490D02*
Y2543D01*
X6023D01*
X6077Y2490D01*
X6090D01*
X6983Y3850D02*
X6970Y3864D01*
X6943D01*
X6930Y3850D01*
Y3797D01*
X6943Y3784D01*
X6970D01*
X6983Y3797D01*
X7010Y3850D02*
X7023Y3864D01*
X7050D01*
X7063Y3850D01*
Y3837D01*
X7050Y3824D01*
X7037D01*
X7050D01*
X7063Y3810D01*
Y3797D01*
X7050Y3784D01*
X7023D01*
X7010Y3797D01*
X7143Y3864D02*
X7117Y3850D01*
X7090Y3824D01*
Y3797D01*
X7103Y3784D01*
X7130D01*
X7143Y3797D01*
Y3810D01*
X7130Y3824D01*
X7090D01*
X6253Y5506D02*
X6239Y5492D01*
Y5466D01*
X6253Y5452D01*
X6306D01*
X6319Y5466D01*
Y5492D01*
X6306Y5506D01*
X6253Y5532D02*
X6239Y5546D01*
Y5572D01*
X6253Y5586D01*
X6266D01*
X6279Y5572D01*
Y5559D01*
Y5572D01*
X6293Y5586D01*
X6306D01*
X6319Y5572D01*
Y5546D01*
X6306Y5532D01*
X6239Y5666D02*
Y5612D01*
X6279D01*
X6266Y5639D01*
Y5652D01*
X6279Y5666D01*
X6306D01*
X6319Y5652D01*
Y5626D01*
X6306Y5612D01*
X4773Y5497D02*
X4760Y5484D01*
Y5457D01*
X4773Y5444D01*
X4827D01*
X4840Y5457D01*
Y5484D01*
X4827Y5497D01*
X4773Y5524D02*
X4760Y5537D01*
Y5564D01*
X4773Y5577D01*
X4787D01*
X4800Y5564D01*
Y5550D01*
Y5564D01*
X4813Y5577D01*
X4827D01*
X4840Y5564D01*
Y5537D01*
X4827Y5524D01*
X4840Y5644D02*
X4760D01*
X4800Y5604D01*
Y5657D01*
X3823Y3067D02*
X3810Y3080D01*
X3783D01*
X3770Y3067D01*
Y3013D01*
X3783Y3000D01*
X3810D01*
X3823Y3013D01*
X3850Y3067D02*
X3863Y3080D01*
X3890D01*
X3903Y3067D01*
Y3053D01*
X3890Y3040D01*
X3877D01*
X3890D01*
X3903Y3027D01*
Y3013D01*
X3890Y3000D01*
X3863D01*
X3850Y3013D01*
X3930Y3067D02*
X3943Y3080D01*
X3970D01*
X3983Y3067D01*
Y3053D01*
X3970Y3040D01*
X3957D01*
X3970D01*
X3983Y3027D01*
Y3013D01*
X3970Y3000D01*
X3943D01*
X3930Y3013D01*
X3823Y3267D02*
X3810Y3280D01*
X3783D01*
X3770Y3267D01*
Y3213D01*
X3783Y3200D01*
X3810D01*
X3823Y3213D01*
X3850Y3267D02*
X3863Y3280D01*
X3890D01*
X3903Y3267D01*
Y3253D01*
X3890Y3240D01*
X3877D01*
X3890D01*
X3903Y3227D01*
Y3213D01*
X3890Y3200D01*
X3863D01*
X3850Y3213D01*
X3983Y3200D02*
X3930D01*
X3983Y3253D01*
Y3267D01*
X3970Y3280D01*
X3943D01*
X3930Y3267D01*
X6643Y4953D02*
X6630Y4940D01*
Y4913D01*
X6643Y4900D01*
X6697D01*
X6710Y4913D01*
Y4940D01*
X6697Y4953D01*
X6643Y4980D02*
X6630Y4993D01*
Y5020D01*
X6643Y5033D01*
X6657D01*
X6670Y5020D01*
Y5007D01*
Y5020D01*
X6683Y5033D01*
X6697D01*
X6710Y5020D01*
Y4993D01*
X6697Y4980D01*
X6643Y5060D02*
X6630Y5073D01*
Y5100D01*
X6643Y5113D01*
X6697D01*
X6710Y5100D01*
Y5073D01*
X6697Y5060D01*
X6643D01*
X963Y2908D02*
X950Y2921D01*
X923D01*
X910Y2908D01*
Y2855D01*
X923Y2841D01*
X950D01*
X963Y2855D01*
X1043Y2841D02*
X990D01*
X1043Y2895D01*
Y2908D01*
X1030Y2921D01*
X1003D01*
X990Y2908D01*
X1070D02*
X1083Y2921D01*
X1110D01*
X1123Y2908D01*
Y2895D01*
X1110Y2881D01*
X1123Y2868D01*
Y2855D01*
X1110Y2841D01*
X1083D01*
X1070Y2855D01*
Y2868D01*
X1083Y2881D01*
X1070Y2895D01*
Y2908D01*
X1083Y2881D02*
X1110D01*
X963Y2797D02*
X950Y2810D01*
X923D01*
X910Y2797D01*
Y2743D01*
X923Y2730D01*
X950D01*
X963Y2743D01*
X1043Y2730D02*
X990D01*
X1043Y2783D01*
Y2797D01*
X1030Y2810D01*
X1003D01*
X990Y2797D01*
X1123Y2810D02*
X1097Y2797D01*
X1070Y2770D01*
Y2743D01*
X1083Y2730D01*
X1110D01*
X1123Y2743D01*
Y2757D01*
X1110Y2770D01*
X1070D01*
X1593Y652D02*
X1580Y666D01*
X1553D01*
X1540Y652D01*
Y599D01*
X1553Y586D01*
X1580D01*
X1593Y599D01*
X1673Y586D02*
X1620D01*
X1673Y639D01*
Y652D01*
X1660Y666D01*
X1633D01*
X1620Y652D01*
X1753Y586D02*
X1700D01*
X1753Y639D01*
Y652D01*
X1740Y666D01*
X1713D01*
X1700Y652D01*
X9156Y1615D02*
X9143Y1628D01*
X9116D01*
X9103Y1615D01*
Y1561D01*
X9116Y1548D01*
X9143D01*
X9156Y1561D01*
X9236Y1548D02*
X9183D01*
X9236Y1601D01*
Y1615D01*
X9223Y1628D01*
X9196D01*
X9183Y1615D01*
X9263Y1548D02*
X9289D01*
X9276D01*
Y1628D01*
X9263Y1615D01*
X4573Y5493D02*
X4560Y5480D01*
Y5453D01*
X4573Y5440D01*
X4627D01*
X4640Y5453D01*
Y5480D01*
X4627Y5493D01*
X4640Y5573D02*
Y5520D01*
X4587Y5573D01*
X4573D01*
X4560Y5560D01*
Y5533D01*
X4573Y5520D01*
Y5600D02*
X4560Y5613D01*
Y5640D01*
X4573Y5653D01*
X4627D01*
X4640Y5640D01*
Y5613D01*
X4627Y5600D01*
X4573D01*
X9520Y4223D02*
X9507Y4236D01*
X9480D01*
X9467Y4223D01*
Y4169D01*
X9480Y4156D01*
X9507D01*
X9520Y4169D01*
X9547Y4156D02*
X9574D01*
X9560D01*
Y4236D01*
X9547Y4223D01*
X9614Y4169D02*
X9627Y4156D01*
X9654D01*
X9667Y4169D01*
Y4223D01*
X9654Y4236D01*
X9627D01*
X9614Y4223D01*
Y4209D01*
X9627Y4196D01*
X9667D01*
X6533Y5203D02*
X6520Y5190D01*
Y5163D01*
X6533Y5150D01*
X6587D01*
X6600Y5163D01*
Y5190D01*
X6587Y5203D01*
X6600Y5230D02*
Y5257D01*
Y5243D01*
X6520D01*
X6533Y5230D01*
Y5297D02*
X6520Y5310D01*
Y5337D01*
X6533Y5350D01*
X6547D01*
X6560Y5337D01*
X6573Y5350D01*
X6587D01*
X6600Y5337D01*
Y5310D01*
X6587Y5297D01*
X6573D01*
X6560Y5310D01*
X6547Y5297D01*
X6533D01*
X6560Y5310D02*
Y5337D01*
X6533Y4953D02*
X6520Y4940D01*
Y4913D01*
X6533Y4900D01*
X6587D01*
X6600Y4913D01*
Y4940D01*
X6587Y4953D01*
X6600Y4980D02*
Y5007D01*
Y4993D01*
X6520D01*
X6533Y4980D01*
Y5047D02*
X6520Y5060D01*
Y5087D01*
X6533Y5100D01*
X6587D01*
X6600Y5087D01*
Y5060D01*
X6587Y5047D01*
X6533D01*
X1426Y1081D02*
X1412Y1094D01*
X1386D01*
X1373Y1081D01*
Y1027D01*
X1386Y1014D01*
X1412D01*
X1426Y1027D01*
X1452D02*
X1466Y1014D01*
X1492D01*
X1506Y1027D01*
Y1081D01*
X1492Y1094D01*
X1466D01*
X1452Y1081D01*
Y1067D01*
X1466Y1054D01*
X1506D01*
X941Y4904D02*
X928Y4917D01*
X901D01*
X888Y4904D01*
Y4851D01*
X901Y4837D01*
X928D01*
X941Y4851D01*
X968Y4837D02*
X995D01*
X981D01*
Y4917D01*
X968Y4904D01*
X1035Y4917D02*
X1088D01*
Y4904D01*
X1035Y4851D01*
Y4837D01*
X2204Y4790D02*
X2190Y4803D01*
X2164D01*
X2150Y4790D01*
Y4736D01*
X2164Y4723D01*
X2190D01*
X2204Y4736D01*
X2230Y4723D02*
X2257D01*
X2244D01*
Y4803D01*
X2230Y4790D01*
X2350Y4803D02*
X2324Y4790D01*
X2297Y4763D01*
Y4736D01*
X2310Y4723D01*
X2337D01*
X2350Y4736D01*
Y4750D01*
X2337Y4763D01*
X2297D01*
X8483Y2767D02*
X8470Y2780D01*
X8443D01*
X8430Y2767D01*
Y2713D01*
X8443Y2700D01*
X8470D01*
X8483Y2713D01*
X8563Y2780D02*
X8510D01*
Y2740D01*
X8537Y2753D01*
X8550D01*
X8563Y2740D01*
Y2713D01*
X8550Y2700D01*
X8523D01*
X8510Y2713D01*
X8265Y2767D02*
X8252Y2780D01*
X8225D01*
X8212Y2767D01*
Y2713D01*
X8225Y2700D01*
X8252D01*
X8265Y2713D01*
X8332Y2700D02*
Y2780D01*
X8292Y2740D01*
X8345D01*
X7600Y3477D02*
X7587Y3490D01*
X7560D01*
X7547Y3477D01*
Y3423D01*
X7560Y3410D01*
X7587D01*
X7600Y3423D01*
X7627Y3477D02*
X7640Y3490D01*
X7667D01*
X7680Y3477D01*
Y3463D01*
X7667Y3450D01*
X7654D01*
X7667D01*
X7680Y3437D01*
Y3423D01*
X7667Y3410D01*
X7640D01*
X7627Y3423D01*
X7600Y2892D02*
X7587Y2905D01*
X7560D01*
X7547Y2892D01*
Y2838D01*
X7560Y2825D01*
X7587D01*
X7600Y2838D01*
X7680Y2825D02*
X7627D01*
X7680Y2878D01*
Y2892D01*
X7667Y2905D01*
X7640D01*
X7627Y2892D01*
X260Y1620D02*
Y1700D01*
X300D01*
X313Y1687D01*
Y1660D01*
X300Y1647D01*
X260D01*
X287D02*
X313Y1620D01*
X340D02*
X367D01*
X353D01*
Y1700D01*
X340Y1687D01*
X6950Y3667D02*
Y3654D01*
X6977Y3627D01*
X7003Y3654D01*
Y3667D01*
X6977Y3627D02*
Y3587D01*
X7030D02*
X7057D01*
X7043D01*
Y3667D01*
X7030Y3654D01*
X2180Y2620D02*
Y2553D01*
X2193Y2540D01*
X2220D01*
X2233Y2553D01*
Y2620D01*
X2260Y2540D02*
X2287D01*
X2273D01*
Y2620D01*
X2260Y2607D01*
X2327D02*
X2340Y2620D01*
X2367D01*
X2380Y2607D01*
Y2593D01*
X2367Y2580D01*
X2353D01*
X2367D01*
X2380Y2567D01*
Y2553D01*
X2367Y2540D01*
X2340D01*
X2327Y2553D01*
X9540Y1668D02*
Y1601D01*
X9553Y1588D01*
X9580D01*
X9593Y1601D01*
Y1668D01*
X9620Y1588D02*
X9647D01*
X9633D01*
Y1668D01*
X9620Y1654D01*
X9687D02*
X9700Y1668D01*
X9727D01*
X9740Y1654D01*
Y1601D01*
X9727Y1588D01*
X9700D01*
X9687Y1601D01*
Y1654D01*
X2180Y7140D02*
Y7073D01*
X2193Y7060D01*
X2220D01*
X2233Y7073D01*
Y7140D01*
X2260Y7073D02*
X2273Y7060D01*
X2300D01*
X2313Y7073D01*
Y7127D01*
X2300Y7140D01*
X2273D01*
X2260Y7127D01*
Y7113D01*
X2273Y7100D01*
X2313D01*
X1432Y6064D02*
Y5998D01*
X1446Y5984D01*
X1472D01*
X1486Y5998D01*
Y6064D01*
X1512Y6051D02*
X1526Y6064D01*
X1552D01*
X1566Y6051D01*
Y6038D01*
X1552Y6024D01*
X1566Y6011D01*
Y5998D01*
X1552Y5984D01*
X1526D01*
X1512Y5998D01*
Y6011D01*
X1526Y6024D01*
X1512Y6038D01*
Y6051D01*
X1526Y6024D02*
X1552D01*
X3960Y6980D02*
Y6914D01*
X3973Y6900D01*
X4000D01*
X4013Y6914D01*
Y6980D01*
X4040D02*
X4093D01*
Y6967D01*
X4040Y6914D01*
Y6900D01*
X3680Y5385D02*
Y5318D01*
X3693Y5305D01*
X3720D01*
X3733Y5318D01*
Y5385D01*
X3813D02*
X3787Y5371D01*
X3760Y5345D01*
Y5318D01*
X3773Y5305D01*
X3800D01*
X3813Y5318D01*
Y5331D01*
X3800Y5345D01*
X3760D01*
X1223Y3856D02*
Y3789D01*
X1237Y3776D01*
X1263D01*
X1277Y3789D01*
Y3856D01*
X1357D02*
X1303D01*
Y3816D01*
X1330Y3829D01*
X1343D01*
X1357Y3816D01*
Y3789D01*
X1343Y3776D01*
X1317D01*
X1303Y3789D01*
X4470Y4850D02*
Y4783D01*
X4483Y4770D01*
X4510D01*
X4523Y4783D01*
Y4850D01*
X4603Y4770D02*
X4550D01*
X4603Y4823D01*
Y4837D01*
X4590Y4850D01*
X4563D01*
X4550Y4837D01*
X1139Y5298D02*
Y5232D01*
X1153Y5218D01*
X1179D01*
X1193Y5232D01*
Y5298D01*
X1219Y5218D02*
X1246D01*
X1233D01*
Y5298D01*
X1219Y5285D01*
X9160Y7630D02*
Y7710D01*
X9200D01*
X9213Y7697D01*
Y7670D01*
X9200Y7657D01*
X9160D01*
X9187D02*
X9213Y7630D01*
X9280D02*
Y7710D01*
X9240Y7670D01*
X9293D01*
X9373Y7710D02*
X9347Y7697D01*
X9320Y7670D01*
Y7643D01*
X9333Y7630D01*
X9360D01*
X9373Y7643D01*
Y7657D01*
X9360Y7670D01*
X9320D01*
X10120Y1590D02*
Y1670D01*
X10160D01*
X10173Y1657D01*
Y1630D01*
X10160Y1617D01*
X10120D01*
X10147D02*
X10173Y1590D01*
X10200Y1657D02*
X10213Y1670D01*
X10240D01*
X10253Y1657D01*
Y1643D01*
X10240Y1630D01*
X10227D01*
X10240D01*
X10253Y1617D01*
Y1603D01*
X10240Y1590D01*
X10213D01*
X10200Y1603D01*
X10280Y1657D02*
X10293Y1670D01*
X10320D01*
X10333Y1657D01*
Y1603D01*
X10320Y1590D01*
X10293D01*
X10280Y1603D01*
Y1657D01*
X1635Y7042D02*
Y7122D01*
X1675D01*
X1688Y7109D01*
Y7082D01*
X1675Y7069D01*
X1635D01*
X1661D02*
X1688Y7042D01*
X1768D02*
X1715D01*
X1768Y7095D01*
Y7109D01*
X1755Y7122D01*
X1728D01*
X1715Y7109D01*
X1848Y7122D02*
X1821Y7109D01*
X1795Y7082D01*
Y7055D01*
X1808Y7042D01*
X1835D01*
X1848Y7055D01*
Y7069D01*
X1835Y7082D01*
X1795D01*
X3623Y5123D02*
Y5177D01*
X3610Y5190D01*
X3583D01*
X3570Y5177D01*
Y5123D01*
X3583Y5110D01*
X3610D01*
X3597Y5137D02*
X3623Y5110D01*
X3610D02*
X3623Y5123D01*
X3650Y5110D02*
X3677D01*
X3663D01*
Y5190D01*
X3650Y5177D01*
X3000Y4750D02*
Y4670D01*
X3053D01*
X3133Y4737D02*
X3120Y4750D01*
X3093D01*
X3080Y4737D01*
Y4723D01*
X3093Y4710D01*
X3120D01*
X3133Y4697D01*
Y4683D01*
X3120Y4670D01*
X3093D01*
X3080Y4683D01*
X3160Y4670D02*
X3187D01*
X3173D01*
Y4750D01*
X3160Y4737D01*
X10180Y3410D02*
Y3330D01*
Y3357D01*
X10233Y3410D01*
X10193Y3370D01*
X10233Y3330D01*
X10260D02*
X10287D01*
X10273D01*
Y3410D01*
X10260Y3397D01*
X10380Y3330D02*
X10327D01*
X10380Y3383D01*
Y3397D01*
X10367Y3410D01*
X10340D01*
X10327Y3397D01*
X10160Y5010D02*
Y4930D01*
Y4957D01*
X10213Y5010D01*
X10173Y4970D01*
X10213Y4930D01*
X10240D02*
X10267D01*
X10253D01*
Y5010D01*
X10240Y4997D01*
X10307D02*
X10320Y5010D01*
X10347D01*
X10360Y4997D01*
Y4943D01*
X10347Y4930D01*
X10320D01*
X10307Y4943D01*
Y4997D01*
X11480Y7510D02*
Y7430D01*
Y7457D01*
X11533Y7510D01*
X11493Y7470D01*
X11533Y7430D01*
X11560Y7510D02*
X11613D01*
Y7497D01*
X11560Y7443D01*
Y7430D01*
X11480Y7620D02*
Y7540D01*
Y7567D01*
X11533Y7620D01*
X11493Y7580D01*
X11533Y7540D01*
X11560Y7607D02*
X11573Y7620D01*
X11600D01*
X11613Y7607D01*
Y7593D01*
X11600Y7580D01*
X11613Y7567D01*
Y7553D01*
X11600Y7540D01*
X11573D01*
X11560Y7553D01*
Y7567D01*
X11573Y7580D01*
X11560Y7593D01*
Y7607D01*
X11573Y7580D02*
X11600D01*
X11480Y7740D02*
Y7660D01*
Y7687D01*
X11533Y7740D01*
X11493Y7700D01*
X11533Y7660D01*
X11613Y7740D02*
X11587Y7727D01*
X11560Y7700D01*
Y7673D01*
X11573Y7660D01*
X11600D01*
X11613Y7673D01*
Y7687D01*
X11600Y7700D01*
X11560D01*
X11480Y7860D02*
Y7780D01*
Y7807D01*
X11533Y7860D01*
X11493Y7820D01*
X11533Y7780D01*
X11613Y7860D02*
X11560D01*
Y7820D01*
X11587Y7833D01*
X11600D01*
X11613Y7820D01*
Y7793D01*
X11600Y7780D01*
X11573D01*
X11560Y7793D01*
X10260Y930D02*
Y850D01*
Y877D01*
X10313Y930D01*
X10273Y890D01*
X10313Y850D01*
X10380D02*
Y930D01*
X10340Y890D01*
X10393D01*
X100Y7390D02*
Y7310D01*
Y7337D01*
X153Y7390D01*
X113Y7350D01*
X153Y7310D01*
X180Y7377D02*
X193Y7390D01*
X220D01*
X233Y7377D01*
Y7363D01*
X220Y7350D01*
X207D01*
X220D01*
X233Y7337D01*
Y7323D01*
X220Y7310D01*
X193D01*
X180Y7323D01*
X6120Y230D02*
Y150D01*
Y177D01*
X6173Y230D01*
X6133Y190D01*
X6173Y150D01*
X6253D02*
X6200D01*
X6253Y203D01*
Y217D01*
X6240Y230D01*
X6213D01*
X6200Y217D01*
X7500Y250D02*
Y170D01*
Y197D01*
X7553Y250D01*
X7513Y210D01*
X7553Y170D01*
X7580D02*
X7607D01*
X7593D01*
Y250D01*
X7580Y237D01*
X7961Y3530D02*
X7935D01*
X7948D01*
Y3463D01*
X7935Y3450D01*
X7922D01*
X7908Y3463D01*
X8028Y3450D02*
Y3530D01*
X7988Y3490D01*
X8041D01*
X3233Y1880D02*
X3207D01*
X3220D01*
Y1813D01*
X3207Y1800D01*
X3193D01*
X3180Y1813D01*
X3260Y1867D02*
X3273Y1880D01*
X3300D01*
X3313Y1867D01*
Y1853D01*
X3300Y1840D01*
X3287D01*
X3300D01*
X3313Y1827D01*
Y1813D01*
X3300Y1800D01*
X3273D01*
X3260Y1813D01*
X193Y4030D02*
X167D01*
X180D01*
Y3963D01*
X167Y3950D01*
X153D01*
X140Y3963D01*
X273Y3950D02*
X220D01*
X273Y4003D01*
Y4017D01*
X260Y4030D01*
X233D01*
X220Y4017D01*
X208Y5205D02*
X181D01*
X194D01*
Y5138D01*
X181Y5125D01*
X168D01*
X154Y5138D01*
X234Y5125D02*
X261D01*
X248D01*
Y5205D01*
X234Y5192D01*
X6926Y4030D02*
X6953D01*
X6940D01*
Y3950D01*
X6926D01*
X6953D01*
X7046Y4017D02*
X7033Y4030D01*
X7006D01*
X6993Y4017D01*
Y3963D01*
X7006Y3950D01*
X7033D01*
X7046Y3963D01*
X7073D02*
X7086Y3950D01*
X7113D01*
X7126Y3963D01*
Y4017D01*
X7113Y4030D01*
X7086D01*
X7073Y4017D01*
Y4003D01*
X7086Y3990D01*
X7126D01*
X9660Y4818D02*
X9687D01*
X9673D01*
Y4738D01*
X9660D01*
X9687D01*
X9780Y4804D02*
X9767Y4818D01*
X9740D01*
X9727Y4804D01*
Y4751D01*
X9740Y4738D01*
X9767D01*
X9780Y4751D01*
X9807Y4804D02*
X9820Y4818D01*
X9847D01*
X9860Y4804D01*
Y4791D01*
X9847Y4778D01*
X9860Y4764D01*
Y4751D01*
X9847Y4738D01*
X9820D01*
X9807Y4751D01*
Y4764D01*
X9820Y4778D01*
X9807Y4791D01*
Y4804D01*
X9820Y4778D02*
X9847D01*
X910Y3034D02*
X937D01*
X923D01*
Y2954D01*
X910D01*
X937D01*
X1030Y3020D02*
X1017Y3034D01*
X990D01*
X977Y3020D01*
Y2967D01*
X990Y2954D01*
X1017D01*
X1030Y2967D01*
X1057Y3034D02*
X1110D01*
Y3020D01*
X1057Y2967D01*
Y2954D01*
X8430Y7470D02*
X8457D01*
X8443D01*
Y7390D01*
X8430D01*
X8457D01*
X8550Y7457D02*
X8537Y7470D01*
X8510D01*
X8497Y7457D01*
Y7403D01*
X8510Y7390D01*
X8537D01*
X8550Y7403D01*
X8630Y7470D02*
X8577D01*
Y7430D01*
X8603Y7443D01*
X8617D01*
X8630Y7430D01*
Y7403D01*
X8617Y7390D01*
X8590D01*
X8577Y7403D01*
X8430Y7590D02*
X8457D01*
X8443D01*
Y7510D01*
X8430D01*
X8457D01*
X8550Y7577D02*
X8537Y7590D01*
X8510D01*
X8497Y7577D01*
Y7523D01*
X8510Y7510D01*
X8537D01*
X8550Y7523D01*
X8630Y7590D02*
X8603Y7577D01*
X8577Y7550D01*
Y7523D01*
X8590Y7510D01*
X8617D01*
X8630Y7523D01*
Y7537D01*
X8617Y7550D01*
X8577D01*
X8430Y7710D02*
X8457D01*
X8443D01*
Y7630D01*
X8430D01*
X8457D01*
X8550Y7697D02*
X8537Y7710D01*
X8510D01*
X8497Y7697D01*
Y7643D01*
X8510Y7630D01*
X8537D01*
X8550Y7643D01*
X8617Y7630D02*
Y7710D01*
X8577Y7670D01*
X8630D01*
X8430Y7830D02*
X8457D01*
X8443D01*
Y7750D01*
X8430D01*
X8457D01*
X8550Y7817D02*
X8537Y7830D01*
X8510D01*
X8497Y7817D01*
Y7763D01*
X8510Y7750D01*
X8537D01*
X8550Y7763D01*
X8577Y7817D02*
X8590Y7830D01*
X8617D01*
X8630Y7817D01*
Y7803D01*
X8617Y7790D01*
X8603D01*
X8617D01*
X8630Y7777D01*
Y7763D01*
X8617Y7750D01*
X8590D01*
X8577Y7763D01*
X5190Y5750D02*
X5217D01*
X5203D01*
Y5670D01*
X5190D01*
X5217D01*
X5310Y5737D02*
X5297Y5750D01*
X5270D01*
X5257Y5737D01*
Y5683D01*
X5270Y5670D01*
X5297D01*
X5310Y5683D01*
X5390Y5670D02*
X5337D01*
X5390Y5723D01*
Y5737D01*
X5377Y5750D01*
X5350D01*
X5337Y5737D01*
X9390Y1900D02*
Y1820D01*
Y1860D01*
X9443D01*
Y1900D01*
Y1820D01*
X9470Y1900D02*
X9523D01*
Y1887D01*
X9470Y1833D01*
Y1820D01*
X630Y1830D02*
Y1750D01*
Y1790D01*
X683D01*
Y1830D01*
Y1750D01*
X710D02*
X737D01*
X723D01*
Y1830D01*
X710Y1817D01*
X248Y2865D02*
X195D01*
Y2825D01*
X222D01*
X195D01*
Y2785D01*
X275Y2865D02*
Y2798D01*
X288Y2785D01*
X315D01*
X328Y2798D01*
Y2865D01*
X408Y2852D02*
X395Y2865D01*
X368D01*
X355Y2852D01*
Y2838D01*
X368Y2825D01*
X395D01*
X408Y2812D01*
Y2798D01*
X395Y2785D01*
X368D01*
X355Y2798D01*
X488Y2865D02*
X435D01*
Y2785D01*
X488D01*
X435Y2825D02*
X462D01*
X515Y2785D02*
X542D01*
X528D01*
Y2865D01*
X515Y2852D01*
X2760Y3007D02*
Y2927D01*
X2800D01*
X2813Y2941D01*
Y2994D01*
X2800Y3007D01*
X2760D01*
X2893Y2927D02*
X2840D01*
X2893Y2981D01*
Y2994D01*
X2880Y3007D01*
X2853D01*
X2840Y2994D01*
X2920D02*
X2933Y3007D01*
X2960D01*
X2973Y2994D01*
Y2981D01*
X2960Y2967D01*
X2947D01*
X2960D01*
X2973Y2954D01*
Y2941D01*
X2960Y2927D01*
X2933D01*
X2920Y2941D01*
X9680Y7490D02*
Y7410D01*
X9720D01*
X9733Y7423D01*
Y7477D01*
X9720Y7490D01*
X9680D01*
X9813Y7410D02*
X9760D01*
X9813Y7463D01*
Y7477D01*
X9800Y7490D01*
X9773D01*
X9760Y7477D01*
X9840D02*
X9853Y7490D01*
X9880D01*
X9893Y7477D01*
Y7423D01*
X9880Y7410D01*
X9853D01*
X9840Y7423D01*
Y7477D01*
X9680Y7600D02*
Y7520D01*
X9720D01*
X9733Y7533D01*
Y7587D01*
X9720Y7600D01*
X9680D01*
X9813Y7520D02*
X9760D01*
X9813Y7573D01*
Y7587D01*
X9800Y7600D01*
X9773D01*
X9760Y7587D01*
X9840Y7520D02*
X9867D01*
X9853D01*
Y7600D01*
X9840Y7587D01*
X10160Y7490D02*
Y7410D01*
X10200D01*
X10213Y7423D01*
Y7477D01*
X10200Y7490D01*
X10160D01*
X10240Y7410D02*
X10267D01*
X10253D01*
Y7490D01*
X10240Y7477D01*
X10307D02*
X10320Y7490D01*
X10347D01*
X10360Y7477D01*
Y7463D01*
X10347Y7450D01*
X10360Y7437D01*
Y7423D01*
X10347Y7410D01*
X10320D01*
X10307Y7423D01*
Y7437D01*
X10320Y7450D01*
X10307Y7463D01*
Y7477D01*
X10320Y7450D02*
X10347D01*
X10160Y7600D02*
Y7520D01*
X10200D01*
X10213Y7533D01*
Y7587D01*
X10200Y7600D01*
X10160D01*
X10240Y7520D02*
X10267D01*
X10253D01*
Y7600D01*
X10240Y7587D01*
X10307Y7533D02*
X10320Y7520D01*
X10347D01*
X10360Y7533D01*
Y7587D01*
X10347Y7600D01*
X10320D01*
X10307Y7587D01*
Y7573D01*
X10320Y7560D01*
X10360D01*
X9680Y7710D02*
Y7630D01*
X9720D01*
X9733Y7643D01*
Y7697D01*
X9720Y7710D01*
X9680D01*
X9760Y7630D02*
X9787D01*
X9773D01*
Y7710D01*
X9760Y7697D01*
X9827Y7710D02*
X9880D01*
Y7697D01*
X9827Y7643D01*
Y7630D01*
X9680Y7820D02*
Y7740D01*
X9720D01*
X9733Y7753D01*
Y7807D01*
X9720Y7820D01*
X9680D01*
X9760Y7740D02*
X9787D01*
X9773D01*
Y7820D01*
X9760Y7807D01*
X9880Y7820D02*
X9853Y7807D01*
X9827Y7780D01*
Y7753D01*
X9840Y7740D01*
X9867D01*
X9880Y7753D01*
Y7767D01*
X9867Y7780D01*
X9827D01*
X10160Y7711D02*
Y7631D01*
X10200D01*
X10213Y7644D01*
Y7698D01*
X10200Y7711D01*
X10160D01*
X10240Y7631D02*
X10267D01*
X10253D01*
Y7711D01*
X10240Y7698D01*
X10360Y7711D02*
X10307D01*
Y7671D01*
X10333Y7684D01*
X10347D01*
X10360Y7671D01*
Y7644D01*
X10347Y7631D01*
X10320D01*
X10307Y7644D01*
X10160Y7820D02*
Y7740D01*
X10200D01*
X10213Y7753D01*
Y7807D01*
X10200Y7820D01*
X10160D01*
X10240Y7740D02*
X10267D01*
X10253D01*
Y7820D01*
X10240Y7807D01*
X10347Y7740D02*
Y7820D01*
X10307Y7780D01*
X10360D01*
X3263Y7725D02*
X3250Y7738D01*
X3223D01*
X3210Y7725D01*
Y7672D01*
X3223Y7658D01*
X3250D01*
X3263Y7672D01*
X3330Y7658D02*
Y7738D01*
X3290Y7698D01*
X3343D01*
X3423Y7658D02*
X3370D01*
X3423Y7712D01*
Y7725D01*
X3410Y7738D01*
X3383D01*
X3370Y7725D01*
X7443Y4667D02*
X7429Y4680D01*
X7403D01*
X7389Y4667D01*
Y4613D01*
X7403Y4600D01*
X7429D01*
X7443Y4613D01*
X7523Y4600D02*
X7469D01*
X7523Y4653D01*
Y4667D01*
X7509Y4680D01*
X7483D01*
X7469Y4667D01*
X7549Y4613D02*
X7563Y4600D01*
X7589D01*
X7602Y4613D01*
Y4667D01*
X7589Y4680D01*
X7563D01*
X7549Y4667D01*
Y4653D01*
X7563Y4640D01*
X7602D01*
X2593Y2357D02*
X2580Y2370D01*
X2553D01*
X2540Y2357D01*
Y2303D01*
X2553Y2290D01*
X2580D01*
X2593Y2303D01*
X2673Y2290D02*
X2620D01*
X2673Y2343D01*
Y2357D01*
X2660Y2370D01*
X2633D01*
X2620Y2357D01*
X2700Y2370D02*
X2753D01*
Y2357D01*
X2700Y2303D01*
Y2290D01*
X253Y2347D02*
X240Y2360D01*
X213D01*
X200Y2347D01*
Y2293D01*
X213Y2280D01*
X240D01*
X253Y2293D01*
X333Y2280D02*
X280D01*
X333Y2333D01*
Y2347D01*
X320Y2360D01*
X293D01*
X280Y2347D01*
X413Y2360D02*
X360D01*
Y2320D01*
X387Y2333D01*
X400D01*
X413Y2320D01*
Y2293D01*
X400Y2280D01*
X373D01*
X360Y2293D01*
X1343Y1597D02*
X1330Y1610D01*
X1303D01*
X1290Y1597D01*
Y1543D01*
X1303Y1530D01*
X1330D01*
X1343Y1543D01*
X1370Y1530D02*
X1397D01*
X1383D01*
Y1610D01*
X1370Y1597D01*
X1437D02*
X1450Y1610D01*
X1477D01*
X1490Y1597D01*
Y1583D01*
X1477Y1570D01*
X1463D01*
X1477D01*
X1490Y1557D01*
Y1543D01*
X1477Y1530D01*
X1450D01*
X1437Y1543D01*
X2550Y4950D02*
Y4870D01*
X2590D01*
X2603Y4883D01*
Y4897D01*
X2590Y4910D01*
X2550D01*
X2590D01*
X2603Y4923D01*
Y4937D01*
X2590Y4950D01*
X2550D01*
X2683Y4870D02*
X2630D01*
X2683Y4923D01*
Y4937D01*
X2670Y4950D01*
X2643D01*
X2630Y4937D01*
X7828Y3907D02*
Y3828D01*
X7868D01*
X7882Y3841D01*
Y3854D01*
X7868Y3867D01*
X7828D01*
X7868D01*
X7882Y3881D01*
Y3894D01*
X7868Y3907D01*
X7828D01*
X7908Y3828D02*
X7935D01*
X7921D01*
Y3907D01*
X7908Y3894D01*
D18*
X1890Y273D02*
Y477D01*
Y273D02*
X2094D01*
Y477D01*
X1890D02*
X2094D01*
X1883Y483D02*
Y505D01*
X1885Y483D02*
Y521D01*
X1847Y483D02*
X1885D01*
X1847D02*
X1885Y521D01*
X1852Y485D02*
X1885Y521D01*
X1852Y485D02*
X1860D01*
X1885Y513D01*
X1857Y488D02*
X1885Y513D01*
X1857Y488D02*
X1865Y485D01*
X1883Y505D01*
X1880Y488D02*
X1883Y483D01*
X1862Y488D02*
X1880D01*
X1862D02*
X1883Y498D01*
X1880Y490D02*
X1883Y498D01*
X1873Y493D02*
X1880Y490D01*
X1873Y493D02*
X1883D01*
X3747Y6585D02*
Y6608D01*
X3744Y6570D02*
Y6608D01*
X3782D01*
X3744Y6570D02*
X3782Y6608D01*
X3744Y6570D02*
X3777Y6606D01*
X3770Y6606D02*
X3777Y6606D01*
X3744Y6578D02*
X3770Y6606D01*
X3744Y6578D02*
X3772Y6603D01*
X3765Y6606D02*
X3772Y6603D01*
X3747Y6585D02*
X3765Y6606D01*
X3747Y6608D02*
X3749Y6603D01*
X3767Y6603D01*
X3747Y6593D02*
X3767Y6603D01*
X3747Y6593D02*
X3749Y6601D01*
X3757Y6598D01*
X3747D02*
X3757D01*
X3533Y6613D02*
X3737Y6613D01*
X3533Y6613D02*
X3533Y6817D01*
X3737D01*
Y6613D02*
Y6817D01*
X3505Y5514D02*
X3528D01*
X3505Y5593D02*
X3505Y5517D01*
X3505Y5743D02*
X3505Y5817D01*
X3528D01*
X3755D02*
X3755Y5743D01*
X3732Y5517D02*
X3755Y5517D01*
Y5590D01*
X3732Y5817D02*
X3755Y5817D01*
X3772Y5847D02*
X3795D01*
X3772Y5844D02*
X3810D01*
X3772D02*
Y5882D01*
X3810Y5844D01*
X3775Y5877D02*
X3810Y5844D01*
X3775Y5877D02*
X3775Y5870D01*
X3803Y5844D01*
X3777Y5872D02*
X3803Y5844D01*
X3775Y5865D02*
X3777Y5872D01*
X3775Y5865D02*
X3795Y5847D01*
X3772D02*
X3777Y5849D01*
X3775Y5860D02*
Y5865D01*
X3777Y5854D02*
X3780Y5849D01*
X3782Y5857D01*
Y5847D02*
Y5857D01*
D19*
X855Y75D02*
Y7925D01*
X4595Y339D02*
Y1700D01*
X3195Y1370D02*
Y1700D01*
Y738D02*
Y1199D01*
X4429Y1700D02*
X4595D01*
X3302Y100D02*
X4463D01*
X11155Y75D02*
Y7925D01*
X855D02*
X11155D01*
X855Y75D02*
X11155D01*
X730Y2190D02*
Y2215D01*
X755D01*
Y2190D01*
X730D01*
X2530Y3310D02*
Y3335D01*
X2555D01*
Y3310D01*
X2530D01*
X2100Y3110D02*
Y3135D01*
X2125D01*
Y3110D01*
X2100D01*
X1510Y1300D02*
Y1325D01*
X1535D01*
Y1300D01*
X1510D01*
X3940Y1820D02*
Y1845D01*
X3965D01*
Y1820D01*
X3940D01*
X4370Y2590D02*
Y2615D01*
X4395D01*
Y2590D01*
X4370D01*
X6750D02*
Y2615D01*
X6775D01*
Y2590D01*
X6750D01*
X9790Y737D02*
Y762D01*
X9815D01*
Y737D01*
X9790D01*
X7360Y4527D02*
Y4553D01*
X7385D01*
Y4527D01*
X7360D01*
X9230Y3410D02*
Y3435D01*
X9255D01*
Y3410D01*
X9230D01*
X9220Y4210D02*
Y4235D01*
X9245D01*
Y4210D01*
X9220D01*
X8750Y6790D02*
Y6815D01*
X8775D01*
Y6790D01*
X8750D01*
Y6260D02*
Y6286D01*
X8775D01*
Y6260D01*
X8750D01*
Y5730D02*
Y5756D01*
X8775D01*
Y5730D01*
X8750D01*
Y5200D02*
Y5225D01*
X8775D01*
Y5200D01*
X8750D01*
X8940Y5050D02*
Y5075D01*
X8965D01*
Y5050D01*
X8940D01*
X7372Y5130D02*
Y5155D01*
X7398D01*
Y5130D01*
X7372D01*
Y5667D02*
Y5692D01*
X7398D01*
Y5667D01*
X7372D01*
Y6190D02*
Y6215D01*
X7398D01*
Y6190D01*
X7372D01*
Y6740D02*
Y6765D01*
X7398D01*
Y6740D01*
X7372D01*
X670Y5514D02*
Y5539D01*
X695D01*
Y5514D01*
X670D01*
Y5735D02*
Y5760D01*
X695D01*
Y5735D01*
X670D01*
X183Y7680D02*
Y7705D01*
X208D01*
Y7680D01*
X183D01*
D20*
X481Y4220D02*
X484Y4215D01*
X491Y4208D01*
X440D01*
X481Y3030D02*
X484Y3025D01*
X491Y3018D01*
X440D01*
D21*
X10009Y6280D02*
D03*
Y6610D02*
D03*
X10012Y6810D02*
D03*
Y7140D02*
D03*
X10009Y5750D02*
D03*
Y6080D02*
D03*
X10009Y5220D02*
D03*
Y5550D02*
D03*
D22*
X10282Y6917D02*
D03*
X10284Y6385D02*
D03*
X10282Y5852D02*
D03*
X10284Y5315D02*
D03*
D23*
X9242Y4369D02*
D03*
X7642Y4400D02*
D03*
X3459Y7138D02*
D03*
D24*
X8978Y4369D02*
D03*
X7378Y4400D02*
D03*
X3194Y7138D02*
D03*
D25*
X9247Y3580D02*
D03*
X2426Y2360D02*
D03*
D26*
X8982Y3580D02*
D03*
X2161Y2360D02*
D03*
D27*
X4080Y2102D02*
D03*
Y1838D02*
D03*
X1670Y1576D02*
D03*
Y1311D02*
D03*
X615Y2203D02*
D03*
Y1938D02*
D03*
M02*
