G04*
G04 #@! TF.GenerationSoftware,Altium Limited,Altium Designer,19.0.12 (326)*
G04*
G04 Layer_Color=8388736*
%FSLAX42Y42*%
%MOMM*%
G71*
G01*
G75*
G04:AMPARAMS|DCode=28|XSize=1.2mm|YSize=1.45mm|CornerRadius=0.35mm|HoleSize=0mm|Usage=FLASHONLY|Rotation=270.000|XOffset=0mm|YOffset=0mm|HoleType=Round|Shape=RoundedRectangle|*
%AMROUNDEDRECTD28*
21,1,1.20,0.75,0,0,270.0*
21,1,0.50,1.45,0,0,270.0*
1,1,0.70,-0.38,-0.25*
1,1,0.70,-0.38,0.25*
1,1,0.70,0.38,0.25*
1,1,0.70,0.38,-0.25*
%
%ADD28ROUNDEDRECTD28*%
%ADD29O,2.30X1.75*%
G04:AMPARAMS|DCode=30|XSize=1.2mm|YSize=1.8mm|CornerRadius=0.35mm|HoleSize=0mm|Usage=FLASHONLY|Rotation=270.000|XOffset=0mm|YOffset=0mm|HoleType=Round|Shape=RoundedRectangle|*
%AMROUNDEDRECTD30*
21,1,1.20,1.10,0,0,270.0*
21,1,0.50,1.80,0,0,270.0*
1,1,0.70,-0.55,-0.25*
1,1,0.70,-0.55,0.25*
1,1,0.70,0.55,0.25*
1,1,0.70,0.55,-0.25*
%
%ADD30ROUNDEDRECTD30*%
G04:AMPARAMS|DCode=31|XSize=2.11mm|YSize=2.62mm|CornerRadius=0.58mm|HoleSize=0mm|Usage=FLASHONLY|Rotation=0.000|XOffset=0mm|YOffset=0mm|HoleType=Round|Shape=RoundedRectangle|*
%AMROUNDEDRECTD31*
21,1,2.11,1.46,0,0,0.0*
21,1,0.95,2.62,0,0,0.0*
1,1,1.16,0.48,-0.73*
1,1,1.16,-0.48,-0.73*
1,1,1.16,-0.48,0.73*
1,1,1.16,0.48,0.73*
%
%ADD31ROUNDEDRECTD31*%
G04:AMPARAMS|DCode=32|XSize=1.6mm|YSize=1.73mm|CornerRadius=0.45mm|HoleSize=0mm|Usage=FLASHONLY|Rotation=90.000|XOffset=0mm|YOffset=0mm|HoleType=Round|Shape=RoundedRectangle|*
%AMROUNDEDRECTD32*
21,1,1.60,0.83,0,0,90.0*
21,1,0.70,1.73,0,0,90.0*
1,1,0.90,0.41,0.35*
1,1,0.90,0.41,-0.35*
1,1,0.90,-0.41,-0.35*
1,1,0.90,-0.41,0.35*
%
%ADD32ROUNDEDRECTD32*%
G04:AMPARAMS|DCode=33|XSize=1.85mm|YSize=2.6mm|CornerRadius=0.31mm|HoleSize=0mm|Usage=FLASHONLY|Rotation=90.000|XOffset=0mm|YOffset=0mm|HoleType=Round|Shape=RoundedRectangle|*
%AMROUNDEDRECTD33*
21,1,1.85,1.99,0,0,90.0*
21,1,1.24,2.60,0,0,90.0*
1,1,0.62,0.99,0.62*
1,1,0.62,0.99,-0.62*
1,1,0.62,-0.99,-0.62*
1,1,0.62,-0.99,0.62*
%
%ADD33ROUNDEDRECTD33*%
%ADD34O,1.35X0.80*%
G04:AMPARAMS|DCode=35|XSize=1.2mm|YSize=1.45mm|CornerRadius=0.35mm|HoleSize=0mm|Usage=FLASHONLY|Rotation=0.000|XOffset=0mm|YOffset=0mm|HoleType=Round|Shape=RoundedRectangle|*
%AMROUNDEDRECTD35*
21,1,1.20,0.75,0,0,0.0*
21,1,0.50,1.45,0,0,0.0*
1,1,0.70,0.25,-0.38*
1,1,0.70,-0.25,-0.38*
1,1,0.70,-0.25,0.38*
1,1,0.70,0.25,0.38*
%
%ADD35ROUNDEDRECTD35*%
%ADD36O,1.45X0.80*%
G04:AMPARAMS|DCode=37|XSize=1.2mm|YSize=2.7mm|CornerRadius=0.35mm|HoleSize=0mm|Usage=FLASHONLY|Rotation=90.000|XOffset=0mm|YOffset=0mm|HoleType=Round|Shape=RoundedRectangle|*
%AMROUNDEDRECTD37*
21,1,1.20,2.00,0,0,90.0*
21,1,0.50,2.70,0,0,90.0*
1,1,0.70,1.00,0.25*
1,1,0.70,1.00,-0.25*
1,1,0.70,-1.00,-0.25*
1,1,0.70,-1.00,0.25*
%
%ADD37ROUNDEDRECTD37*%
G04:AMPARAMS|DCode=38|XSize=1mm|YSize=0.95mm|CornerRadius=0.29mm|HoleSize=0mm|Usage=FLASHONLY|Rotation=180.000|XOffset=0mm|YOffset=0mm|HoleType=Round|Shape=RoundedRectangle|*
%AMROUNDEDRECTD38*
21,1,1.00,0.38,0,0,180.0*
21,1,0.43,0.95,0,0,180.0*
1,1,0.58,-0.21,0.19*
1,1,0.58,0.21,0.19*
1,1,0.58,0.21,-0.19*
1,1,0.58,-0.21,-0.19*
%
%ADD38ROUNDEDRECTD38*%
%ADD39O,5.70X2.20*%
G04:AMPARAMS|DCode=40|XSize=1mm|YSize=0.95mm|CornerRadius=0.29mm|HoleSize=0mm|Usage=FLASHONLY|Rotation=90.000|XOffset=0mm|YOffset=0mm|HoleType=Round|Shape=RoundedRectangle|*
%AMROUNDEDRECTD40*
21,1,1.00,0.38,0,0,90.0*
21,1,0.43,0.95,0,0,90.0*
1,1,0.58,0.19,0.21*
1,1,0.58,0.19,-0.21*
1,1,0.58,-0.19,-0.21*
1,1,0.58,-0.19,0.21*
%
%ADD40ROUNDEDRECTD40*%
%ADD41O,2.10X1.50*%
%ADD42O,1.65X0.80*%
G04:AMPARAMS|DCode=43|XSize=1.85mm|YSize=2.6mm|CornerRadius=0.31mm|HoleSize=0mm|Usage=FLASHONLY|Rotation=0.000|XOffset=0mm|YOffset=0mm|HoleType=Round|Shape=RoundedRectangle|*
%AMROUNDEDRECTD43*
21,1,1.85,1.99,0,0,0.0*
21,1,1.24,2.60,0,0,0.0*
1,1,0.62,0.62,-0.99*
1,1,0.62,-0.62,-0.99*
1,1,0.62,-0.62,0.99*
1,1,0.62,0.62,0.99*
%
%ADD43ROUNDEDRECTD43*%
%ADD44O,1.75X0.45*%
%ADD45O,0.45X1.75*%
%ADD46O,4.20X1.40*%
%ADD47R,0.45X0.50*%
%ADD48R,0.50X0.45*%
%ADD49R,0.35X0.38*%
%ADD50R,0.38X0.35*%
G04:AMPARAMS|DCode=51|XSize=0.35mm|YSize=0.38mm|CornerRadius=0mm|HoleSize=0mm|Usage=FLASHONLY|Rotation=90.000|XOffset=0mm|YOffset=0mm|HoleType=Round|Shape=Octagon|*
%AMOCTAGOND51*
4,1,8,-0.19,-0.09,-0.19,0.09,-0.10,0.18,0.10,0.18,0.19,0.09,0.19,-0.09,0.10,-0.18,-0.10,-0.18,-0.19,-0.09,0.0*
%
%ADD51OCTAGOND51*%

%ADD52R,2.60X1.20*%
%ADD53R,2.60X3.50*%
G04:AMPARAMS|DCode=54|XSize=1.2mm|YSize=2.7mm|CornerRadius=0.35mm|HoleSize=0mm|Usage=FLASHONLY|Rotation=180.000|XOffset=0mm|YOffset=0mm|HoleType=Round|Shape=RoundedRectangle|*
%AMROUNDEDRECTD54*
21,1,1.20,2.00,0,0,180.0*
21,1,0.50,2.70,0,0,180.0*
1,1,0.70,-0.25,1.00*
1,1,0.70,0.25,1.00*
1,1,0.70,0.25,-1.00*
1,1,0.70,-0.25,-1.00*
%
%ADD54ROUNDEDRECTD54*%
%ADD55R,0.40X0.40*%
%ADD56O,1.15X0.65*%
%ADD57R,5.36X5.00*%
%ADD58O,0.85X0.40*%
%ADD59O,0.40X0.85*%
%ADD60R,1.00X1.10*%
%ADD61O,2.30X0.55*%
%ADD62R,2.00X3.00*%
%ADD63R,1.45X0.50*%
%ADD64O,0.90X1.40*%
%ADD65O,1.40X1.20*%
%ADD66O,1.20X1.40*%
%ADD67O,1.20X3.00*%
%ADD68O,1.50X2.10*%
%ADD69R,1.85X1.85*%
%ADD70C,1.85*%
%ADD71C,2.00*%
%ADD72P,2.17X8X292.5*%
%ADD73O,2.63X1.05*%
G04:AMPARAMS|DCode=74|XSize=2mm|YSize=1.48mm|CornerRadius=0.39mm|HoleSize=0mm|Usage=FLASHONLY|Rotation=180.000|XOffset=0mm|YOffset=0mm|HoleType=Round|Shape=RoundedRectangle|*
%AMROUNDEDRECTD74*
21,1,2.00,0.69,0,0,180.0*
21,1,1.21,1.48,0,0,180.0*
1,1,0.79,-0.61,0.34*
1,1,0.79,0.61,0.34*
1,1,0.79,0.61,-0.34*
1,1,0.79,-0.61,-0.34*
%
%ADD74ROUNDEDRECTD74*%
%ADD75O,1.35X1.15*%
%ADD76P,2.17X8X22.5*%
%ADD77C,0.20*%
D28*
X7590Y6880D02*
D03*
Y7080D02*
D03*
X7790Y7080D02*
D03*
Y6880D02*
D03*
X7590Y6345D02*
D03*
Y6545D02*
D03*
X7794Y6545D02*
D03*
Y6345D02*
D03*
X7590Y5820D02*
D03*
Y6020D02*
D03*
X7792Y6020D02*
D03*
Y5820D02*
D03*
X7589Y5278D02*
D03*
Y5478D02*
D03*
X7792Y5478D02*
D03*
Y5278D02*
D03*
X9400Y4629D02*
D03*
Y4429D02*
D03*
X9407Y3840D02*
D03*
Y3640D02*
D03*
X6280Y5295D02*
D03*
Y5095D02*
D03*
X6760Y4140D02*
D03*
Y4340D02*
D03*
X6560Y4140D02*
D03*
Y4340D02*
D03*
X6770Y4750D02*
D03*
Y4550D02*
D03*
X6568Y4750D02*
D03*
Y4550D02*
D03*
X7170Y4750D02*
D03*
Y4550D02*
D03*
X6970Y4750D02*
D03*
Y4550D02*
D03*
X9190Y1370D02*
D03*
Y1170D02*
D03*
X9600Y423D02*
D03*
Y623D02*
D03*
X6055Y2715D02*
D03*
Y2915D02*
D03*
X4810Y663D02*
D03*
Y463D02*
D03*
X4811Y1029D02*
D03*
Y829D02*
D03*
X4590Y2280D02*
D03*
Y2480D02*
D03*
X4180Y2280D02*
D03*
Y2480D02*
D03*
X3980D02*
D03*
Y2280D02*
D03*
X3780Y2480D02*
D03*
Y2280D02*
D03*
X3576Y2480D02*
D03*
Y2280D02*
D03*
X3376Y2480D02*
D03*
Y2280D02*
D03*
X3172Y2480D02*
D03*
Y2280D02*
D03*
X2937Y446D02*
D03*
Y246D02*
D03*
X2936Y812D02*
D03*
Y612D02*
D03*
X2937Y1178D02*
D03*
Y978D02*
D03*
X2936Y1543D02*
D03*
Y1343D02*
D03*
X1650Y953D02*
D03*
Y1153D02*
D03*
Y275D02*
D03*
Y475D02*
D03*
X997Y2225D02*
D03*
Y2025D02*
D03*
X7389Y5478D02*
D03*
Y5278D02*
D03*
X7390Y6018D02*
D03*
Y5818D02*
D03*
X7389Y6545D02*
D03*
Y6345D02*
D03*
X7390Y7080D02*
D03*
Y6880D02*
D03*
X9800Y423D02*
D03*
Y623D02*
D03*
X4386Y2280D02*
D03*
Y2480D02*
D03*
X996Y2585D02*
D03*
Y2385D02*
D03*
X3637Y7325D02*
D03*
Y7125D02*
D03*
X3889Y7328D02*
D03*
Y7128D02*
D03*
X4805Y5293D02*
D03*
Y5093D02*
D03*
X4603Y5293D02*
D03*
Y5093D02*
D03*
X3975Y5355D02*
D03*
Y5555D02*
D03*
X3974Y5917D02*
D03*
Y5717D02*
D03*
X3278Y5363D02*
D03*
Y5563D02*
D03*
Y5927D02*
D03*
Y5727D02*
D03*
X3960Y4940D02*
D03*
Y4740D02*
D03*
X3340Y4940D02*
D03*
Y4740D02*
D03*
X2240Y4575D02*
D03*
Y4375D02*
D03*
X978Y4490D02*
D03*
Y4690D02*
D03*
X2084Y6062D02*
D03*
Y5862D02*
D03*
X6344Y2912D02*
D03*
Y2712D02*
D03*
D29*
X8955Y5256D02*
D03*
Y5510D02*
D03*
X8095D02*
D03*
Y5256D02*
D03*
X8955Y5788D02*
D03*
Y6042D02*
D03*
X8095D02*
D03*
Y5788D02*
D03*
X8955Y6318D02*
D03*
Y6572D02*
D03*
X8095D02*
D03*
Y6318D02*
D03*
X8955Y6848D02*
D03*
Y7102D02*
D03*
X8095D02*
D03*
Y6848D02*
D03*
D30*
X9275Y7125D02*
D03*
Y6825D02*
D03*
Y6600D02*
D03*
Y6300D02*
D03*
X9274Y6065D02*
D03*
Y5765D02*
D03*
X9275Y5528D02*
D03*
Y5228D02*
D03*
X10225Y1430D02*
D03*
Y1130D02*
D03*
X310Y737D02*
D03*
Y1037D02*
D03*
X1750Y6570D02*
D03*
Y6870D02*
D03*
D31*
X9556Y6445D02*
D03*
X10004D02*
D03*
X9560Y6975D02*
D03*
X10007D02*
D03*
X9556Y5915D02*
D03*
X10004D02*
D03*
X9556Y5385D02*
D03*
X10003D02*
D03*
D32*
X10282Y7158D02*
D03*
Y6802D02*
D03*
X10284Y6270D02*
D03*
Y6626D02*
D03*
X10282Y6093D02*
D03*
Y5737D02*
D03*
X10284Y5200D02*
D03*
Y5556D02*
D03*
D33*
X9110Y4701D02*
D03*
Y4356D02*
D03*
X9115Y3913D02*
D03*
Y3568D02*
D03*
X7510Y4067D02*
D03*
Y4412D02*
D03*
X2294Y2373D02*
D03*
Y2028D02*
D03*
X3327Y7125D02*
D03*
Y7470D02*
D03*
D34*
X9623Y4434D02*
D03*
Y4624D02*
D03*
X9883D02*
D03*
Y4529D02*
D03*
Y4434D02*
D03*
X9883Y3645D02*
D03*
Y3740D02*
D03*
Y3835D02*
D03*
X9623D02*
D03*
Y3645D02*
D03*
X1280Y2775D02*
D03*
Y2965D02*
D03*
X1540D02*
D03*
Y2870D02*
D03*
Y2775D02*
D03*
D35*
X10277Y4527D02*
D03*
X10077D02*
D03*
X10277Y4327D02*
D03*
X10077D02*
D03*
X10277Y4727D02*
D03*
X10077D02*
D03*
X10277Y3538D02*
D03*
X10077D02*
D03*
X10277Y3938D02*
D03*
X10077D02*
D03*
X10277Y3738D02*
D03*
X10077D02*
D03*
X7778Y4689D02*
D03*
X7978D02*
D03*
X8850Y3537D02*
D03*
X8650D02*
D03*
X7248Y2602D02*
D03*
X7448D02*
D03*
X10280Y2954D02*
D03*
X10080D02*
D03*
X10077Y3210D02*
D03*
X10277D02*
D03*
X10280Y2195D02*
D03*
X10080D02*
D03*
X10280Y2702D02*
D03*
X10080D02*
D03*
X10280Y2449D02*
D03*
X10080D02*
D03*
X9730Y2195D02*
D03*
X9930D02*
D03*
X9730Y2449D02*
D03*
X9930D02*
D03*
X9576Y2195D02*
D03*
X9376D02*
D03*
X9576Y2449D02*
D03*
X9376D02*
D03*
X8550Y1730D02*
D03*
X8350D02*
D03*
X7890Y1729D02*
D03*
X8090D02*
D03*
X6750Y1729D02*
D03*
X6550D02*
D03*
X7000Y1730D02*
D03*
X7200D02*
D03*
X3650Y1970D02*
D03*
X3850D02*
D03*
X4140Y3040D02*
D03*
X4340D02*
D03*
X4140Y3240D02*
D03*
X4340D02*
D03*
X1767Y2770D02*
D03*
X1967D02*
D03*
X2316D02*
D03*
X2116D02*
D03*
X1968Y2970D02*
D03*
X1768D02*
D03*
X2319D02*
D03*
X2119D02*
D03*
X7100Y2602D02*
D03*
X6900D02*
D03*
X3535Y6039D02*
D03*
X3735D02*
D03*
X3535Y6299D02*
D03*
X3735D02*
D03*
X2545Y3485D02*
D03*
X2345D02*
D03*
X2694Y3485D02*
D03*
X2894D02*
D03*
X2545Y3685D02*
D03*
X2345D02*
D03*
X2694Y3685D02*
D03*
X2894D02*
D03*
X2694Y3885D02*
D03*
X2894D02*
D03*
X2694Y4084D02*
D03*
X2894D02*
D03*
X2544Y3885D02*
D03*
X2344D02*
D03*
X2544Y4086D02*
D03*
X2344D02*
D03*
X555Y5306D02*
D03*
X355D02*
D03*
X357Y5526D02*
D03*
X557D02*
D03*
X357Y5743D02*
D03*
X557D02*
D03*
Y5960D02*
D03*
X357D02*
D03*
X355Y7472D02*
D03*
X555D02*
D03*
Y7695D02*
D03*
X355D02*
D03*
X6565Y3820D02*
D03*
X6765D02*
D03*
D36*
X7205Y4240D02*
D03*
X6995Y4145D02*
D03*
Y4335D02*
D03*
D37*
X7880Y4090D02*
D03*
Y4390D02*
D03*
X2619Y4670D02*
D03*
Y4370D02*
D03*
D38*
X8705Y2740D02*
D03*
X8855D02*
D03*
X8054D02*
D03*
X7904D02*
D03*
D39*
X8858Y3160D02*
D03*
X7908D02*
D03*
D40*
X7400Y3045D02*
D03*
Y2895D02*
D03*
Y3425D02*
D03*
Y3275D02*
D03*
D41*
X6840Y3425D02*
D03*
Y2875D02*
D03*
X7160D02*
D03*
Y3425D02*
D03*
D42*
X9428Y1470D02*
D03*
Y1344D02*
D03*
Y1216D02*
D03*
Y1090D02*
D03*
X9973Y1470D02*
D03*
Y1344D02*
D03*
Y1216D02*
D03*
Y1090D02*
D03*
X1307Y3601D02*
D03*
Y3474D02*
D03*
Y3347D02*
D03*
Y3219D02*
D03*
X1852Y3601D02*
D03*
Y3474D02*
D03*
Y3347D02*
D03*
Y3219D02*
D03*
X1320Y5862D02*
D03*
Y5735D02*
D03*
Y5608D02*
D03*
Y5481D02*
D03*
X1865Y5862D02*
D03*
Y5735D02*
D03*
Y5608D02*
D03*
Y5481D02*
D03*
X2068Y6911D02*
D03*
Y6784D02*
D03*
Y6657D02*
D03*
Y6530D02*
D03*
X2613Y6911D02*
D03*
Y6784D02*
D03*
Y6657D02*
D03*
Y6530D02*
D03*
D43*
X4067Y1970D02*
D03*
X4412D02*
D03*
X1657Y1443D02*
D03*
X2002D02*
D03*
X282Y2070D02*
D03*
X627D02*
D03*
D44*
X6207Y3400D02*
D03*
Y3450D02*
D03*
Y3500D02*
D03*
X6207Y3550D02*
D03*
Y3600D02*
D03*
X6207Y3650D02*
D03*
Y3700D02*
D03*
Y3750D02*
D03*
Y3800D02*
D03*
Y3850D02*
D03*
Y3900D02*
D03*
Y3950D02*
D03*
Y4000D02*
D03*
Y4050D02*
D03*
Y4100D02*
D03*
X6207Y4150D02*
D03*
Y4200D02*
D03*
Y4250D02*
D03*
X6207Y4300D02*
D03*
Y4350D02*
D03*
Y4400D02*
D03*
Y4450D02*
D03*
Y4500D02*
D03*
X6207Y4550D02*
D03*
Y4600D02*
D03*
X4702D02*
D03*
Y4550D02*
D03*
Y4500D02*
D03*
Y4450D02*
D03*
Y4400D02*
D03*
Y4350D02*
D03*
Y4300D02*
D03*
Y4250D02*
D03*
Y4200D02*
D03*
Y4150D02*
D03*
Y4100D02*
D03*
Y4050D02*
D03*
Y4000D02*
D03*
Y3950D02*
D03*
Y3900D02*
D03*
Y3850D02*
D03*
Y3800D02*
D03*
Y3750D02*
D03*
Y3700D02*
D03*
Y3650D02*
D03*
Y3600D02*
D03*
Y3550D02*
D03*
Y3500D02*
D03*
Y3450D02*
D03*
Y3400D02*
D03*
D45*
X6055Y4753D02*
D03*
X6005D02*
D03*
X5955D02*
D03*
X5905Y4753D02*
D03*
X5855D02*
D03*
X5805D02*
D03*
X5755D02*
D03*
X5705D02*
D03*
X5655Y4753D02*
D03*
X5605D02*
D03*
X5555Y4753D02*
D03*
X5505D02*
D03*
X5455D02*
D03*
X5405D02*
D03*
X5355D02*
D03*
X5305D02*
D03*
X5255D02*
D03*
X5205D02*
D03*
X5155D02*
D03*
X5105D02*
D03*
X5055Y4753D02*
D03*
X5005D02*
D03*
X4955D02*
D03*
X4905Y4753D02*
D03*
X4855D02*
D03*
Y3247D02*
D03*
X4905D02*
D03*
X4955D02*
D03*
X5005D02*
D03*
X5055D02*
D03*
X5105D02*
D03*
X5155D02*
D03*
X5205D02*
D03*
X5255D02*
D03*
X5305D02*
D03*
X5355D02*
D03*
X5405D02*
D03*
X5455D02*
D03*
X5505D02*
D03*
X5555D02*
D03*
X5605D02*
D03*
X5655D02*
D03*
X5705D02*
D03*
X5755D02*
D03*
X5805D02*
D03*
X5855D02*
D03*
X5905D02*
D03*
X5955D02*
D03*
X6005D02*
D03*
X6055D02*
D03*
D46*
X3630Y4590D02*
D03*
Y3410D02*
D03*
D47*
X1992Y443D02*
D03*
Y308D02*
D03*
D48*
X2060Y425D02*
D03*
Y325D02*
D03*
X1925D02*
D03*
Y425D02*
D03*
D49*
X1942Y1154D02*
D03*
X1992D02*
D03*
X2042D02*
D03*
Y1001D02*
D03*
X1992D02*
D03*
X1942D02*
D03*
D50*
X2068Y1103D02*
D03*
Y1053D02*
D03*
X1916Y1053D02*
D03*
D51*
Y1103D02*
D03*
D52*
X1332Y2530D02*
D03*
X1332Y2300D02*
D03*
Y2070D02*
D03*
D53*
X1912Y2300D02*
D03*
D54*
X605Y2585D02*
D03*
X305D02*
D03*
D55*
X3560Y6790D02*
D03*
Y6740D02*
D03*
Y6690D02*
D03*
Y6640D02*
D03*
X3610Y6790D02*
D03*
X3660D02*
D03*
X3710D02*
D03*
Y6740D02*
D03*
Y6690D02*
D03*
Y6640D02*
D03*
X3660D02*
D03*
X3610D02*
D03*
D56*
X5845Y5149D02*
D03*
Y5276D02*
D03*
Y5403D02*
D03*
Y5531D02*
D03*
X5065D02*
D03*
Y5403D02*
D03*
Y5276D02*
D03*
Y5149D02*
D03*
D57*
X5455Y5340D02*
D03*
D58*
X3740Y5717D02*
D03*
Y5667D02*
D03*
Y5617D02*
D03*
X3520D02*
D03*
Y5667D02*
D03*
Y5717D02*
D03*
D59*
X3705Y5534D02*
D03*
X3655D02*
D03*
X3605D02*
D03*
X3555D02*
D03*
Y5800D02*
D03*
X3605Y5800D02*
D03*
X3655D02*
D03*
X3705Y5800D02*
D03*
D60*
X3725Y4940D02*
D03*
X3535D02*
D03*
X3630Y4740D02*
D03*
D61*
X1948Y4177D02*
D03*
Y4242D02*
D03*
Y4307D02*
D03*
Y4372D02*
D03*
Y4437D02*
D03*
Y4502D02*
D03*
Y4567D02*
D03*
Y4632D02*
D03*
Y4697D02*
D03*
Y4762D02*
D03*
Y4827D02*
D03*
Y4892D02*
D03*
Y4957D02*
D03*
Y5022D02*
D03*
X1257Y4177D02*
D03*
Y4242D02*
D03*
Y4307D02*
D03*
Y4372D02*
D03*
Y4437D02*
D03*
Y4502D02*
D03*
Y4567D02*
D03*
Y4632D02*
D03*
Y4697D02*
D03*
Y4762D02*
D03*
Y4827D02*
D03*
Y4892D02*
D03*
Y4957D02*
D03*
Y5022D02*
D03*
D62*
X215Y4600D02*
D03*
Y3410D02*
D03*
D63*
X483Y4730D02*
D03*
Y4665D02*
D03*
Y4600D02*
D03*
Y4535D02*
D03*
Y4470D02*
D03*
Y3280D02*
D03*
Y3345D02*
D03*
Y3410D02*
D03*
Y3475D02*
D03*
Y3540D02*
D03*
D64*
X4176Y1706D02*
D03*
X4066D02*
D03*
X3956D02*
D03*
X3846D02*
D03*
X3736D02*
D03*
X3626D02*
D03*
X3516D02*
D03*
X3406D02*
D03*
X3296D02*
D03*
D65*
X3226Y656D02*
D03*
Y1276D02*
D03*
D66*
X4331Y1706D02*
D03*
D67*
X3216Y241D02*
D03*
D68*
X4566Y196D02*
D03*
D69*
X8285Y4684D02*
D03*
D70*
X8735D02*
D03*
Y3784D02*
D03*
X8285D02*
D03*
D71*
X183Y527D02*
D03*
X437Y1247D02*
D03*
X10555Y3994D02*
D03*
Y3740D02*
D03*
Y1661D02*
D03*
Y1407D02*
D03*
Y1153D02*
D03*
X10224Y1870D02*
D03*
X9716D02*
D03*
X9970D02*
D03*
X10555Y2448D02*
D03*
Y2702D02*
D03*
Y2956D02*
D03*
Y3210D02*
D03*
Y2194D02*
D03*
Y6572D02*
D03*
Y5512D02*
D03*
Y6042D02*
D03*
Y7102D02*
D03*
Y4529D02*
D03*
Y4783D02*
D03*
X6145Y5950D02*
D03*
X5891D02*
D03*
X5637D02*
D03*
X5383D02*
D03*
X6399D02*
D03*
X5129D02*
D03*
X4875D02*
D03*
X1360Y6339D02*
D03*
Y6593D02*
D03*
Y6847D02*
D03*
X685Y1588D02*
D03*
Y1334D02*
D03*
Y1080D02*
D03*
Y826D02*
D03*
Y572D02*
D03*
Y318D02*
D03*
X2619Y346D02*
D03*
X2619Y713D02*
D03*
X2619Y1076D02*
D03*
X2619Y1443D02*
D03*
X5129Y1840D02*
D03*
X5383D02*
D03*
X5637D02*
D03*
X5891D02*
D03*
X5891Y1471D02*
D03*
X5637D02*
D03*
X5383D02*
D03*
X6746D02*
D03*
X7000D02*
D03*
X7254D02*
D03*
X8096D02*
D03*
X8350D02*
D03*
X8604D02*
D03*
D72*
X10555Y3486D02*
D03*
Y899D02*
D03*
X10555Y1940D02*
D03*
Y6318D02*
D03*
Y5258D02*
D03*
Y5788D02*
D03*
Y6848D02*
D03*
Y4275D02*
D03*
X1360Y7101D02*
D03*
D73*
X150Y4838D02*
D03*
Y4363D02*
D03*
Y3173D02*
D03*
Y3648D02*
D03*
D74*
X215Y4999D02*
D03*
Y4201D02*
D03*
Y3011D02*
D03*
Y3809D02*
D03*
D75*
X515Y4377D02*
D03*
Y4822D02*
D03*
Y3632D02*
D03*
Y3187D02*
D03*
D76*
X6653Y5950D02*
D03*
X5129Y1471D02*
D03*
X6492D02*
D03*
X7842D02*
D03*
D77*
X2350Y1670D02*
D03*
Y339D02*
D03*
Y1076D02*
D03*
X1767Y1760D02*
D03*
X1155Y1253D02*
D03*
Y7625D02*
D03*
X10855D02*
D03*
Y375D02*
D03*
X1155D02*
D03*
M02*
