G04*
G04 #@! TF.GenerationSoftware,Altium Limited,Altium Designer,19.0.12 (326)*
G04*
G04 Layer_Physical_Order=4*
G04 Layer_Color=32768*
%FSLAX42Y42*%
%MOMM*%
G71*
G01*
G75*
%ADD12C,0.20*%
%ADD78C,0.50*%
G04:AMPARAMS|DCode=79|XSize=1mm|YSize=1.25mm|CornerRadius=0.25mm|HoleSize=0mm|Usage=FLASHONLY|Rotation=270.000|XOffset=0mm|YOffset=0mm|HoleType=Round|Shape=RoundedRectangle|*
%AMROUNDEDRECTD79*
21,1,1.00,0.75,0,0,270.0*
21,1,0.50,1.25,0,0,270.0*
1,1,0.50,-0.38,-0.25*
1,1,0.50,-0.38,0.25*
1,1,0.50,0.38,0.25*
1,1,0.50,0.38,-0.25*
%
%ADD79ROUNDEDRECTD79*%
G04:AMPARAMS|DCode=86|XSize=1mm|YSize=1.25mm|CornerRadius=0.25mm|HoleSize=0mm|Usage=FLASHONLY|Rotation=0.000|XOffset=0mm|YOffset=0mm|HoleType=Round|Shape=RoundedRectangle|*
%AMROUNDEDRECTD86*
21,1,1.00,0.75,0,0,0.0*
21,1,0.50,1.25,0,0,0.0*
1,1,0.50,0.25,-0.38*
1,1,0.50,-0.25,-0.38*
1,1,0.50,-0.25,0.38*
1,1,0.50,0.25,0.38*
%
%ADD86ROUNDEDRECTD86*%
%ADD93O,1.45X0.60*%
%ADD121C,0.75*%
%ADD122R,1.65X1.65*%
%ADD123C,1.65*%
%ADD124C,1.80*%
%ADD125P,1.95X8X292.5*%
%ADD126O,2.42X0.85*%
G04:AMPARAMS|DCode=127|XSize=1.9mm|YSize=1.38mm|CornerRadius=0.34mm|HoleSize=0mm|Usage=FLASHONLY|Rotation=180.000|XOffset=0mm|YOffset=0mm|HoleType=Round|Shape=RoundedRectangle|*
%AMROUNDEDRECTD127*
21,1,1.90,0.69,0,0,180.0*
21,1,1.21,1.38,0,0,180.0*
1,1,0.69,-0.61,0.34*
1,1,0.69,0.61,0.34*
1,1,0.69,0.61,-0.34*
1,1,0.69,-0.61,-0.34*
%
%ADD127ROUNDEDRECTD127*%
%ADD128O,1.25X1.05*%
%ADD129P,1.95X8X22.5*%
%ADD130C,0.70*%
%ADD131O,1.47X0.36*%
%ADD132O,2.54X3.51*%
G36*
X840Y2850D02*
X470Y2850D01*
X470Y1371D01*
X462Y1365D01*
Y1247D01*
Y1129D01*
X470Y1123D01*
Y899D01*
X50Y899D01*
X50Y1720D01*
Y3103D01*
X60Y3111D01*
X71Y3109D01*
X118D01*
X122Y3096D01*
X111Y3089D01*
X98Y3069D01*
X93Y3046D01*
Y3036D01*
X337D01*
Y3046D01*
X332Y3069D01*
X319Y3089D01*
X299Y3102D01*
X276Y3107D01*
X265D01*
X262Y3119D01*
X274Y3127D01*
X288Y3148D01*
X292Y3173D01*
X288Y3197D01*
X274Y3218D01*
X253Y3231D01*
X229Y3236D01*
X71D01*
X60Y3234D01*
X50Y3242D01*
Y3578D01*
X60Y3586D01*
X71Y3584D01*
X229D01*
X253Y3589D01*
X274Y3602D01*
X288Y3623D01*
X292Y3648D01*
X288Y3672D01*
X274Y3693D01*
X262Y3701D01*
X265Y3713D01*
X276D01*
X299Y3718D01*
X319Y3731D01*
X332Y3751D01*
X337Y3774D01*
Y3784D01*
X215D01*
X93D01*
Y3774D01*
X98Y3751D01*
X111Y3731D01*
X122Y3724D01*
X118Y3711D01*
X71D01*
X60Y3709D01*
X50Y3717D01*
Y4293D01*
X60Y4301D01*
X71Y4299D01*
X118D01*
X122Y4286D01*
X111Y4279D01*
X98Y4259D01*
X93Y4236D01*
Y4226D01*
X337D01*
Y4236D01*
X332Y4259D01*
X319Y4279D01*
X299Y4292D01*
X276Y4297D01*
X265D01*
X262Y4309D01*
X274Y4317D01*
X288Y4338D01*
X292Y4363D01*
X288Y4387D01*
X274Y4408D01*
X253Y4421D01*
X229Y4426D01*
X71D01*
X60Y4424D01*
X50Y4432D01*
Y4768D01*
X60Y4776D01*
X71Y4774D01*
X229D01*
X253Y4779D01*
X274Y4792D01*
X288Y4813D01*
X292Y4838D01*
X288Y4862D01*
X274Y4883D01*
X262Y4891D01*
X265Y4903D01*
X276D01*
X299Y4908D01*
X319Y4921D01*
X332Y4941D01*
X337Y4964D01*
Y4974D01*
X215D01*
X93D01*
Y4964D01*
X98Y4941D01*
X111Y4921D01*
X122Y4914D01*
X118Y4901D01*
X71D01*
X60Y4899D01*
X50Y4907D01*
Y5130D01*
X840D01*
Y2850D01*
D02*
G37*
%LPC*%
G36*
X276Y5094D02*
X240D01*
Y5024D01*
X337D01*
Y5033D01*
X332Y5056D01*
X319Y5076D01*
X299Y5089D01*
X276Y5094D01*
D02*
G37*
G36*
X190D02*
X154D01*
X131Y5089D01*
X111Y5076D01*
X98Y5056D01*
X93Y5033D01*
Y5024D01*
X190D01*
Y5094D01*
D02*
G37*
G36*
X540Y4899D02*
Y4847D01*
X599D01*
X593Y4862D01*
X581Y4878D01*
X564Y4891D01*
X545Y4898D01*
X540Y4899D01*
D02*
G37*
G36*
X490D02*
X485Y4898D01*
X466Y4891D01*
X449Y4878D01*
X437Y4862D01*
X431Y4847D01*
X490D01*
Y4899D01*
D02*
G37*
G36*
X599Y4797D02*
X540D01*
Y4746D01*
X545Y4747D01*
X564Y4754D01*
X581Y4767D01*
X593Y4783D01*
X599Y4797D01*
D02*
G37*
G36*
X490D02*
X431D01*
X437Y4783D01*
X449Y4767D01*
X466Y4754D01*
X485Y4747D01*
X490Y4746D01*
Y4797D01*
D02*
G37*
G36*
X635Y4526D02*
X613Y4522D01*
X595Y4510D01*
X583Y4491D01*
X579Y4470D01*
X583Y4449D01*
X585Y4446D01*
X576Y4437D01*
X564Y4446D01*
X545Y4453D01*
X540Y4454D01*
Y4402D01*
X599D01*
X593Y4417D01*
X602Y4426D01*
X613Y4418D01*
X635Y4414D01*
X656Y4418D01*
X675Y4430D01*
X687Y4449D01*
X691Y4470D01*
X687Y4491D01*
X675Y4510D01*
X656Y4522D01*
X635Y4526D01*
D02*
G37*
G36*
X490Y4454D02*
X485Y4453D01*
X466Y4446D01*
X449Y4433D01*
X437Y4417D01*
X431Y4402D01*
X490D01*
Y4454D01*
D02*
G37*
G36*
X599Y4352D02*
X540D01*
Y4301D01*
X545Y4302D01*
X564Y4309D01*
X581Y4322D01*
X593Y4338D01*
X599Y4352D01*
D02*
G37*
G36*
X490D02*
X431D01*
X437Y4338D01*
X449Y4322D01*
X466Y4309D01*
X485Y4302D01*
X490Y4301D01*
Y4352D01*
D02*
G37*
G36*
X337Y4176D02*
X240D01*
Y4106D01*
X276D01*
X299Y4111D01*
X319Y4124D01*
X332Y4144D01*
X337Y4167D01*
Y4176D01*
D02*
G37*
G36*
X190D02*
X93D01*
Y4167D01*
X98Y4144D01*
X111Y4124D01*
X131Y4111D01*
X154Y4106D01*
X190D01*
Y4176D01*
D02*
G37*
G36*
X276Y3904D02*
X240D01*
Y3834D01*
X337D01*
Y3843D01*
X332Y3866D01*
X319Y3886D01*
X299Y3899D01*
X276Y3904D01*
D02*
G37*
G36*
X190D02*
X154D01*
X131Y3899D01*
X111Y3886D01*
X98Y3866D01*
X93Y3843D01*
Y3834D01*
X190D01*
Y3904D01*
D02*
G37*
G36*
X540Y3709D02*
Y3657D01*
X599D01*
X593Y3672D01*
X581Y3688D01*
X564Y3701D01*
X545Y3708D01*
X540Y3709D01*
D02*
G37*
G36*
X490D02*
X485Y3708D01*
X466Y3701D01*
X449Y3688D01*
X437Y3672D01*
X431Y3657D01*
X490D01*
Y3709D01*
D02*
G37*
G36*
X599Y3607D02*
X540D01*
Y3556D01*
X545Y3557D01*
X564Y3564D01*
X581Y3577D01*
X593Y3593D01*
X599Y3607D01*
D02*
G37*
G36*
X490D02*
X431D01*
X437Y3593D01*
X449Y3577D01*
X466Y3564D01*
X485Y3557D01*
X490Y3556D01*
Y3607D01*
D02*
G37*
G36*
X635Y3336D02*
X613Y3332D01*
X595Y3320D01*
X583Y3301D01*
X579Y3280D01*
X583Y3259D01*
X585Y3256D01*
X576Y3247D01*
X564Y3256D01*
X545Y3263D01*
X540Y3264D01*
Y3212D01*
X599D01*
X593Y3227D01*
X602Y3236D01*
X613Y3228D01*
X635Y3224D01*
X656Y3228D01*
X675Y3240D01*
X687Y3259D01*
X691Y3280D01*
X687Y3301D01*
X675Y3320D01*
X656Y3332D01*
X635Y3336D01*
D02*
G37*
G36*
X490Y3264D02*
X485Y3263D01*
X466Y3256D01*
X449Y3243D01*
X437Y3227D01*
X431Y3212D01*
X490D01*
Y3264D01*
D02*
G37*
G36*
X599Y3162D02*
X540D01*
Y3111D01*
X545Y3112D01*
X564Y3119D01*
X581Y3132D01*
X593Y3148D01*
X599Y3162D01*
D02*
G37*
G36*
X490D02*
X431D01*
X437Y3148D01*
X449Y3132D01*
X466Y3119D01*
X485Y3112D01*
X490Y3111D01*
Y3162D01*
D02*
G37*
G36*
X337Y2986D02*
X240D01*
Y2916D01*
X276D01*
X299Y2921D01*
X319Y2934D01*
X332Y2954D01*
X337Y2977D01*
Y2986D01*
D02*
G37*
G36*
X190D02*
X93D01*
Y2977D01*
X98Y2954D01*
X111Y2934D01*
X131Y2921D01*
X154Y2916D01*
X190D01*
Y2986D01*
D02*
G37*
G36*
X150Y2126D02*
X129Y2122D01*
X110Y2110D01*
X98Y2092D01*
X94Y2070D01*
X98Y2049D01*
X110Y2030D01*
X129Y2018D01*
X150Y2014D01*
X171Y2018D01*
X190Y2030D01*
X202Y2049D01*
X206Y2070D01*
X202Y2092D01*
X190Y2110D01*
X171Y2122D01*
X150Y2126D01*
D02*
G37*
G36*
X412Y1360D02*
X407Y1359D01*
X379Y1348D01*
X355Y1329D01*
X336Y1305D01*
X325Y1277D01*
X324Y1272D01*
X412D01*
Y1360D01*
D02*
G37*
G36*
Y1222D02*
X324D01*
X325Y1217D01*
X336Y1189D01*
X355Y1165D01*
X379Y1146D01*
X407Y1135D01*
X412Y1134D01*
Y1222D01*
D02*
G37*
%LPD*%
D12*
X7146Y387D02*
Y556D01*
X5213Y976D02*
Y1207D01*
X5923Y976D02*
X5927Y980D01*
X5529Y1206D02*
Y1208D01*
X5213Y780D02*
X5350D01*
X3610Y6282D02*
X3849Y6043D01*
X3847Y6041D02*
X3849Y6043D01*
X3817Y6041D02*
X3847D01*
X3610Y6282D02*
Y6510D01*
X2100Y3200D02*
X2231Y3329D01*
X1173Y5437D02*
Y5862D01*
Y5437D02*
X1602Y5008D01*
X6028Y4177D02*
X6038Y4187D01*
X4976Y666D02*
X5033Y724D01*
X4966Y656D02*
X4976Y666D01*
X5008Y334D02*
X5107Y433D01*
X4676Y334D02*
X5008D01*
X4340Y670D02*
X4676Y334D01*
X4993Y375D02*
X5063Y445D01*
X4692Y375D02*
X4993D01*
X4354Y713D02*
X4692Y375D01*
X5133Y518D02*
X5213D01*
X5107Y493D02*
X5133Y518D01*
X5128Y584D02*
X5213D01*
X5063Y519D02*
X5128Y584D01*
X5116Y714D02*
X5213D01*
X5008Y540D02*
X5119Y650D01*
X4670Y540D02*
X5008D01*
X4232Y978D02*
X4670Y540D01*
X4987Y585D02*
X5116Y714D01*
X4682Y585D02*
X4987D01*
X4247Y1020D02*
X4682Y585D01*
X5119Y650D02*
X5213D01*
X5797Y584D02*
X5994D01*
X7549Y859D02*
X7550D01*
X5797Y650D02*
X5987D01*
X5797Y714D02*
X6033D01*
X6181Y849D02*
X6206Y874D01*
X6084D02*
X6181D01*
X5797Y780D02*
X5990D01*
X6084Y874D01*
X5767Y843D02*
X5797D01*
X5764D02*
X5767D01*
X5718D02*
X5764D01*
X5765Y842D01*
X5762Y845D02*
X5764Y843D01*
X5662Y899D02*
Y1203D01*
Y899D02*
X5718Y843D01*
X5765Y842D02*
X5767Y843D01*
X5797Y976D02*
X5923D01*
X4966Y1022D02*
X4966Y1022D01*
X6150Y270D02*
X7301D01*
X6028Y392D02*
X6150Y270D01*
X6028Y392D02*
Y550D01*
X5994Y584D02*
X6028Y550D01*
X5987Y650D02*
X6069Y568D01*
Y414D02*
Y568D01*
Y414D02*
X6172Y310D01*
X6033Y714D02*
X6069Y678D01*
X3520Y5597D02*
X4437Y4680D01*
X3520Y5597D02*
Y5790D01*
X4437Y4680D02*
X4534D01*
X4087Y5717D02*
X4230Y5573D01*
X4087Y5717D02*
X4088Y5717D01*
X4088D01*
X3430Y5880D02*
X3520Y5790D01*
X4230Y5110D02*
Y5573D01*
X1602Y4350D02*
Y5008D01*
Y4350D02*
X1775Y4177D01*
X3961Y4172D02*
Y4626D01*
Y4172D02*
X4130Y4003D01*
X3108Y4194D02*
X3658D01*
X3000Y4086D02*
X3108Y4194D01*
X3042Y1020D02*
X4247D01*
X2619Y1443D02*
X3042Y1020D01*
X2717Y978D02*
X4232D01*
X2619Y1076D02*
X2717Y978D01*
X2780Y2430D02*
X3097Y2747D01*
X2782Y2430D02*
X2800Y2448D01*
X2780Y2430D02*
X2782D01*
X1140Y1980D02*
X2470D01*
X840Y1680D02*
X1140Y1980D01*
X1160Y1940D02*
X2500D01*
X890Y1670D02*
X1160Y1940D01*
X932Y1652D02*
X1180Y1900D01*
X932Y322D02*
Y1652D01*
X760Y150D02*
X932Y322D01*
X1180Y1900D02*
X2530D01*
X890Y510D02*
Y1670D01*
X698Y318D02*
X890Y510D01*
X840Y1494D02*
Y1680D01*
X4308Y3792D02*
X4308Y3792D01*
X4297Y3483D02*
Y3792D01*
X4379Y2749D02*
X4620Y2990D01*
X3239Y2749D02*
X4379D01*
X2470Y1980D02*
X3239Y2749D01*
X2530Y1900D02*
X3070Y2440D01*
X5450D01*
X5500Y2490D01*
X5340Y2480D02*
X5480Y2620D01*
X3040Y2480D02*
X5340D01*
X2500Y1940D02*
X3040Y2480D01*
X616Y150D02*
X760D01*
X520Y246D02*
X616Y150D01*
X685Y1338D02*
X840Y1494D01*
X685Y1334D02*
Y1338D01*
X520Y246D02*
Y400D01*
X685Y565D01*
Y572D01*
Y318D02*
X698D01*
X2450Y880D02*
Y1274D01*
X2619Y1443D01*
X2380Y810D02*
X2450Y880D01*
X2378Y812D02*
X2380Y810D01*
X2373Y812D02*
X2378D01*
X2619Y346D02*
X2942Y670D01*
X4340D01*
X2619Y713D02*
X4354D01*
X3226Y558D02*
X3235Y567D01*
X3226Y546D02*
Y558D01*
X5107Y433D02*
Y493D01*
X5063Y445D02*
Y519D01*
X7576Y1074D02*
X7578Y1073D01*
X7550Y1074D02*
X7576D01*
X8382Y683D02*
X8496D01*
X7951D02*
X8064D01*
X7807Y810D02*
X7951D01*
X7673Y676D02*
X7807Y810D01*
X7549Y676D02*
X7673D01*
X8380Y810D02*
X8496D01*
X8316Y874D02*
X8380Y810D01*
X7550Y874D02*
X8316D01*
X7410Y621D02*
X7465Y676D01*
X7549D01*
X7410Y379D02*
Y621D01*
X7301Y270D02*
X7410Y379D01*
X7360Y774D02*
X7461Y874D01*
X7550D01*
X7360Y390D02*
Y774D01*
X7280Y310D02*
X7360Y390D01*
X6172Y310D02*
X7280D01*
X7032Y683D02*
X7146D01*
X6069Y678D02*
X6179D01*
X7146Y556D02*
X7146Y556D01*
X8496Y556D02*
X8497Y555D01*
Y387D02*
Y555D01*
X7239Y390D02*
X7239Y390D01*
X7260D01*
X7037Y810D02*
X7146D01*
X6974Y874D02*
X7037Y810D01*
X6206Y874D02*
X6974D01*
X6601Y683D02*
X6714D01*
X6300Y1070D02*
X6302Y1072D01*
Y1077D01*
X6467Y810D02*
X6600D01*
X6601Y810D01*
X6336Y678D02*
X6467Y810D01*
X6179Y678D02*
X6336D01*
X6181Y849D02*
Y874D01*
X6181Y849D02*
X6181Y849D01*
X5795Y780D02*
X5795Y780D01*
X5795Y780D02*
X5797D01*
X5677Y520D02*
X5795D01*
X5797Y518D01*
X5350Y780D02*
X5352Y782D01*
X5797Y909D02*
Y976D01*
X5033Y769D02*
X5108Y843D01*
X5033Y724D02*
Y769D01*
X5108Y843D02*
X5213D01*
X4966Y1022D02*
X5078Y909D01*
X5213D01*
X6150Y4050D02*
X6373D01*
X6418Y4005D01*
X6028Y3928D02*
X6150Y4050D01*
X6028Y3650D02*
Y3928D01*
X5760Y5209D02*
Y5640D01*
X5555Y5004D02*
X5760Y5209D01*
X5555Y4895D02*
Y5004D01*
X6647Y5277D02*
X7269D01*
X5354Y4466D02*
Y4594D01*
X6310Y4940D02*
X6647Y5277D01*
X7256Y5817D02*
X7277Y5838D01*
X5420Y4520D02*
X5510Y4430D01*
X6937Y5817D02*
X7256D01*
X6640Y5520D02*
X6937Y5817D01*
X7267Y6243D02*
Y6343D01*
X7108Y6709D02*
X7277Y6878D01*
X7108Y6175D02*
Y6709D01*
X7823Y4425D02*
X8088Y4689D01*
X6028Y4177D02*
Y4339D01*
X6114Y4425D01*
X7823D01*
X6270Y5580D02*
X6603D01*
X6573Y5640D02*
X7108Y6175D01*
X6250Y5640D02*
X6573D01*
X6603Y5580D02*
X7267Y6243D01*
X10560Y7102D02*
X10560Y7102D01*
X10555Y7102D02*
X10560D01*
X4873Y4582D02*
X4945D01*
X4705Y4750D02*
X4873Y4582D01*
X4705Y4750D02*
Y5526D01*
X5129Y5950D01*
X4945Y4582D02*
X4955Y4572D01*
X4911Y4909D02*
Y4991D01*
X5383Y5463D01*
Y5950D01*
X4910Y4910D02*
X4911Y4909D01*
X5510Y5823D02*
X5637Y5950D01*
X5510Y5501D02*
Y5823D01*
X4980Y4971D02*
X5510Y5501D01*
X4980Y4647D02*
Y4971D01*
Y4647D02*
X5055Y4572D01*
X5755Y5793D02*
X5891Y5929D01*
Y5950D01*
X5682Y5793D02*
X5755D01*
X5560Y5672D02*
X5682Y5793D01*
X5560Y5460D02*
Y5672D01*
X5058Y4958D02*
X5560Y5460D01*
X5058Y4913D02*
Y4958D01*
X5055Y4910D02*
X5058Y4913D01*
X5655Y5635D02*
X5730Y5710D01*
X5655Y5361D02*
Y5635D01*
X5205Y4911D02*
X5655Y5361D01*
X5710Y5750D02*
X5945D01*
X5610Y5650D02*
X5710Y5750D01*
X5610Y5417D02*
Y5650D01*
X5129Y4936D02*
X5610Y5417D01*
X5129Y4609D02*
Y4936D01*
X5945Y5750D02*
X6145Y5950D01*
X5129Y4609D02*
X5155Y4583D01*
Y4572D02*
Y4583D01*
X5730Y5710D02*
X6159D01*
X6399Y5950D01*
X6090Y4940D02*
X6310D01*
X5980Y4830D02*
X6090Y4940D01*
X5980Y4510D02*
Y4830D01*
X5860Y4390D02*
X5980Y4510D01*
X5430Y4390D02*
X5860D01*
X5354Y4466D02*
X5430Y4390D01*
X5354Y4594D02*
X5354D01*
X6300Y5520D02*
X6640D01*
X6190Y5410D02*
X6300Y5520D01*
X6190Y5100D02*
Y5410D01*
X5930Y4840D02*
X6190Y5100D01*
X5930Y4530D02*
Y4840D01*
X5830Y4430D02*
X5930Y4530D01*
X5510Y4430D02*
X5830D01*
X5420Y4520D02*
X5421D01*
X6130Y5440D02*
X6270Y5580D01*
X6130Y5100D02*
Y5440D01*
X5880Y4850D02*
X6130Y5100D01*
X5880Y4580D02*
Y4850D01*
X5790Y4490D02*
X5880Y4580D01*
X5557Y4490D02*
X5790D01*
X5527Y4520D02*
X5557Y4490D01*
X5520Y4520D02*
X5527D01*
X6070Y5460D02*
X6250Y5640D01*
X6070Y5100D02*
Y5460D01*
X5830Y4860D02*
X6070Y5100D01*
X5830Y4590D02*
Y4860D01*
X5770Y4530D02*
X5830Y4590D01*
X5662Y4530D02*
X5770D01*
X5590Y4603D02*
X5662Y4530D01*
X5588Y4600D02*
X5590Y4603D01*
X5580Y4600D02*
X5588D01*
X5705Y4600D02*
Y4980D01*
X4990Y3900D02*
X5000Y3890D01*
X5010Y3880D01*
X5000Y3890D02*
Y3900D01*
Y3820D02*
Y3890D01*
X4930Y3750D02*
X5000Y3820D01*
X4930Y3008D02*
Y3750D01*
X4880Y3088D02*
Y3850D01*
X4640Y2848D02*
X4880Y3088D01*
X4770Y2848D02*
X4930Y3008D01*
X4050Y3250D02*
X4050Y3250D01*
Y3242D02*
Y3250D01*
X4905Y2560D02*
Y2850D01*
Y2555D02*
X4910Y2550D01*
X4905Y2555D02*
Y2560D01*
X4590Y2110D02*
Y2180D01*
Y2110D02*
X4640Y2060D01*
Y1910D02*
Y2060D01*
X4590Y1860D02*
X4640Y1910D01*
X4590Y1580D02*
Y1860D01*
X3956Y1590D02*
Y1698D01*
X3576Y2078D02*
X3956Y1698D01*
X3576Y2078D02*
Y2164D01*
X3781Y1949D02*
X4066Y1664D01*
X3781Y1949D02*
Y2164D01*
X4066Y1590D02*
Y1664D01*
D78*
X4820Y1838D02*
Y1842D01*
X6294Y1076D02*
X6300Y1070D01*
X7147Y388D02*
X7149Y390D01*
X5213Y1207D02*
X5216D01*
X5124D02*
X5213D01*
X5123Y1208D02*
X5124Y1207D01*
X5216D02*
X5217Y1206D01*
X5123Y1208D02*
Y1208D01*
X5927Y976D02*
Y980D01*
X10044Y2050D02*
X10224Y1870D01*
X5028Y2050D02*
X10044D01*
X4820Y1842D02*
X5028Y2050D01*
X10560Y3210D02*
X10560Y3210D01*
X10555Y3210D02*
X10560D01*
X4482Y4005D02*
Y4088D01*
X2250Y2140D02*
Y2150D01*
X7580Y1074D02*
X7663D01*
X7578Y1073D02*
X7580Y1074D01*
X7146Y387D02*
X7147Y388D01*
Y390D01*
X8497Y187D02*
X8610D01*
X8497Y387D02*
X8610D01*
X7147Y190D02*
X7260D01*
X7149Y390D02*
X7239D01*
X7549Y476D02*
X7663D01*
X7951Y937D02*
Y1021D01*
X6601Y937D02*
Y1021D01*
X6179Y478D02*
X6293D01*
X6182Y1076D02*
X6294D01*
X6181Y1077D02*
X6182Y1076D01*
X5509Y1206D02*
X5517D01*
X5417D02*
X5509D01*
X5517D02*
X5519Y1208D01*
X3950Y1588D02*
X3952Y1590D01*
X3956D01*
D79*
X7550Y1074D02*
D03*
Y874D02*
D03*
X7549Y476D02*
D03*
Y676D02*
D03*
X8497Y187D02*
D03*
Y387D02*
D03*
X7147Y190D02*
D03*
Y390D02*
D03*
X6181Y877D02*
D03*
Y1077D02*
D03*
X6179Y678D02*
D03*
Y478D02*
D03*
D86*
X5417Y1206D02*
D03*
X5217D02*
D03*
D93*
X8496Y937D02*
D03*
Y810D02*
D03*
Y683D02*
D03*
Y556D02*
D03*
X7951Y937D02*
D03*
Y810D02*
D03*
Y683D02*
D03*
Y556D02*
D03*
X7146Y937D02*
D03*
Y810D02*
D03*
Y683D02*
D03*
Y556D02*
D03*
X6601Y937D02*
D03*
Y810D02*
D03*
Y683D02*
D03*
Y556D02*
D03*
D121*
X171Y1840D02*
X300Y1969D01*
D122*
X8285Y4684D02*
D03*
D123*
X8735D02*
D03*
Y3784D02*
D03*
X8285D02*
D03*
D124*
X183Y527D02*
D03*
X437Y1247D02*
D03*
X10555Y3994D02*
D03*
Y3740D02*
D03*
Y1661D02*
D03*
Y1407D02*
D03*
Y1153D02*
D03*
X10224Y1870D02*
D03*
X9716D02*
D03*
X9970D02*
D03*
X10555Y2448D02*
D03*
Y2702D02*
D03*
Y2956D02*
D03*
Y3210D02*
D03*
Y2194D02*
D03*
Y6572D02*
D03*
Y5512D02*
D03*
Y6042D02*
D03*
Y7102D02*
D03*
Y4529D02*
D03*
Y4783D02*
D03*
X6145Y5950D02*
D03*
X5891D02*
D03*
X5637D02*
D03*
X5383D02*
D03*
X6399D02*
D03*
X5129D02*
D03*
X4875D02*
D03*
X1360Y6339D02*
D03*
Y6593D02*
D03*
Y6847D02*
D03*
X685Y1588D02*
D03*
Y1334D02*
D03*
Y1080D02*
D03*
Y826D02*
D03*
Y572D02*
D03*
Y318D02*
D03*
X2619Y346D02*
D03*
X2619Y713D02*
D03*
X2619Y1076D02*
D03*
X2619Y1443D02*
D03*
X5129Y1840D02*
D03*
X5383D02*
D03*
X5637D02*
D03*
X5891D02*
D03*
X5891Y1471D02*
D03*
X5637D02*
D03*
X5383D02*
D03*
X6746D02*
D03*
X7000D02*
D03*
X7254D02*
D03*
X8096D02*
D03*
X8350D02*
D03*
X8604D02*
D03*
D125*
X10555Y3486D02*
D03*
Y899D02*
D03*
X10555Y1940D02*
D03*
Y6318D02*
D03*
Y5258D02*
D03*
Y5788D02*
D03*
Y6848D02*
D03*
Y4275D02*
D03*
X1360Y7101D02*
D03*
D126*
X150Y4838D02*
D03*
Y4363D02*
D03*
Y3173D02*
D03*
Y3648D02*
D03*
D127*
X215Y4999D02*
D03*
Y4201D02*
D03*
Y3011D02*
D03*
Y3809D02*
D03*
D128*
X515Y4377D02*
D03*
Y4822D02*
D03*
Y3632D02*
D03*
Y3187D02*
D03*
D129*
X6653Y5950D02*
D03*
X5129Y1471D02*
D03*
X6492D02*
D03*
X7842D02*
D03*
D130*
X2100Y3200D02*
D03*
X1980Y3219D02*
D03*
X4338Y2930D02*
D03*
X4430Y3238D02*
D03*
X215Y4600D02*
D03*
Y3410D02*
D03*
X635Y4470D02*
D03*
Y3280D02*
D03*
X2231Y3329D02*
D03*
X5123Y1208D02*
D03*
X5927Y976D02*
D03*
X5662Y1203D02*
D03*
X4820Y1838D02*
D03*
X3889Y7420D02*
D03*
X3635D02*
D03*
X3327Y7598D02*
D03*
X3390Y7000D02*
D03*
X3260D02*
D03*
X3440Y6650D02*
D03*
X3816Y6740D02*
D03*
X3478Y6520D02*
D03*
X4088Y5717D02*
D03*
X3974Y5260D02*
D03*
X3847Y6041D02*
D03*
X3170Y5563D02*
D03*
X3278Y5267D02*
D03*
X3610Y6510D02*
D03*
X3443Y6299D02*
D03*
Y6039D02*
D03*
X4534Y4680D02*
D03*
X3430Y5880D02*
D03*
X3170Y5727D02*
D03*
X3280Y6018D02*
D03*
X3400Y5640D02*
D03*
X3795Y5887D02*
D03*
X3974Y6020D02*
D03*
X4230Y5110D02*
D03*
X1173Y5862D02*
D03*
X1775Y4177D02*
D03*
X2240Y4666D02*
D03*
X2619Y4800D02*
D03*
X3534Y5042D02*
D03*
X3340Y5040D02*
D03*
X3961Y4626D02*
D03*
X3658Y4194D02*
D03*
X3000Y4086D02*
D03*
X4130Y4003D02*
D03*
X4480Y3868D02*
D03*
X1490Y2530D02*
D03*
X1170Y2530D02*
D03*
X2780Y2430D02*
D03*
X3097Y2747D02*
D03*
X4297Y3922D02*
D03*
X2225Y3485D02*
D03*
X3630Y3530D02*
D03*
X4297Y3792D02*
D03*
X4297Y3483D02*
D03*
X2008Y5481D02*
D03*
X2204Y5862D02*
D03*
X2084Y6162D02*
D03*
X2740Y6530D02*
D03*
X1940D02*
D03*
X1930Y6911D02*
D03*
X2750D02*
D03*
X655Y7695D02*
D03*
Y7472D02*
D03*
X1107Y4372D02*
D03*
Y4827D02*
D03*
X978Y4400D02*
D03*
X657Y5960D02*
D03*
X655Y5306D02*
D03*
X2340Y2500D02*
D03*
X2250D02*
D03*
X2340Y2150D02*
D03*
X2250D02*
D03*
X150Y2070D02*
D03*
X1180Y2965D02*
D03*
X1640Y2870D02*
D03*
X2419Y2970D02*
D03*
X2416Y2770D02*
D03*
X1180Y3219D02*
D03*
X4620Y2990D02*
D03*
X5500Y2490D02*
D03*
X5480Y2620D02*
D03*
X1650Y162D02*
D03*
X2060Y538D02*
D03*
X2373Y812D02*
D03*
X1942Y888D02*
D03*
X2155Y1001D02*
D03*
X2136Y1443D02*
D03*
X1650Y839D02*
D03*
X3226Y546D02*
D03*
X4322Y2660D02*
D03*
X8382Y683D02*
D03*
X8064D02*
D03*
X8610Y187D02*
D03*
Y387D02*
D03*
X7260Y390D02*
D03*
Y190D02*
D03*
X7032Y683D02*
D03*
X7951Y1021D02*
D03*
X7663Y1074D02*
D03*
X6714Y683D02*
D03*
X6601Y1021D02*
D03*
X6293Y478D02*
D03*
X6302Y1077D02*
D03*
X5509Y1206D02*
D03*
X6055Y2602D02*
D03*
X6178Y2915D02*
D03*
X9190Y1483D02*
D03*
X9322Y1344D02*
D03*
X9190Y1057D02*
D03*
X6028Y3650D02*
D03*
X5870Y4250D02*
D03*
Y4320D02*
D03*
X5940Y4250D02*
D03*
Y4320D02*
D03*
X9990Y2954D02*
D03*
X9990Y2702D02*
D03*
X9286Y2195D02*
D03*
X9286Y2449D02*
D03*
X7538Y2602D02*
D03*
X7400Y2805D02*
D03*
Y3185D02*
D03*
X8615Y2740D02*
D03*
X8143D02*
D03*
X8088Y4689D02*
D03*
X7688Y4689D02*
D03*
X7880Y3980D02*
D03*
X6028Y4177D02*
D03*
X6870Y3820D02*
D03*
X6568Y3697D02*
D03*
X7267Y6343D02*
D03*
X7267Y5817D02*
D03*
X7269Y5278D02*
D03*
X7790Y5571D02*
D03*
X7790Y6113D02*
D03*
X7793Y6638D02*
D03*
X9103Y5514D02*
D03*
X9417Y5388D02*
D03*
Y5918D02*
D03*
Y6448D02*
D03*
X9103Y7104D02*
D03*
X9417Y6978D02*
D03*
X9985Y4326D02*
D03*
X9985Y3536D02*
D03*
X9115Y3447D02*
D03*
X9115Y4237D02*
D03*
X9113Y4030D02*
D03*
X9108Y4820D02*
D03*
X10370Y4529D02*
D03*
X10370Y3740D02*
D03*
X9790Y3738D02*
D03*
X9790Y4527D02*
D03*
X9405Y3933D02*
D03*
X9398Y4722D02*
D03*
X7788Y7173D02*
D03*
X9417Y6978D02*
D03*
Y6448D02*
D03*
Y5918D02*
D03*
X9103Y6044D02*
D03*
Y6574D02*
D03*
Y7104D02*
D03*
X7947Y7100D02*
D03*
Y6570D02*
D03*
X7937Y6041D02*
D03*
Y5508D02*
D03*
X4955Y4572D02*
D03*
X4910Y4910D02*
D03*
X5055Y4572D02*
D03*
X5055Y4910D02*
D03*
X5155Y4572D02*
D03*
X5205Y4911D02*
D03*
X7277Y6878D02*
D03*
X6968Y4843D02*
D03*
X6566D02*
D03*
X6280Y5005D02*
D03*
X5580Y4600D02*
D03*
X5520Y4520D02*
D03*
X5421D02*
D03*
X5354Y4594D02*
D03*
X5555Y4895D02*
D03*
X6278Y5388D02*
D03*
X4473Y5093D02*
D03*
X4805Y5003D02*
D03*
X4603Y5383D02*
D03*
X4803Y5385D02*
D03*
X5760Y5640D02*
D03*
X5940Y5530D02*
D03*
X5705Y4980D02*
D03*
Y4600D02*
D03*
X5677Y520D02*
D03*
X5326Y782D02*
D03*
X4976Y666D02*
D03*
X4966Y1022D02*
D03*
X5000Y3900D02*
D03*
X4880Y3850D02*
D03*
X4640Y2848D02*
D03*
X4770D02*
D03*
X4050Y3242D02*
D03*
Y3042D02*
D03*
X4905Y2560D02*
D03*
Y2850D02*
D03*
X4590Y2180D02*
D03*
X882Y2585D02*
D03*
X884Y2225D02*
D03*
X6550Y1843D02*
D03*
X7200Y1843D02*
D03*
X8550D02*
D03*
X7890D02*
D03*
X9599Y740D02*
D03*
X7663Y476D02*
D03*
X4974Y829D02*
D03*
X4973Y463D02*
D03*
X1514Y1443D02*
D03*
X1537Y475D02*
D03*
X3050Y446D02*
D03*
X3049Y812D02*
D03*
Y1543D02*
D03*
X3050Y1178D02*
D03*
X4590Y1580D02*
D03*
X3534Y1970D02*
D03*
X3781Y2184D02*
D03*
X3576Y2184D02*
D03*
X4066Y1590D02*
D03*
X3956D02*
D03*
X4528Y1970D02*
D03*
X3940Y1970D02*
D03*
X3626Y1590D02*
D03*
X4590Y2570D02*
D03*
X4180D02*
D03*
X3980D02*
D03*
X3780D02*
D03*
X3576Y2570D02*
D03*
X3376Y2570D02*
D03*
X3172Y2570D02*
D03*
D131*
X5213Y976D02*
D03*
Y909D02*
D03*
Y843D02*
D03*
Y780D02*
D03*
Y714D02*
D03*
Y650D02*
D03*
Y584D02*
D03*
Y518D02*
D03*
X5797D02*
D03*
Y584D02*
D03*
Y650D02*
D03*
Y714D02*
D03*
Y780D02*
D03*
Y843D02*
D03*
Y909D02*
D03*
Y976D02*
D03*
D132*
X4482Y4005D02*
D03*
X6418D02*
D03*
M02*
