M48
;Layer_Color=9474304
;FILE_FORMAT=4:2
METRIC,LZ
;TYPE=PLATED
T1F00S00C0.30
T4F00S00C0.80
T5F00S00C0.90
T6F00S00C1.00
T7F00S00C3.00
;TYPE=NON_PLATED
%
T01
X008064Y000683
X008382
X00861Y000387
Y000187
X00919Y001057
X009322Y001344
X00919Y001483
X009599Y00074
X007951Y001021
X007663Y001074
X007663Y000476
X00726Y00039
Y00019
X007032Y000683
X006714
X006601Y001021
X006302Y001077
X005927Y000976
X005662Y001203
X005509Y001206
X005123Y001208
X004966Y001022
X004974Y000829
X004976Y000666
X004973Y000463
X005326Y000782
X005677Y00052
X006293Y000478
X00459Y00158
X004066Y00159
X003956
X003626
X003049Y001543
X00305Y001178
X003049Y000812
X00305Y000446
X003226Y000546
X002373Y000812
X002155Y001001
X001942Y000888
X00165Y000839
X001537Y000475
X00165Y000162
X00206Y000538
X002136Y001443
X001514
X00149Y00253
X00117Y00253
X000882Y002585
X000884Y002225
X00015Y00207
X000215Y00341
X000635Y00328
X00118Y003219
Y002965
X00164Y00287
X00198Y003219
X0021Y0032
X002231Y003329
X002225Y003485
X002419Y00297
X002416Y00277
X00234Y0025
X00225
Y00215
X00234
X00278Y00243
X003172Y00257
X003376Y00257
X003576Y00257
Y002184
X003534Y00197
X003097Y002747
X00363Y00353
X003658Y004194
X003Y004086
X002619Y0048
X00224Y004666
X001775Y004177
X001107Y004372
X000978Y0044
X000635Y00447
X000215Y0046
X001107Y004827
X000655Y005306
X002008Y005481
X00317Y005563
X003278Y005267
X00334Y00504
X003534Y005042
X003974Y00526
X00423Y00511
X004473Y005093
X004603Y005383
X004803Y005385
X004805Y005003
X00491Y00491
X005055Y00491
X005205Y004911
X005555Y004895
X005705Y00498
Y0046
X00558Y0046
X00552Y00452
X005421
X005354Y004594
X005155Y004572
X005055
X004955
X004534Y00468
X003961Y004626
X00413Y004003
X004297Y003922
X004297Y003792
X00448Y003868
X00488Y00385
X005Y0039
X004297Y003483
X00443Y003238
X00405Y003242
Y003042
X004338Y00293
X004322Y00266
X00418Y00257
X00398
X00378
X003781Y002184
X00394Y00197
X004528Y00197
X00459Y00218
Y00257
X004905Y00256
Y00285
X00477Y002848
X00464
X00462Y00299
X00548Y00262
X0055Y00249
X006055Y002602
X006178Y002915
X006028Y00365
Y004177
X00594Y00425
X00587
Y00432
X00594
X00628Y005005
X006278Y005388
X00594Y00553
X006566Y004843
X006968
X007269Y005278
X00687Y00382
X006568Y003697
X0074Y003185
Y002805
X007538Y002602
X0072Y001843
X00655Y001843
X00482Y001838
X00789Y001843
X00855
X008615Y00274
X008143
X009286Y002449
X009286Y002195
X00999Y002702
X00999Y002954
X009985Y003536
X00979Y003738
X009405Y003933
X009113Y00403
X009115Y004237
X009108Y00482
X009398Y004722
X00979Y004527
X009985Y004326
X01037Y004529
X01037Y00374
X009115Y003447
X00788Y00398
X007688Y004689
X008088Y004689
X007937Y005508
X00779Y005571
X009103Y005514
X009417Y005388
Y005918
Y005918
X009103Y006044
Y006574
X009417Y006448
Y006448
Y006978
Y006978
X009103Y007104
Y007104
X007947Y0071
X007788Y007173
X007793Y006638
X007947Y00657
X007937Y006041
X00779Y006113
X007267Y006343
X007267Y005817
X007277Y006878
X00576Y00564
X004088Y005717
X003974Y00602
X003847Y006041
X003795Y005887
X003816Y00674
X003889Y00742
X003635
X003327Y007598
X00339Y007
X00326
X00344Y00665
X003478Y00652
X00361Y00651
X003443Y006299
Y006039
X00343Y00588
X0034Y00564
X00317Y005727
X00328Y006018
X00274Y00653
X00275Y006911
X00193
X00194Y00653
X002084Y006162
X002204Y005862
X001173
X000657Y00596
X000655Y007472
Y007695
T04
X004875Y00595
X005129
T05
X002619Y000346
X002619Y000713
X002619Y001076
X002619Y001443
X009716Y00187
X00997
X010224
T06
X007842Y001471
X008096
X00835
X008604
X010555Y001407
Y001153
Y000899
Y001661
X007254Y001471
X007
X006746
X006492
X005891
X005637
X005383
X005129
X000685Y001588
Y001334
Y00108
Y000826
Y000572
Y000318
X000183Y000527
X000437Y001247
X005129Y00184
X005383
X005637
X005891
X008285Y003784
X008735
Y004684
X008285
X010555Y004783
Y004529
Y004275
X010555Y003994
Y00374
Y003486
X010555Y00321
Y002956
Y002702
Y002448
Y002194
Y00194
Y005258
Y005512
Y005788
Y006042
Y006318
Y006572
Y006848
Y007102
X006653Y00595
X006399
X006145
X005891
X005637
X005383
X00136Y006339
Y006593
Y006847
Y007101
T07
X010855Y000375
X001155
X010855Y007625
X001155
M30
