M48
;Layer_Color=9474304
;FILE_FORMAT=4:2
METRIC,LZ
;TYPE=PLATED
T2F00S00C0.60
T3F00S00C0.65
;TYPE=NON_PLATED
T8F00S00C0.85
T9F00S00C1.00
%
G90
G05
T02
G00X00018Y002992
M15
G01X00025
M16
G00X00025Y003828
M15
G01X00018
M16
G00X00018Y004182
M15
G01X00025
M16
G00X00025Y005018
M15
G01X00018
M16
T03
G00X000505Y003187
M15
G01X000525
M16
G00X000505Y003632
M15
G01X000525
M16
G00X000505Y004377
M15
G01X000525
M16
G00X000505Y004822
M15
G01X000525
M16
T08
G00X000071Y003173
M15
G01X000229
M16
G00X000071Y003648
M15
G01X000229
M16
G00X000071Y004363
M15
G01X000229
M16
G00X000071Y004838
M15
G01X000229
M16
T09
G00X001155Y000803
M15
G01Y001703
M16
G00X00235Y001176
M15
G01Y000976
M16
G00X00235Y000439
M15
G01Y000239
M16
G00X00235Y00177
M15
G01Y00157
M16
G00X002067Y00176
M15
G01X001467
M16
M17
M30
